<svg width="300" height="306" viewBox="0 0 300 306" fill="none" xmlns="http://www.w3.org/2000/svg">
<path d="M248.145 81.0779C124.825 -87.204 -15.1316 47.9461 20.701 116.004C31.9859 137.402 40.0134 146.927 104.349 132.432C221.968 105.927 251.17 217.608 279.208 229.205C307.245 240.663 280.604 125.254 248.145 81.0779Z" fill="#FAFAFA"/>
<path d="M296.555 243.312C283.298 234.474 54.9078 227.264 17.3467 248.196C11.6486 251.452 4.43869 252.498 8.04363 256.685C11.6486 260.871 37.3483 258.08 43.7441 276.57C50.14 295.06 89.9106 315.178 124.099 300.06C158.288 285.059 198.989 313.317 241.202 298.083C283.414 282.85 309.812 252.15 296.555 243.312Z" fill="#FAFAFA"/>
<path d="M45.3721 230.985H46.6512L46.4187 242.614H45.3721V230.985Z" fill="#6477A4"/>
<path d="M51.7684 222.263C51.0707 221.682 33.6274 205.751 35.7206 185.749C37.8138 165.747 54.4431 160.747 49.7915 137.489C45.0237 114.115 49.7915 98.0676 64.2113 97.835C78.631 97.6024 85.2594 111.673 79.9102 136.675C74.5609 161.677 97.586 171.445 96.4231 189.703C95.0277 210.751 78.3984 245.405 51.7684 222.263Z" fill="#6CA882"/>
<path opacity="0.2" d="M74.0959 100.975C73.8633 102.138 73.1656 103.184 72.119 103.649C71.1887 104.115 70.0258 103.998 68.9792 103.766C67.0023 103.417 65.1417 102.719 63.1648 102.952C62.1182 103.068 61.1879 103.533 60.3739 103.998C59.4436 104.463 58.5133 105.045 57.583 105.743C55.9549 107.022 54.4432 108.65 53.5129 110.51C52.35 112.604 52.0011 114.929 51.8849 117.255C51.7686 120.046 52.1174 122.721 51.536 125.395C51.1871 127.14 50.6057 129.117 49.4428 130.512C49.2102 130.745 48.9776 130.977 48.6288 131.21C45.8378 111.324 50.9545 97.9513 64.0951 97.7187C68.0489 97.7187 71.4213 98.649 74.0959 100.742C74.2122 100.858 74.2122 100.975 74.0959 100.975Z" fill="#F2FAFF"/>
<path d="M63.8623 181.446C65.8392 177.725 65.8392 173.19 64.7926 169.236C64.2112 167.143 63.2809 165.05 62.2343 163.189C61.7691 162.375 61.304 161.677 60.9551 160.863C60.7225 160.282 60.7225 159.817 60.9551 159.235C61.304 158.189 61.8854 157.258 62.3506 156.212C62.8158 155.165 63.1646 154.119 63.5135 153.072C64.2112 150.862 64.5601 148.653 64.6764 146.443C64.7927 144.234 64.7927 141.908 64.0949 139.699C63.3972 137.722 62.118 136.21 61.304 134.35C62.4669 133.652 63.3972 132.721 64.3275 131.675C65.2578 130.396 66.0718 129.117 66.6532 127.605C66.6532 130.745 66.6532 134.001 66.6532 137.14C66.6532 149.816 66.7695 162.608 66.7695 175.283C66.7695 186.679 66.7695 197.959 66.7695 209.355C66.537 208.541 66.3044 207.727 65.9555 206.913C63.3972 199.704 59.0945 193.308 55.0244 187.028C58.7456 187.028 62.0017 184.702 63.8623 181.446Z" fill="#5B8B6D"/>
<path d="M61.4204 228.427C63.3973 228.427 65.4905 228.078 67.3511 227.148C69.328 226.217 70.7235 224.589 71.8864 222.729C72.5841 221.566 72.933 220.403 73.1655 219.124C73.3981 217.728 73.6307 216.449 74.561 215.286C76.189 213.309 78.8636 213.077 81.0731 212.03C83.1663 211.1 84.6781 209.355 85.9572 207.495C87.1201 205.634 88.0504 203.541 88.6319 201.448C89.911 196.913 90.0273 192.028 89.4459 187.493C88.8645 183.191 87.8179 178.888 85.6084 175.167C83.0501 170.631 79.6777 166.561 77.3519 162.026C76.189 159.817 75.375 157.375 74.9099 154.816C74.4447 151.793 74.7936 148.769 75.375 145.862C76.189 142.606 77.3519 139.466 78.5148 136.443C79.6777 133.535 80.608 130.628 81.3057 127.605C80.9569 130.512 80.4917 133.536 79.794 136.792C74.4447 161.794 97.4698 171.562 96.3069 189.819C95.2603 208.076 82.3523 236.916 61.4204 228.427Z" fill="#5B8B6D"/>
<path d="M48.0472 181.33C48.1635 181.214 48.2798 181.214 48.3961 181.33L66.6533 199.587V168.422L56.4199 157.607C56.3037 157.491 56.3037 157.375 56.4199 157.258C56.5362 157.142 56.6525 157.142 56.7688 157.258L66.6533 167.724V139.699L59.2109 132.14C59.0946 132.024 59.0946 131.907 59.2109 131.791C59.3271 131.675 59.4434 131.675 59.5597 131.791L66.6533 139.001V115.162C66.6533 115.046 66.7696 114.929 66.8859 114.929C67.0022 114.929 67.1184 115.046 67.1184 115.162V148.769L72.7003 144.001C72.8166 143.885 72.9329 143.885 73.0492 144.001C73.1654 144.118 73.1654 144.234 73.0492 144.35L67.1184 149.351V180.981L78.2821 169.817C78.3984 169.701 78.5147 169.701 78.631 169.817C78.7473 169.934 78.7473 170.05 78.631 170.166L67.1184 181.679V200.285V229.473C67.1184 229.59 67.0022 229.706 66.8859 229.706C66.7696 229.706 66.6533 229.59 66.6533 229.473V200.401L48.0472 181.795C47.9309 181.563 47.9309 181.446 48.0472 181.33Z" fill="#5B8B6D"/>
<path d="M94.5621 218.426C95.0272 217.961 107.935 206.332 106.423 191.563C104.912 176.911 92.5852 173.19 96.0738 156.095C99.5625 139.001 96.0738 127.14 85.4916 127.023C74.9094 126.907 70.0253 137.14 73.9791 155.514C77.9329 173.888 61.071 180.981 61.885 194.471C62.8154 209.937 75.0256 235.404 94.5621 218.426Z" fill="#6CA882"/>
<path opacity="0.2" d="M78.165 129.233C78.3976 130.047 78.8628 130.861 79.5605 131.21C80.2582 131.559 81.0723 131.442 81.8863 131.326C83.2817 131.093 84.6772 130.512 86.189 130.745C86.8867 130.861 87.5844 131.21 88.2821 131.442C88.9799 131.791 89.6776 132.256 90.3753 132.722C91.5382 133.652 92.7011 134.815 93.3988 136.21C94.2128 137.722 94.5617 139.466 94.5617 141.211C94.5617 143.187 94.4454 145.281 94.7943 147.258C95.0269 148.537 95.492 150.048 96.4223 151.095C96.6549 151.328 96.7712 151.444 97.0038 151.56C98.9807 136.908 95.2594 127.14 85.6075 127.023C82.584 126.907 80.1419 127.721 78.165 129.233Z" fill="#F2FAFF"/>
<path d="M85.7242 188.307C84.2125 185.633 84.2125 182.26 85.0265 179.353C85.4917 177.841 86.0731 176.33 86.8871 174.818C87.236 174.236 87.5848 173.655 87.8174 173.074C88.05 172.608 87.9337 172.26 87.8174 171.794C87.5848 171.097 87.1197 170.283 86.7708 169.585C86.422 168.887 86.1894 168.073 85.8405 167.375C85.2591 165.747 85.0265 164.119 84.9102 162.491C84.7939 160.863 84.7939 159.119 85.3754 157.491C85.8405 156.095 86.8871 154.933 87.3523 153.537C86.5382 153.072 85.7242 152.374 85.1428 151.56C84.445 150.63 83.8636 149.7 83.5147 148.537C83.5147 150.862 83.5147 153.188 83.5147 155.63C83.5147 164.933 83.3984 174.353 83.3984 183.656C83.3984 192.029 83.3984 200.285 83.3984 208.658C83.5147 208.076 83.7473 207.495 83.9799 206.913C85.8405 201.68 88.9803 196.913 92.0038 192.261C89.5617 192.494 87.0034 190.749 85.7242 188.307Z" fill="#5B8B6D"/>
<path d="M87.5848 222.845C86.073 222.845 84.5613 222.612 83.2821 221.915C81.8867 221.217 80.7238 220.054 80.026 218.659C79.5609 217.845 79.212 217.031 79.0957 215.984C78.8632 214.937 78.7469 214.007 78.0491 213.193C76.8863 211.798 74.9094 211.565 73.2813 210.867C71.7696 210.17 70.6067 208.89 69.6764 207.495C68.7461 206.099 68.1646 204.588 67.6995 203.076C66.7692 199.704 66.6529 196.215 67.118 192.843C67.4669 189.703 68.3972 186.563 69.909 183.772C71.7696 180.4 74.2116 177.493 75.9559 174.12C76.77 172.492 77.4677 170.632 77.7003 168.887C78.0491 166.678 77.8166 164.468 77.3514 162.259C76.77 159.817 75.956 157.607 75.0256 155.281C74.2116 153.188 73.3976 150.979 72.9324 148.769C73.165 150.863 73.5139 153.072 73.9791 155.514C77.9329 173.888 61.071 180.981 61.885 194.471C62.6991 207.96 72.1184 229.125 87.5848 222.845Z" fill="#5B8B6D"/>
<path d="M97.3532 188.307C97.2369 188.191 97.2369 188.191 97.1206 188.307L83.6312 201.797V178.888L91.0736 170.98C91.1899 170.864 91.0736 170.864 91.0736 170.748C90.9573 170.632 90.9574 170.748 90.8411 170.748L83.6312 178.423V157.84L89.0968 152.258C89.213 152.142 89.213 152.142 89.0968 152.025C88.9805 151.909 88.9804 151.909 88.8642 152.025L83.6312 157.375V139.699C83.6312 139.583 83.5149 139.583 83.5149 139.583L83.3986 139.699V164.352L79.2122 160.863C79.096 160.863 79.0959 160.863 78.9797 160.863C78.9797 160.98 78.9797 160.98 78.9797 161.096L83.2823 164.817V188.075L75.0259 179.818C74.9096 179.702 74.9096 179.702 74.7933 179.818C74.677 179.935 74.677 179.935 74.7933 180.051L83.166 188.424V202.146V223.543C83.166 223.659 83.2823 223.659 83.2823 223.659L83.3986 223.543V202.146L97.1206 188.424C97.4695 188.424 97.4695 188.307 97.3532 188.307Z" fill="#5B8B6D"/>
<path d="M258.18 230.985H259.459L259.343 242.614H258.18V230.985Z" fill="#6477A4"/>
<path d="M39.7898 244.009C39.7898 244.009 42.3482 225.171 37.2315 227.031C31.9985 228.892 34.4406 236.451 39.7898 244.009Z" fill="#FFCA1A"/>
<path d="M40.139 243.893C40.139 243.893 29.5568 225.287 22.2306 231.683C14.9045 238.079 40.139 243.893 40.139 243.893Z" fill="#6CA882"/>
<path opacity="0.5" d="M22.5793 231.916C22.8118 232.497 23.1607 232.962 23.7422 233.195C24.5562 233.427 25.3702 233.195 26.1842 233.078C27.1145 233.078 27.9285 233.195 28.7425 233.544C29.5566 233.892 30.2543 234.474 30.8357 235.055C31.5335 235.637 32.2312 236.218 32.9289 236.567C33.6267 236.916 34.557 237.149 35.371 237.265C31.766 232.73 26.5331 228.194 22.3467 231.45C22.5793 231.567 22.5793 231.683 22.5793 231.916Z" fill="#F2FAFF"/>
<path d="M25.2543 254.126H116.657L115.378 249.591L112.238 238.776C110.028 231.101 102.47 226.334 94.6784 227.729L90.7246 228.427C90.3758 228.427 90.1432 228.543 89.7943 228.543C88.05 228.543 86.422 227.613 85.3754 226.217C78.6306 215.984 63.2806 217.263 58.1639 228.427L57.4662 229.939C56.3033 232.613 53.1635 233.776 50.4889 232.613L46.5351 230.869C44.2093 229.822 41.651 230.636 40.2555 232.381C39.6741 233.078 39.3252 233.892 39.2089 234.706L38.6275 238.079C38.5112 238.893 38.1623 239.707 37.6972 240.288C37.5809 240.404 37.4646 240.521 37.4646 240.637C36.6506 241.567 35.604 242.149 34.4411 242.381C34.0922 242.498 33.8596 242.498 33.5108 242.498C32.4642 242.498 31.5339 242.265 30.6036 241.567C28.5104 240.172 25.8357 240.521 24.0914 242.265L21.4168 244.94C17.9282 248.312 20.3702 254.126 25.2543 254.126Z" fill="#6CA882"/>
<path opacity="0.2" d="M21.6491 246.8C22.2306 245.986 22.4631 245.056 23.0445 244.358C24.2074 242.73 26.4169 242.498 28.2775 242.73C29.5567 242.963 30.7196 243.428 31.9988 243.312C33.0454 243.195 33.9757 243.079 35.0223 242.847C36.8829 242.381 38.8598 241.451 39.9064 239.707C40.9529 237.962 40.4878 235.753 41.767 234.009C43.1624 232.264 45.4882 232.381 47.3488 233.078C48.3954 233.427 49.3257 234.125 50.3723 234.474C51.6515 234.939 52.9307 234.939 54.2098 234.706C54.9076 234.59 55.489 234.358 56.0704 234.009C56.4193 233.776 56.7682 233.66 57.0007 233.311C57.4659 232.729 57.5822 232.032 57.5822 231.334C57.5822 230.869 57.4659 230.52 57.3496 230.171C56.0704 232.613 53.0469 233.66 50.6049 232.497L46.6511 230.753C44.3253 229.706 41.767 230.52 40.3715 232.264C39.7901 232.962 39.4412 233.776 39.3249 234.59L38.7435 237.962C38.6272 238.776 38.2783 239.59 37.8132 240.172C37.6969 240.288 37.5806 240.405 37.5806 240.521C36.7666 241.451 35.72 242.033 34.5571 242.265C34.2082 242.381 33.9757 242.381 33.6268 242.381C32.5802 242.381 31.6499 242.149 30.7196 241.451C28.6264 240.056 25.9518 240.404 24.2074 242.149L21.5328 244.823C20.6025 245.754 20.0211 246.917 19.9048 248.08C20.6025 247.963 21.184 247.498 21.6491 246.8Z" fill="#F2FAFF"/>
<path d="M33.2778 254.126H116.54L115.261 249.591C111.191 245.87 105.493 244.126 99.6784 245.056L96.5387 245.637L94.9106 245.87C94.5618 245.986 94.2129 245.986 93.864 245.986C93.05 245.986 92.3523 245.87 91.6545 245.521C90.4916 245.056 89.445 244.242 88.631 243.079C87.5844 241.451 86.3053 240.172 85.0261 239.009C84.4447 238.544 83.9795 238.195 83.3981 237.846C80.3746 235.869 76.8859 234.823 73.3973 234.823C71.3041 234.823 69.3272 235.055 67.3503 235.753C62.5825 237.265 58.3961 240.637 56.0703 245.87L55.2563 247.614C53.8609 250.754 50.1396 252.15 46.8835 250.754L44.4415 249.708L42.1157 248.661C41.0691 248.196 40.0225 248.079 38.976 248.079C36.3013 248.312 33.8592 250.405 33.3941 253.312L33.2778 254.126Z" fill="#5B8B6D"/>
<path d="M46.5348 239.358C47.4339 239.358 48.1628 238.629 48.1628 237.73C48.1628 236.831 47.4339 236.102 46.5348 236.102C45.6356 236.102 44.9067 236.831 44.9067 237.73C44.9067 238.629 45.6356 239.358 46.5348 239.358Z" fill="#FFCA1A"/>
<path d="M68.048 246.684C68.9471 246.684 69.676 245.955 69.676 245.056C69.676 244.157 68.9471 243.428 68.048 243.428C67.1488 243.428 66.4199 244.157 66.4199 245.056C66.4199 245.955 67.1488 246.684 68.048 246.684Z" fill="#FFCA1A"/>
<path d="M102.586 234.939C103.485 234.939 104.214 234.21 104.214 233.311C104.214 232.412 103.485 231.683 102.586 231.683C101.687 231.683 100.958 232.412 100.958 233.311C100.958 234.21 101.687 234.939 102.586 234.939Z" fill="#FFCA1A"/>
<path d="M63.6292 230.985C64.3357 230.985 64.9084 230.412 64.9084 229.706C64.9084 228.999 64.3357 228.427 63.6292 228.427C62.9228 228.427 62.3501 228.999 62.3501 229.706C62.3501 230.412 62.9228 230.985 63.6292 230.985Z" fill="#DDF3FB"/>
<path d="M94.4456 244.009C95.1521 244.009 95.7248 243.437 95.7248 242.73C95.7248 242.024 95.1521 241.451 94.4456 241.451C93.7392 241.451 93.1665 242.024 93.1665 242.73C93.1665 243.437 93.7392 244.009 94.4456 244.009Z" fill="#DDF3FB"/>
<path d="M44.6749 253.312C44.6749 253.312 52.001 244.126 48.6287 243.428C45.2563 242.73 44.2097 247.498 44.6749 253.312Z" fill="#5B8B6D"/>
<path opacity="0.5" d="M44.907 247.614C45.2559 247.498 45.4885 247.265 45.6047 247.033C45.9536 246.451 45.8373 245.637 46.1862 245.056C46.3025 244.707 46.6513 244.475 46.8839 244.358C47.2328 244.242 47.5817 244.126 47.8142 244.009C48.0468 243.893 48.1631 243.661 47.9305 243.428C46.3025 243.428 45.2559 245.056 44.907 247.614C44.7908 247.614 44.7908 247.614 44.907 247.614Z" fill="#F2FAFF"/>
<path d="M44.6743 253.313C44.6743 253.313 40.0228 240.87 34.9061 244.126C29.7894 247.266 44.6743 253.313 44.6743 253.313Z" fill="#DDF3FB"/>
<path opacity="0.2" d="M35.1387 243.893C35.1387 244.009 35.255 244.126 35.3713 244.126C35.6038 244.242 35.8364 244.126 36.069 244.126C36.5342 244.126 36.9993 244.126 37.4644 244.126C37.9296 244.242 38.3948 244.475 38.8599 244.823C39.6739 245.405 40.1391 246.219 40.8368 246.684C40.9531 246.8 41.1857 246.8 41.302 246.917C39.6739 244.591 37.4644 242.614 35.1387 243.893Z" fill="#F2FAFF"/>
<path d="M44.6743 253.313C44.6743 253.313 61.7687 251.219 57.466 248.545C53.0471 245.754 44.6743 253.313 44.6743 253.313Z" fill="#FFCA1A"/>
<path opacity="0.2" d="M50.3728 249.475C50.8379 249.359 51.1868 249.126 51.652 248.777C52.0008 248.545 52.466 248.312 52.9311 248.196C53.6289 248.08 54.2103 248.196 54.908 248.08C55.1406 248.08 55.3732 247.963 55.4895 247.731C53.7451 247.614 51.7683 248.312 50.0239 249.359C50.1402 249.475 50.2565 249.475 50.3728 249.475Z" fill="#F2FAFF"/>
<path d="M285.507 240.405C285.507 240.405 283.763 228.078 287.252 229.241C290.624 230.52 289.112 235.404 285.507 240.405Z" fill="#FFCA1A"/>
<path d="M285.274 240.288C285.274 240.288 292.252 228.078 297.02 232.264C301.787 236.451 285.274 240.288 285.274 240.288Z" fill="#6CA882"/>
<path opacity="0.5" d="M296.787 232.381C296.671 232.73 296.439 233.078 295.973 233.195C295.508 233.311 294.927 233.195 294.345 233.195C293.764 233.195 293.183 233.195 292.601 233.544C292.136 233.776 291.671 234.125 291.206 234.474C290.74 234.823 290.275 235.288 289.81 235.52C289.345 235.753 288.764 235.869 288.182 235.986C290.624 233.078 293.997 230.055 296.671 232.148C296.787 232.264 296.787 232.381 296.787 232.381Z" fill="#F2FAFF"/>
<path d="M295.044 247.033H235.155L235.969 244.009L237.946 236.916C239.342 231.915 244.342 228.776 249.459 229.706L252.017 230.171C252.25 230.171 252.366 230.171 252.599 230.171C253.761 230.171 254.808 229.59 255.506 228.659C259.925 222.031 270.042 222.845 273.298 230.171L273.763 231.101C274.577 232.846 276.554 233.66 278.298 232.846L280.857 231.683C282.368 230.985 284.113 231.567 285.043 232.729C285.392 233.195 285.624 233.66 285.741 234.241L286.09 236.451C286.206 237.032 286.438 237.497 286.671 237.962C286.671 238.079 286.787 238.079 286.787 238.195C287.369 238.776 288.066 239.242 288.764 239.358C288.997 239.358 289.229 239.358 289.346 239.358C290.043 239.358 290.625 239.125 291.206 238.776C292.602 237.846 294.346 238.079 295.509 239.242L297.253 240.986C299.812 243.195 298.184 247.033 295.044 247.033Z" fill="#6CA882"/>
<path opacity="0.2" d="M297.369 242.265C297.02 241.8 296.788 241.102 296.439 240.637C295.625 239.59 294.229 239.358 293.067 239.59C292.253 239.707 291.439 240.056 290.624 239.939C289.927 239.823 289.345 239.823 288.648 239.59C287.368 239.242 286.089 238.66 285.392 237.497C284.694 236.334 285.043 234.823 284.229 233.776C283.298 232.613 281.787 232.729 280.624 233.195C279.926 233.427 279.345 233.892 278.647 234.125C277.833 234.357 276.902 234.474 276.088 234.241C275.623 234.125 275.274 234.009 274.809 233.776C274.577 233.66 274.344 233.543 274.112 233.311C273.879 232.962 273.763 232.497 273.763 232.032C273.763 231.799 273.879 231.45 273.995 231.218C274.809 232.846 276.786 233.543 278.414 232.729L280.973 231.567C282.484 230.869 284.229 231.45 285.159 232.613C285.508 233.078 285.74 233.543 285.857 234.125L286.206 236.334C286.322 236.916 286.554 237.381 286.787 237.846C286.787 237.962 286.903 237.962 286.903 238.079C287.485 238.66 288.182 239.125 288.88 239.242C289.113 239.242 289.345 239.242 289.462 239.242C290.159 239.242 290.741 239.009 291.322 238.66C292.718 237.73 294.462 237.962 295.625 239.125L297.369 240.87C297.951 241.451 298.3 242.265 298.416 243.079C298.067 242.963 297.718 242.614 297.369 242.265Z" fill="#F2FAFF"/>
<path d="M289.81 247.033H235.155L235.969 244.009C238.643 241.567 242.365 240.404 246.202 241.102L248.179 241.451L249.226 241.684C249.458 241.684 249.691 241.684 249.923 241.684C250.389 241.684 250.97 241.567 251.435 241.451C252.249 241.102 252.947 240.637 253.412 239.823C254.11 238.776 254.924 237.846 255.738 237.148C256.087 236.8 256.436 236.567 256.784 236.334C258.761 235.055 261.087 234.357 263.297 234.357C264.692 234.357 265.971 234.474 267.25 234.939C270.39 235.869 273.065 238.195 274.577 241.567L275.158 242.73C276.088 244.823 278.53 245.754 280.624 244.823L282.252 244.126L283.763 243.428C284.461 243.079 285.159 242.963 285.856 243.079C287.601 243.195 289.229 244.591 289.578 246.451L289.81 247.033Z" fill="#5B8B6D"/>
<path d="M281.089 237.265C281.667 237.265 282.135 236.796 282.135 236.218C282.135 235.64 281.667 235.172 281.089 235.172C280.511 235.172 280.042 235.64 280.042 236.218C280.042 236.796 280.511 237.265 281.089 237.265Z" fill="#FFCA1A"/>
<path d="M267.018 242.149C267.596 242.149 268.064 241.68 268.064 241.102C268.064 240.524 267.596 240.056 267.018 240.056C266.44 240.056 265.971 240.524 265.971 241.102C265.971 241.68 266.44 242.149 267.018 242.149Z" fill="#FFCA1A"/>
<path d="M244.342 234.358C244.92 234.358 245.388 233.889 245.388 233.311C245.388 232.733 244.92 232.264 244.342 232.264C243.764 232.264 243.295 232.733 243.295 233.311C243.295 233.889 243.764 234.358 244.342 234.358Z" fill="#FFCA1A"/>
<path d="M269.925 231.799C270.375 231.799 270.739 231.435 270.739 230.985C270.739 230.536 270.375 230.171 269.925 230.171C269.476 230.171 269.111 230.536 269.111 230.985C269.111 231.435 269.476 231.799 269.925 231.799Z" fill="#DDF3FB"/>
<path d="M249.69 240.288C250.14 240.288 250.504 239.924 250.504 239.474C250.504 239.025 250.14 238.66 249.69 238.66C249.241 238.66 248.876 239.025 248.876 239.474C248.876 239.924 249.241 240.288 249.69 240.288Z" fill="#DDF3FB"/>
<path d="M282.367 246.452C282.367 246.452 277.6 240.405 279.809 239.939C281.902 239.591 282.6 242.73 282.367 246.452Z" fill="#5B8B6D"/>
<path opacity="0.5" d="M282.134 242.73C281.902 242.73 281.785 242.498 281.669 242.265C281.437 241.916 281.437 241.335 281.32 240.986C281.204 240.753 281.088 240.637 280.855 240.521C280.623 240.405 280.39 240.405 280.274 240.288C280.041 240.172 280.041 240.056 280.157 239.939C281.32 239.939 281.902 241.102 282.134 242.73C282.251 242.73 282.251 242.73 282.134 242.73Z" fill="#F2FAFF"/>
<path d="M282.367 246.451C282.367 246.451 285.39 238.311 288.763 240.404C292.019 242.498 282.367 246.451 282.367 246.451Z" fill="#DDF3FB"/>
<path opacity="0.2" d="M288.531 240.288C288.531 240.405 288.414 240.405 288.414 240.405C288.298 240.405 288.065 240.405 287.949 240.405C287.6 240.405 287.368 240.405 287.019 240.405C286.67 240.521 286.321 240.637 286.088 240.87C285.623 241.219 285.274 241.8 284.809 242.149C284.693 242.149 284.577 242.265 284.46 242.265C285.507 240.753 287.019 239.474 288.531 240.288Z" fill="#F2FAFF"/>
<path d="M282.367 246.452C282.367 246.452 271.203 245.056 273.994 243.312C276.785 241.567 282.367 246.452 282.367 246.452Z" fill="#FFCA1A"/>
<path opacity="0.2" d="M278.645 244.009C278.296 243.893 278.064 243.777 277.831 243.544C277.599 243.428 277.25 243.312 277.017 243.195C276.552 243.079 276.203 243.195 275.738 243.195C275.622 243.195 275.389 243.079 275.389 242.963C276.552 242.847 277.831 243.428 278.994 244.009C278.762 244.009 278.645 244.009 278.645 244.009Z" fill="#F2FAFF"/>
<path d="M234.69 242.963C234.69 242.963 231.783 222.147 237.481 224.124C243.295 226.217 240.621 234.59 234.69 242.963Z" fill="#FFCA1A"/>
<path d="M234.341 242.847C234.341 242.847 246.086 222.263 254.11 229.357C262.134 236.334 234.341 242.847 234.341 242.847Z" fill="#6CA882"/>
<path opacity="0.5" d="M253.645 229.473C253.413 230.171 253.064 230.636 252.366 230.869C251.552 231.101 250.505 230.869 249.691 230.753C248.645 230.753 247.714 230.869 246.9 231.334C246.086 231.799 245.272 232.381 244.575 232.962C243.877 233.543 243.063 234.241 242.249 234.706C241.435 235.172 240.505 235.288 239.574 235.404C243.644 230.404 249.342 225.403 253.994 229.008C253.761 229.241 253.645 229.357 253.645 229.473Z" fill="#F2FAFF"/>
<path d="M250.738 254.126H149.8L151.195 249.126L154.568 237.148C157.01 228.659 165.382 223.426 173.988 224.938L178.407 225.752C178.756 225.752 179.104 225.868 179.337 225.868C181.314 225.868 183.058 224.938 184.221 223.31C191.78 212.03 208.642 213.426 214.224 225.752L214.921 227.38C216.2 230.287 219.689 231.567 222.596 230.287L226.899 228.31C229.457 227.148 232.248 228.078 233.876 230.055C234.458 230.753 234.923 231.683 235.039 232.613L235.737 236.451C235.853 237.381 236.318 238.195 236.783 238.893C236.9 239.009 237.016 239.125 237.016 239.242C237.946 240.288 239.109 240.986 240.388 241.218C240.737 241.335 241.086 241.335 241.435 241.335C242.482 241.335 243.644 240.986 244.691 240.404C247.017 238.893 250.04 239.242 251.901 241.218L254.808 244.126C258.762 247.731 256.087 254.126 250.738 254.126Z" fill="#6CA882"/>
<path opacity="0.2" d="M254.692 246.103C254.11 245.172 253.762 244.242 253.064 243.312C251.785 241.567 249.343 241.218 247.249 241.567C245.854 241.8 244.575 242.265 243.179 242.149C242.016 242.033 240.97 241.916 239.923 241.567C237.83 240.986 235.621 239.939 234.458 238.079C233.295 236.218 233.876 233.66 232.481 231.799C230.969 229.822 228.411 230.055 226.318 230.753C225.155 231.218 224.108 231.915 222.945 232.264C221.55 232.729 220.154 232.846 218.642 232.497C217.945 232.381 217.247 232.032 216.549 231.683C216.084 231.45 215.735 231.218 215.503 230.869C215.038 230.287 214.805 229.473 214.921 228.659C214.921 228.194 215.038 227.729 215.27 227.264C216.666 229.939 219.922 231.101 222.829 229.822L227.132 227.845C229.69 226.682 232.481 227.613 234.109 229.59C234.69 230.287 235.155 231.218 235.272 232.148L235.969 235.986C236.086 236.916 236.551 237.73 237.016 238.428C237.132 238.544 237.249 238.66 237.249 238.776C238.179 239.823 239.342 240.521 240.621 240.753C240.97 240.87 241.319 240.87 241.668 240.87C242.714 240.87 243.877 240.521 244.924 239.939C247.249 238.428 250.273 238.776 252.133 240.753L255.041 243.661C256.087 244.707 256.669 245.986 256.785 247.265C255.855 247.382 255.273 246.8 254.692 246.103Z" fill="#F2FAFF"/>
<path d="M241.9 254.126H149.799L151.195 249.126C155.73 245.056 162.01 243.079 168.405 244.126L171.778 244.707L173.638 245.056C173.987 245.172 174.452 245.172 174.801 245.172C175.615 245.172 176.546 245.056 177.243 244.707C178.523 244.242 179.685 243.312 180.499 242.032C181.662 240.288 183.058 238.776 184.57 237.614C185.151 237.148 185.732 236.683 186.314 236.218C189.686 234.009 193.524 232.846 197.361 232.846C199.571 232.846 201.896 233.078 203.99 233.892C209.223 235.52 213.874 239.358 216.433 245.056L217.363 247.033C218.991 250.522 223.061 252.15 226.55 250.522L229.224 249.359L231.783 248.196C232.945 247.614 234.108 247.498 235.271 247.614C238.295 247.847 240.969 250.173 241.435 253.429L241.9 254.126Z" fill="#5B8B6D"/>
<path d="M227.131 237.73C228.094 237.73 228.875 236.949 228.875 235.986C228.875 235.022 228.094 234.241 227.131 234.241C226.168 234.241 225.387 235.022 225.387 235.986C225.387 236.949 226.168 237.73 227.131 237.73Z" fill="#FFCA1A"/>
<path d="M203.408 245.87C204.372 245.87 205.153 245.089 205.153 244.126C205.153 243.162 204.372 242.381 203.408 242.381C202.445 242.381 201.664 243.162 201.664 244.126C201.664 245.089 202.445 245.87 203.408 245.87Z" fill="#FFCA1A"/>
<path d="M165.265 232.846C166.229 232.846 167.01 232.065 167.01 231.101C167.01 230.138 166.229 229.357 165.265 229.357C164.302 229.357 163.521 230.138 163.521 231.101C163.521 232.065 164.302 232.846 165.265 232.846Z" fill="#FFCA1A"/>
<path d="M208.293 228.659C209.127 228.659 209.804 227.983 209.804 227.148C209.804 226.313 209.127 225.636 208.293 225.636C207.458 225.636 206.781 226.313 206.781 227.148C206.781 227.983 207.458 228.659 208.293 228.659Z" fill="#DDF3FB"/>
<path d="M174.336 242.963C175.171 242.963 175.848 242.286 175.848 241.451C175.848 240.616 175.171 239.939 174.336 239.939C173.501 239.939 172.824 240.616 172.824 241.451C172.824 242.286 173.501 242.963 174.336 242.963Z" fill="#DDF3FB"/>
<path d="M229.341 253.196C229.341 253.196 221.201 242.963 224.922 242.265C228.643 241.567 229.806 246.8 229.341 253.196Z" fill="#5B8B6D"/>
<path opacity="0.5" d="M228.992 246.917C228.643 246.8 228.411 246.568 228.178 246.219C227.829 245.521 227.829 244.707 227.48 244.009C227.248 243.661 227.015 243.428 226.666 243.312C226.317 243.195 225.969 243.079 225.62 242.847C225.271 242.614 225.271 242.381 225.503 242.149C227.48 242.265 228.643 244.126 228.992 246.917C229.108 246.917 229.108 246.917 228.992 246.917Z" fill="#F2FAFF"/>
<path d="M229.341 253.196C229.341 253.196 234.458 239.474 240.039 242.963C245.621 246.451 229.341 253.196 229.341 253.196Z" fill="#DDF3FB"/>
<path opacity="0.2" d="M239.807 242.847C239.691 242.963 239.574 243.079 239.458 243.195C239.225 243.312 238.993 243.195 238.76 243.195C238.295 243.195 237.714 243.195 237.132 243.195C236.551 243.312 236.086 243.661 235.621 244.009C234.807 244.591 234.225 245.521 233.411 246.103C233.295 246.219 233.062 246.335 232.83 246.335C234.69 243.661 237.249 241.451 239.807 242.847Z" fill="#F2FAFF"/>
<path d="M229.341 253.196C229.341 253.196 210.502 250.87 215.27 247.963C220.038 244.94 229.341 253.196 229.341 253.196Z" fill="#FFCA1A"/>
<path opacity="0.2" d="M223.061 249.01C222.479 248.894 222.131 248.545 221.665 248.312C221.2 248.08 220.735 247.847 220.27 247.731C219.572 247.614 218.875 247.731 218.061 247.614C217.828 247.614 217.479 247.498 217.363 247.266C219.223 247.149 221.433 247.963 223.41 249.01C223.294 249.01 223.177 249.01 223.061 249.01Z" fill="#F2FAFF"/>
<path d="M256.319 220.054C256.319 220.054 263.645 219.705 265.506 216.333C267.366 212.96 268.529 212.263 268.529 212.263C268.529 212.263 263.878 210.635 260.622 212.612C257.365 214.589 256.435 219.705 256.435 219.705C256.435 219.705 258.412 216.449 262.017 215.054C262.017 215.054 260.273 216.914 256.319 220.054Z" fill="#6477A4"/>
<path d="M245.271 167.259C245.271 167.259 250.621 162.142 249.807 158.421C248.993 154.7 249.458 153.421 249.458 153.421C249.458 153.421 244.923 155.165 243.643 158.886C242.481 162.491 245.039 167.027 245.039 167.027C245.039 167.027 244.457 163.305 246.202 159.933C246.202 159.817 246.085 162.375 245.271 167.259Z" fill="#8BAA75"/>
<path opacity="0.2" d="M2.22946 199.006C3.00015 199.006 3.62493 198.381 3.62493 197.61C3.62493 196.84 3.00015 196.215 2.22946 196.215C1.45877 196.215 0.833984 196.84 0.833984 197.61C0.833984 198.381 1.45877 199.006 2.22946 199.006Z" fill="white"/>
<path opacity="0.5" d="M2.22946 194.238C3.00015 194.238 3.62493 193.613 3.62493 192.842C3.62493 192.072 3.00015 191.447 2.22946 191.447C1.45877 191.447 0.833984 192.072 0.833984 192.842C0.833984 193.613 1.45877 194.238 2.22946 194.238Z" fill="white"/>
<path d="M2.22946 189.354C3.00015 189.354 3.62493 188.729 3.62493 187.958C3.62493 187.188 3.00015 186.563 2.22946 186.563C1.45877 186.563 0.833984 187.188 0.833984 187.958C0.833984 188.729 1.45877 189.354 2.22946 189.354Z" fill="white"/>
<path opacity="0.2" d="M2.22946 184.586C3.00015 184.586 3.62493 183.961 3.62493 183.191C3.62493 182.42 3.00015 181.795 2.22946 181.795C1.45877 181.795 0.833984 182.42 0.833984 183.191C0.833984 183.961 1.45877 184.586 2.22946 184.586Z" fill="white"/>
<path opacity="0.2" d="M238.877 112.72C239.455 112.72 239.923 112.251 239.923 111.673C239.923 111.095 239.455 110.627 238.877 110.627C238.299 110.627 237.83 111.095 237.83 111.673C237.83 112.251 238.299 112.72 238.877 112.72Z" fill="url(#paint0_linear)"/>
<path opacity="0.5" d="M235.155 112.72C235.733 112.72 236.202 112.251 236.202 111.673C236.202 111.095 235.733 110.627 235.155 110.627C234.577 110.627 234.109 111.095 234.109 111.673C234.109 112.251 234.577 112.72 235.155 112.72Z" fill="url(#paint1_linear)"/>
<path d="M231.318 112.72C231.896 112.72 232.365 112.251 232.365 111.673C232.365 111.095 231.896 110.627 231.318 110.627C230.74 110.627 230.271 111.095 230.271 111.673C230.271 112.251 230.74 112.72 231.318 112.72Z" fill="url(#paint2_linear)"/>
<path opacity="0.2" d="M227.596 112.72C228.174 112.72 228.643 112.251 228.643 111.673C228.643 111.095 228.174 110.627 227.596 110.627C227.018 110.627 226.55 111.095 226.55 111.673C226.55 112.251 227.018 112.72 227.596 112.72Z" fill="url(#paint3_linear)"/>
<path opacity="0.2" d="M1.18282 204.239C1.76084 204.239 2.22941 203.77 2.22941 203.192C2.22941 202.614 1.76084 202.146 1.18282 202.146C0.6048 202.146 0.13623 202.614 0.13623 203.192C0.13623 203.77 0.6048 204.239 1.18282 204.239Z" fill="url(#paint4_linear)"/>
<path opacity="0.5" d="M1.18282 207.96C1.76084 207.96 2.22941 207.492 2.22941 206.913C2.22941 206.335 1.76084 205.867 1.18282 205.867C0.6048 205.867 0.13623 206.335 0.13623 206.913C0.13623 207.492 0.6048 207.96 1.18282 207.96Z" fill="url(#paint5_linear)"/>
<path d="M1.18282 211.681C1.76084 211.681 2.22941 211.213 2.22941 210.635C2.22941 210.057 1.76084 209.588 1.18282 209.588C0.6048 209.588 0.13623 210.057 0.13623 210.635C0.13623 211.213 0.6048 211.681 1.18282 211.681Z" fill="url(#paint6_linear)"/>
<path opacity="0.2" d="M1.18282 215.403C1.76084 215.403 2.22941 214.934 2.22941 214.356C2.22941 213.778 1.76084 213.309 1.18282 213.309C0.6048 213.309 0.13623 213.778 0.13623 214.356C0.13623 214.934 0.6048 215.403 1.18282 215.403Z" fill="url(#paint7_linear)"/>
<path d="M153.215 127.605L160.192 155.747L168.216 165.631L174.379 167.492L162.402 141.908L158.68 121.674L153.215 127.605Z" fill="#E9AA8E"/>
<path opacity="0.55" d="M158.913 133.187C158.332 134.001 157.634 134.931 157.518 135.978C157.401 137.024 157.75 138.187 158.215 139.117C158.797 140.28 159.494 141.327 160.076 142.49C160.774 143.653 161.239 144.815 161.588 145.978C162.285 148.653 162.169 151.444 161.704 154.235C161.588 155.165 161.355 155.979 161.122 156.793L160.192 155.63L153.215 127.489L158.564 121.558L160.308 130.977C159.96 131.791 159.378 132.489 158.913 133.187Z" fill="#D0876A"/>
<path d="M168.333 166.794C168.449 166.212 164.96 161.794 162.169 157.491C164.495 156.444 165.309 154.932 167.751 155.281L173.217 164.352C173.217 164.352 174.147 165.282 175.194 165.515C175.543 165.631 175.775 165.747 176.008 165.864C176.24 165.98 176.357 166.212 176.473 166.329C176.705 166.678 176.822 167.026 176.938 167.492C176.938 167.608 176.938 167.608 176.938 167.724C176.938 167.84 176.938 168.073 176.938 168.189C176.822 169.12 176.473 169.934 176.473 169.934L176.124 171.097L175.775 172.259C175.775 172.259 174.729 173.422 173.798 172.376C173.798 172.376 172.752 173.306 171.705 172.259C171.705 172.259 170.891 172.957 169.844 172.027C169.844 172.027 168.798 172.027 168.565 171.329C168.333 170.748 167.984 167.957 168.333 166.794Z" fill="#E9AA8E"/>
<path opacity="0.55" d="M174.264 168.073C174.264 168.073 173.217 167.724 172.752 167.375C172.171 167.143 171.473 165.631 171.589 165.05C171.589 165.05 171.24 165.631 171.822 166.794C171.938 167.143 171.473 167.259 171.473 167.259C171.473 167.259 168.798 167.259 168.217 167.957C169.031 167.724 174.264 168.073 174.264 168.073Z" fill="url(#paint8_linear)"/>
<path d="M175.543 169.003C175.543 169.003 174.147 168.306 173.566 167.375C172.984 166.445 175.078 167.375 175.078 167.375L175.543 169.003Z" fill="url(#paint9_linear)"/>
<path d="M173.798 172.259V172.492H173.682L171.821 172.376L169.961 172.259L168.682 171.562C168.682 171.562 169.728 169.003 170.31 168.654C170.31 168.654 170.775 168.538 171.356 168.771C171.356 168.771 172.054 168.422 172.635 168.771C172.635 168.771 173.566 168.306 174.031 169.236L174.147 170.399C174.38 169.817 174.496 169.352 174.612 169.236C174.845 169.12 175.659 169.585 175.659 169.585L173.798 172.259Z" fill="url(#paint10_linear)"/>
<path d="M170.077 169.236C170.193 169.236 170.31 169.12 170.426 169.12L170.542 169.003C170.542 168.887 170.193 168.538 169.845 168.771C169.496 169.003 169.147 170.864 168.565 171.329C168.565 171.329 168.682 171.794 168.798 171.794C168.914 171.794 169.612 170.864 169.612 170.166C169.728 169.585 169.845 169.236 170.077 169.236Z" fill="url(#paint11_linear)"/>
<path d="M170.659 171.911C170.543 172.259 170.659 172.143 170.775 172.376L170.891 172.492C170.891 172.492 170.194 172.259 170.077 172.143C169.961 171.911 169.729 172.027 169.729 172.027C169.729 172.027 170.31 171.678 170.426 171.445C170.543 171.213 171.24 168.887 171.24 168.654C171.357 168.887 170.775 171.213 170.659 171.911Z" fill="url(#paint12_linear)"/>
<path d="M171.589 172.492C171.589 172.492 171.822 172.259 171.938 171.445C172.054 170.631 172.403 168.887 172.403 168.887C172.403 168.887 172.287 170.631 172.171 171.562C172.055 172.259 172.055 172.608 172.055 172.608L171.706 172.376L171.589 172.492Z" fill="url(#paint13_linear)"/>
<path d="M173.798 172.608C173.798 172.608 173.682 172.376 173.915 171.678C174.147 170.864 174.147 169.469 174.147 169.469C174.147 169.469 174.263 168.887 174.729 169.003C174.729 169.003 173.566 167.492 173.798 167.724C174.031 167.957 175.078 169.12 175.775 169.12L175.426 169.469C175.426 169.469 174.961 169.12 174.729 169.469C174.496 169.585 173.798 172.608 173.798 172.608Z" fill="url(#paint14_linear)"/>
<path opacity="0.55" d="M172.52 164.352C172.52 164.352 171.938 164.119 171.008 164.468C170.077 164.817 169.031 165.864 169.147 165.747C169.147 165.747 170.077 165.05 169.729 163.887C169.38 162.724 167.403 158.77 167.403 158.77C167.403 158.77 167.752 158.886 168.449 160.049C169.263 161.096 168.449 159.351 168.449 159.351C168.449 159.351 169.496 160.049 170.077 161.445C170.775 162.84 171.124 163.538 172.52 164.352Z" fill="url(#paint15_linear)"/>
<path d="M175.193 171.678C175.193 171.678 174.845 171.911 174.496 171.562C174.147 171.329 173.914 171.097 174.147 170.631C174.379 170.166 175.077 169.352 175.193 169.236C175.31 169.12 175.426 169.352 175.426 169.352C175.426 169.352 174.263 170.515 174.379 170.864C174.612 171.213 174.845 171.794 175.193 171.678Z" fill="url(#paint16_linear)"/>
<path d="M176.124 165.98C176.008 165.98 175.891 165.864 175.891 165.864C175.659 165.864 175.426 165.98 175.31 166.212C174.729 166.794 174.38 168.189 174.845 168.538C175.426 169.003 175.659 169.003 175.659 169.003C175.659 169.003 174.612 170.166 174.38 170.631C174.263 170.864 174.38 171.096 174.496 171.329C174.612 171.562 174.961 171.678 175.194 171.678C175.543 171.562 175.891 171.445 176.24 171.213C176.357 171.096 176.473 171.096 176.473 170.98C176.705 170.864 176.938 170.631 177.054 170.515C177.287 170.282 177.403 170.05 177.403 169.701L177.287 168.771V168.422C177.287 168.189 177.171 168.073 177.171 167.84C177.054 167.375 176.938 166.91 176.705 166.445C176.473 166.212 176.357 166.096 176.124 165.98Z" fill="url(#paint17_linear)"/>
<path d="M175.892 170.631C175.892 170.631 175.775 170.399 175.426 170.515C175.078 170.631 174.496 171.213 174.496 171.213L174.612 171.445L175.892 170.631Z" fill="url(#paint18_linear)"/>
<path d="M175.659 170.631C175.31 170.748 174.845 171.213 174.729 171.445C174.845 171.678 175.077 171.678 175.31 171.678C175.659 171.562 176.008 171.329 176.24 171.097C176.124 170.864 176.008 170.515 175.659 170.631Z" fill="#F5DED9"/>
<path opacity="0.25" d="M176.124 165.98C175.892 165.864 175.659 165.747 175.31 165.631C174.264 165.398 173.333 164.468 173.333 164.468C173.45 165.166 174.496 165.864 175.31 166.329C175.543 166.445 175.892 166.561 176.008 166.678C176.473 166.91 176.938 167.84 177.055 168.422C177.171 168.654 177.171 168.771 177.171 168.887V168.538C177.171 168.306 177.055 168.189 177.055 167.957C177.055 167.84 177.055 167.84 177.055 167.724C176.938 167.259 176.822 166.91 176.59 166.561C176.473 166.212 176.357 166.096 176.124 165.98Z" fill="url(#paint19_linear)"/>
<path d="M174.031 169.12C174.031 169.12 173.682 168.306 172.635 168.655C172.635 168.655 172.286 168.306 171.356 168.655C171.356 168.655 170.542 168.422 170.31 168.538C170.31 168.538 170.658 168.422 171.472 168.538C171.472 168.538 172.286 168.189 172.868 168.422C172.868 168.422 173.682 168.189 174.031 169.12Z" fill="url(#paint20_linear)"/>
<path d="M172.752 167.375C172.752 167.375 171.705 166.445 171.822 165.747C171.705 165.631 172.171 166.561 172.752 167.375Z" fill="#F5DED9"/>
<path d="M173.101 172.608C173.101 172.608 172.52 172.492 172.52 172.027C172.403 171.562 172.403 170.98 172.403 170.98C172.403 170.98 172.054 172.143 172.287 172.492C172.403 172.841 173.101 172.608 173.101 172.608Z" fill="#F5DED9"/>
<path d="M171.589 172.376C171.589 172.376 171.007 172.259 171.007 171.794C170.891 171.329 171.007 171.096 171.007 171.096C171.007 171.096 170.658 171.911 170.775 172.259C170.891 172.608 171.589 172.376 171.589 172.376Z" fill="#F5DED9"/>
<path d="M169.961 171.911C169.961 171.911 169.379 171.794 169.263 171.562C169.263 171.329 169.496 171.096 169.496 171.096C169.496 171.096 168.914 171.445 169.147 171.794C169.147 172.143 169.961 171.911 169.961 171.911Z" fill="#F5DED9"/>
<path d="M174.961 172.608C174.961 172.608 174.38 172.492 174.263 172.259C174.263 172.027 174.496 171.794 174.496 171.794C174.496 171.794 173.915 172.143 174.147 172.492C174.147 172.725 174.961 172.608 174.961 172.608Z" fill="#F5DED9"/>
<path d="M176.589 167.492C176.589 167.492 176.473 166.91 175.891 166.561C175.31 166.329 174.729 165.98 174.729 165.98C174.729 165.98 175.426 166.678 175.775 166.794C176.008 167.026 176.473 167.259 176.589 167.492Z" fill="#F5DED9"/>
<path d="M169.263 167.957C169.263 167.957 168.798 167.143 169.263 166.561C169.845 165.98 169.729 165.631 169.729 165.631C169.729 165.631 169.031 166.445 168.682 166.678C168.333 166.794 169.147 167.724 169.263 167.957Z" fill="#F5DED9"/>
<path d="M149.726 107.371C149.726 107.371 157.401 107.719 161.704 127.14C161.704 127.14 156.006 133.536 154.145 131.21C147.517 123.186 149.726 107.371 149.726 107.371Z" fill="#6F6EB2"/>
<path opacity="0.2" d="M158.565 117.604C158.565 117.604 157.518 117.488 156.937 117.023C156.355 116.557 154.146 110.627 154.146 110.627L158.565 117.604Z" fill="#231F20"/>
<path d="M154.494 109.58C154.494 109.58 159.262 115.627 159.727 115.976C160.193 116.325 158.565 117.953 158.565 117.953L154.029 110.278L154.494 109.58Z" fill="#175689"/>
<path opacity="0.2" d="M154.494 109.58L154.029 110.394L154.378 110.278L158.099 115.278L154.611 109.929L154.494 109.58Z" fill="#231F20"/>
<path d="M153.215 132.838C152.982 132.489 152.75 131.675 152.633 130.977C152.633 130.279 158.331 128.186 160.425 127.256C162.518 126.326 162.983 125.86 162.983 127.605C163.099 129.349 162.867 129.814 162.634 129.931C162.518 130.047 154.378 134.117 153.215 132.838Z" fill="#175689"/>
<path opacity="0.2" d="M152.75 131.442C152.75 131.442 156.471 130.512 157.983 129.698C159.495 129 160.076 129 160.076 129C160.076 129 159.03 129.465 157.402 130.396C155.89 131.326 153.331 132.024 152.75 131.442Z" fill="#231F20"/>
<path d="M158.797 257.383L158.331 263.313L154.843 263.197L154.145 256.685L158.797 257.383Z" fill="#E9AA8E"/>
<path d="M158.797 260.639C159.029 261.336 158.448 263.43 158.448 263.43L154.61 263.081C154.61 263.081 153.913 260.406 154.494 260.29C156.471 260.057 158.099 259.941 158.797 260.639Z" fill="#FAD1DE"/>
<path d="M154.843 266.918C155.89 267.616 163.914 268.895 164.844 267.5C165.774 266.104 165.774 267.035 161.355 264.127C159.495 262.964 158.913 260.057 158.913 260.988C158.913 261.918 156.471 263.662 154.959 262.616C154.145 262.034 153.913 263.313 154.029 264.592C154.145 265.639 154.378 266.569 154.843 266.918Z" fill="#202234"/>
<path d="M155.774 159.119C155.774 159.119 165.658 172.259 159.03 258.778C158.913 260.057 154.378 261.22 154.029 260.057C135.539 197.727 132.4 180.516 134.493 166.096C136.586 151.56 155.774 159.119 155.774 159.119Z" fill="#5D5DA3"/>
<g opacity="0.22">
<path opacity="0.22" d="M134.376 165.98C136.47 151.56 155.774 159.003 155.774 159.003C155.774 159.003 156.704 160.282 157.867 164.817C157.169 166.096 156.471 167.259 155.541 168.306C154.145 169.934 152.517 170.515 150.657 171.562C147.75 173.306 147.401 176.678 147.401 179.818C147.401 187.842 151.238 195.285 150.075 203.425C149.145 210.053 147.052 216.682 147.75 223.426C147.982 226.101 148.68 228.776 150.424 230.985C151.355 232.148 152.517 232.962 153.68 233.892C155.425 235.172 156.239 236.683 157.285 238.544C157.983 239.823 159.03 240.986 160.076 241.916C159.727 247.149 159.378 252.731 158.913 258.662C158.797 259.941 154.262 261.104 153.913 259.941C135.307 197.61 132.283 180.4 134.376 165.98Z" fill="#202234"/>
</g>
<path d="M126.003 259.359L125.654 265.29L122.165 265.058L121.467 258.662L126.003 259.359Z" fill="#E9AA8E"/>
<path d="M126.119 262.615C126.352 263.313 125.77 265.406 125.77 265.406L121.933 265.058C121.933 265.058 121.235 262.383 121.816 262.267C123.677 262.034 125.421 261.918 126.119 262.615Z" fill="#FAD1DE"/>
<path d="M122.165 268.779C123.212 269.477 131.236 270.756 132.166 269.36C133.096 267.965 133.096 268.895 128.678 265.988C126.817 264.825 126.235 261.918 126.235 262.848C126.235 263.778 123.793 265.523 122.282 264.476C121.468 263.895 121.235 265.174 121.351 266.453C121.468 267.5 121.7 268.546 122.165 268.779Z" fill="#202234"/>
<path d="M144.261 161.677C144.261 161.677 151.122 176.562 126.352 259.708C126.004 260.987 121.236 261.104 121.119 259.825C116.119 194.936 118.561 175.864 123.678 162.142C128.911 148.653 144.261 161.677 144.261 161.677Z" fill="#6F6EB2"/>
<path opacity="0.22" d="M123.794 162.259C128.911 148.653 144.261 161.677 144.261 161.677C144.261 161.677 144.61 162.491 144.958 165.05C143.912 167.259 142.284 169.003 140.074 170.399C136.935 172.376 133.33 173.19 130.074 174.934C123.329 178.772 125.422 185.749 126.701 192.028C127.748 197.029 124.143 201.099 124.375 205.983C124.492 208.541 125.422 210.983 125.655 213.542C125.887 215.868 124.957 217.844 124.608 220.17C124.143 223.077 124.608 225.752 127.166 227.38C128.562 228.194 130.074 228.776 131.353 229.706C132.399 230.52 133.33 231.334 134.027 232.381C131.934 240.637 129.376 249.707 126.352 259.825C126.003 261.104 121.236 261.22 121.119 259.941C116.119 194.936 118.561 175.864 123.794 162.259Z" fill="#202234"/>
<path d="M142.401 104.347C137.982 104.115 130.772 104.463 126.004 111.092C121.004 118.069 120.655 157.491 125.655 163.073C130.423 168.422 155.425 163.073 159.495 157.956C162.635 154.002 149.145 122.837 150.192 111.324C150.425 106.208 145.424 104.463 142.401 104.347Z" fill="#6F6EB2"/>
<path d="M151.006 107.72C151.006 107.72 149.029 105.626 148.098 105.626C147.168 105.626 145.307 117.255 142.051 117.139C138.679 116.906 136.586 104.463 135.655 104.347C134.725 104.231 132.167 105.743 131.469 106.208C130.655 106.673 140.772 123.884 121.933 135.861C121.933 135.861 121.003 148.072 120.305 157.026C119.375 168.887 127.283 166.096 143.796 166.91C153.215 167.375 161.937 165.864 159.96 151.444C157.983 136.792 154.145 131.093 154.145 131.093C154.145 131.093 150.191 125.977 151.006 107.72Z" fill="#C7DCF2"/>
<path opacity="0.2" d="M120.306 157.142C121.003 148.188 121.934 135.978 121.934 135.978C137.516 125.977 133.33 112.604 131.818 107.952C134.842 113.65 136.47 119.93 135.19 126.326C134.609 129.233 133.562 132.14 131.934 134.582C130.423 136.908 128.562 139.001 127.515 141.443C127.167 142.141 127.167 142.839 127.167 143.653C127.167 144.467 127.167 145.397 127.283 146.211C127.515 147.606 128.097 149.467 129.492 150.048C130.771 150.514 131.469 149.932 132.167 148.886C132.981 147.606 133.562 146.095 134.144 144.583C134.842 142.839 135.423 141.094 136.121 139.466C136.586 138.42 137.051 137.14 137.749 136.21C139.609 137.722 139.842 140.397 139.726 142.606C139.609 145.281 139.261 147.839 138.795 150.397C138.446 152.607 138.098 154.933 138.912 157.026C139.261 157.956 139.958 159.352 141.121 159.468C142.517 159.7 143.214 157.956 143.563 157.026C144.61 154.002 143.796 150.746 144.842 147.723C145.075 148.188 145.191 148.537 145.424 149.002C145.889 150.165 146.354 151.328 146.936 152.491C147.75 154.351 148.68 156.444 150.075 158.072C150.54 158.537 151.006 159.119 151.703 159.119C152.401 159.119 152.866 158.537 153.099 157.956C153.448 157.026 153.215 155.979 153.099 155.049C152.866 153.77 152.517 152.491 152.052 151.328C151.703 150.048 151.238 148.886 150.773 147.606C150.657 147.374 150.657 147.141 150.54 146.792C151.587 148.653 152.052 150.862 153.215 152.723C153.797 153.653 154.611 154.584 155.773 154.933C156.587 155.165 157.402 154.933 157.75 154.235C158.216 153.188 158.099 151.909 157.983 150.862C157.75 149.351 157.169 147.955 156.587 146.56C156.006 145.048 155.541 143.536 155.425 141.908C155.308 140.28 155.192 138.652 155.308 137.14C155.425 136.326 155.425 135.396 155.657 134.582C156.936 137.606 158.797 143.187 159.96 151.793C161.937 166.213 153.215 167.608 143.796 167.259C127.283 166.213 119.259 168.887 120.306 157.142Z" fill="#231F20"/>
<path opacity="0.15" d="M142.981 109.348C142.981 109.348 142.749 112.022 140.888 111.441C138.562 110.743 135.306 107.022 139.144 104.696C139.144 104.696 139.144 106.789 139.493 107.371C140.772 108.999 143.097 107.719 143.097 107.719C143.097 107.719 144.958 106.905 144.958 105.277C144.958 105.277 148.796 108.882 146.121 110.627C144.377 111.673 142.981 109.348 142.981 109.348Z" fill="#202234"/>
<path d="M143.098 108.417C143.098 108.417 142.865 111.092 141.121 110.51C138.911 109.813 135.772 106.208 139.493 103.882C139.493 103.882 139.842 105.394 140.307 105.859C141.586 107.371 143.214 106.673 143.214 106.673C143.214 106.673 144.958 105.975 145.075 104.347C145.075 104.347 148.68 107.836 146.121 109.58C144.377 110.743 143.098 108.417 143.098 108.417Z" fill="#175689"/>
<path d="M144.842 102.603L145.191 105.394C145.191 105.394 145.191 107.138 142.516 107.371C139.842 107.603 139.028 105.277 139.028 105.277L139.609 101.905L144.842 102.603Z" fill="#E9AA8E"/>
<path opacity="0.55" d="M139.726 101.905L144.842 102.719V103.184C144.493 103.882 143.912 104.347 143.214 104.696C142.865 104.812 142.516 104.929 142.051 105.045C141.702 105.161 141.237 105.161 141.005 105.51C140.423 106.091 140.656 106.789 141.005 107.371C139.493 106.905 139.028 105.394 139.028 105.394L139.726 101.905Z" fill="#D0876A"/>
<path d="M137.05 92.9509C137.05 92.9509 136.12 93.5323 136.353 93.9975C136.585 94.4626 136.818 95.0441 136.818 95.0441C136.818 95.0441 136.469 94.3464 136.585 93.9975C136.818 93.5323 137.283 93.1835 137.05 92.9509Z" fill="#D0876A"/>
<path d="M150.191 90.16C149.959 88.0668 134.376 83.5315 135.306 92.7183C135.771 97.7187 137.632 98.0676 137.632 98.0676L148.447 97.4861C148.447 97.4861 150.889 95.7418 150.191 90.16Z" fill="#202234"/>
<path d="M137.051 95.9744C137.516 97.7187 137.283 102.835 142.051 104.231C146.819 105.743 148.331 96.4395 148.331 95.8581C148.331 95.6255 148.331 95.5092 148.214 95.2766C147.633 92.4857 143.563 93.1835 140.772 93.1835C140.656 93.1835 140.539 93.1835 140.423 93.1835C137.4 93.0672 137.4 92.4857 137.4 92.4857C137.4 92.4857 136.469 91.5554 135.771 92.9509C134.957 95.1604 137.051 95.9744 137.051 95.9744Z" fill="#E9AA8E"/>
<path opacity="0.55" d="M138.562 95.8581C138.562 95.8581 141.818 94.9278 143.795 94.3463C145.888 93.7649 147.981 95.2766 147.981 95.2766C148.098 95.2766 148.214 95.3929 148.33 95.3929C148.098 92.2531 142.051 93.0671 139.26 93.0671C138.795 94.1137 138.562 95.8581 138.562 95.8581Z" fill="#D0876A"/>
<path d="M144.493 98.649C144.144 98.9979 143.563 98.9979 143.563 98.9979C143.446 98.9979 143.33 98.8816 143.33 98.7653C143.33 98.649 143.446 98.5327 143.563 98.5327C143.679 98.5327 144.028 98.5327 144.144 98.3001C144.26 98.1838 144.26 97.9513 144.144 97.7187C144.144 97.6024 144.144 97.4861 144.26 97.4861C144.377 97.4861 144.493 97.4861 144.493 97.6024C144.726 98.0676 144.726 98.4164 144.493 98.649Z" fill="#202234"/>
<path d="M143.331 102.37C142.517 102.254 142.052 101.44 142.052 101.44C141.935 101.324 142.052 101.091 142.168 100.975C142.284 100.858 142.517 100.975 142.633 101.091C142.749 101.207 143.098 101.673 143.447 101.673C143.68 101.673 144.028 101.44 144.261 101.091C144.377 100.975 144.61 100.858 144.726 100.975C144.842 101.091 144.959 101.324 144.843 101.44C144.377 102.021 143.912 102.37 143.331 102.37Z" fill="#202234"/>
<path d="M145.307 94.5789C145.307 94.5789 147.516 94.9278 147.749 94.8115C147.981 94.6952 147.4 93.9975 146.47 94.1138C145.423 94.1138 145.074 94.5789 145.307 94.5789Z" fill="#202234"/>
<path d="M147.168 95.9744C147.168 96.3232 146.819 96.5558 146.586 96.5558C146.237 96.5558 146.005 96.2069 146.121 95.8581C146.121 95.5092 146.47 95.2766 146.703 95.2766C146.819 95.2766 146.819 95.2766 146.935 95.3929C146.819 95.3929 146.703 95.5092 146.703 95.6255C146.703 95.7418 146.819 95.9744 146.935 95.9744C147.051 95.9744 147.168 95.9744 147.168 95.8581C147.168 95.8581 147.168 95.8581 147.168 95.9744Z" fill="#202234"/>
<path d="M140.888 94.2301C140.888 94.2301 143.098 94.5789 143.33 94.4626C143.563 94.3463 142.981 93.6486 142.051 93.7649C141.004 93.6486 140.656 94.1138 140.888 94.2301Z" fill="#202234"/>
<path d="M142.749 95.5092C142.749 95.8581 142.4 96.0907 142.168 96.0907C141.819 96.0907 141.586 95.7418 141.703 95.3929C141.703 95.0441 142.051 94.8115 142.284 94.8115C142.4 94.8115 142.4 94.8115 142.517 94.9278C142.4 94.9278 142.284 95.0441 142.284 95.1604C142.284 95.2766 142.4 95.5092 142.517 95.5092C142.633 95.5092 142.749 95.5092 142.749 95.3929V95.5092Z" fill="#202234"/>
<path d="M139.492 92.2532C139.492 92.2532 138.562 98.1839 138.33 96.4395C138.097 94.6952 136.702 92.7183 137.516 91.9043C137.748 91.5554 139.492 92.2532 139.492 92.2532Z" fill="#202234"/>
<path d="M135.423 90.7414C135.423 90.7414 137.4 89.2297 140.307 89.4622C144.028 89.8111 148.912 91.788 149.842 91.6717C151.354 91.4391 150.307 85.3922 146.354 84.113C146.005 83.9967 145.889 82.6012 145.54 82.4849C137.283 80.6243 134.143 87.9505 135.423 90.7414Z" fill="#FEAA32"/>
<path opacity="0.5" d="M142.981 85.2759C142.981 85.2759 146.353 86.9039 145.772 89.346L149.028 89.4623C149.028 89.4623 148.447 86.5551 146.586 85.6248C144.842 84.6945 142.981 85.2759 142.981 85.2759Z" fill="#D88225"/>
<path d="M139.958 89.4622C139.958 89.4622 148.331 88.6482 150.424 89.5785C152.517 90.5088 155.308 91.9043 149.843 91.788C144.261 91.6717 139.958 89.4622 139.958 89.4622Z" fill="#EA9024"/>
<path d="M142.051 89.4623C142.632 89.4623 143.214 89.5786 143.795 89.8111C144.493 90.0437 145.307 90.5089 146.121 90.3926C146.47 90.3926 146.935 90.16 147.284 90.16C147.632 90.16 147.981 90.16 148.33 90.2763C148.795 90.3926 149.377 90.5089 149.842 90.3926C150.307 90.2763 149.726 89.9274 149.609 89.8111C149.377 89.6949 149.26 89.4623 149.26 89.2297C146.121 88.8808 140.074 89.4623 140.074 89.4623C140.074 89.4623 141.469 89.4623 142.051 89.4623Z" fill="#D88225"/>
<path d="M132.516 152.839C133.33 156.095 134.609 159.119 136.47 161.677L131.935 167.492L138.679 174.004L144.261 169.12C144.959 169.585 145.657 169.934 146.471 170.283C147.285 170.748 148.215 171.097 149.145 171.445C150.541 171.911 151.936 172.376 153.448 172.608L153.797 180.051L164.263 179.818L164.147 172.376C167.286 171.678 170.194 170.283 172.868 168.538C172.984 168.538 172.984 168.422 173.101 168.422L178.915 172.957L185.427 166.213L180.543 160.631C182.287 157.84 183.45 154.816 184.032 151.56L191.358 150.746L191.125 141.327L183.799 140.862C182.985 137.606 181.706 134.582 179.845 132.024L184.381 126.209L177.636 119.697L172.054 124.581C169.263 122.837 166.24 121.674 162.984 121.093L162.17 113.766L152.75 113.999L152.285 121.325C149.029 122.139 146.006 123.418 143.447 125.279L137.633 120.744L131.121 127.489L136.005 133.07C134.26 135.861 133.098 138.885 132.516 142.141L125.19 142.955L125.422 152.374L132.516 152.839ZM141.47 147.258C141.238 138.187 148.448 130.512 157.518 130.279C166.589 130.047 174.264 137.257 174.496 146.327C174.729 155.514 167.519 163.073 158.448 163.305C149.262 163.654 141.703 156.444 141.47 147.258Z" fill="#175689"/>
<g opacity="0.2">
<path opacity="0.2" d="M132.167 142.141C134.842 134.233 141.005 131.791 141.005 131.791L134.028 124.232L130.772 127.605L135.656 133.187C134.028 135.745 132.749 138.885 132.167 142.141Z" fill="#231F20"/>
<path opacity="0.2" d="M183.799 151.56C181.125 159.468 174.961 161.91 174.961 161.91L181.939 169.468L185.195 166.096L180.311 160.514C182.055 157.84 183.218 154.816 183.799 151.56Z" fill="#231F20"/>
</g>
<g opacity="0.2">
<path opacity="0.2" d="M162.751 120.976C170.659 123.651 173.101 129.814 173.101 129.814L180.659 122.837L177.287 119.581L171.705 124.465C169.031 122.837 166.007 121.558 162.751 120.976Z" fill="#231F20"/>
<path opacity="0.2" d="M135.307 170.748L138.679 174.004L144.261 169.12C144.959 169.585 145.656 169.934 146.354 170.283C147.052 170.631 147.866 170.98 148.68 171.329C150.192 171.911 151.703 172.376 153.331 172.608C151.703 172.027 150.308 171.329 149.145 170.631C148.098 170.05 147.284 169.352 146.587 168.655C143.912 166.212 142.982 163.77 142.982 163.77L135.307 170.748Z" fill="#231F20"/>
</g>
<g opacity="0.2">
<path opacity="0.2" d="M136.47 161.794C132.749 154.235 135.424 148.188 135.424 148.188L125.074 147.839L125.191 152.491L132.517 152.956C133.214 155.979 134.494 159.003 136.47 161.794Z" fill="#231F20"/>
<path opacity="0.2" d="M179.613 131.908C183.335 139.466 180.66 145.513 180.66 145.513L191.01 145.862L190.893 141.211L183.567 140.745C182.869 137.722 181.474 134.698 179.613 131.908Z" fill="#231F20"/>
</g>
<g opacity="0.2">
<path opacity="0.2" d="M159.263 179.935L164.031 179.818L163.914 172.376C167.054 171.678 170.078 170.283 172.868 168.422C172.752 168.422 172.752 168.538 172.636 168.538C165.193 172.143 159.263 169.469 159.263 169.469V179.935Z" fill="#231F20"/>
<path opacity="0.2" d="M143.099 125.279C150.657 121.558 156.704 124.232 156.704 124.232L157.053 113.883L152.402 113.999L151.937 121.325C148.797 122.023 145.773 123.302 143.099 125.279Z" fill="#231F20"/>
</g>
<path d="M139.61 147.374C139.842 157.607 148.332 165.631 158.449 165.282C168.566 165.05 176.706 156.561 176.357 146.443C176.124 136.326 167.635 128.186 157.518 128.535C147.401 128.651 139.377 137.14 139.61 147.374ZM141.471 147.257C141.238 138.187 148.448 130.512 157.518 130.279C166.589 130.047 174.264 137.257 174.496 146.327C174.729 155.514 167.519 163.073 158.449 163.305C149.262 163.654 141.703 156.444 141.471 147.257Z" fill="#6F6EB2"/>
<path d="M167.403 158.77C165.193 160.514 162.402 161.677 159.379 161.91L159.263 157.956C161.24 157.723 162.984 157.026 164.496 155.979L167.403 158.77Z" fill="#175689"/>
<path d="M168.915 149.351L172.868 149.234C172.403 152.49 170.892 155.398 168.682 157.607L165.891 154.933C167.403 153.421 168.449 151.444 168.915 149.351Z" fill="#175689"/>
<path d="M146.936 136.908C149.378 134.117 152.867 132.373 156.821 132.024L156.937 135.978C154.146 136.326 151.588 137.606 149.843 139.699L146.936 136.908Z" fill="#175689"/>
<path d="M169.147 146.676C169.031 144.35 168.333 142.257 167.054 140.513L169.729 137.606C171.706 140.048 172.869 143.187 172.985 146.56C172.985 146.909 172.985 147.141 172.985 147.49L169.031 147.606C169.147 147.257 169.147 147.025 169.147 146.676Z" fill="#175689"/>
<path d="M166.007 139.234C164.146 137.373 161.588 136.094 158.681 135.978L158.564 132.024C162.518 132.14 166.007 133.768 168.682 136.443L166.007 139.234Z" fill="#175689"/>
<path d="M157.518 158.072L157.634 162.026C154.611 161.91 151.82 160.863 149.494 159.235L152.169 156.328C153.681 157.375 155.541 157.956 157.518 158.072Z" fill="#175689"/>
<path d="M145.773 138.303L148.68 140.978C147.518 142.722 146.936 144.932 146.936 147.257C146.936 147.606 146.936 147.839 147.052 148.188L143.099 148.304C143.099 148.071 143.099 147.723 143.099 147.374C142.982 144.001 144.029 140.862 145.773 138.303Z" fill="#175689"/>
<path d="M150.657 155.281L147.983 158.072C145.657 155.979 144.029 153.188 143.331 149.932L147.285 149.816C147.983 152.025 149.145 153.886 150.657 155.281Z" fill="#175689"/>
<path d="M138.796 164.701C138.447 164.701 138.098 164.585 137.516 164.352C137.168 164.236 136.935 164.119 136.586 164.003C136.121 163.771 135.772 163.538 135.423 163.422C135.074 163.189 134.958 163.073 134.958 163.073C134.958 163.073 130.772 160.514 130.074 160.166C129.493 159.584 131.702 157.491 131.702 157.491C132.284 157.142 134.726 159.933 135.656 159.584C136.819 159.119 138.679 156.793 139.028 157.724C139.377 158.654 137.633 159.7 137.633 159.7C137.633 159.7 137.633 159.7 137.749 159.7C137.982 159.7 139.145 159.7 140.075 160.049C140.307 160.166 140.54 160.282 140.773 160.398C140.773 160.398 140.889 160.398 140.889 160.514C141.005 160.514 141.005 160.631 141.121 160.631C141.121 160.631 141.121 160.747 141.238 160.747C141.238 160.863 141.354 160.98 141.238 161.212C141.121 161.794 140.656 161.794 140.656 161.794C140.656 161.794 141.005 162.026 140.889 162.491C140.773 162.957 140.307 162.84 140.307 162.84C140.307 162.84 140.656 163.189 140.424 163.654C140.307 164.003 139.842 163.887 139.842 163.887C139.842 163.887 140.075 164.119 139.959 164.585C139.959 164.933 138.796 164.701 138.796 164.701Z" fill="#D7A28E"/>
<path opacity="0.2" d="M139.843 162.724C139.843 162.84 139.843 162.84 139.843 162.724C139.726 162.957 139.61 163.189 139.61 163.538C139.61 163.654 139.61 163.771 139.61 163.771C139.61 163.771 139.494 163.771 139.494 163.887L139.378 164.003C139.261 164.119 139.261 164.352 139.261 164.585C139.261 164.701 139.261 164.701 139.261 164.817C139.61 164.817 140.075 164.817 140.075 164.585C140.308 164.119 139.959 163.887 139.959 163.887C139.959 163.887 140.424 164.119 140.54 163.654C140.657 163.305 140.424 162.84 140.424 162.84C140.424 162.84 140.773 162.957 141.006 162.491C141.122 162.026 140.773 161.794 140.773 161.794C140.773 161.794 141.238 161.794 141.354 161.212C141.354 160.98 141.354 160.863 141.354 160.747C141.354 160.747 141.354 160.631 141.238 160.631C141.238 160.514 141.122 160.514 141.006 160.514C141.006 160.514 140.889 160.514 140.889 160.398C140.889 160.514 140.889 160.747 140.889 160.863C140.889 160.98 140.773 161.212 140.657 161.328C140.54 161.445 140.308 161.445 140.192 161.561C140.075 161.677 139.959 161.91 140.075 162.026C140.075 162.142 140.192 162.259 140.075 162.491C140.075 162.491 139.959 162.608 139.843 162.724Z" fill="white"/>
<path opacity="0.2" d="M138.912 157.607C138.912 157.607 138.331 158.189 138.214 158.072C138.098 158.072 138.098 157.84 138.098 157.84C138.098 157.84 138.68 157.491 138.912 157.607Z" fill="white"/>
<path d="M120.189 142.49C120.189 142.49 125.306 133.768 124.841 128.303C124.492 124.581 117.282 120.279 116.817 122.023C116.817 122.023 104.723 134.117 112.282 146.444C120.189 159.352 132.167 162.491 134.842 162.956C136.353 163.305 135.539 159.584 135.539 159.584L120.189 142.49Z" fill="#D7A28E"/>
<path opacity="0.1" d="M116.817 122.023C117.282 120.279 124.492 124.581 124.841 128.303C124.957 129.349 124.841 130.512 124.608 131.675C123.794 133.303 122.399 134.815 120.771 135.512C118.91 136.326 116.817 135.745 114.956 136.443C113.212 137.141 112.631 138.885 112.631 140.629C112.631 142.141 113.445 143.304 114.608 144.118C115.77 144.932 117.282 145.513 118.561 146.211C119.143 146.56 119.724 147.025 120.189 147.606C120.887 148.537 121.003 149.816 121.236 150.863C121.469 152.025 121.934 152.956 122.631 153.886C123.329 154.7 124.259 155.281 125.19 155.863C126.236 156.677 126.818 157.607 127.399 158.77C127.748 159.468 128.097 160.166 128.562 160.863C123.678 158.654 117.282 154.467 112.398 146.444C104.723 134.117 116.817 122.023 116.817 122.023Z" fill="#33133F"/>
<path d="M125.073 132.024C122.049 133.768 112.979 128.651 112.049 127.023C111.118 125.395 117.863 113.185 129.724 106.789C133.562 104.812 129.724 129.465 125.073 132.024Z" fill="#6F6EB2"/>
<path opacity="0.2" d="M112.747 124.232C113.096 124.93 113.445 125.512 114.142 125.977C115.073 126.558 116.003 126.442 117.05 126.209C118.329 125.977 119.375 125.744 120.654 126.209C121.817 126.558 122.864 127.14 124.143 126.791C125.306 126.558 126.12 125.744 126.701 124.814C127.981 122.837 128.329 120.511 128.795 118.302C129.26 116.441 129.841 114.813 131.12 113.534C130.423 120.511 127.864 130.396 125.073 132.024C122.05 133.768 112.979 128.651 112.049 127.023C111.933 126.675 112.165 125.628 112.747 124.232Z" fill="#231F20"/>
<path d="M111.235 128.768C111.119 128.186 111.467 127.256 111.933 126.674C112.398 126.093 119.84 129.698 122.747 130.745C125.538 131.907 126.352 131.907 125.19 133.536C124.027 135.164 123.561 135.396 123.213 135.28C122.864 135.28 111.584 131.093 111.235 128.768Z" fill="#175689"/>
<path opacity="0.2" d="M111.7 127.14C111.7 127.14 116.235 129.814 118.329 130.628C120.422 131.442 121.003 132.024 121.003 132.024C121.003 132.024 119.608 131.442 117.282 130.745C115.073 129.931 111.933 128.186 111.7 127.14Z" fill="#231F20"/>
<path opacity="0.2" d="M118.793 117.371C118.793 117.371 119.956 117.604 120.77 117.139C121.468 116.79 125.422 110.859 125.422 110.859L118.793 117.371Z" fill="#231F20"/>
<path d="M125.306 109.58C125.306 109.58 118.561 115.046 117.98 115.278C117.398 115.511 118.794 117.72 118.794 117.72L125.655 110.51L125.306 109.58Z" fill="#175689"/>
<path opacity="0.2" d="M125.306 109.58L125.538 110.627L125.19 110.394L119.84 114.929L125.073 109.929L125.306 109.58Z" fill="#231F20"/>
<defs>
<linearGradient id="paint0_linear" x1="221.744" y1="101.164" x2="266.739" y2="128.752" gradientUnits="userSpaceOnUse">
<stop stop-color="#B0B0FF"/>
<stop offset="1" stop-color="white"/>
</linearGradient>
<linearGradient id="paint1_linear" x1="220.725" y1="102.829" x2="265.719" y2="130.417" gradientUnits="userSpaceOnUse">
<stop stop-color="#B0B0FF"/>
<stop offset="1" stop-color="white"/>
</linearGradient>
<linearGradient id="paint2_linear" x1="219.705" y1="104.492" x2="264.7" y2="132.081" gradientUnits="userSpaceOnUse">
<stop stop-color="#B0B0FF"/>
<stop offset="1" stop-color="white"/>
</linearGradient>
<linearGradient id="paint3_linear" x1="218.684" y1="106.156" x2="263.679" y2="133.744" gradientUnits="userSpaceOnUse">
<stop stop-color="#B0B0FF"/>
<stop offset="1" stop-color="white"/>
</linearGradient>
<linearGradient id="paint4_linear" x1="-9.25038" y1="220.287" x2="18.3377" y2="175.293" gradientUnits="userSpaceOnUse">
<stop stop-color="#B0B0FF"/>
<stop offset="1" stop-color="white"/>
</linearGradient>
<linearGradient id="paint5_linear" x1="-7.58619" y1="221.306" x2="20.0018" y2="176.312" gradientUnits="userSpaceOnUse">
<stop stop-color="#B0B0FF"/>
<stop offset="1" stop-color="white"/>
</linearGradient>
<linearGradient id="paint6_linear" x1="-5.92293" y1="222.327" x2="21.6665" y2="177.33" gradientUnits="userSpaceOnUse">
<stop stop-color="#B0B0FF"/>
<stop offset="1" stop-color="white"/>
</linearGradient>
<linearGradient id="paint7_linear" x1="-4.25874" y1="223.346" x2="23.3278" y2="178.353" gradientUnits="userSpaceOnUse">
<stop stop-color="#B0B0FF"/>
<stop offset="1" stop-color="white"/>
</linearGradient>
<linearGradient id="paint8_linear" x1="170.547" y1="165.825" x2="171.515" y2="169.183" gradientUnits="userSpaceOnUse">
<stop offset="0.2135" stop-color="#B87764"/>
<stop offset="0.2871" stop-color="#B97A65"/>
<stop offset="1" stop-color="#C49A6C"/>
</linearGradient>
<linearGradient id="paint9_linear" x1="174.095" y1="168.33" x2="175.235" y2="167.694" gradientUnits="userSpaceOnUse">
<stop offset="0.0459459" stop-color="#FFBF99"/>
<stop offset="1" stop-color="#E7B099"/>
</linearGradient>
<linearGradient id="paint10_linear" x1="172.957" y1="172.651" x2="171.936" y2="169.817" gradientUnits="userSpaceOnUse">
<stop offset="0.0459459" stop-color="#FFBF99"/>
<stop offset="1" stop-color="#E7B099"/>
</linearGradient>
<linearGradient id="paint11_linear" x1="168.246" y1="171.158" x2="170.733" y2="169.129" gradientUnits="userSpaceOnUse">
<stop offset="0.2135" stop-color="#B87764"/>
<stop offset="0.2871" stop-color="#B97A65"/>
<stop offset="1" stop-color="#C49A6C"/>
</linearGradient>
<linearGradient id="paint12_linear" x1="169.563" y1="171.962" x2="173.203" y2="168.992" gradientUnits="userSpaceOnUse">
<stop offset="0.2135" stop-color="#B87764"/>
<stop offset="0.2871" stop-color="#B97A65"/>
<stop offset="1" stop-color="#C49A6C"/>
</linearGradient>
<linearGradient id="paint13_linear" x1="171.073" y1="171.828" x2="173.349" y2="169.97" gradientUnits="userSpaceOnUse">
<stop offset="0.2135" stop-color="#B87764"/>
<stop offset="0.2871" stop-color="#B97A65"/>
<stop offset="1" stop-color="#C49A6C"/>
</linearGradient>
<linearGradient id="paint14_linear" x1="172.56" y1="171.055" x2="175.456" y2="168.692" gradientUnits="userSpaceOnUse">
<stop offset="0.2135" stop-color="#B87764"/>
<stop offset="0.2871" stop-color="#B97A65"/>
<stop offset="1" stop-color="#C49A6C"/>
</linearGradient>
<linearGradient id="paint15_linear" x1="170.753" y1="164.942" x2="168.351" y2="160.924" gradientUnits="userSpaceOnUse">
<stop offset="0.2135" stop-color="#B87764"/>
<stop offset="0.2871" stop-color="#B97A65"/>
<stop offset="1" stop-color="#C49A6C"/>
</linearGradient>
<linearGradient id="paint16_linear" x1="174.149" y1="171.295" x2="175.871" y2="169.89" gradientUnits="userSpaceOnUse">
<stop offset="0.2135" stop-color="#B87764"/>
<stop offset="0.2871" stop-color="#B97A65"/>
<stop offset="1" stop-color="#C49A6C"/>
</linearGradient>
<linearGradient id="paint17_linear" x1="176.538" y1="171.663" x2="171.951" y2="158.911" gradientUnits="userSpaceOnUse">
<stop offset="0.0459459" stop-color="#FFBF99"/>
<stop offset="1" stop-color="#E7B099"/>
</linearGradient>
<linearGradient id="paint18_linear" x1="174.626" y1="171.415" x2="175.777" y2="170.476" gradientUnits="userSpaceOnUse">
<stop offset="0.0459459" stop-color="#FFBF99"/>
<stop offset="1" stop-color="#E7B099"/>
</linearGradient>
<linearGradient id="paint19_linear" x1="175.027" y1="166.74" x2="176.125" y2="165.844" gradientUnits="userSpaceOnUse">
<stop offset="0.2135" stop-color="#B87764"/>
<stop offset="0.2871" stop-color="#B97A65"/>
<stop offset="1" stop-color="#C49A6C"/>
</linearGradient>
<linearGradient id="paint20_linear" x1="171.175" y1="169.67" x2="174.146" y2="167.245" gradientUnits="userSpaceOnUse">
<stop offset="0.2135" stop-color="#B87764"/>
<stop offset="0.2871" stop-color="#B97A65"/>
<stop offset="1" stop-color="#C49A6C"/>
</linearGradient>
</defs>
</svg>
