<svg width="504" height="384" viewBox="0 0 504 384" fill="none" xmlns="http://www.w3.org/2000/svg">
<path d="M579.109 337.837C552.588 324.854 95.6899 314.263 20.5483 345.012C9.1491 349.795 -5.27437 351.332 1.93737 357.482C9.1491 363.632 60.5618 359.532 73.3569 386.694C86.1519 413.856 165.714 443.409 234.109 421.202C302.504 399.165 383.927 440.676 468.374 418.298C552.821 395.919 605.63 350.82 579.109 337.837Z" fill="#5971A9"/>
<path d="M440.449 272.21C439.109 271.093 405.606 240.494 409.627 202.077C413.647 163.661 445.586 154.057 436.652 109.386C427.495 64.4926 436.652 33.6701 464.348 33.2234C492.043 32.7767 504.774 59.8022 494.5 107.823C484.226 155.843 528.45 174.605 526.216 209.671C523.536 250.098 491.597 316.656 440.449 272.21Z" fill="#6CA882"/>
<path opacity="0.2" d="M483.333 39.2538C482.886 41.4874 481.546 43.4975 479.536 44.3909C477.749 45.2843 475.515 45.061 473.505 44.6143C469.708 43.9442 466.135 42.6041 462.338 43.0508C460.327 43.2742 458.541 44.1676 456.977 45.061C455.19 45.9544 453.404 47.0711 451.617 48.4113C448.49 50.8681 445.586 53.995 443.799 57.5687C441.566 61.589 440.896 66.056 440.673 70.5231C440.449 75.8835 441.119 81.0206 440.002 86.1577C439.332 89.5079 438.216 93.3049 435.982 95.9851C435.535 96.4318 435.089 96.8785 434.419 97.3252C429.058 59.1321 438.886 33.4467 464.124 33C471.718 33 478.196 34.7868 483.333 38.8072C483.556 39.0305 483.556 39.2538 483.333 39.2538Z" fill="#F2FAFF"/>
<path d="M463.677 193.813C467.474 186.666 467.474 177.955 465.464 170.361C464.347 166.341 462.561 162.321 460.55 158.747C459.657 157.183 458.764 155.843 458.094 154.28C457.647 153.163 457.647 152.27 458.094 151.153C458.764 149.143 459.88 147.356 460.774 145.346C461.667 143.336 462.337 141.326 463.007 139.315C464.347 135.072 465.018 130.828 465.241 126.584C465.464 122.341 465.464 117.874 464.124 113.63C462.784 109.833 460.327 106.929 458.764 103.356C460.997 102.016 462.784 100.229 464.571 98.2187C466.358 95.7618 467.921 93.3049 469.038 90.4014C469.038 96.4319 469.038 102.686 469.038 108.716C469.038 133.062 469.261 157.63 469.261 181.975C469.261 203.864 469.261 225.529 469.261 247.417C468.814 245.854 468.368 244.291 467.698 242.727C462.784 228.879 454.52 216.595 446.703 204.534C453.85 204.534 460.104 200.067 463.677 193.813Z" fill="#5B8B6D"/>
<path d="M458.987 284.047C462.784 284.047 466.805 283.377 470.378 281.59C474.175 279.803 476.855 276.677 479.089 273.103C480.429 270.869 481.099 268.636 481.546 266.179C481.993 263.499 482.439 261.042 484.226 258.808C487.353 255.011 492.49 254.565 496.734 252.555C500.754 250.768 503.658 247.417 506.114 243.844C508.348 240.27 510.135 236.25 511.252 232.23C513.708 223.519 513.932 214.138 512.815 205.427C511.698 197.163 509.688 188.899 505.444 181.752C500.531 173.041 494.054 165.224 489.586 156.513C487.353 152.27 485.79 147.579 484.896 142.666C484.003 136.858 484.673 131.051 485.789 125.468C487.353 119.214 489.586 113.183 491.82 107.376C494.054 101.792 495.84 96.2085 497.18 90.4014C496.51 95.9852 495.617 101.792 494.277 108.046C484.003 156.067 528.226 174.828 525.993 209.894C523.983 244.961 499.191 300.352 458.987 284.047Z" fill="#5B8B6D"/>
<path d="M433.302 193.59C433.525 193.366 433.749 193.366 433.972 193.59L469.038 228.656V168.798L449.383 148.026C449.16 147.803 449.16 147.579 449.383 147.356C449.606 147.133 449.83 147.133 450.053 147.356L469.038 167.458V113.63L454.744 99.1121C454.52 98.8888 454.52 98.6654 454.744 98.4421C454.967 98.2187 455.19 98.2187 455.414 98.4421L469.038 112.29V66.5028C469.038 66.2794 469.261 66.0561 469.485 66.0561C469.708 66.0561 469.931 66.2794 469.931 66.5028V131.051L480.652 121.894C480.876 121.671 481.099 121.671 481.322 121.894C481.546 122.117 481.546 122.341 481.322 122.564L469.931 132.168V192.92L491.373 171.478C491.597 171.255 491.82 171.255 492.043 171.478C492.267 171.701 492.267 171.925 492.043 172.148L469.931 194.26V229.996V286.057C469.931 286.281 469.708 286.504 469.485 286.504C469.261 286.504 469.038 286.281 469.038 286.057V230.219L433.302 194.483C433.078 194.037 433.078 193.813 433.302 193.59Z" fill="#5B8B6D"/>
<path d="M417.442 313.976C417.442 313.976 422.356 277.793 412.529 281.367C402.478 284.94 407.168 299.458 417.442 313.976Z" fill="#FFCA1A"/>
<path d="M418.113 313.753C418.113 313.753 397.788 278.016 383.717 290.301C369.646 302.585 418.113 313.753 418.113 313.753Z" fill="#6CA882"/>
<path opacity="0.5" d="M384.386 290.748C384.833 291.864 385.503 292.758 386.62 293.204C388.183 293.651 389.747 293.204 391.31 292.981C393.097 292.981 394.66 293.204 396.224 293.874C397.787 294.545 399.127 295.661 400.244 296.778C401.584 297.895 402.924 299.012 404.264 299.682C405.605 300.352 407.391 300.798 408.955 301.022C402.031 292.311 391.98 283.6 383.939 289.854C384.386 290.078 384.386 290.301 384.386 290.748Z" fill="#F2FAFF"/>
<path d="M389.524 333.408H565.078L562.622 324.697L556.591 303.925C552.347 289.184 537.83 280.027 522.865 282.707L515.271 284.047C514.601 284.047 514.154 284.27 513.484 284.27C510.134 284.27 507.007 282.483 504.997 279.803C492.043 260.148 462.56 262.605 452.733 284.047L451.393 286.95C449.159 292.088 443.129 294.321 437.991 292.088L430.398 288.737C425.93 286.727 421.017 288.291 418.337 291.641C417.22 292.981 416.55 294.544 416.326 296.108L415.21 302.585C414.986 304.149 414.316 305.712 413.423 306.829C413.199 307.052 412.976 307.275 412.976 307.499C411.413 309.286 409.402 310.402 407.169 310.849C406.499 311.072 406.052 311.072 405.382 311.072C403.372 311.072 401.585 310.626 399.798 309.286C395.778 306.605 390.641 307.275 387.291 310.626L382.154 315.763C375.453 322.24 380.143 333.408 389.524 333.408Z" fill="#6CA882"/>
<path opacity="0.2" d="M382.6 319.336C383.717 317.773 384.163 315.986 385.28 314.646C387.513 311.519 391.757 311.072 395.331 311.519C397.788 311.966 400.021 312.859 402.478 312.636C404.488 312.412 406.275 312.189 408.285 311.742C411.859 310.849 415.656 309.062 417.666 305.712C419.676 302.362 418.783 298.118 421.24 294.768C423.92 291.417 428.387 291.641 431.96 292.981C433.971 293.651 435.757 294.991 437.768 295.661C440.224 296.555 442.681 296.554 445.138 296.108C446.478 295.884 447.595 295.438 448.712 294.768C449.382 294.321 450.052 294.098 450.499 293.428C451.392 292.311 451.615 290.971 451.615 289.631C451.615 288.737 451.392 288.067 451.169 287.397C448.712 292.087 442.905 294.098 438.214 291.864L430.62 288.514C426.153 286.504 421.24 288.067 418.559 291.417C417.443 292.758 416.773 294.321 416.549 295.884L415.432 302.362C415.209 303.925 414.539 305.489 413.646 306.605C413.422 306.829 413.199 307.052 413.199 307.275C411.635 309.062 409.625 310.179 407.392 310.626C406.722 310.849 406.275 310.849 405.605 310.849C403.595 310.849 401.808 310.402 400.021 309.062C396.001 306.382 390.864 307.052 387.513 310.402L382.376 315.539C380.59 317.326 379.473 319.56 379.25 321.793C380.59 321.57 381.706 320.676 382.6 319.336Z" fill="#F2FAFF"/>
<path d="M404.935 333.408H564.854L562.397 324.697C554.58 317.55 543.636 314.199 532.468 315.986L526.438 317.103L523.311 317.55C522.641 317.773 521.971 317.773 521.301 317.773C519.737 317.773 518.397 317.55 517.057 316.88C514.823 315.986 512.813 314.423 511.25 312.189C509.24 309.062 506.783 306.605 504.326 304.372C503.209 303.479 502.316 302.808 501.199 302.138C495.392 298.341 488.691 296.331 481.991 296.331C477.971 296.331 474.174 296.778 470.377 298.118C461.219 301.022 453.178 307.499 448.711 317.55L447.148 320.9C444.468 326.93 437.32 329.611 431.067 326.93L426.376 324.92L421.909 322.91C419.899 322.017 417.889 321.793 415.879 321.793C410.742 322.24 406.051 326.26 405.158 331.844L404.935 333.408Z" fill="#5B8B6D"/>
<path d="M430.397 305.042C432.124 305.042 433.524 303.642 433.524 301.915C433.524 300.188 432.124 298.788 430.397 298.788C428.67 298.788 427.27 300.188 427.27 301.915C427.27 303.642 428.67 305.042 430.397 305.042Z" fill="#FFCA1A"/>
<path d="M471.717 319.113C473.444 319.113 474.844 317.713 474.844 315.986C474.844 314.259 473.444 312.859 471.717 312.859C469.99 312.859 468.59 314.259 468.59 315.986C468.59 317.713 469.99 319.113 471.717 319.113Z" fill="#FFCA1A"/>
<path d="M463.23 288.961C464.587 288.961 465.687 287.861 465.687 286.504C465.687 285.147 464.587 284.047 463.23 284.047C461.873 284.047 460.773 285.147 460.773 286.504C460.773 287.861 461.873 288.961 463.23 288.961Z" fill="#DDF3FB"/>
<path d="M426.824 331.844C426.824 331.844 440.895 314.199 434.418 312.859C427.941 311.519 425.931 320.677 426.824 331.844Z" fill="#5B8B6D"/>
<path opacity="0.5" d="M427.27 320.9C427.94 320.677 428.387 320.23 428.61 319.783C429.28 318.667 429.057 317.103 429.727 315.986C429.95 315.316 430.62 314.87 431.067 314.646C431.737 314.423 432.407 314.199 432.854 313.976C433.301 313.753 433.524 313.306 433.077 312.859C429.95 312.859 427.94 315.986 427.27 320.9C427.047 320.9 427.047 320.9 427.27 320.9Z" fill="#F2FAFF"/>
<path d="M426.823 331.844C426.823 331.844 417.889 307.946 408.062 314.199C398.234 320.23 426.823 331.844 426.823 331.844Z" fill="#DDF3FB"/>
<path opacity="0.2" d="M408.508 313.753C408.508 313.976 408.732 314.199 408.955 314.199C409.402 314.423 409.848 314.199 410.295 314.199C411.189 314.199 412.082 314.199 412.975 314.199C413.869 314.423 414.762 314.869 415.656 315.539C417.219 316.656 418.112 318.22 419.453 319.113C419.676 319.336 420.123 319.336 420.346 319.56C417.219 315.093 412.975 311.296 408.508 313.753Z" fill="#F2FAFF"/>
<path d="M426.823 331.844C426.823 331.844 459.656 327.824 451.392 322.687C442.905 317.326 426.823 331.844 426.823 331.844Z" fill="#FFCA1A"/>
<path opacity="0.2" d="M437.768 324.474C438.662 324.25 439.332 323.804 440.225 323.134C440.895 322.687 441.789 322.24 442.682 322.017C444.022 321.793 445.139 322.017 446.479 321.793C446.926 321.793 447.372 321.57 447.596 321.123C444.245 320.9 440.448 322.24 437.098 324.25C437.321 324.474 437.545 324.474 437.768 324.474Z" fill="#F2FAFF"/>
<path d="M327.8 335.41L326.034 347.185L334.276 348.951L336.926 337.765L327.8 335.41Z" fill="#E19F8D"/>
<path d="M324.562 342.769C324.562 342.769 326.034 341.297 326.623 342.475C327.212 343.652 326.623 346.89 326.623 346.89C326.623 346.89 333.099 348.068 333.688 347.774C334.277 347.479 335.454 345.419 335.749 346.596C336.043 347.774 335.749 359.254 333.099 359.843C330.45 360.432 301.306 341.886 304.839 340.414C308.666 339.237 324.562 342.769 324.562 342.769Z" fill="#191C2B"/>
<path d="M413.759 337.47L414.642 348.657L421.707 346.596L419.058 335.115L413.759 337.47Z" fill="#E19F8D"/>
<path d="M422.885 342.18C421.707 341.297 422.296 343.652 421.707 344.241C421.413 344.83 415.525 347.773 415.525 347.773C415.525 347.773 414.053 344.83 412.876 344.241C411.698 343.652 411.404 345.713 411.404 345.713C411.404 345.713 396.391 352.484 394.33 355.722C392.269 358.96 421.413 356.605 422.885 354.25C424.651 352.189 424.062 343.063 422.885 342.18Z" fill="#191C2B"/>
<path d="M288.058 42.2075C288.058 42.2075 286.881 57.8097 291.591 61.0479C296.301 64.286 300.422 63.1085 300.422 63.1085L303.955 59.576L288.058 42.2075Z" fill="#E19F8D"/>
<path d="M292.181 36.32L285.704 35.4368C285.115 35.4368 284.821 36.0256 285.115 37.2031L296.008 61.3422C296.596 62.5198 297.185 62.8141 297.774 62.2254L301.601 56.6322C301.895 56.3378 301.601 55.4547 301.306 54.5715L293.652 37.4975C293.358 36.9087 292.769 36.32 292.181 36.32Z" fill="#241E3F"/>
<path d="M292.475 37.7919L287.176 37.4975C286.587 37.4975 286.587 38.0863 286.881 38.9694L295.713 58.6928C296.007 59.576 296.596 59.8704 297.185 59.576L300.423 55.4546C300.717 55.1603 300.423 54.5715 300.423 53.6884L293.947 38.9694C293.358 38.3806 292.769 37.7919 292.475 37.7919Z" fill="#DADBDD"/>
<path d="M344.286 68.113L333.394 91.9577L304.544 57.5153L300.129 63.4029C300.129 63.4029 324.562 112.859 333.982 113.742C343.403 114.331 360.477 79.2994 360.477 79.2994L344.286 68.113Z" fill="#E19F8D"/>
<path d="M360.477 43.6794C360.477 43.6794 335.16 66.9354 341.636 74.2949C348.113 81.9488 356.061 84.5982 356.061 84.5982L360.477 43.6794Z" fill="#364082"/>
<path d="M360.475 185.57L389.325 282.127L412.875 341.592L421.412 340.709L408.459 248.862C408.459 248.862 403.749 159.665 397.862 149.067C391.68 138.764 360.475 185.57 360.475 185.57Z" fill="#191C2B"/>
<path d="M397.568 157.899C397.568 157.899 394.33 205.294 380.2 226.489C366.07 247.39 337.221 340.12 337.221 340.12L326.917 336.587L337.221 229.727L348.407 160.254L397.568 157.899Z" fill="#202234"/>
<path d="M353.412 50.1558C353.412 50.1558 351.645 85.187 349.585 113.153C347.524 141.119 345.169 164.375 351.057 167.025C356.944 169.674 400.218 169.674 402.279 155.838C404.339 141.708 399.629 56.3378 384.322 42.2075C375.196 33.9649 371.958 32.493 353.412 50.1558Z" fill="#364082"/>
<path d="M365.186 30.4323C365.186 30.4323 374.017 25.4279 370.779 11.8864C367.541 -1.65508 356.649 -0.183181 348.406 1.5831C330.155 5.41003 330.449 20.129 341.341 21.8953C341.341 21.8953 345.462 30.1379 352.822 27.1941C360.181 24.2503 360.476 18.0684 365.186 30.4323Z" fill="#202234"/>
<path d="M375.783 39.2638L366.952 29.2549L364.302 22.1898C364.302 22.1898 365.186 15.7134 363.125 16.891C359.887 18.6572 358.415 16.3022 358.415 16.3022C358.415 16.3022 355.177 21.0123 348.7 20.1291C342.224 19.246 351.35 39.2638 356.354 39.5582C361.359 39.8526 360.181 36.6144 360.181 36.6144C360.181 36.6144 361.359 46.3289 364.008 47.2121C367.246 48.3896 375.783 39.2638 375.783 39.2638Z" fill="#E19F8D"/>
<path d="M348.112 28.9604C348.112 28.9604 347.818 33.6705 348.701 33.3761C349.584 33.0817 351.351 32.1986 351.056 32.1986L348.112 28.9604Z" fill="#E19F8D"/>
<path d="M351.644 24.2504C351.644 24.2504 347.817 25.4279 347.523 25.1335C346.934 24.8391 347.817 23.6616 349.583 23.6616C351.35 23.3672 352.233 23.956 351.644 24.2504Z" fill="#202234"/>
<path d="M348.995 26.8998C348.995 27.4885 349.584 27.7829 350.173 27.7829C350.761 27.7829 351.056 27.1942 350.761 26.6054C350.761 26.0167 350.173 25.4279 349.584 25.7223C349.584 25.7223 349.29 25.7223 349.29 26.0167C349.584 26.0167 349.584 26.311 349.584 26.311C349.584 26.6054 349.584 26.8998 349.29 26.8998C348.995 26.8998 348.995 26.8998 348.701 26.6054C348.995 26.6054 348.995 26.8998 348.995 26.8998Z" fill="#202234"/>
<path d="M355.471 16.8908C355.471 16.8908 360.476 23.0728 358.121 28.666C355.766 34.2592 350.173 32.4929 351.056 35.4367C352.233 38.6749 358.71 42.5019 359.887 37.4974C361.359 32.4929 360.182 31.6098 360.182 25.7222C360.182 19.8346 356.06 14.5358 356.06 14.5358L355.471 16.8908Z" fill="#202234"/>
<path d="M304.839 58.1041C304.839 58.1041 303.367 47.5064 301.601 46.9176C300.129 46.3289 290.709 50.7445 294.241 51.0389C297.774 51.3333 299.246 51.3333 299.246 51.3333C299.246 51.3333 299.246 60.7535 301.601 61.3422C303.073 61.6366 304.839 58.1041 304.839 58.1041Z" fill="#E19F8D"/>
<path d="M374.017 84.3037L380.199 115.508L339.575 157.604L345.462 162.314C345.462 162.314 394.918 129.638 399.923 116.98C404.927 104.616 394.624 72.8229 394.624 72.8229L374.017 84.3037Z" fill="#E19F8D"/>
<path d="M340.458 157.31C340.458 157.31 328.094 156.721 326.916 158.782C325.739 160.843 333.687 174.678 336.631 173.501C339.575 172.323 345.462 162.314 345.462 162.314L340.458 157.31Z" fill="#E19F8D"/>
<path d="M339.87 157.604C339.87 157.604 333.393 151.717 331.038 153.483C328.978 155.249 330.449 158.782 330.449 158.782L339.87 157.604Z" fill="#E19F8D"/>
<path d="M381.671 41.03C381.671 41.03 414.936 77.2387 399.04 87.2476C387.853 94.3127 376.667 103.438 371.957 92.5464C356.355 56.9265 381.671 41.03 381.671 41.03Z" fill="#364082"/>
<path d="M375.784 98.1397C375.784 98.1397 369.896 90.1914 369.013 68.7017C369.013 68.7017 366.658 94.9015 375.784 98.1397Z" fill="#302650"/>
<path d="M352.234 82.8318C352.234 82.8318 353.411 67.2297 355.766 61.0477C355.766 61.0477 352.234 66.6409 351.056 81.9487L352.234 82.8318Z" fill="#302650"/>
</svg>
