<svg width="20" height="20" viewBox="0 0 20 20" fill="none" xmlns="http://www.w3.org/2000/svg">
<path d="M17.3027 9.57616C17.6309 10.0098 17.8125 10.541 17.8125 11.0937C17.8125 11.9707 17.3223 12.8008 16.5332 13.2637C16.3301 13.3828 16.0988 13.4455 15.8633 13.4453L11.1797 13.4453L11.2969 15.8457C11.3242 16.4258 11.1191 16.9765 10.7207 17.3965C10.5252 17.6034 10.2893 17.7681 10.0276 17.8803C9.76588 17.9925 9.48395 18.0499 9.19922 18.0488C8.18359 18.0488 7.28516 17.3652 7.01563 16.3867L5.33789 10.3125L2.8125 10.3125C2.4668 10.3125 2.1875 10.0332 2.1875 9.68749L2.1875 2.57811C2.1875 2.23241 2.4668 1.95311 2.8125 1.95311L14.5566 1.95311C14.7363 1.95311 14.9121 1.98827 15.0742 2.05858C16.0039 2.45507 16.6035 3.36327 16.6035 4.37108C16.6035 4.61718 16.5684 4.85936 16.498 5.09374C16.8262 5.52733 17.0078 6.05858 17.0078 6.61132C17.0078 6.85741 16.9727 7.0996 16.9023 7.33397C17.2305 7.76757 17.4121 8.29882 17.4121 8.85155C17.4082 9.09764 17.373 9.34179 17.3027 9.57616ZM3.59375 3.35936L3.59375 8.90624L5.17578 8.90624L5.17578 3.35936L3.59375 3.35936ZM16.0234 10.2539L15.5957 9.8828L15.8672 9.38671C15.9566 9.22329 16.003 9.03979 16.002 8.8535C16.002 8.53124 15.8613 8.2246 15.6191 8.01366L15.1914 7.64257L15.4629 7.14647C15.5523 6.98305 15.5987 6.79956 15.5977 6.61327C15.5977 6.291 15.457 5.98436 15.2148 5.77343L14.7871 5.40233L15.0586 4.90624C15.148 4.74282 15.1944 4.55933 15.1934 4.37304C15.1934 3.93554 14.9355 3.541 14.5371 3.36132L6.42578 3.36131L6.42578 8.96874L8.36914 16.0098C8.41925 16.1902 8.52682 16.3494 8.67555 16.4633C8.82428 16.5771 9.00607 16.6394 9.19336 16.6406C9.3418 16.6406 9.48828 16.5976 9.60547 16.5098C9.79883 16.3652 9.90234 16.1465 9.89063 15.914L9.70313 12.039L15.8438 12.0391C16.1914 11.8262 16.4063 11.4668 16.4063 11.0937C16.4063 10.7715 16.2656 10.4668 16.0234 10.2539Z" fill="#BDCEDF"/>
</svg>
