<svg width="21" height="21" viewBox="0 0 21 21" fill="none" xmlns="http://www.w3.org/2000/svg">
<path d="M20.5 10.2222C20.5 4.69875 16.0234 0.222168 10.5 0.222168C4.97658 0.222168 0.5 4.69875 0.5 10.2222C0.5 15.2144 4.15625 19.3511 8.9375 20.1011V13.1128H6.39842V10.2222H8.9375V8.01904C8.9375 5.51317 10.4297 4.12842 12.7148 4.12842C13.8086 4.12842 14.9531 4.32373 14.9531 4.32373V6.78467H13.6914C12.4492 6.78467 12.0625 7.55617 12.0625 8.34717V10.2222H14.8359L14.3926 13.1128H12.0625V20.1011C16.8438 19.3511 20.5 15.2144 20.5 10.2222Z" fill="#2F80ED"/>
<path d="M14.3926 13.1128L14.8359 10.2222H12.0625V8.34717C12.0625 7.55617 12.4492 6.78467 13.6914 6.78467H14.9531V4.32373C14.9531 4.32373 13.8086 4.12842 12.7149 4.12842C10.4297 4.12842 8.93752 5.51317 8.93752 8.01904V10.2222H6.39844V13.1128H8.93752V20.1011C9.44727 20.1812 9.96877 20.2222 10.5 20.2222C11.0313 20.2222 11.5528 20.1812 12.0625 20.1011V13.1128H14.3926Z" fill="white"/>
</svg>
