<svg width="263" height="108" viewBox="0 0 263 108" fill="none" xmlns="http://www.w3.org/2000/svg">
<path d="M226.167 60.5122C226.167 60.5122 221.425 26.6103 230.908 30.1002C240.142 33.3408 235.9 47.0511 226.167 60.5122Z" fill="#FFCA1A"/>
<path d="M225.417 60.2633C225.417 60.2633 244.384 26.8601 257.61 38.3269C270.837 49.7937 225.417 60.2633 225.417 60.2633Z" fill="#6CA882"/>
<path opacity="0.5" d="M256.863 38.825C256.364 39.8221 255.865 40.8192 254.617 41.0685C253.119 41.3178 251.622 41.0685 250.374 40.8193C248.877 40.8193 247.13 41.0685 245.633 41.5671C244.135 42.3149 242.887 43.312 241.889 44.3092C240.641 45.3063 239.394 46.3034 238.146 47.0512C236.898 47.7991 235.151 48.0483 233.903 48.2976C240.392 40.3207 249.626 32.0945 257.362 37.8279C257.112 38.3264 257.112 38.5757 256.863 38.825Z" fill="#F2FAFF"/>
<path d="M252.369 78.7096H88.1611L90.4071 70.4835L95.8973 51.0398C99.8902 37.3295 113.366 28.8541 127.591 31.0976L134.579 32.344C135.078 32.344 135.577 32.5932 136.076 32.5932C139.32 32.5932 142.315 31.0976 144.062 28.3555C156.29 10.1582 183.741 12.4017 192.975 32.344L194.223 35.086C196.469 39.8223 201.959 42.0658 206.701 39.8223L213.688 36.5817C217.931 34.8367 222.423 36.0831 224.918 39.3237C225.916 40.5701 226.416 42.0658 226.915 43.5615L227.913 49.7934C228.162 51.2891 228.662 52.5355 229.66 53.7819C229.909 54.0311 229.909 54.2804 230.159 54.2804C231.656 56.0253 233.653 57.0225 235.649 57.521C236.148 57.521 236.647 57.7703 237.396 57.7703C239.143 57.7703 240.89 57.2717 242.637 56.2746C246.38 53.7819 251.371 54.5297 254.366 57.521L259.108 62.2573C265.346 68.2399 260.854 78.7096 252.369 78.7096Z" fill="#6CA882"/>
<path opacity="0.2" d="M258.608 65.4979C257.61 64.0022 257.111 62.5065 256.112 61.0108C253.866 58.2688 250.123 57.521 246.629 58.2688C244.383 58.7674 242.387 59.5152 239.891 59.2659C238.144 59.0166 236.397 58.7674 234.651 58.2688C231.157 57.2717 227.663 55.776 225.916 52.5354C223.92 49.5441 224.918 45.3063 222.672 42.315C220.176 39.0744 215.934 39.5729 212.689 40.57C210.693 41.3179 209.196 42.315 207.199 43.0628C204.953 43.8107 202.458 43.8107 200.212 43.3121C198.964 43.0628 197.966 42.5643 196.718 42.0657C195.969 41.8165 195.47 41.3179 194.971 40.8193C194.222 39.8222 193.973 38.5758 193.973 37.3294C193.973 36.5816 194.222 35.8338 194.472 35.0859C196.718 39.5729 202.208 41.3179 206.7 39.3237L213.688 36.083C217.93 34.3381 222.422 35.5845 224.918 38.8251C225.916 40.0715 226.415 41.5672 226.914 43.0628L227.912 49.2948C228.162 50.7905 228.661 52.0369 229.659 53.2832C229.909 53.5325 229.909 53.7818 230.158 53.7818C231.656 55.5267 233.652 56.5239 235.649 57.0224C236.148 57.0224 236.647 57.2717 237.396 57.2717C239.143 57.2717 240.889 56.7731 242.636 55.776C246.38 53.2832 251.371 54.0311 254.365 57.0224L259.107 61.7587C260.854 63.5036 261.852 65.4978 261.852 67.7413C260.604 67.7413 259.606 66.7443 258.608 65.4979Z" fill="#F2FAFF"/>
<path d="M237.895 78.7095H88.4106L90.6567 70.4833C98.1434 63.7528 108.375 60.5122 118.607 62.5064L124.097 63.5035L127.092 64.0021C127.841 64.0021 128.34 64.2514 129.088 64.2514C130.586 64.2514 131.834 64.0021 133.081 63.5035C135.327 62.7557 137.074 61.26 138.572 59.2658C140.568 56.5237 142.565 54.031 145.06 52.0367C146.058 51.2889 147.057 50.541 148.055 49.7932C153.545 46.3033 159.784 44.3091 166.023 44.3091C169.766 44.3091 173.26 44.8077 176.754 45.8048C185.239 48.5468 192.726 54.5295 196.968 64.0021L198.465 67.2427C200.961 72.9761 207.699 75.4689 213.439 72.9761L217.681 70.9819L221.924 69.2369C223.92 68.4891 225.667 68.2398 227.663 68.2398C232.655 68.7384 236.897 72.2282 237.646 77.7124L237.895 78.7095Z" fill="#5B8B6D"/>
<path d="M213.938 52.0369C215.592 52.0369 216.933 50.6976 216.933 49.0455C216.933 47.3935 215.592 46.0542 213.938 46.0542C212.284 46.0542 210.943 47.3935 210.943 49.0455C210.943 50.6976 212.284 52.0369 213.938 52.0369Z" fill="#FFCA1A"/>
<path d="M175.256 65.4978C176.91 65.4978 178.251 64.1585 178.251 62.5065C178.251 60.8544 176.91 59.5151 175.256 59.5151C173.602 59.5151 172.262 60.8544 172.262 62.5065C172.262 64.1585 173.602 65.4978 175.256 65.4978Z" fill="#FFCA1A"/>
<path d="M113.366 44.3094C115.02 44.3094 116.36 42.9701 116.36 41.318C116.36 39.6659 115.02 38.3267 113.366 38.3267C111.712 38.3267 110.371 39.6659 110.371 41.318C110.371 42.9701 111.712 44.3094 113.366 44.3094Z" fill="#FFCA1A"/>
<path d="M183.242 37.3293C184.62 37.3293 185.738 36.2133 185.738 34.8365C185.738 33.4598 184.62 32.3438 183.242 32.3438C181.864 32.3438 180.747 33.4598 180.747 34.8365C180.747 36.2133 181.864 37.3293 183.242 37.3293Z" fill="#DDF3FB"/>
<path d="M128.09 60.7615C129.469 60.7615 130.586 59.6454 130.586 58.2687C130.586 56.8919 129.469 55.7759 128.09 55.7759C126.712 55.7759 125.595 56.8919 125.595 58.2687C125.595 59.6454 126.712 60.7615 128.09 60.7615Z" fill="#DDF3FB"/>
<path d="M217.432 77.2137C217.432 77.2137 204.205 60.7614 210.195 59.515C216.184 58.2686 218.181 66.7441 217.432 77.2137Z" fill="#5B8B6D"/>
<path opacity="0.5" d="M216.933 66.9933C216.434 66.7441 215.935 66.4948 215.685 65.7469C215.186 64.7498 215.186 63.2541 214.687 62.257C214.437 61.7584 213.938 61.2599 213.439 61.0106C212.94 60.7613 212.191 60.512 211.692 60.2627C211.193 60.0135 211.193 59.5149 211.443 59.2656C214.437 59.2656 216.434 62.5063 216.933 66.9933C216.933 66.9933 217.183 66.9933 216.933 66.9933Z" fill="#F2FAFF"/>
<path d="M217.432 77.2138C217.432 77.2138 225.668 55.0281 234.901 60.7615C243.885 66.2456 217.432 77.2138 217.432 77.2138Z" fill="#DDF3FB"/>
<path opacity="0.2" d="M234.401 60.2626C234.401 60.5118 234.152 60.7612 233.902 60.7612C233.653 61.0104 233.154 60.7612 232.654 60.7612C231.906 60.7612 230.908 60.7612 230.159 60.7612C229.161 61.0104 228.412 61.509 227.663 62.0075C226.416 63.0046 225.417 64.5003 223.92 65.2481C223.67 65.4974 223.421 65.4974 222.922 65.7467C226.166 61.509 230.159 58.0191 234.401 60.2626Z" fill="#F2FAFF"/>
<path d="M217.432 77.2139C217.432 77.2139 186.737 73.4747 194.473 68.7385C202.209 63.753 217.432 77.2139 217.432 77.2139Z" fill="#FFCA1A"/>
<path opacity="0.2" d="M207.2 70.2337C206.202 69.9844 205.703 69.4858 204.954 68.9873C204.206 68.4887 203.457 68.2395 202.708 67.9902C201.46 67.7409 200.462 67.9902 199.215 67.9902C198.715 67.9902 198.216 67.7409 198.216 67.4916C201.211 67.2424 204.705 68.738 207.949 70.483C207.45 70.483 207.45 70.4829 207.2 70.2337Z" fill="#F2FAFF"/>
<path d="M127.973 38.6356L107.829 29.3931H0L18.248 38.8726L127.973 38.6356Z" fill="#DD891B"/>
<path d="M106.645 39.1096V32H2.84424L17.7745 38.6357L106.645 39.1096Z" fill="#C6781A"/>
<path d="M36.1678 52.7572L67.5181 46.3745L59.9062 8.98647L28.5559 15.3691L36.1678 52.7572Z" fill="#A8BFCC"/>
<path d="M33.369 56.8416L64.7192 50.459L57.1073 13.0709L25.7571 19.4536L33.369 56.8416Z" fill="#93AEBA"/>
<path d="M92.2795 62.1405L102.523 64.0894L114.261 2.393L104.017 0.444105L92.2795 62.1405Z" fill="#A8BFCC"/>
<path d="M103.523 2.19675L110.275 3.48193L110.364 3.01631L103.612 1.73113L103.523 2.19675Z" fill="#93AEBA"/>
<path d="M103.45 3.20286L107.873 4.04443L107.917 3.81164L103.494 2.97007L103.45 3.20286Z" fill="#93AEBA"/>
<path d="M103.368 4.12279L107.792 4.96436L107.836 4.73152L103.413 3.88996L103.368 4.12279Z" fill="#93AEBA"/>
<path d="M103.254 5.06273L107.677 5.9043L107.722 5.67147L103.298 4.8299L103.254 5.06273Z" fill="#93AEBA"/>
<path d="M102.895 5.96557L107.318 6.80713L107.363 6.57433L102.939 5.73277L102.895 5.96557Z" fill="#93AEBA"/>
<path d="M102.596 7.00993L109.348 8.29443L109.437 7.82877L102.685 6.54427L102.596 7.00993Z" fill="#93AEBA"/>
<path d="M102.569 7.97435L106.992 8.81592L107.036 8.58312L102.613 7.74156L102.569 7.97435Z" fill="#93AEBA"/>
<path d="M102.368 9.17161L106.792 10.0132L106.836 9.78039L102.413 8.93882L102.368 9.17161Z" fill="#93AEBA"/>
<path d="M102.277 10.0979L106.701 10.9395L106.745 10.7066L102.321 9.86506L102.277 10.0979Z" fill="#93AEBA"/>
<path d="M101.936 10.9905L106.359 11.832L106.404 11.5992L101.98 10.7576L101.936 10.9905Z" fill="#93AEBA"/>
<path d="M101.613 12.0485L108.365 13.333L108.453 12.8674L101.702 11.5829L101.613 12.0485Z" fill="#93AEBA"/>
<path d="M101.585 13.0129L106.009 13.8545L106.053 13.6217L101.63 12.7801L101.585 13.0129Z" fill="#93AEBA"/>
<path d="M101.464 13.9573L105.887 14.7988L105.931 14.566L101.508 13.7245L101.464 13.9573Z" fill="#93AEBA"/>
<path d="M101.339 14.904L105.762 15.7456L105.807 15.5128L101.383 14.6712L101.339 14.904Z" fill="#93AEBA"/>
<path d="M100.991 15.8L105.414 16.6416L105.458 16.4088L101.035 15.5672L100.991 15.8Z" fill="#93AEBA"/>
<path d="M100.684 17.042L107.436 18.3271L107.524 17.8615L100.773 16.5763L100.684 17.042Z" fill="#93AEBA"/>
<path d="M100.649 18.0246L105.072 18.8662L105.117 18.6334L100.693 17.7918L100.649 18.0246Z" fill="#93AEBA"/>
<path d="M100.528 18.9685L104.951 19.8101L104.995 19.5772L100.572 18.7357L100.528 18.9685Z" fill="#93AEBA"/>
<path d="M100.393 19.906L104.817 20.748L104.861 20.5153L100.438 19.6732L100.393 19.906Z" fill="#93AEBA"/>
<path d="M100.009 20.8225L104.433 21.6646L104.477 21.4317L100.053 20.5897L100.009 20.8225Z" fill="#93AEBA"/>
<path d="M99.721 22.0827L106.473 23.3672L106.561 22.9016L99.8095 21.6171L99.721 22.0827Z" fill="#93AEBA"/>
<path d="M99.6595 23.0671L104.083 23.9087L104.127 23.6759L99.7038 22.8343L99.6595 23.0671Z" fill="#93AEBA"/>
<path d="M99.5623 23.9968L103.986 24.8384L104.03 24.6055L99.6066 23.764L99.5623 23.9968Z" fill="#93AEBA"/>
<path d="M99.4422 24.9407L103.866 25.7822L103.91 25.5494L99.4865 24.7078L99.4422 24.9407Z" fill="#93AEBA"/>
<path d="M99.1063 25.8298L103.53 26.6714L103.574 26.4386L99.1505 25.597L99.1063 25.8298Z" fill="#93AEBA"/>
<path d="M98.741 27.1193L105.493 28.4038L105.581 27.9382L98.8296 26.6537L98.741 27.1193Z" fill="#93AEBA"/>
<path d="M98.698 28.0915L103.122 28.9331L103.166 28.7003L98.7423 27.8587L98.698 28.0915Z" fill="#93AEBA"/>
<path d="M98.5799 29.0193L103.003 29.8613L103.048 29.6285L98.6242 28.7865L98.5799 29.0193Z" fill="#93AEBA"/>
<path d="M98.4574 29.9787L102.881 30.8203L102.925 30.5875L98.5017 29.7459L98.4574 29.9787Z" fill="#93AEBA"/>
<path d="M98.1043 30.8782L102.528 31.7197L102.572 31.4869L98.1486 30.6453L98.1043 30.8782Z" fill="#93AEBA"/>
<path d="M97.7918 32.124L104.543 33.4092L104.632 32.9435L97.8804 31.6583L97.7918 32.124Z" fill="#93AEBA"/>
<path d="M97.7655 33.0877L102.189 33.9297L102.233 33.6969L97.8098 32.8549L97.7655 33.0877Z" fill="#93AEBA"/>
<path d="M97.6116 34.0632L102.035 34.9048L102.079 34.672L97.6559 33.8304L97.6116 34.0632Z" fill="#93AEBA"/>
<path d="M97.5247 34.9754L101.948 35.8174L101.993 35.5846L97.5691 34.7426L97.5247 34.9754Z" fill="#93AEBA"/>
<path d="M97.159 35.8806L101.583 36.7227L101.627 36.4898L97.2033 35.6478L97.159 35.8806Z" fill="#93AEBA"/>
<path d="M96.8084 37.1755L103.56 38.46L103.649 37.9943L96.897 36.7098L96.8084 37.1755Z" fill="#93AEBA"/>
<path d="M96.8025 38.1286L101.226 38.9702L101.27 38.7374L96.8468 37.8958L96.8025 38.1286Z" fill="#93AEBA"/>
<path d="M96.6786 39.0598L101.102 39.9019L101.146 39.6691L96.7229 38.827L96.6786 39.0598Z" fill="#93AEBA"/>
<path d="M96.5457 40.0388L100.969 40.8799L101.014 40.6471L96.59 39.8059L96.5457 40.0388Z" fill="#93AEBA"/>
<path d="M96.2205 40.9089L100.644 41.7505L100.688 41.5177L96.2648 40.6761L96.2205 40.9089Z" fill="#93AEBA"/>
<path d="M95.8606 42.195L102.612 43.4795L102.701 43.0139L95.9492 41.7294L95.8606 42.195Z" fill="#93AEBA"/>
<path d="M95.8397 43.1414L100.263 43.9834L100.308 43.7506L95.884 42.9086L95.8397 43.1414Z" fill="#93AEBA"/>
<path d="M95.6883 44.1013L100.112 44.9434L100.156 44.7105L95.7326 43.8685L95.6883 44.1013Z" fill="#93AEBA"/>
<path d="M95.6038 45.0252L100.027 45.8672L100.072 45.6344L95.6482 44.7924L95.6038 45.0252Z" fill="#93AEBA"/>
<path d="M95.223 45.9538L99.6465 46.7954L99.6908 46.5626L95.2673 45.721L95.223 45.9538Z" fill="#93AEBA"/>
<path d="M94.9324 47.1884L101.684 48.4736L101.773 48.008L95.021 46.7228L94.9324 47.1884Z" fill="#93AEBA"/>
<path d="M94.8631 48.1887L99.2866 49.0303L99.3309 48.7975L94.9074 47.9559L94.8631 48.1887Z" fill="#93AEBA"/>
<path d="M94.7313 49.1389L99.1548 49.9805L99.1991 49.7476L94.7756 48.9061L94.7313 49.1389Z" fill="#93AEBA"/>
<path d="M94.6478 50.0632L99.0713 50.9048L99.1156 50.672L94.6921 49.8304L94.6478 50.0632Z" fill="#93AEBA"/>
<path d="M94.5301 50.991L98.9536 51.833L98.9979 51.6002L94.5744 50.7582L94.5301 50.991Z" fill="#93AEBA"/>
<path d="M94.1804 52.271L100.932 53.5562L101.021 53.0905L94.2691 51.8053L94.1804 52.271Z" fill="#93AEBA"/>
<path d="M93.928 53.2009L98.3516 54.0425L98.3959 53.8096L93.9723 52.9681L93.928 53.2009Z" fill="#93AEBA"/>
<path d="M93.7674 54.1516L98.1909 54.9937L98.2352 54.7609L93.8117 53.9188L93.7674 54.1516Z" fill="#93AEBA"/>
<path d="M93.6722 55.0813L98.0957 55.9233L98.14 55.6905L93.7165 54.8485L93.6722 55.0813Z" fill="#93AEBA"/>
<path d="M93.6094 55.9362L97.8752 56.8842V56.4102L93.6094 55.6992V55.9362Z" fill="#93AEBA"/>
<path d="M93.2908 57.0503L100.042 58.3354L100.131 57.8698L93.3794 56.5846L93.2908 57.0503Z" fill="#93AEBA"/>
<path d="M93.0037 57.9842L97.4272 58.8262L97.4716 58.5933L93.0481 57.7513L93.0037 57.9842Z" fill="#93AEBA"/>
<path d="M92.8577 58.9402L97.2812 59.7822L97.3256 59.5494L92.902 58.7074L92.8577 58.9402Z" fill="#93AEBA"/>
<path d="M92.7689 59.8675L97.1924 60.7095L97.2367 60.4766L92.8132 59.6346L92.7689 59.8675Z" fill="#93AEBA"/>
<path d="M92.6078 61.0564L97.0312 61.8979L97.0755 61.6651L92.652 60.8236L92.6078 61.0564Z" fill="#93AEBA"/>
<path d="M68.2522 30.3415L92.4249 61.3868C94.0838 63.5197 97.1647 63.7567 99.0606 62.3348C101.193 60.6759 101.43 57.595 100.008 55.6991L75.8358 24.6538C74.1769 22.5209 71.096 22.2839 69.2001 23.7058C68.2522 24.4168 67.5412 25.6017 67.3042 26.7867C67.0672 27.9716 67.3042 29.3935 68.2522 30.3415ZM95.2687 59.9649C94.7948 59.2539 94.7948 58.069 95.5057 57.595C96.2167 57.1211 97.4016 57.121 97.8756 57.832C98.3496 58.543 98.3496 59.7279 97.6386 60.2019C96.9277 60.6758 95.7427 60.6759 95.2687 59.9649Z" fill="#6F6EB2"/>
<path d="M71.3334 32.2373L93.3732 60.6758C94.5581 62.3347 96.928 62.5717 98.3499 61.3868C100.009 60.2018 100.246 57.832 99.0609 56.4101L77.0211 27.9716C75.8361 26.3127 73.4662 26.0757 72.0443 27.2606C70.3854 28.4455 70.1484 30.8154 71.3334 32.2373ZM95.2691 59.9649C94.7951 59.2539 94.7951 58.069 95.5061 57.595C96.217 57.121 97.402 57.121 97.876 57.832C98.3499 58.5429 98.3499 59.7279 97.639 60.2018C96.928 60.6758 95.7431 60.6758 95.2691 59.9649Z" fill="#175689"/>
<path d="M57.114 21.5729C57.8249 21.0989 58.5359 20.8619 59.2469 21.0989L63.0387 23.7058C63.7496 23.9428 64.4606 23.9427 65.1715 23.4688L67.3044 21.8099C68.4893 20.8619 69.6743 18.2551 68.4893 17.3071L61.1428 13.2783C59.7208 12.0934 60.1948 9.9605 61.8537 9.48653C63.7496 8.77556 66.5935 8.77557 70.3853 10.1975C78.4428 13.5153 77.9688 19.203 73.9401 24.4167C73.9401 24.6537 73.7031 24.6537 73.4661 24.8907L67.5414 29.3935C67.3044 29.6304 66.8304 29.8674 66.3565 29.8674L62.0907 30.3414C61.3797 30.3414 60.9058 30.1044 60.4318 29.8674L56.64 24.8907C55.929 24.1797 55.929 22.5208 57.114 21.5729Z" fill="#6F6EB2"/>
<path d="M72.9927 23.9427C72.9927 23.9427 73.2297 23.9427 72.9927 23.9427C74.6517 21.8098 76.3105 18.729 75.5996 16.1221C75.1256 14.2262 73.2297 12.5673 70.1489 11.3824C67.0681 10.1974 64.4612 9.96044 62.3283 10.6714C62.3283 10.6714 62.0913 10.6714 62.0913 10.9084C61.8543 11.1454 61.6173 11.3823 61.6173 11.6193C61.6173 11.8563 61.6174 12.0933 61.8543 12.3303L69.2009 16.3591C69.6749 16.5961 70.1489 17.3071 70.1489 18.492C70.1489 20.1509 68.9639 22.0468 68.016 22.7577L65.8831 24.4167C64.9352 25.1276 63.7502 25.3646 62.5653 24.8906H62.3283L58.5365 22.2838C58.2995 22.2838 57.8256 22.2838 57.5886 22.5208C57.3516 22.7578 57.3516 22.9948 57.3516 23.2317C57.3516 23.4687 57.3516 23.7057 57.5886 23.9427L61.3803 28.9194C61.6173 29.1564 61.8543 29.1564 62.0913 29.1564L66.3571 28.6824C66.5941 28.6824 66.8311 28.6824 66.8311 28.4455L72.9927 23.9427Z" fill="#175689"/>
<path d="M74.6515 30.5781C74.8884 30.3411 75.3624 30.3411 75.5994 30.5781L94.7954 55.2248C95.0324 55.4618 95.0324 55.9358 94.5584 56.1728C94.3214 56.4098 93.8474 56.4098 93.6104 56.1728L74.4144 31.5261C74.1775 31.2891 74.1775 30.8151 74.6515 30.5781Z" fill="#6F6EB2"/>
<path opacity="0.25" d="M61.3796 11.145C61.3796 11.145 70.6221 13.9889 71.57 16.8327C72.281 19.9135 68.7262 22.0465 68.7262 22.0465C68.7262 22.0465 71.57 19.6766 69.9111 17.3067C68.2522 14.9368 61.8535 12.5669 61.6166 12.093C61.1426 12.093 61.3796 11.145 61.3796 11.145Z" fill="#2B3990"/>
<path d="M21.0923 22.9948C20.6183 22.5208 19.6704 22.0469 18.7224 22.0469C17.0635 22.0469 15.6416 23.4688 15.6416 25.3647L16.1156 51.6703C16.1156 53.3292 17.5375 54.7511 19.4334 54.7511C21.0923 54.7511 22.5142 53.3292 22.5142 51.4333L22.0403 25.1277C22.0403 24.4167 21.5663 23.4688 21.0923 22.9948ZM19.4334 53.0922C18.7224 53.0922 18.2484 52.6182 18.2484 51.9073C18.2484 51.1963 18.7224 50.7223 19.4334 50.7223C20.1443 50.7223 20.6183 51.1963 20.6183 51.9073C20.3813 52.6182 19.9074 53.0922 19.4334 53.0922Z" fill="#14527C"/>
<path d="M18.7219 25.3647C17.3 25.3647 16.3521 26.5497 16.3521 27.7346L16.8261 51.6704C16.8261 53.0923 18.011 54.0402 19.1959 54.0402C20.6179 54.0402 21.5658 52.8553 21.5658 51.6704L21.0918 27.7346C21.0918 26.3127 20.1438 25.3647 18.7219 25.3647ZM19.4329 53.0923C18.7219 53.0923 18.248 52.6183 18.248 51.9073C18.248 51.1964 18.7219 50.7224 19.4329 50.7224C20.1439 50.7224 20.6178 51.1964 20.6178 51.9073C20.3808 52.6183 19.9069 53.0923 19.4329 53.0923Z" fill="#175689"/>
<path d="M23.9355 16.1222C23.4615 16.1222 22.9875 16.3592 22.5135 16.8331L21.5656 19.914C21.3286 20.388 20.8546 20.625 20.3806 20.625H18.4847C17.5368 20.625 15.8779 19.914 15.8779 18.9661L18.0108 13.7523C18.2478 12.5674 17.0628 11.6194 16.1149 12.0934C14.9299 12.5674 13.271 13.7523 12.0861 16.1222C9.24224 21.3359 11.8491 23.9428 16.3518 25.1277C16.5888 25.1277 16.5888 25.1277 16.8258 25.1277H21.8026C22.0395 25.1277 22.2765 25.1277 22.5135 24.8907L24.8834 23.2318C25.1204 22.9948 25.3574 22.7578 25.5944 22.2839V18.2551C25.5944 16.8332 24.8834 16.1222 23.9355 16.1222Z" fill="#14527C"/>
<path d="M16.8262 23.9426C16.5892 23.9426 16.5892 23.9426 16.8262 23.9426C14.9303 23.4686 13.0344 22.7577 12.3234 21.0988C11.8494 19.9138 12.0864 18.2549 13.0344 16.359C13.9823 14.4631 15.4043 13.2782 16.8262 12.8042H17.0632C17.3001 12.8042 17.5371 12.8042 17.5371 13.0412C17.5371 13.0412 17.7741 13.2782 17.7741 13.5152L15.6413 18.7289C15.6413 18.9659 15.6412 19.6768 16.1152 20.1508C16.8262 20.8618 18.2481 21.5727 18.9591 21.3358H20.855C21.5659 21.3358 22.2769 20.8618 22.7509 20.1508L23.6988 17.07C23.9358 16.833 23.9358 16.833 24.1728 16.833C24.4098 16.833 24.6467 17.07 24.6467 17.07C24.6467 17.07 24.8838 17.307 24.8838 17.5439V21.5727C24.8838 21.8097 24.6467 21.8097 24.6467 22.0467L22.2769 23.7056H22.0399L16.8262 23.9426Z" fill="#175689"/>
<path d="M18.7215 28.2085C18.4845 28.2085 18.2476 28.4455 18.2476 28.6825L18.7215 49.5374C18.7215 49.7744 18.9585 50.0113 19.1955 50.0113C19.4325 50.0113 19.6695 49.7744 19.6695 49.5374L19.1955 28.6825C19.1955 28.2085 18.9585 28.2085 18.7215 28.2085Z" fill="#6F6EB2"/>
<path opacity="0.25" d="M17.2997 12.5674C17.2997 12.5674 13.7449 18.0181 14.4558 19.914C15.4038 21.8099 18.2476 21.3359 18.2476 21.3359C18.2476 21.3359 15.8778 21.3359 15.6408 19.44C15.4038 17.5441 17.7736 13.5153 17.7736 13.2783C17.7736 13.0413 17.2997 12.5674 17.2997 12.5674Z" fill="#2B3990"/>
<path d="M93.6096 14.463C98.1124 15.885 99.0603 17.7809 99.0603 17.7809C91.9507 16.359 89.5808 19.9138 89.5808 19.9138L91.9507 24.4165V25.1275C88.3959 29.6302 86.263 28.2083 86.263 28.2083C86.263 28.2083 81.7602 22.0466 80.5753 25.8384C79.8643 27.9713 78.6794 28.6823 77.9684 28.9193C77.2575 29.1563 77.0205 29.1563 77.0205 29.1563C73.4657 27.2604 72.9917 23.2316 72.9917 23.2316C73.2287 22.9946 73.2287 22.7576 73.4657 22.5206C75.1246 20.6247 76.3095 21.3357 78.2054 20.8617C80.3383 20.3878 79.8643 18.4919 79.8643 18.4919C84.6041 14.2261 89.3438 13.0411 93.6096 14.463Z" fill="#175689"/>
<path d="M92.1882 24.1797L102.853 41.2428L108.777 50.9593C108.777 50.9593 109.962 52.6182 110.199 53.3291C110.673 54.2771 108.303 56.41 106.644 55.699C105.933 55.462 104.986 53.3291 104.986 53.3291L98.3499 44.3236L86.5005 28.2085C86.5005 28.2085 88.8704 27.7345 91.4772 25.1276C91.4772 24.8906 91.7142 24.4167 92.1882 24.1797Z" fill="url(#paint0_linear)"/>
<path d="M108.54 50.9592C108.066 51.6701 106.881 52.6181 104.748 53.329L98.1128 44.3235C99.0607 43.8495 100.72 43.1386 102.616 41.2427L108.54 50.9592Z" fill="#175689"/>
<g opacity="0.35">
<path opacity="0.35" d="M107.354 55.4622L87.9213 27.9717L86.7363 28.4456L106.406 55.2252L107.354 55.4622Z" fill="url(#paint1_linear)"/>
</g>
<g opacity="0.25">
<path opacity="0.25" d="M73.4657 22.5205C74.6506 26.7863 77.4944 28.6822 77.9684 28.9192C77.2575 29.1561 77.0205 29.1562 77.0205 29.1562C73.4657 27.2603 72.9917 23.2315 72.9917 23.2315C73.2287 22.9945 73.4657 22.7575 73.4657 22.5205Z" fill="#2B3990"/>
</g>
<g opacity="0.25">
<path opacity="0.25" d="M73.9395 23.2315C73.9395 23.2315 74.6504 22.0466 77.0203 21.8096C79.3902 21.5726 79.6272 21.0986 79.6272 21.0986C79.6272 21.0986 78.6792 22.0466 77.0203 22.5206C75.3614 22.9945 74.4134 24.4165 74.4134 24.4165L73.9395 23.2315Z" fill="url(#paint2_linear)"/>
</g>
<g opacity="0.25">
<path opacity="0.25" d="M80.3384 19.6766V18.4916C80.3384 18.4916 85.5521 13.5149 90.5288 13.9889C90.5288 14.2258 85.5521 14.2259 80.3384 19.6766Z" fill="url(#paint3_linear)"/>
</g>
<g opacity="0.25">
<path opacity="0.25" d="M99.0606 17.5441C91.951 16.1221 89.5812 19.677 89.5812 19.677L91.951 24.1797C91.714 24.6537 91.477 24.8907 91.0031 25.1277L87.4482 18.729C87.6852 18.966 94.5579 14.9372 99.0606 17.5441Z" fill="#2B3990"/>
</g>
<path d="M26.306 8.06437C23.4622 11.6192 23.6992 13.7521 23.6992 13.7521C28.6759 8.53837 32.4677 9.96028 32.4677 9.96028L33.1787 14.937L33.6526 15.648C39.1033 17.3069 40.0513 14.937 40.0513 14.937C40.0513 14.937 40.0513 7.3534 43.1321 9.72328C44.791 11.1452 46.213 10.9082 47.1609 10.6713C47.8719 10.4343 48.1089 10.1973 48.1089 10.1973C50.0048 6.64247 47.8719 3.08766 47.8719 3.08766C47.6349 3.08766 47.3979 2.85066 47.1609 2.85066C44.791 2.1397 44.3171 3.32465 42.4212 4.2726C40.5253 5.22055 39.5773 3.32463 39.5773 3.32463C33.6526 2.61366 29.1499 4.27258 26.306 8.06437Z" fill="#175689"/>
<path d="M33.4155 15.1738L34.6005 35.3178L35.3114 46.6932C35.3114 46.6932 35.3114 48.826 35.5484 49.537C35.7854 50.485 38.8662 50.959 39.8142 49.3C40.2882 48.5891 39.8142 46.4562 39.8142 46.4562L40.0511 35.3178L40.5252 15.1738C40.5252 15.1738 38.3922 16.3588 34.8374 15.6478C34.3635 15.4108 33.8895 15.1738 33.4155 15.1738Z" fill="url(#paint4_linear)"/>
<path d="M35.3115 46.4559C36.2595 46.6929 37.6814 46.9299 39.8143 46.219L40.0513 35.0806C38.8663 35.3176 37.2074 35.5545 34.6006 35.0806L35.3115 46.4559Z" fill="#175689"/>
<g opacity="0.35">
<path opacity="0.35" d="M39.103 49.3003V15.8851L40.288 15.4111L39.814 48.8263L39.103 49.3003Z" fill="url(#paint5_linear)"/>
</g>
<g opacity="0.25">
<path opacity="0.25" d="M47.6348 3.0874C49.0567 7.11619 47.8718 10.434 47.6348 10.908C48.3457 10.671 48.5827 10.434 48.5827 10.434C50.4786 6.87918 48.3457 3.32437 48.3457 3.32437C48.1087 3.08738 47.8718 3.0874 47.6348 3.0874Z" fill="#2B3990"/>
</g>
<g opacity="0.25">
<path opacity="0.25" d="M47.6346 3.79817C47.6346 3.79817 46.4497 3.32422 44.3168 4.27217C42.1839 5.22012 41.71 5.22011 41.71 5.22011C41.71 5.22011 42.8949 5.45708 44.5538 4.9831C46.2127 4.50913 47.6346 4.9831 47.6346 4.9831V3.79817Z" fill="url(#paint6_linear)"/>
</g>
<g opacity="0.25">
<path opacity="0.25" d="M40.5255 4.74645L39.8145 3.79848C39.8145 3.79848 32.7049 2.61357 28.9131 5.93139C28.9131 5.93139 33.1789 3.08754 40.5255 4.74645Z" fill="url(#paint7_linear)"/>
</g>
<g opacity="0.25">
<path opacity="0.25" d="M23.936 13.7518C28.9128 8.53811 32.7046 9.96002 32.7046 9.96002L33.4155 14.9368C33.8895 15.1738 34.3635 15.1737 34.8374 15.1737L34.1265 7.82715C33.8895 8.06414 26.0689 9.01209 23.936 13.7518Z" fill="#2B3990"/>
</g>
<path d="M25.3578 43.8495C25.8317 45.9824 26.7797 48.1153 27.9646 50.0112L24.6468 53.803L29.1496 58.3057L32.9413 54.9879C33.4153 55.2249 33.8893 55.6989 34.3633 55.9359C34.8373 56.1729 35.5482 56.4099 36.2592 56.8838C37.2071 57.3578 38.1551 57.5948 39.103 57.8318V62.8085H46.2127V57.8318C48.3455 57.3578 50.4784 56.4099 52.1373 55.4619C52.1373 55.4619 52.1374 55.4619 52.3743 55.4619L56.1661 58.7797L60.6689 54.277L57.3511 50.4852C58.536 48.5893 59.484 46.4564 59.9579 44.3235L64.9347 43.8495V37.4509L59.9579 36.9769C59.484 34.844 58.536 32.7111 57.3511 30.8152L60.6689 27.0234L56.1661 22.5207L52.3743 25.8385C50.4784 24.6535 48.3455 23.7056 46.2127 23.2316L45.7387 18.2549H39.34L38.866 23.2316C36.7331 23.7056 34.6003 24.6535 32.7044 25.8385L28.9126 22.5207L24.4098 27.0234L27.7276 30.8152C26.5427 32.7111 25.5948 34.844 25.1208 36.9769L20.144 37.4509V43.8495H25.3578ZM32.9413 40.0577C32.9413 34.607 37.4441 30.1043 42.8948 30.1043C48.3456 30.1043 52.8483 34.607 52.8483 40.0577C52.8483 45.5084 48.3456 50.0112 42.8948 50.0112C37.4441 50.0112 32.9413 45.7454 32.9413 40.0577Z" fill="#175689"/>
<g opacity="0.2">
<path opacity="0.2" d="M25.3571 36.503C27.253 31.0523 31.5188 29.6304 31.5188 29.6304L26.7791 24.1797L24.4092 26.3126L27.727 30.1044C26.5421 32.2373 25.8311 34.1332 25.3571 36.503Z" fill="#2B3990"/>
<path opacity="0.2" d="M60.4317 43.8496C58.5358 49.3003 54.27 50.7222 54.27 50.7222L59.0098 56.1729L61.3796 54.0401L58.0618 50.2483C59.2468 48.1154 60.1947 45.9825 60.4317 43.8496Z" fill="#2B3990"/>
</g>
<g opacity="0.2">
<path opacity="0.2" d="M46.686 22.5207C52.1367 24.4166 53.5587 28.6824 53.5587 28.6824L59.0094 23.9426L56.8765 21.5728L53.0847 24.8906C50.9518 23.9426 48.8189 22.9947 46.686 22.5207Z" fill="#2B3990"/>
<path opacity="0.2" d="M27.0166 56.1727L29.1495 58.5425L32.9413 55.2247C33.4153 55.4617 33.8893 55.9357 34.3632 56.1727C34.8372 56.4097 35.3112 56.6467 36.0221 56.8836C36.9701 57.3576 38.155 57.5946 39.103 57.8316C37.918 57.3576 36.9701 56.8836 36.2591 56.4097C35.5482 55.9357 35.0742 55.4617 34.6002 54.9877C32.7043 53.3288 32.2304 51.6699 32.2304 51.6699L27.0166 56.1727Z" fill="#2B3990"/>
</g>
<g opacity="0.2">
<path opacity="0.2" d="M27.9644 50.0116C25.5946 44.7978 27.4905 40.5321 27.4905 40.5321L20.3809 40.0581V43.1389L25.3576 43.6129C25.8315 45.9828 26.5425 48.1157 27.9644 50.0116Z" fill="#2B3990"/>
<path opacity="0.2" d="M58.0615 30.3413C60.4314 35.555 58.5355 39.8208 58.5355 39.8208L65.6451 40.2948V37.2139L60.6684 36.74C60.1944 34.3701 59.2465 32.2372 58.0615 30.3413Z" fill="#2B3990"/>
</g>
<g opacity="0.2">
<path opacity="0.2" d="M43.1309 62.8082H46.4487V57.8314C48.5816 57.3575 50.7145 56.6465 52.6104 55.2246C52.6104 55.2246 52.6104 55.2246 52.3734 55.2246C47.1597 57.5945 43.1309 55.6986 43.1309 55.6986V62.8082Z" fill="#2B3990"/>
<path opacity="0.2" d="M32.9409 25.1275C38.1546 22.7577 42.4204 24.6536 42.4204 24.6536L42.8944 17.5439H39.8136L39.3396 22.5207C36.9697 22.9947 35.0738 23.9426 32.9409 25.1275Z" fill="#2B3990"/>
</g>
<path d="M32.2305 40.058C32.2305 45.9827 36.9702 50.7224 42.8949 50.7224C48.8196 50.7224 53.5593 45.9827 53.5593 40.058C53.5593 34.1333 48.8196 29.3936 42.8949 29.3936C36.9702 29.3936 32.2305 34.3703 32.2305 40.058ZM33.4154 40.058C33.4154 34.8443 37.6812 30.5785 42.8949 30.5785C48.1086 30.5785 52.3744 34.8443 52.3744 40.058C52.3744 45.2717 48.1086 49.5375 42.8949 49.5375C37.6812 49.7745 33.4154 45.5087 33.4154 40.058Z" fill="#14527C"/>
<path d="M17.7764 107.004L127.976 107.004V49.1795L17.7764 49.1795V107.004Z" fill="#FEAA32"/>
<path opacity="0.67" d="M101.931 107.004H128V49.1795H101.931V107.004Z" fill="#F19B17"/>
<path d="M17.7764 53.9673L127.976 53.9673V38.5631L17.7764 38.5631V53.9673Z" fill="#F29C17"/>
<path d="M45.0241 101.086H49.5269V98.4795H45.0241V101.086Z" fill="#F19B17"/>
<path d="M38.3888 101.086H42.8916V98.4795H38.3888V101.086Z" fill="#F19B17"/>
<path d="M28.4949 101.264H36.3154V96.5244H28.4949V101.264Z" fill="#F19B17"/>
<path d="M0 29.3931V98.3564L17.7741 106.888V38.6356L0 29.3931Z" fill="#DD891B"/>
<defs>
<linearGradient id="paint0_linear" x1="82.9614" y1="14.6638" x2="117.734" y2="73.9399" gradientUnits="userSpaceOnUse">
<stop stop-color="#FCDB46"/>
<stop offset="1" stop-color="#FF7655"/>
</linearGradient>
<linearGradient id="paint1_linear" x1="97.4664" y1="55.7476" x2="96.4555" y2="27.7631" gradientUnits="userSpaceOnUse">
<stop offset="0.00793651" stop-color="white"/>
<stop offset="1" stop-color="#C49A6C"/>
</linearGradient>
<linearGradient id="paint2_linear" x1="76.8256" y1="23.9232" x2="76.7156" y2="20.8791" gradientUnits="userSpaceOnUse">
<stop offset="0.00793651" stop-color="white"/>
<stop offset="1" stop-color="#C49A6C"/>
</linearGradient>
<linearGradient id="paint3_linear" x1="85.4683" y1="19.5315" x2="85.2795" y2="14.3069" gradientUnits="userSpaceOnUse">
<stop offset="0.00793651" stop-color="white"/>
<stop offset="1" stop-color="#C49A6C"/>
</linearGradient>
<linearGradient id="paint4_linear" x1="35.3519" y1="2.05742" x2="41.326" y2="70.5202" gradientUnits="userSpaceOnUse">
<stop stop-color="#FCDB46"/>
<stop offset="1" stop-color="#FF7655"/>
</linearGradient>
<linearGradient id="paint5_linear" x1="47.3137" y1="43.9533" x2="31.9333" y2="20.5522" gradientUnits="userSpaceOnUse">
<stop offset="0.00793651" stop-color="white"/>
<stop offset="1" stop-color="#C49A6C"/>
</linearGradient>
<linearGradient id="paint6_linear" x1="45.7154" y1="6.05397" x2="44.0422" y2="3.50834" gradientUnits="userSpaceOnUse">
<stop offset="0.00793651" stop-color="white"/>
<stop offset="1" stop-color="#C49A6C"/>
</linearGradient>
<linearGradient id="paint7_linear" x1="36.1268" y1="7.47877" x2="33.2552" y2="3.10969" gradientUnits="userSpaceOnUse">
<stop offset="0.00793651" stop-color="white"/>
<stop offset="1" stop-color="#C49A6C"/>
</linearGradient>
</defs>
</svg>
