<svg width="163" height="64" viewBox="0 0 163 64" fill="none" xmlns="http://www.w3.org/2000/svg">
<path d="M138.167 45.5122C138.167 45.5122 133.425 11.6103 142.908 15.1002C152.142 18.3408 147.9 32.0511 138.167 45.5122Z" fill="#FFCA1A"/>
<path d="M137.417 45.263C137.417 45.263 156.383 11.8599 169.61 23.3267C182.836 34.7934 137.417 45.263 137.417 45.263Z" fill="#6CA882"/>
<path opacity="0.5" d="M168.863 23.825C168.364 24.8221 167.865 25.8192 166.617 26.0685C165.119 26.3178 163.622 26.0685 162.374 25.8193C160.877 25.8193 159.13 26.0685 157.633 26.5671C156.135 27.3149 154.887 28.312 153.889 29.3092C152.641 30.3063 151.394 31.3034 150.146 32.0512C148.898 32.7991 147.151 33.0483 145.903 33.2976C152.392 25.3207 161.626 17.0945 169.362 22.8279C169.112 23.3264 169.112 23.5757 168.863 23.825Z" fill="#F2FAFF"/>
<path d="M164.369 63.7096H0.161133L2.40705 55.4835L7.89733 36.0398C11.8902 22.3295 25.3663 13.8541 39.5911 16.0976L46.5786 17.344C47.0777 17.344 47.5769 17.5932 48.0761 17.5932C51.3203 17.5932 54.3149 16.0976 56.0618 13.3555C68.29 -4.84175 95.7414 -2.59827 104.975 17.344L106.223 20.086C108.469 24.8223 113.959 27.0658 118.701 24.8223L125.688 21.5817C129.931 19.8367 134.423 21.0831 136.918 24.3237C137.916 25.5701 138.416 27.0658 138.915 28.5615L139.913 34.7934C140.162 36.2891 140.662 37.5355 141.66 38.7819C141.909 39.0311 141.909 39.2804 142.159 39.2804C143.656 41.0253 145.653 42.0225 147.649 42.521C148.148 42.521 148.647 42.7703 149.396 42.7703C151.143 42.7703 152.89 42.2717 154.637 41.2746C158.38 38.7819 163.371 39.5297 166.366 42.521L171.108 47.2573C177.346 53.2399 172.854 63.7096 164.369 63.7096Z" fill="#6CA882"/>
<path opacity="0.2" d="M170.608 50.4976C169.61 49.0019 169.111 47.5063 168.112 46.0106C165.866 43.2685 162.123 42.5207 158.629 43.2686C156.383 43.7671 154.387 44.5149 151.891 44.2657C150.144 44.0164 148.397 43.7671 146.651 43.2686C143.157 42.2715 139.663 40.7758 137.916 37.5352C135.92 34.5438 136.918 30.3061 134.672 27.3147C132.176 24.0741 127.934 24.5727 124.689 25.5698C122.693 26.3176 121.196 27.3148 119.199 28.0626C116.953 28.8104 114.458 28.8104 112.212 28.3119C110.964 28.0626 109.966 27.564 108.718 27.0655C107.969 26.8162 107.47 26.3177 106.971 25.8191C106.222 24.822 105.973 23.5756 105.973 22.3292C105.973 21.5813 106.222 20.8335 106.472 20.0857C108.718 24.5727 114.208 26.3176 118.7 24.3234L125.688 21.0828C129.93 19.3378 134.422 20.5842 136.918 23.8249C137.916 25.0713 138.415 26.5669 138.914 28.0626L139.912 34.2945C140.162 35.7902 140.661 37.0366 141.659 38.283C141.909 38.5323 141.909 38.7816 142.158 38.7816C143.656 40.5265 145.652 41.5236 147.649 42.0222C148.148 42.0222 148.647 42.2714 149.396 42.2714C151.143 42.2714 152.889 41.7729 154.636 40.7758C158.38 38.283 163.371 39.0308 166.365 42.0222L171.107 46.7584C172.854 48.5034 173.852 50.4976 173.852 52.7411C172.604 52.7411 171.606 51.744 170.608 50.4976Z" fill="#F2FAFF"/>
<path d="M149.896 63.7095H0.411133L2.65721 55.4833C10.1439 48.7528 20.3758 45.5122 30.6076 47.5064L36.0978 48.5035L39.0925 49.0021C39.8412 49.0021 40.3402 49.2514 41.0889 49.2514C42.5863 49.2514 43.8341 49.0021 45.0819 48.5035C47.3279 47.7557 49.0749 46.26 50.5722 44.2658C52.5687 41.5237 54.5651 39.031 57.0606 37.0367C58.0588 36.2889 59.0571 35.541 60.0553 34.7932C65.5456 31.3033 71.7846 29.3091 78.0235 29.3091C81.7668 29.3091 85.2606 29.8077 88.7544 30.8048C97.2393 33.5468 104.726 39.5295 108.968 49.0021L110.466 52.2427C112.961 57.9761 119.7 60.4689 125.439 57.9761L129.682 55.9819L133.924 54.2369C135.921 53.4891 137.667 53.2398 139.664 53.2398C144.655 53.7384 148.898 57.2282 149.646 62.7124L149.896 63.7095Z" fill="#5B8B6D"/>
<path d="M125.938 37.0366C127.592 37.0366 128.933 35.6974 128.933 34.0453C128.933 32.3932 127.592 31.054 125.938 31.054C124.284 31.054 122.943 32.3932 122.943 34.0453C122.943 35.6974 124.284 37.0366 125.938 37.0366Z" fill="#FFCA1A"/>
<path d="M87.2563 50.498C88.9102 50.498 90.251 49.1588 90.251 47.5067C90.251 45.8546 88.9102 44.5154 87.2563 44.5154C85.6024 44.5154 84.2617 45.8546 84.2617 47.5067C84.2617 49.1588 85.6024 50.498 87.2563 50.498Z" fill="#FFCA1A"/>
<path d="M25.3658 29.3094C27.0197 29.3094 28.3605 27.9701 28.3605 26.318C28.3605 24.6659 27.0197 23.3267 25.3658 23.3267C23.7119 23.3267 22.3711 24.6659 22.3711 26.318C22.3711 27.9701 23.7119 29.3094 25.3658 29.3094Z" fill="#FFCA1A"/>
<path d="M95.2426 22.3296C96.6209 22.3296 97.7382 21.2135 97.7382 19.8368C97.7382 18.4601 96.6209 17.344 95.2426 17.344C93.8644 17.344 92.7471 18.4601 92.7471 19.8368C92.7471 21.2135 93.8644 22.3296 95.2426 22.3296Z" fill="#DDF3FB"/>
<path d="M40.0903 45.7615C41.4685 45.7615 42.5858 44.6454 42.5858 43.2687C42.5858 41.8919 41.4685 40.7759 40.0903 40.7759C38.712 40.7759 37.5947 41.8919 37.5947 43.2687C37.5947 44.6454 38.712 45.7615 40.0903 45.7615Z" fill="#DDF3FB"/>
<path d="M129.431 62.214C129.431 62.214 116.205 45.7617 122.194 44.5153C128.184 43.2689 130.18 51.7443 129.431 62.214Z" fill="#5B8B6D"/>
<path opacity="0.5" d="M128.932 51.9936C128.433 51.7443 127.934 51.495 127.685 50.7472C127.186 49.7501 127.186 48.2543 126.687 47.2572C126.437 46.7587 125.938 46.2601 125.439 46.0108C124.94 45.7615 124.191 45.5123 123.692 45.263C123.193 45.0137 123.193 44.5151 123.442 44.2659C126.437 44.2659 128.433 47.5065 128.932 51.9936C129.182 51.9936 128.932 51.9936 128.932 51.9936Z" fill="#F2FAFF"/>
<path d="M129.433 62.214C129.433 62.214 137.668 40.0284 146.902 45.7617C155.886 51.2458 129.433 62.214 129.433 62.214Z" fill="#DDF3FB"/>
<path opacity="0.2" d="M146.401 45.2631C146.401 45.5123 146.152 45.7616 145.902 45.7616C145.653 46.0109 145.154 45.7616 144.654 45.7616C143.906 45.7616 142.908 45.7616 142.159 45.7616C141.161 46.0109 140.412 46.5095 139.663 47.008C138.416 48.0051 137.417 49.5008 135.92 50.2486C135.67 50.4979 135.421 50.4979 134.922 50.7472C138.166 46.5095 142.159 43.0196 146.401 45.2631Z" fill="#F2FAFF"/>
<path d="M129.432 62.2139C129.432 62.2139 98.7366 58.4747 106.473 53.7385C114.209 48.753 129.432 62.2139 129.432 62.2139Z" fill="#FFCA1A"/>
<path opacity="0.2" d="M119.201 55.2339C118.203 54.9846 117.703 54.4861 116.955 53.9875C116.206 53.489 115.457 53.2397 114.709 52.9904C113.461 52.7411 112.463 52.9904 111.215 52.9904C110.716 52.9904 110.217 52.7412 110.217 52.4919C113.211 52.2426 116.705 53.7383 119.95 55.4832C119.45 55.4832 119.45 55.4832 119.201 55.2339Z" fill="#F2FAFF"/>
</svg>
