<svg width="268" height="97" viewBox="0 0 268 97" fill="none" xmlns="http://www.w3.org/2000/svg">
<path d="M56.1932 69.3285C56.1932 69.3285 63.5417 17.5154 49.2772 22.6967C35.0126 27.878 41.4964 48.6033 56.1932 69.3285Z" fill="#FFCA1A"/>
<path d="M57.0587 68.8971C57.0587 68.8971 28.0972 17.5156 7.78101 35.2184C-12.1029 52.9213 57.0587 68.8971 57.0587 68.8971Z" fill="#6CA882"/>
<path opacity="0.5" d="M9.07744 35.65C9.5097 37.3771 10.8064 38.6725 12.5355 39.1043C14.6968 39.536 16.8581 39.1043 19.0193 38.6725C21.6129 38.6725 23.7741 39.1042 25.9354 39.9678C28.0967 40.8313 29.8258 42.5584 31.9871 44.2856C33.7162 46.0127 35.8773 47.308 38.0386 48.6033C40.1999 49.4669 42.3612 49.8987 44.5225 50.3304C34.5805 37.809 20.316 25.2875 8.64502 34.3548C8.64502 35.2183 8.64518 35.2183 9.07744 35.65Z" fill="#F2FAFF"/>
<path d="M15.9934 96.962H267.568L264.11 84.4405L255.465 54.648C249.413 33.4911 228.665 20.5378 207.052 23.992L196.246 25.7191C195.381 25.7191 194.516 25.7191 193.652 25.7191C188.897 25.7191 184.142 23.1285 181.549 19.2425C162.961 -8.82291 120.6 -5.36873 106.768 25.2873L105.039 29.6051C101.581 36.9452 93.3678 39.9677 86.0194 36.9452L75.2129 32.1957C68.729 29.1733 61.8129 31.3322 57.9226 36.5135C56.6258 38.2406 55.329 40.3995 54.8967 42.9901L53.1676 52.4892C52.7353 54.648 51.8709 56.8069 50.5741 58.534C50.1418 58.9658 50.1418 58.9658 49.7095 59.3975C47.5482 61.9882 44.5224 63.7153 41.0643 64.1471C40.1998 64.1471 39.3354 64.5789 38.4709 64.5789C35.8773 64.5789 32.8514 63.7153 30.2579 61.9882C24.6385 58.1022 16.8578 58.9658 12.1029 64.1471L4.75473 71.4873C-3.89046 80.9863 2.59332 96.962 15.9934 96.962Z" fill="#6CA882"/>
<path opacity="0.2" d="M6.05174 77.1004C7.34852 74.9415 8.21288 72.3508 9.94191 70.1919C13.4 65.8742 19.0196 65.0106 24.2067 65.8742C27.6648 66.306 30.6904 67.6013 34.5807 67.1695C37.1743 66.7378 40.2002 66.306 42.7938 65.8742C47.9809 64.5789 53.1679 61.9882 56.1937 57.2387C59.2195 52.4891 57.9228 46.0125 61.3809 41.6948C65.2712 36.9453 71.7551 37.377 76.51 39.1041C79.5358 39.9677 82.1294 42.1266 84.723 42.9901C88.1811 44.2855 91.6391 44.2854 95.5295 43.4219C97.2585 42.9901 98.9873 42.5583 100.716 41.6948C101.581 41.263 102.878 40.8312 103.31 39.5359C104.607 38.2406 105.039 36.0817 105.039 34.3546C105.039 33.0593 104.607 32.1957 104.175 30.9004C100.717 37.8088 92.5034 40.3995 85.5873 37.377L74.7808 32.6275C68.2969 29.605 61.3808 31.7639 57.4904 36.9452C56.1937 38.6723 54.8971 40.8312 54.4648 43.4219L52.7357 52.9209C52.3034 55.0798 51.439 57.2387 50.1422 58.9658C49.71 59.3976 49.7099 59.3976 49.2777 59.8294C47.1164 62.42 44.0906 64.1471 40.6325 64.5789C39.768 64.5789 38.9033 65.0107 38.0388 65.0107C35.4452 65.0107 32.4196 64.1471 29.826 62.42C24.2066 58.5341 16.4259 59.3976 11.6711 64.5789L4.32259 71.9191C1.72904 74.5097 0.432259 77.9639 0 80.9863C3.45808 80.1228 5.18722 78.8275 6.05174 77.1004Z" fill="#F2FAFF"/>
<path d="M38.4707 96.9624H268L264.542 84.4408C253.304 74.0782 237.31 69.3287 221.749 71.9194L213.103 73.2147L208.349 74.0783C207.484 74.0783 206.187 74.51 205.323 74.51C203.161 74.51 201 74.0783 199.271 73.2147C195.813 71.9194 193.219 69.7605 191.058 66.7381C188.032 62.4204 184.574 58.5343 181.116 55.5119C179.82 54.2166 178.09 53.353 176.794 52.0577C168.581 46.4446 158.639 43.854 149.129 43.854C143.51 43.854 137.89 44.7175 132.703 46.4446C119.735 50.7624 108.064 59.8297 101.58 74.0783L99.4192 78.8278C95.5288 87.4633 85.1547 91.3492 76.5095 87.4633L70.0256 84.4408L63.5417 81.4184C60.5159 80.1231 57.4901 79.6913 54.8965 80.1231C47.5481 80.9866 40.6321 86.5997 39.3353 94.3717L38.4707 96.9624Z" fill="#5B8B6D"/>
<path d="M74.7796 55.9436C77.1669 55.9436 79.1022 54.0105 79.1022 51.6259C79.1022 49.2412 77.1669 47.3081 74.7796 47.3081C72.3923 47.3081 70.457 49.2412 70.457 51.6259C70.457 54.0105 72.3923 55.9436 74.7796 55.9436Z" fill="#FFCA1A"/>
<path d="M134.433 76.2371C136.82 76.2371 138.756 74.3039 138.756 71.9193C138.756 69.5347 136.82 67.6016 134.433 67.6016C132.046 67.6016 130.11 69.5347 130.11 71.9193C130.11 74.3039 132.046 76.2371 134.433 76.2371Z" fill="#FFCA1A"/>
<path d="M229.098 43.8537C231.485 43.8537 233.421 41.9206 233.421 39.536C233.421 37.1514 231.485 35.2183 229.098 35.2183C226.711 35.2183 224.775 37.1514 224.775 39.536C224.775 41.9206 226.711 43.8537 229.098 43.8537Z" fill="#FFCA1A"/>
<path d="M121.896 33.491C123.806 33.491 125.355 31.9445 125.355 30.0368C125.355 28.1291 123.806 26.5825 121.896 26.5825C119.987 26.5825 118.438 28.1291 118.438 30.0368C118.438 31.9445 119.987 33.491 121.896 33.491Z" fill="#DDF3FB"/>
<path d="M206.62 68.8963C208.529 68.8963 210.078 67.3498 210.078 65.442C210.078 63.5343 208.529 61.9878 206.62 61.9878C204.71 61.9878 203.162 63.5343 203.162 65.442C203.162 67.3498 204.71 68.8963 206.62 68.8963Z" fill="#DDF3FB"/>
<path d="M69.5928 94.8035C69.5928 94.8035 89.9091 69.3287 80.3993 67.6016C71.3219 65.8745 68.296 78.8278 69.5928 94.8035Z" fill="#5B8B6D"/>
<path opacity="0.5" d="M70.458 79.2593C71.3225 78.8275 72.1871 78.3958 72.1871 77.5322C73.0516 75.8051 73.0517 73.6462 73.9163 72.3508C74.3485 71.4873 75.213 71.0555 76.0775 70.6238C76.9421 70.192 77.8065 70.192 78.671 69.7602C79.5355 69.3284 79.5354 68.8966 79.1031 68.0331C73.916 67.6013 71.3225 72.3509 70.458 79.2593C70.0257 79.2593 70.0257 79.2593 70.458 79.2593Z" fill="#F2FAFF"/>
<path d="M69.5941 94.8035C69.5941 94.8035 57.0585 60.6931 42.794 69.3286C28.9617 77.9642 69.5941 94.8035 69.5941 94.8035Z" fill="#DDF3FB"/>
<path opacity="0.2" d="M43.2251 68.8963C43.2251 69.3281 43.6574 69.328 44.0897 69.7598C44.5219 70.1916 45.3866 69.7598 45.8188 69.7598C47.1156 69.7598 48.4122 69.7598 49.709 69.7598C51.0058 70.1916 52.3027 70.6233 53.5994 71.4869C55.7607 72.7822 57.0575 75.3728 59.2188 76.6682C59.651 77.0999 60.0832 77.1 60.5155 77.5318C56.1929 71.0552 49.709 65.4421 43.2251 68.8963Z" fill="#F2FAFF"/>
<path d="M69.5938 94.8034C69.5938 94.8034 116.71 89.1904 104.607 81.8503C92.9356 74.0784 69.5938 94.8034 69.5938 94.8034Z" fill="#FFCA1A"/>
<path opacity="0.2" d="M85.1546 84.4408C86.4514 84.009 87.7481 83.5772 88.6126 82.7137C89.9094 81.8501 90.7739 81.4183 92.0707 81.4183C93.7997 80.9866 95.5289 81.4183 97.6902 81.4183C98.1225 81.4183 98.9868 80.9866 99.4191 80.5548C94.6643 80.123 89.4771 82.2819 84.29 84.8726C84.7223 84.4408 85.1546 84.4408 85.1546 84.4408Z" fill="#F2FAFF"/>
</svg>
