<svg width="100" height="100" viewBox="0 0 100 100" fill="none" xmlns="http://www.w3.org/2000/svg">
<path d="M60.2068 94.5616H60.2049C59.4267 94.7742 58.9682 95.5796 59.181 96.3597C59.3797 97.0789 60.2638 97.5788 60.9791 97.3836C62.8281 96.8075 62.0904 94.1119 60.2068 94.5616Z" fill="#FFCB12"/>
<path d="M52.7894 95.9308C51.9858 96.0107 51.3969 96.7265 51.477 97.53C51.5527 98.336 52.2854 98.9269 53.076 98.8425C53.8795 98.7625 54.4668 98.0468 54.3886 97.2433C54.3086 96.4398 53.5929 95.8528 52.7894 95.9308Z" fill="#FFCB12"/>
<path d="M37.7883 94.8875C37.0023 94.6964 36.2105 95.1781 36.0213 95.9641C35.8302 96.7481 36.3117 97.5399 37.0979 97.731C37.8171 97.9013 38.6869 97.3809 38.8628 96.6545C39.054 95.8685 38.5723 95.0787 37.7883 94.8875Z" fill="#FFCB12"/>
<path d="M45.2435 96.04C44.4359 95.9835 43.7377 96.5919 43.6833 97.3994C43.6268 98.2048 44.2351 98.903 45.0407 98.9576C45.8354 99.0177 46.5485 98.4065 46.6009 97.6002C46.6575 96.7928 46.049 96.0946 45.2435 96.04Z" fill="#FFCB12"/>
<path d="M67.2822 91.9562C66.5508 92.2995 66.2349 93.1693 66.5781 93.9006C67.1291 94.6899 67.7772 94.9247 68.5225 94.6047C70.2483 93.7245 69.0616 91.1946 67.2822 91.9562Z" fill="#FFCB12"/>
<path d="M73.8167 88.1923C73.1517 88.6525 72.9879 89.5633 73.4501 90.2264C74.0781 90.918 74.7568 91.0402 75.486 90.593C76.1491 90.1328 76.3129 89.222 75.8526 88.5589C75.3904 87.8939 74.4796 87.7301 73.8167 88.1923Z" fill="#FFCB12"/>
<path d="M90.4079 70.5385C89.6843 70.1816 88.8067 70.4799 88.45 71.2054C88.0931 71.929 88.3894 72.8066 89.1148 73.1635C89.8593 73.4999 90.5118 73.2782 91.0729 72.4985C91.43 71.773 91.1335 70.8973 90.4079 70.5385Z" fill="#FFCB12"/>
<path d="M94.3394 55.5138C93.5381 55.4183 92.8104 55.9916 92.7149 56.7932C92.6215 57.5801 93.3766 58.4295 94.1698 58.4295C94.9011 58.4295 95.531 57.8814 95.6208 57.1384C95.6208 57.1364 95.6208 57.1364 95.6208 57.1364C95.7146 56.3349 95.1412 55.6074 94.3394 55.5138Z" fill="#FFCB12"/>
<path d="M93.0151 63.1921C92.2408 62.9639 91.4258 63.4066 91.1977 64.1809C90.9673 64.9551 91.4102 65.7684 92.1845 65.9985C92.8977 66.2099 93.7907 65.7303 94.0021 65.0097C94.2322 64.2355 93.7895 63.4222 93.0151 63.1921Z" fill="#FFCB12"/>
<path d="M79.6288 83.3808C79.0516 83.9464 79.0418 84.8727 79.6074 85.45C80.2946 86.0284 80.9844 86.0351 81.6766 85.4695C82.2539 84.9039 82.2617 83.9776 81.6961 83.4023C81.1305 82.825 80.2061 82.8152 79.6288 83.3808Z" fill="#FFCB12"/>
<path d="M86.5974 77.3391C85.9421 76.8651 85.0273 77.0114 84.5535 77.6648C84.0796 78.32 84.2259 79.2347 84.8812 79.7086C85.6069 80.1659 86.2877 80.0567 86.9233 79.381C87.397 78.7276 87.2507 77.813 86.5974 77.3391Z" fill="#FFCB12"/>
<path d="M23.302 14.2251C23.5751 14.2251 23.852 14.149 24.0977 13.9891C24.7747 13.5484 24.9676 12.6434 24.5287 11.9648C24.0899 11.288 23.1833 11.0949 22.5063 11.5337C21.8278 11.9745 21.6346 12.8794 22.0753 13.5581C22.3544 13.9891 22.8244 14.2251 23.302 14.2251Z" fill="#FFCB12"/>
<path d="M30.1697 10.5548C31.1214 10.5548 31.8998 9.41624 31.5134 8.51289C31.1936 7.77179 30.3335 7.42855 29.5924 7.74839C29.5903 7.74839 29.5903 7.74839 29.5903 7.74839C28.8492 8.06628 28.5059 8.92634 28.8258 9.66938C29.0639 10.2233 29.6022 10.5548 30.1697 10.5548Z" fill="#FFCB12"/>
<path d="M45.2618 6.92927C45.2949 6.92927 45.3281 6.92732 45.3593 6.92537C46.1667 6.87271 46.7771 6.17453 46.7223 5.36907C46.6697 4.56362 45.9715 3.95319 45.1662 4.00585C44.3588 4.06046 43.7503 4.7567 43.803 5.56215C43.8556 6.3364 44.4992 6.92927 45.2618 6.92927Z" fill="#FFCB12"/>
<path d="M37.5623 8.09937C38.4148 8.09937 39.1871 7.13692 38.9841 6.29344C38.7968 5.50944 38.007 5.02382 37.221 5.213C36.4351 5.40217 35.9514 6.19202 36.1406 6.97603C36.3005 7.64691 36.9012 8.09937 37.5623 8.09937Z" fill="#FFCB12"/>
<path d="M17.1473 18.9972C17.5003 18.9972 17.8552 18.8704 18.136 18.6111C18.7309 18.065 18.7699 17.1386 18.2217 16.5438C17.6756 15.9509 16.7512 15.9119 16.1563 16.458C15.5615 17.006 15.5225 17.9304 16.0705 18.5253C16.3594 18.8392 16.7514 18.9972 17.1473 18.9972Z" fill="#FFCB12"/>
<path d="M2.7686 58.638C1.97484 58.7862 1.45413 59.5527 1.60235 60.3445C1.73847 61.0676 2.58664 61.6519 3.31076 61.5127C4.10452 61.3625 4.62718 60.598 4.47701 59.8043C4.32665 59.0105 3.56215 58.4879 2.7686 58.638Z" fill="#FFCB12"/>
<path d="M2.54318 45.9965C3.26945 46.1104 4.09792 45.49 4.20655 44.7679C4.32746 43.9702 3.77769 43.2252 2.97789 43.1043C2.18024 42.9834 1.43524 43.5334 1.31452 44.333C1.19361 45.1306 1.74338 45.8776 2.54318 45.9965Z" fill="#FFCB12"/>
<path d="M2.24904 53.7859H2.27635C3.08375 53.7723 3.72714 53.1053 3.71368 52.2979H3.71173C3.69808 51.4905 3.03304 50.8469 2.22349 50.8606C1.41609 50.8762 0.774459 51.5412 0.788306 52.3486C0.801763 53.1482 1.45334 53.7859 2.24904 53.7859Z" fill="#FFCB12"/>
<path d="M4.1113 38.3633C4.82002 38.5963 5.72318 38.1523 5.95994 37.435C6.21347 36.6685 5.79807 35.8396 5.03162 35.5861C4.26518 35.3326 3.43632 35.748 3.18279 36.5144C2.92926 37.2828 3.34466 38.1097 4.1113 38.3633Z" fill="#FFCB12"/>
<path d="M6.95252 31.1045C7.69557 31.462 8.35554 31.2611 8.93203 30.5019C9.31233 29.7881 9.04319 28.9027 8.3294 28.5224C7.61756 28.1421 6.7302 28.4112 6.3499 29.125C5.97174 29.8369 6.24088 30.7242 6.95252 31.1045Z" fill="#FFCB12"/>
<path d="M10.9794 24.4289C11.6995 24.911 12.3832 24.8238 13.0311 24.1675C13.5264 23.5298 13.4094 22.6112 12.7697 22.1159C12.132 21.6225 11.2136 21.7395 10.7181 22.3772C10.2247 23.0169 10.3395 23.9355 10.9794 24.4289Z" fill="#FFCB12"/>
<path d="M99.1148 24.4023L93.6831 22.0688C93.2933 20.8064 92.8032 19.5741 92.2203 18.3901L94.3963 12.9372C94.6124 12.3956 94.4862 11.7772 94.0751 11.3637L88.7034 5.96172C88.2887 5.54475 87.6647 5.41682 87.1188 5.63661L82.0405 7.68593C80.7038 6.94971 79.3006 6.34358 77.8543 5.87786L75.7354 0.890679C75.506 0.350655 74.976 0 74.3893 0H66.7925C66.2057 0 65.6756 0.350655 65.4463 0.890679L63.3273 5.87805C61.881 6.34377 60.478 6.94971 59.1411 7.68613L54.0628 5.63661C53.517 5.41643 52.8929 5.54456 52.4783 5.96172L47.1065 11.3637C46.6954 11.7774 46.569 12.3956 46.7853 12.9372L48.9614 18.3901C48.4883 19.3512 48.0752 20.3466 47.7288 21.3601C41.3275 21.3706 35.1901 23.3199 29.9767 26.9987C28.4315 28.0892 30.1183 30.4795 31.6633 29.3889C49.8501 16.3113 75.9599 29.8484 75.7676 52.2671C75.7678 60.0687 72.4712 67.5756 66.7235 72.8629C66.4224 73.1398 66.2509 73.5302 66.2509 73.9394V79.497L61.2608 77.3888C60.8716 77.2242 60.4298 77.2363 60.0495 77.422C53.0052 80.9156 44.3689 81.1787 37.1281 78.1516L38.6044 76.6347C39.011 76.2167 39.1306 75.5971 38.9088 75.0579L36.987 70.3878C36.7637 69.8452 36.2378 69.4885 35.6509 69.4819L32.2628 69.4435C31.6978 68.7564 31.0782 68.1173 30.4118 67.5334L30.3759 64.1665C30.3697 63.5818 30.0157 63.057 29.4761 62.832L24.8327 60.8967C24.2894 60.6701 23.6639 60.7914 23.2444 61.2037L21.78 62.6432C17.8957 53.1593 19.8332 41.6405 26.6263 33.9464C27.8653 32.5177 25.6549 30.6006 24.4163 32.0299C16.9613 40.4759 14.7946 53.092 18.9853 63.5313C18.7267 63.5434 18.4681 63.5616 18.21 63.5859L15.7874 61.2017C15.3683 60.7893 14.7427 60.668 14.1994 60.8938L9.55504 62.8271C9.01521 63.0518 8.66104 63.5762 8.65441 64.1609L8.61287 67.8291C8.05881 68.3287 7.53711 68.8656 7.05326 69.4341L3.37548 69.4741C2.78865 69.4806 2.26266 69.8367 2.03897 70.3792L0.11388 75.0485C-0.108448 75.5878 0.0109071 76.2074 0.417339 76.6257L2.99323 79.2753C2.93472 80.0238 2.92536 80.7768 2.96534 81.5263L0.414609 84.1472C0.00778667 84.5651 -0.111764 85.1847 0.10998 85.724L2.03176 90.3941C2.25506 90.9368 2.78104 91.2933 3.36787 91.3001L6.75604 91.3386C7.32103 92.0254 7.94043 92.6647 8.60702 93.2486L8.64291 96.6155C8.64915 97.2002 9.00312 97.725 9.54275 97.9501L14.1861 99.8853C14.729 100.112 15.3547 99.9906 15.7744 99.5784L18.164 97.2293C19.0432 97.2901 19.9284 97.279 20.8089 97.1959L23.2314 99.5797C23.7298 100.005 24.2591 100.107 24.8194 99.8877L29.4638 97.9546C30.0036 97.7299 30.3578 97.2055 30.3642 96.6208L30.4059 92.9526C30.9598 92.4529 31.4815 91.9162 31.9654 91.3475L35.6435 91.3074C36.2302 91.3009 36.7561 90.9448 36.9798 90.4022L38.9051 85.733C39.1274 85.1937 39.0081 84.5741 38.6017 84.1558L36.0256 81.5062C36.042 81.2965 36.0544 81.0867 36.063 80.8766C43.8385 84.1125 53.0918 83.9196 60.7267 80.3388L67.1441 83.05C68.3036 83.3279 68.9809 82.8788 69.1761 81.7026V74.5719C75.0631 68.9224 78.4975 61.1183 78.6847 52.9694C79.837 52.5504 80.9617 52.0399 82.0403 51.4458L87.1186 53.4951C87.6795 53.7087 88.2076 53.6005 88.7032 53.17L94.0749 47.768C94.4861 47.3544 94.6124 46.7362 94.3961 46.1946L92.2201 40.7417C92.803 39.5577 93.2931 38.3249 93.6829 37.0629L99.1146 34.7295C99.6517 34.4985 99.9998 33.97 99.9998 33.3855V25.746C100 25.1617 99.6519 24.6332 99.1148 24.4023ZM34.6442 88.3927L31.2492 88.4298C30.8046 88.4346 30.386 88.6416 30.1124 88.9922C29.4934 89.7848 28.7882 90.5118 28.0165 91.1529C27.6865 91.4271 27.4932 91.8324 27.4884 92.2616L27.4503 95.6242L24.5917 96.8141L22.3615 94.6193C22.0378 94.2994 21.5785 94.1498 21.1321 94.2132C20.021 94.3692 18.8958 94.3843 17.7876 94.2579C17.348 94.2084 16.9112 94.3587 16.5966 94.668L14.4158 96.8117L11.5583 95.6207L11.5256 92.545C11.5209 92.1066 11.3198 91.6935 10.9777 91.4195C10.1046 90.7196 9.31925 89.9079 8.6433 89.0065C8.37065 88.6427 7.94433 88.4266 7.48972 88.4214L4.36893 88.3859L3.18104 85.4991L5.52036 83.0954C5.81953 82.7881 5.96872 82.3651 5.92855 81.9382C5.83435 80.9352 5.84742 79.9189 5.96794 78.9178C6.02079 78.4792 5.87258 78.0402 5.56463 77.7233L3.18474 75.2753L4.37498 72.3888L7.76978 72.3519C8.21463 72.347 8.63335 72.1401 8.90697 71.7895C9.52539 70.9973 10.2306 70.27 11.0027 69.6286C11.3327 69.3544 11.526 68.9491 11.5306 68.5201L11.5689 65.1574L14.4275 63.9676L16.6578 66.1624C16.9822 66.4815 17.4344 66.6316 17.8873 66.5684C18.8261 66.4366 19.7751 66.4054 20.7159 66.4752C21.2829 66.713 21.9885 66.5406 22.4228 66.1136L24.6034 63.9701L27.4611 65.1611L27.4938 68.2369C27.4985 68.6753 27.6996 69.0884 28.0416 69.3624C28.9144 70.0619 29.6997 70.8738 30.3761 71.7756C30.6487 72.1391 31.0753 72.3554 31.5297 72.3605L34.6505 72.396L35.8383 75.2825L33.798 77.3791C33.3448 77.6751 33.0403 78.3043 33.091 78.8435C33.1852 79.8457 33.172 80.8622 33.0516 81.8643C32.9988 82.3029 33.1472 82.7417 33.455 83.0584L35.8348 85.5063L34.6442 88.3927ZM61.0596 24.3592C62.9456 20.8665 66.5961 18.6545 70.5908 18.6545C81.843 18.7926 85.5147 33.6695 75.7705 39.1532C72.7275 32.6864 67.5069 27.4381 61.0596 24.3592ZM97.0746 32.4221L91.8961 34.647C91.4889 34.8219 91.1831 35.1722 91.0643 35.5991C90.6421 37.1179 90.0559 38.5941 89.322 39.9867C89.1223 40.3657 89.0987 40.8131 89.2574 41.2107L91.3231 46.3869L87.3132 50.4192L82.4782 48.468C82.0561 48.2975 81.5783 48.3336 81.1863 48.5653C80.3549 49.057 79.489 49.4911 78.6003 49.8626C78.3852 47.081 77.8003 44.4013 76.8946 41.8728C81.4724 39.5179 84.3586 34.8305 84.3586 29.566C84.1954 15.0955 65.0806 10.4516 58.3522 23.2216C55.9544 22.3465 53.4189 21.7603 50.7878 21.505C51.0989 20.6978 51.4575 19.9078 51.8593 19.1452C52.059 18.7663 52.0828 18.3189 51.9238 17.921L49.8581 12.7449L53.868 8.71235L58.7031 10.6636C59.1251 10.834 59.6029 10.7981 59.9949 10.5661C61.511 9.66953 63.1323 8.96822 64.8132 8.48202C65.2358 8.35974 65.581 8.05375 65.753 7.64888L67.76 2.92537H73.4214L75.4284 7.64927C75.6004 8.05414 75.9454 8.36013 76.368 8.48241C78.049 8.96861 79.6702 9.66992 81.1863 10.5665C81.5783 10.7983 82.0561 10.8342 82.4782 10.664L87.3132 8.71274L91.3231 12.7451L89.2574 17.9212C89.0989 18.3191 89.1223 18.7663 89.322 19.1452C90.0559 20.5377 90.6419 22.0138 91.0643 23.5329C91.1829 23.9598 91.4889 24.3101 91.8961 24.485L97.0746 26.7098V32.4221Z" fill="#6AC48A"/>
<path d="M34.8292 61.5838H35.8892C37.5412 61.5838 38.885 60.2399 38.885 58.588V49.7161C38.885 48.0643 37.541 46.7203 35.8892 46.7203C35.2602 46.7069 34.5878 46.6979 33.9657 46.7703C37.3523 31.8869 58.1708 31.814 61.5951 46.7703C60.9729 46.6979 60.3007 46.7069 59.6719 46.7203C58.0199 46.7203 56.6761 48.0643 56.6761 49.7161V58.588C56.6761 60.2399 58.02 61.5838 59.6719 61.5838C60.3192 61.5767 61.4386 61.574 61.888 61.5768C61.888 64.2449 59.9354 66.4654 57.3843 66.8845C56.7666 65.285 55.2127 64.1472 53.3978 64.1472H50.5892C44.9233 64.3816 44.9237 72.4558 50.5892 72.6899H53.3978C55.2585 72.6899 56.845 71.494 57.4293 69.8304C61.5769 69.3711 64.8136 65.8449 64.8136 61.5768V60.36C69.2966 57.4656 69.2439 50.7127 64.7238 47.8858C64.2981 43.7415 62.3703 39.9103 59.2836 37.0826C49.1002 27.6358 32.1701 34.1206 30.8376 47.8858C24.6513 51.8645 27.3763 61.5171 34.8292 61.5838ZM53.3978 69.7645H50.5892C48.8075 69.7011 48.8086 67.1354 50.5892 67.0726H53.3978C55.1795 67.1359 55.1781 69.7019 53.3978 69.7645ZM60.7317 58.6584C60.7362 58.6578 59.6013 58.7255 59.6013 58.588V49.7161C59.6013 49.5786 60.7362 49.6461 60.7317 49.6457C66.7117 49.894 66.707 58.4125 60.7317 58.6584ZM34.8292 49.6457C34.8247 49.6463 35.9596 49.5786 35.9596 49.7161V58.588C35.9596 58.7255 34.8247 58.658 34.8292 58.6584C28.8492 58.4101 28.8539 49.8918 34.8292 49.6457Z" fill="#FFCB12"/>
<path d="M23.1911 71.4776C20.8259 70.492 18.2201 70.4888 15.8525 71.4687C13.4738 72.4531 11.6215 74.3105 10.6368 76.6986C7.54975 84.1689 14.5644 91.9854 22.2962 89.6251C23.0689 89.3893 23.504 88.5717 23.268 87.799C23.0322 87.0264 22.2143 86.5918 21.4422 86.827C19.9711 87.2762 18.3771 87.1968 16.9542 86.6037C13.5487 85.1843 11.9281 81.2411 13.3412 77.8136C14.0273 76.1498 15.3164 74.8564 16.9712 74.1715C22.1731 71.9806 27.5673 77.0596 25.8803 82.4047C25.6387 83.1754 26.0676 83.9963 26.8385 84.2379C27.6086 84.4797 28.4299 84.0507 28.6715 83.2797C29.3898 80.9888 29.2311 78.5229 28.2245 76.3363C27.211 74.1337 25.4234 72.4081 23.1911 71.4776Z" fill="#6AC48A"/>
</svg>
