<svg width="100" height="100" viewBox="0 0 100 100" fill="none" xmlns="http://www.w3.org/2000/svg">
<g clip-path="url(#clip0)">
<path d="M75.9949 41.3515C75.5015 41.3515 75.0201 41.1025 74.7439 40.6507L74.6457 40.4911C74.2199 39.8033 74.4324 38.9003 75.1203 38.4747C75.8082 38.0486 76.7109 38.2613 77.1369 38.9493L77.2431 39.1224C77.6654 39.8124 77.448 40.714 76.758 41.1365C76.5193 41.282 76.2554 41.3515 75.9949 41.3515ZM70.6949 34.8697C70.2369 34.8697 69.8853 34.6507 69.5607 34.3513C68.9648 33.804 68.9255 32.8775 69.4728 32.2816C70.0199 31.6855 70.9464 31.6462 71.5425 32.1937L71.6906 32.33C72.2841 32.8796 72.3197 33.8068 71.7699 34.4003C71.4814 34.712 71.0886 34.8697 70.6949 34.8697ZM63.8359 30.0695C63.5304 30.0695 63.2693 29.9587 63.0033 29.8238C62.2808 29.4597 61.9904 28.5788 62.3546 27.8564C62.7189 27.1339 63.5996 26.8433 64.322 27.2077C64.674 27.3863 64.9755 27.596 65.1539 27.9624C65.3537 28.373 65.3496 28.8628 65.1421 29.2697C64.8832 29.7773 64.3691 30.0695 63.8359 30.0695ZM55.9296 27.3255C55.7716 27.3191 55.6158 27.2978 55.4619 27.2622C54.6671 27.1111 54.1453 26.3443 54.2966 25.5494C54.4476 24.7546 55.214 24.2329 56.0093 24.3839C56.3902 24.4579 56.7326 24.5722 57.0041 24.8665C57.3197 25.2087 57.4556 25.69 57.3646 26.1468C57.2257 26.8437 56.6138 27.3255 55.9296 27.3255Z" fill="#6AC48A"/>
<path d="M93.7366 67.0902L90.6166 64.5225C91.8784 58.7232 91.8735 52.6506 90.6018 46.8463L93.7748 44.1365C94.2612 43.7213 94.4219 43.0385 94.1719 42.4498L90.4639 33.7203C90.2139 33.1316 89.6116 32.7754 88.9743 32.8352L84.9434 33.2264C81.7286 28.2307 77.4331 23.9436 72.4405 20.7475L72.7694 16.5803C72.8198 15.9426 72.4504 15.3461 71.8573 15.1066L63.0614 11.5568C62.4686 11.3172 61.7889 11.4902 61.3823 11.9842L58.8051 15.1141C56.3928 14.5895 53.933 14.2873 51.4649 14.201V8.81094H56.4713C58.9008 8.81094 60.8776 6.83477 60.8776 4.40547C60.8776 1.97617 58.9006 0 56.4711 0H43.5286C41.1309 0 39.1223 2.00723 39.1223 4.40566C39.1223 6.8041 41.1307 8.81113 43.5286 8.81113H48.535V14.2012C46.0489 14.2885 43.57 14.5949 41.1381 15.1262L38.4254 11.9502C38.01 11.4641 37.3274 11.3033 36.7387 11.5533L28.0069 15.2629C27.4182 15.5129 27.06 16.116 27.1217 16.7525L27.512 20.7793C22.5108 23.9932 18.2184 28.2898 15.0178 33.2855L10.8616 32.958C10.2225 32.909 9.62758 33.277 9.38812 33.8699L5.83676 42.6656C5.5973 43.2586 5.77035 43.9385 6.2641 44.3449L9.38383 46.9133C8.12172 52.7117 8.1266 58.7852 9.39789 64.5897L6.22484 67.2982C5.73832 67.7135 5.57758 68.3963 5.82758 68.9852L9.53617 77.7158C9.78617 78.3045 10.3907 78.6619 11.026 78.601L15.0567 78.2094C18.2713 83.2047 22.5674 87.4932 27.5598 90.69L27.2307 94.8555C27.1803 95.4932 27.5495 96.0896 28.1426 96.3293L36.9395 99.8803C37.5323 100.12 38.2123 99.9467 38.6188 99.4529L41.1954 96.3229C46.9911 97.5834 53.0604 97.5791 58.8625 96.3104L61.5748 99.4865C61.8596 99.8199 62.2698 100 62.6893 100C62.8819 100 63.0764 99.9623 63.2616 99.8836L71.993 96.1744C72.5815 95.9244 72.9399 95.3215 72.8784 94.6848L72.4881 90.6578C77.4891 87.4439 81.7819 83.1471 84.9831 78.1512L89.1387 78.4781C89.7748 78.5285 90.3725 78.1592 90.612 77.5662L94.1637 68.7699C94.4034 68.1766 94.2305 67.4967 93.7366 67.0902ZM42.0522 4.40566C42.0522 3.5918 42.7145 2.92969 43.5287 2.92969H56.4713C57.2854 2.92969 57.9479 3.5918 57.9479 4.40566C57.9479 5.21934 57.2854 5.88145 56.4713 5.88145H43.5287C42.7145 5.88125 42.0522 5.21934 42.0522 4.40566ZM88.2979 75.473L84.3274 75.1605C83.778 75.1168 83.2491 75.3869 82.9618 75.8582C79.7971 81.0479 75.377 85.4705 70.1791 88.6475C69.7004 88.94 69.4309 89.4803 69.485 90.0387L69.8588 93.8977L63.1053 96.7668L60.5139 93.7322C60.2319 93.4021 59.8227 93.2186 59.3998 93.2186C59.2852 93.2186 59.1696 93.2318 59.0553 93.2596C53.1397 94.6914 46.8907 94.6945 40.984 93.2686C40.4381 93.1371 39.8657 93.3283 39.5094 93.7615L37.0401 96.7613L30.2364 94.0146L30.5506 90.0342C30.5942 89.4836 30.3243 88.9553 29.8526 88.668C24.6659 85.5072 20.2442 81.092 17.0655 75.899C16.7725 75.4205 16.2323 75.1516 15.6745 75.2057L11.8127 75.5809L8.94437 68.8285L11.9762 66.2406C12.3961 65.8822 12.5789 65.318 12.4489 64.7814C11.0143 58.8635 11.0106 52.6115 12.4381 46.7018C12.5698 46.1564 12.3784 45.5836 11.9453 45.227L8.9557 42.7656L11.7026 35.9627L15.6737 36.2756C16.2241 36.3195 16.752 36.0494 17.0395 35.5779C20.2032 30.3885 24.6231 25.966 29.8211 22.7891C30.2998 22.4965 30.5694 21.9562 30.5153 21.3979L30.1413 17.5391L36.8954 14.6697L39.4871 17.7041C39.8455 18.1236 40.4094 18.3063 40.9454 18.1766C46.8606 16.7461 53.1094 16.7428 59.0164 18.1684C59.5614 18.2994 60.1342 18.1084 60.4909 17.6756L62.9608 14.6758L69.7637 17.4213L69.4495 21.4037C69.4059 21.9543 69.676 22.4824 70.1477 22.7699C75.3342 25.9291 79.7557 30.3438 82.9342 35.5365C83.227 36.0146 83.767 36.2828 84.3252 36.2297L88.1873 35.8549L91.0551 42.6064L88.0233 45.1957C87.6036 45.5541 87.4209 46.1184 87.551 46.6549C88.9856 52.5721 88.9895 58.8238 87.5623 64.734C87.4307 65.2795 87.6221 65.8523 88.0553 66.209L91.0448 68.6695L88.2979 75.473Z" fill="#6AC48A"/>
<path d="M78.5498 43.8907C78.3545 43.8784 78.1535 43.9048 77.9578 43.9761L61.2645 50.0562C63.9338 45.4655 66.3408 41.146 66.8576 40.2157C67.5525 38.9647 66.1217 37.53 64.8684 38.2224C63.6973 38.8698 57.1607 42.4946 51.465 45.8735V25.2827C51.465 24.4735 50.8092 23.8179 50.0002 23.8179C42.7256 23.8179 35.6092 26.33 29.9615 30.8913C28.4947 32.0759 30.3256 34.3634 31.8023 33.1706C36.551 29.3353 42.4434 27.0956 48.5354 26.7851V47.6382C45.8041 49.3134 43.6096 50.7622 42.8531 51.5171C39.9516 54.4126 39.9279 59.2909 42.843 62.1899C45.7535 65.0843 50.6049 65.1063 53.5176 62.1999C54.4947 61.2251 56.6344 57.8546 58.9252 54.0263L77.7021 47.1874C78.5494 49.9399 78.9795 52.8028 78.9795 55.7181C78.9795 71.6921 65.9793 84.6878 50 84.6878C34.0207 84.6878 21.0205 71.6921 21.0205 55.7181C21.0205 49.0683 23.2123 42.8151 27.3586 37.6341C28.5367 36.162 26.2576 34.3216 25.0713 35.8034C20.5699 41.428 18.0908 48.5005 18.0908 55.7181C18.0908 73.3075 32.4053 87.6175 50 87.6175C67.5947 87.6175 81.9092 73.3073 81.9092 55.7181C81.9092 51.987 81.2705 48.3323 80.0109 44.8546C79.7852 44.2306 79.1799 43.8542 78.5498 43.8907ZM51.4482 60.1259C49.6459 61.9241 46.7156 61.9216 44.916 60.1198C44.0447 59.247 43.5654 58.0874 43.5666 56.8542C43.5678 55.6212 44.0492 54.462 44.9223 53.5909C46.2623 52.2536 54.5668 47.3769 61.7541 43.319C57.682 50.4964 52.7887 58.7884 51.4482 60.1259Z" fill="#FFCB12"/>
</g>
<defs>
<clipPath id="clip0">
<rect width="100" height="100" fill="white"/>
</clipPath>
</defs>
</svg>
