<svg width="100" height="100" viewBox="0 0 100 100" fill="none" xmlns="http://www.w3.org/2000/svg">
<g clip-path="url(#clip0)">
<path d="M66.3218 8.11292V1.46499C66.3218 0.655729 65.6659 0 64.8568 0H54.6814C53.8723 0 53.2164 0.655729 53.2164 1.46499V4.54459C52.1485 4.45435 51.0722 4.40532 50.0002 4.40532C28.6885 4.40532 11.3501 22.2288 11.3501 44.1366C11.3501 50.0821 12.5971 55.8015 15.0567 61.136C21.0776 74.1935 47.878 98.5973 49.016 99.6298C49.8049 100.346 50.6644 99.9045 51.3564 99.3048C52.1876 98.5846 66.1513 85.1315 69.5481 81.6275C70.2698 80.8829 71.3153 79.9316 70.4925 78.8592C69.9565 78.1607 68.8929 78.0314 68.2716 78.691C61.2047 86.1971 52.8304 93.968 50.0045 96.5584C45.0521 91.9736 22.8628 71.0676 17.7177 59.9091C15.4368 54.9621 14.2803 49.6553 14.2803 44.1366C14.2803 23.8442 30.3043 7.3353 50.0004 7.3353C51.0726 7.3353 52.1503 7.38511 53.2166 7.48297V10.7946H49.8885C49.0794 10.7946 48.4235 11.4504 48.4235 12.2596V15.8492C44.6388 16.0647 41.005 17.0454 37.6156 18.771C35.9322 19.6277 37.2533 22.243 38.945 21.382C41.9201 19.8672 45.106 18.9941 48.4235 18.7825V39.8393H44.461V27.2834C44.461 25.3939 41.531 25.3939 41.531 27.2834V39.8393H38.4561V33.5428C38.4561 31.6533 35.5261 31.6533 35.5261 33.5428V39.8393H30.3508C29.5418 39.8393 28.8858 40.495 28.8858 41.3043V58.1368C26.4457 54.1677 25.031 49.4674 25.031 44.4329C25.031 37.0062 28.1522 29.9442 33.5947 25.0582C35.0005 23.7957 33.0433 21.6158 31.6373 22.8779C25.5769 28.319 22.1012 36.1757 22.1012 44.4331C22.1012 60.1411 34.4921 72.9334 49.7697 73.0616C49.7897 73.0624 49.8092 73.0645 49.8293 73.0645C49.8393 73.0645 49.849 73.0631 49.859 73.0629C49.869 73.0631 49.8787 73.0645 49.8887 73.0645C49.8965 73.0645 49.9039 73.0635 49.9118 73.0633C49.9414 73.0633 49.9709 73.0645 50.0006 73.0645C65.3844 73.0645 77.9001 60.2205 77.9001 44.4331C77.9001 37.6186 75.5282 31.0173 71.2215 25.8455C71.1877 25.8049 71.1522 25.767 71.1152 25.7311V14.4434C80.1736 21.2836 85.7208 32.2477 85.7208 44.1366C85.7208 49.6557 84.5642 54.9625 82.2833 59.9091C80.4632 63.8568 76.9082 69.0096 72.53 74.0464C71.2953 75.4667 73.4973 77.3997 74.7414 75.9685C79.3606 70.6543 82.984 65.3866 84.944 61.136C87.4036 55.8017 88.6506 50.0823 88.6506 44.1366C88.6504 28.6589 79.9177 14.628 66.3218 8.11292ZM56.1462 2.92998H63.3916V8.85889C63.3768 8.97726 63.3779 9.09544 63.3916 9.21185V10.7948H56.1462V2.92998ZM31.7633 61.9685C31.7965 61.8462 31.8156 61.7181 31.8156 61.5852V42.7695H48.3639V70.0779C41.8303 69.6405 35.9746 66.6059 31.7633 61.9685ZM51.3533 70.0964V13.7246H54.6814H64.8568H68.1849V61.8351C68.1849 61.8956 68.1895 61.9548 68.1968 62.0134C63.9272 66.6924 57.9797 69.7304 51.3533 70.0964ZM74.9697 44.4331C74.9697 49.4676 73.5549 54.1679 71.1148 58.137V30.7146C73.6178 34.796 74.9697 39.5522 74.9697 44.4331Z" fill="#6AC48A"/>
<path d="M62.6468 21.5842H56.8927C55.0032 21.5842 55.0032 24.5142 56.8927 24.5142H62.6468C64.536 24.5142 64.536 21.5842 62.6468 21.5842Z" fill="#FFCB12"/>
<path d="M62.6468 32.9785H56.8927C55.0032 32.9785 55.0032 35.9085 56.8927 35.9085H62.6468C64.536 35.9085 64.536 32.9785 62.6468 32.9785Z" fill="#FFCB12"/>
<path d="M62.6468 44.373H56.8927C55.0032 44.373 55.0032 47.303 56.8927 47.303H62.6468C64.536 47.303 64.536 44.373 62.6468 44.373Z" fill="#FFCB12"/>
<path d="M62.6468 55.7673H56.8927C55.0032 55.7673 55.0032 58.6973 56.8927 58.6973H62.6468C64.536 58.6973 64.536 55.7673 62.6468 55.7673Z" fill="#FFCB12"/>
<path d="M36.7702 47.2942C35.9611 47.2942 35.3052 47.9499 35.3052 48.7592V51.7632C35.3052 52.5725 35.9611 53.2282 36.7702 53.2282C37.5792 53.2282 38.2352 52.5725 38.2352 51.7632V48.7592C38.2352 47.9501 37.5792 47.2942 36.7702 47.2942Z" fill="#FFCB12"/>
<path d="M36.7702 57.8674C35.9611 57.8674 35.3052 58.5232 35.3052 59.3324V62.3366C35.3052 63.1459 35.9611 63.8016 36.7702 63.8016C37.5792 63.8016 38.2352 63.1459 38.2352 62.3366V59.3324C38.2352 58.5232 37.5792 57.8674 36.7702 57.8674Z" fill="#FFCB12"/>
<path d="M43.2165 47.2942C42.4074 47.2942 41.7515 47.9499 41.7515 48.7592V51.7632C41.7515 52.5725 42.4074 53.2282 43.2165 53.2282C44.0255 53.2282 44.6814 52.5725 44.6814 51.7632V48.7592C44.6814 47.9501 44.0255 47.2942 43.2165 47.2942Z" fill="#FFCB12"/>
<path d="M43.2165 57.8674C42.4074 57.8674 41.7515 58.5232 41.7515 59.3324V62.3366C41.7515 63.1459 42.4074 63.8016 43.2165 63.8016C44.0255 63.8016 44.6814 63.1459 44.6814 62.3366V59.3324C44.6814 58.5232 44.0255 57.8674 43.2165 57.8674Z" fill="#FFCB12"/>
</g>
<defs>
<clipPath id="clip0">
<rect width="100" height="100" fill="white"/>
</clipPath>
</defs>
</svg>
