<svg width="100" height="100" viewBox="0 0 100 100" fill="none" xmlns="http://www.w3.org/2000/svg">
<path d="M92.8847 0H63.4157C59.4923 0 56.3003 3.19199 56.3003 7.11543V30.2453C56.3003 34.1687 59.4923 37.3607 63.4157 37.3607H66.8073V41.1221C66.8073 42.3498 68.2964 43.0539 69.2413 42.2205L74.7487 37.3607H92.8845C96.8079 37.3607 99.9999 34.1687 99.9999 30.2453V7.11543C100 3.19199 96.8081 0 92.8847 0ZM97.0704 30.2451C97.0704 32.5531 95.1927 34.4309 92.8847 34.4309H74.195C73.8382 34.4309 73.4935 34.5611 73.2259 34.7973L69.7372 37.8758V35.8957C69.7372 35.0865 69.0815 34.4309 68.2724 34.4309H63.4159C61.1081 34.4309 59.2302 32.5533 59.2302 30.2451V7.11543C59.2302 4.80742 61.1079 2.92969 63.4159 2.92969H92.8849C95.1927 2.92969 97.0704 4.80723 97.0704 7.11543V30.2451Z" fill="#FFCB12"/>
<path d="M40.5403 13.4506C40.9143 13.4506 41.2885 13.3082 41.5745 13.0232L45.753 8.85762C47.0942 7.52031 45.026 5.4459 43.6846 6.78281L39.5061 10.9484C38.6346 11.8172 39.309 13.4506 40.5403 13.4506Z" fill="#6AC48A"/>
<path d="M35.7334 11.4343C36.4664 11.4974 37.2574 10.8331 37.3225 10.105L37.8457 4.22785C38.0137 2.34133 35.0959 2.08156 34.9276 3.96809L34.4043 9.84524C34.3324 10.6511 34.9276 11.3626 35.7334 11.4343Z" fill="#6AC48A"/>
<path d="M41.3717 16.6577C41.4342 17.3845 42.2236 18.0538 42.9566 17.9917L48.8353 17.4864C50.723 17.3243 50.4707 14.411 48.5844 14.5675L42.7056 15.0728C41.8996 15.1419 41.3025 15.8517 41.3717 16.6577Z" fill="#6AC48A"/>
<path d="M88.2688 59.7172L92.4475 55.5513C93.7889 54.214 91.7206 52.1396 90.3792 53.4765L86.2005 57.6424C84.8588 58.9799 86.9278 61.0537 88.2688 59.7172Z" fill="#6AC48A"/>
<path d="M82.5594 58.1338C83.3096 58.1338 83.9488 57.5604 84.0168 56.7989L84.5403 50.9217C84.7082 49.0348 81.7899 48.776 81.6221 50.662L81.0987 56.5391C81.0297 57.3122 81.7801 58.1338 82.5594 58.1338Z" fill="#6AC48A"/>
<path d="M95.2782 61.2617L89.3995 61.7668C87.5491 61.9258 87.8481 64.8392 89.6501 64.6857L95.5288 64.1806C97.4165 64.0185 97.1644 61.1019 95.2782 61.2617Z" fill="#6AC48A"/>
<path d="M76.8523 57.3791C73.6572 54.1953 68.4584 54.1953 65.2633 57.3791C63.3229 59.3125 61.3826 61.2459 59.4422 63.1793C56.96 65.6525 52.9209 65.6523 50.4387 63.1793L36.7684 49.5578C34.3184 47.1168 34.3186 43.0425 36.7684 40.6015C38.7062 38.6707 40.6441 36.7398 42.582 34.8089C45.7365 31.6658 45.7373 26.3759 42.582 23.232L29.7043 10.4003C26.5092 7.21655 21.3104 7.21675 18.1152 10.4003L15.2719 13.2334C10.4949 17.9929 7.86426 24.3218 7.86426 31.0537C7.86426 37.7857 10.4949 44.1144 15.2719 48.8742L27.2854 60.8445L25.2512 62.6394H7.11543C3.19199 62.6394 0 65.8314 0 69.7548V92.8847C0 96.808 3.19199 100 7.11543 100H36.5844C40.5078 100 43.6998 96.808 43.6998 92.8845V77.1998C50.3771 83.6955 55.0875 90.2117 65.0166 91.6765C66.833 91.966 67.3094 89.0746 65.4764 88.7832C60.8059 88.041 56.5635 85.8816 53.2082 82.5381L43.7 73.064V69.7547C43.7 65.8312 40.508 62.6392 36.5846 62.6392H33.193V58.8779C33.193 57.6402 31.6869 56.9613 30.759 57.7795L29.4869 58.9019L17.3402 46.7988C9.06855 38.8847 8.62344 24.7875 16.3393 16.3714L19.9863 20.0052C21.3281 21.3421 23.3959 19.2668 22.0543 17.93L18.3813 14.2709L20.1832 12.4755C22.2381 10.4283 25.5814 10.4283 27.6363 12.4755L40.5143 25.307C42.5283 27.3136 42.5326 30.7222 40.5143 32.7336L38.7125 34.5289L28.0254 23.88C26.684 22.5425 24.6162 24.6183 25.9574 25.9552L36.6371 36.5966L34.7008 38.5261C31.1289 42.0851 31.1277 48.073 34.7008 51.6328L48.3711 65.2543C51.9936 68.8636 57.8881 68.8636 61.5104 65.2543L63.4541 63.3173L83.7512 83.5416C80.9426 85.9965 77.5736 87.708 73.9252 88.5219C72.1021 88.9287 72.7973 91.7734 74.5631 91.3814C79.2318 90.34 83.4959 87.9996 86.8945 84.6131L89.7305 81.7875C92.885 78.6443 92.8857 73.3545 89.7305 70.2105L76.8523 57.3791ZM31.7277 65.5691H36.5842C38.892 65.5691 40.7699 67.4466 40.7699 69.7548V92.8847C40.7699 95.1927 38.8922 97.0705 36.5842 97.0705H7.11543C4.80742 97.0703 2.92969 95.1927 2.92969 92.8845V69.7548C2.92969 67.4468 4.80742 65.5691 7.11543 65.5691H25.8051C26.1619 65.5691 26.5066 65.4388 26.7742 65.2027L30.2629 62.1242V64.1043C30.2629 64.9132 30.9187 65.5691 31.7277 65.5691ZM87.6623 79.7125L85.8604 81.5076L65.5295 61.2498L67.3314 59.4545C69.3861 57.4074 72.7297 57.4072 74.7846 59.4545L87.6625 72.2859C89.676 74.2925 89.6811 77.7011 87.6623 79.7125Z" fill="#6AC48A"/>
<path d="M89.0016 12.7363H67.2989C65.4049 12.7363 65.4049 15.666 67.2989 15.666H89.0016C90.8957 15.666 90.8957 12.7363 89.0016 12.7363Z" fill="#FFCB12"/>
<path d="M81.1891 21.7244H67.2989C65.4049 21.7244 65.4049 24.6541 67.2989 24.6541H81.1891C83.0832 24.6541 83.0832 21.7244 81.1891 21.7244Z" fill="#FFCB12"/>
<path d="M9.53369 77.2207C9.53369 78.0299 10.1894 78.6855 10.9985 78.6855H32.7013C34.5952 78.6855 34.5952 75.7559 32.7013 75.7559H10.9985C10.1894 75.7559 9.53369 76.4117 9.53369 77.2207Z" fill="#6AC48A"/>
<path d="M24.8888 84.7439H10.9986C9.10464 84.7439 9.10464 87.6736 10.9986 87.6736H24.8888C26.7828 87.6736 26.7828 84.7439 24.8888 84.7439Z" fill="#6AC48A"/>
</svg>
