<svg width="100" height="100" viewBox="0 0 100 100" fill="none" xmlns="http://www.w3.org/2000/svg">
<g clip-path="url(#clip0)">
<path d="M98.0285 37.9161C96.2575 35.644 93.5941 34.3436 90.7152 34.3436C79.8274 34.3436 68.9395 34.3754 58.0517 34.3773V8.28241C58.0517 4.4378 55.58 1.30603 51.7549 0.303568C47.967 -0.689124 44.1667 0.876568 42.2965 4.19895C42.2825 4.22415 42.269 4.24973 42.2563 4.2759L40.0815 8.7394C39.7272 9.46668 40.0293 10.3434 40.7566 10.6976C41.4839 11.0521 42.3606 10.7498 42.7149 10.0225L44.8696 5.6002C46.3634 2.98675 49.1083 2.63814 51.012 3.13732C52.908 3.63415 55.122 5.27992 55.122 8.28241V35.8423C55.122 36.6512 55.7778 37.307 56.5868 37.307C67.9628 37.307 79.3388 37.273 90.7146 37.273C92.684 37.273 94.5065 38.163 95.7179 39.7171C96.9585 41.3088 97.3553 43.3887 96.8243 45.3303C96.105 48.1391 93.5777 50.1008 90.6783 50.1008H82.7024C80.8086 50.1008 80.8086 53.0303 82.7024 53.0303H86.6792C88.6537 53.0303 90.4803 53.9249 91.6909 55.4844C94.9287 59.5938 91.9061 65.7511 86.6792 65.7187H78.7967C76.9029 65.7187 76.9029 68.6482 78.7967 68.6482H82.6803C84.6546 68.6482 86.4814 69.5426 87.692 71.1022C90.93 75.2058 87.9072 81.3719 82.6803 81.3368H76.8437C74.9499 81.3368 74.9499 84.2662 76.8437 84.2662H78.6812C82.803 84.2014 85.9222 88.3237 84.804 92.2755C84.0839 95.0874 81.5585 97.0462 78.657 97.0462C67.7077 97.0462 56.7584 97.0624 45.8091 97.0624C39.9381 97.0624 34.3263 94.8892 30.0145 90.9496L26.4213 87.62C26.5754 85.1812 26.4478 82.7077 26.4478 80.2648C26.4478 78.371 23.5184 78.371 23.5184 80.2648V86.7767C23.5184 92.453 18.9004 97.071 13.2241 97.071C7.54782 97.071 2.92945 92.453 2.92945 86.7767V46.3375C2.92945 40.6612 7.54743 36.0432 13.2237 36.0432C18.9 36.0432 23.518 40.6612 23.518 46.3375V72.4705C23.518 74.3643 26.4474 74.3643 26.4474 72.4705V46.3375C26.4474 45.4981 26.3687 44.6767 26.2186 43.8803L39.2702 17.0924C39.6245 16.3651 39.3224 15.4885 38.5951 15.1342C37.8678 14.7799 36.9913 15.0822 36.6368 15.8093L24.8398 40.0222C22.595 35.9098 18.2298 33.1138 13.2237 33.1138C5.93213 33.1138 0 39.0459 0 46.3375V86.7767C0.333176 101.807 20.7557 104.994 25.7567 90.9983L28.0307 93.1053C32.8913 97.5462 39.2048 99.9919 45.8089 99.9919C56.7582 99.9919 67.7077 99.9757 78.657 99.9757C82.8975 99.9757 86.5894 97.1122 87.6418 93.0018C88.4133 89.7486 87.5553 86.2979 85.1258 83.9393C88.2822 83.0776 90.8218 80.5825 91.6642 77.2928C92.4752 74.1249 91.4683 70.5955 89.1249 68.3212C96.0035 66.4909 98.247 57.686 93.124 52.7032C96.2804 51.8415 98.82 49.3466 99.6623 46.0567C100.491 43.3633 99.7365 40.1075 98.0285 37.9161Z" fill="#6AC48A"/>
<path d="M7.64453 86.4935C7.64453 89.5538 10.1475 92.0436 13.2242 92.0436C20.6265 91.7384 20.6243 81.2474 13.2242 80.9434C10.1476 80.9434 7.64453 83.4332 7.64453 86.4935ZM15.8745 86.4935C15.8745 87.9385 14.6858 89.1142 13.2244 89.1142C9.70823 88.9699 9.7094 84.0165 13.2244 83.8728C14.6856 83.8728 15.8745 85.0485 15.8745 86.4935Z" fill="#FFCB12"/>
<path d="M78.1997 30.0229C86.4588 30.0229 93.178 23.2908 93.178 15.0159C92.3548 -4.89302 64.0417 -4.88716 63.2217 15.0161C63.2215 23.2908 69.9407 30.0229 78.1997 30.0229ZM78.1997 2.93836C84.8435 2.93836 90.2486 8.35628 90.2486 15.0159C89.5863 31.0386 66.8108 31.0339 66.1511 15.0159C66.1509 8.35628 71.556 2.93836 78.1997 2.93836Z" fill="#FFCB12"/>
<path d="M71.3319 14.6082C72.1408 14.6082 72.7966 13.9524 72.7966 13.1435C72.8294 12.1057 74.3246 12.1063 74.3572 13.1435C74.3572 13.9524 75.0131 14.6082 75.822 14.6082C76.6309 14.6082 77.2867 13.9524 77.2867 13.1435C77.2867 11.0952 75.6226 9.42896 73.5768 9.42896C71.5311 9.42896 69.8672 11.0952 69.8672 13.1435C69.8672 13.9524 70.5228 14.6082 71.3319 14.6082Z" fill="#FFCB12"/>
<path d="M80.3868 14.6082C81.1957 14.6082 81.8515 13.9524 81.8515 13.1435C81.8843 12.1057 83.3795 12.1063 83.4121 13.1435C83.4121 13.9524 84.0679 14.6082 84.8769 14.6082C85.6858 14.6082 86.3416 13.9524 86.3416 13.1435C86.3416 11.0952 84.6775 9.42896 82.6317 9.42896C80.586 9.42896 78.9219 11.0952 78.9219 13.1435C78.9221 13.9524 79.5779 14.6082 80.3868 14.6082Z" fill="#FFCB12"/>
<path d="M72.1899 18.3247C71.6172 18.8961 71.6163 19.8236 72.1877 20.3962C75.3548 23.7035 81.0448 23.7033 84.2119 20.3962C84.7834 19.8236 84.7822 18.8961 84.2096 18.3247C83.637 17.7532 82.7095 17.7542 82.1383 18.3268C80.0619 20.4948 76.3378 20.4948 74.2614 18.3268C73.6897 17.7546 72.7627 17.7534 72.1899 18.3247Z" fill="#FFCB12"/>
</g>
<defs>
<clipPath id="clip0">
<rect width="100" height="100" fill="white"/>
</clipPath>
</defs>
</svg>
