<svg width="100" height="100" viewBox="0 0 100 100" fill="none" xmlns="http://www.w3.org/2000/svg">
<g clip-path="url(#clip0)">
<path d="M43.6114 75.1632C51.9938 75.1632 58.8133 68.3436 58.8133 59.9614C58.9442 49.7407 48.4288 42.1755 38.7846 45.5466C36.967 46.2263 37.8547 48.8761 39.7147 48.3249C47.5004 45.6038 55.9893 51.7098 55.8836 59.9616C55.8836 66.7284 50.3784 72.2335 43.6114 72.2335C33.3479 72.2698 27.5874 60.1352 34.0956 52.2141C34.6067 51.587 34.5127 50.6643 33.8858 50.153C33.2584 49.6419 32.3358 49.7358 31.8247 50.3628C23.761 60.1778 30.8991 75.2091 43.6114 75.1632Z" fill="#FFCB12"/>
<path d="M95.8057 81.6479C95.5818 81.1045 95.0553 80.7473 94.4676 80.7404L89.1773 80.6805C88.2557 79.5287 87.2283 78.468 86.1117 77.5152L86.0561 72.2692C86.0498 71.6836 85.6953 71.158 85.1549 70.9326L78.3432 68.0936C77.799 67.8668 77.1727 67.9881 76.7525 68.401L73.0262 72.0637C71.5684 71.9434 70.0984 71.9621 68.6397 72.1201L66.7725 70.2826V30.2246C75.5963 32.4225 84.5305 25.3949 84.4121 16.2811C84.4123 8.38068 77.9848 1.95314 70.0844 1.95314C60.8428 1.82209 53.7719 11.035 56.2225 19.9227H40.2854L40.2647 17.5516C40.2596 16.9676 39.908 16.4422 39.3699 16.2151L35.9715 14.7789C35.7147 14.0652 35.41 13.3676 35.0613 12.6934L36.4164 9.22072C36.6289 8.67658 36.4977 8.05841 36.0826 7.64728L32.4662 4.06584C32.0488 3.65255 31.4244 3.52834 30.8811 3.75099L27.4465 5.15548C26.7723 4.81584 26.0752 4.52052 25.3635 4.27306L23.8865 0.880289C23.6529 0.343375 23.1217 -0.00271829 22.5365 1.60851e-05L17.4672 0.0238442C16.8779 0.0267739 16.3479 0.382047 16.1215 0.926188L14.8047 4.0922C13.9526 4.35998 13.1242 4.69709 12.3295 5.09943L9.18693 3.85255C8.63868 3.63556 8.01486 3.7674 7.60216 4.18752L4.04884 7.80275C3.63829 8.22052 3.51603 8.8424 3.7379 9.38439L5.02482 12.5283C4.63361 13.3332 4.30802 14.1715 4.05216 15.0328L0.917591 16.3971C0.378724 16.6317 0.03224 17.1656 0.0373181 17.7531L0.0820447 22.8418C0.0871228 23.4256 0.438685 23.951 0.976771 24.1781L4.37521 25.6143C4.63185 26.3276 4.93654 27.0254 5.28536 27.6998L3.93029 31.1725C3.71779 31.7166 3.84904 32.3348 4.26408 32.7459L7.88048 36.3274C8.29767 36.7406 8.92189 36.8651 9.46564 36.6422L12.9002 35.2377C13.5742 35.5774 14.2711 35.8727 14.983 36.1201L16.46 39.5133C16.6936 40.0502 17.2248 40.3963 17.81 40.3936L20.4504 40.3811V63.7789C11.1856 59.2672 -0.0964709 66.3998 0.0373181 76.7496C-0.0968616 87.0975 11.1875 94.2332 20.4504 89.7201V98.5352C20.4504 99.3443 21.1061 100 21.9152 100H65.3076C66.1168 100 66.7725 99.3443 66.7725 98.5352V86.3272C66.7852 86.3219 66.798 86.3164 66.8107 86.3109C69.3898 85.2436 72.2297 85.2465 74.8064 86.3207C79.467 88.2633 82.0924 93.2734 81.049 98.2336C80.966 99.2775 81.4438 99.8662 82.4824 100H92.8443C93.7063 100 94.4344 99.1338 94.2879 98.2858C94.432 96.9094 94.4592 95.519 94.3684 94.1385L98.3203 90.0783C98.7275 89.6596 98.8473 89.0393 98.6252 88.499L95.8057 81.6479ZM58.6861 16.2811C59.3121 1.15978 80.8588 1.16388 81.4828 16.2811C81.6027 23.7985 73.916 29.4682 66.7727 27.1912V24.075C70.1031 25.5461 74.2588 24.544 76.5758 21.657C78.2039 19.6899 78.8695 17.1524 78.4022 14.6951C78.2508 13.9002 77.483 13.3795 76.6891 13.5299C75.8943 13.6811 75.3727 14.4481 75.5238 15.243C75.8277 16.8397 75.3885 18.4965 74.3188 19.7891C71.0358 23.8117 64.5721 21.399 64.5453 16.2809C64.5453 14.6166 65.3168 13.0488 66.6623 11.9791C68.0084 10.9092 69.7102 10.5108 71.3326 10.8858C72.1213 11.069 72.9074 10.5774 73.0899 9.78888C73.2723 9.0008 72.7813 8.21408 71.993 8.03166C69.4963 7.45353 66.8881 8.05666 64.8391 9.68576C61.7486 12.0526 60.7404 16.4985 62.4393 19.9225H59.2791C58.8854 18.7551 58.6861 17.5342 58.6861 16.2811ZM63.843 22.8524V32.5885C58.7842 31.9305 54.765 27.9113 54.1068 22.8524H63.843ZM18.7615 37.459L17.4065 34.3463C17.235 33.9522 16.899 33.6533 16.4877 33.5287C15.5197 33.2358 14.5797 32.8367 13.6936 32.3426C13.3045 32.126 12.8377 32.0973 12.4258 32.2662L9.25372 33.5635L7.00939 31.341L8.26232 28.1305C8.42325 27.7184 8.38908 27.2557 8.16974 26.8715C7.66486 25.9877 7.25431 25.0486 6.94943 24.0809C6.82033 23.6711 6.51798 23.3389 6.12247 23.1719L3.00333 21.8539L2.9754 18.6965L5.86447 17.4391C6.28185 17.2572 6.59103 16.892 6.70118 16.4504C6.97599 15.3477 7.38771 14.2856 7.92423 13.2936C8.13302 12.9072 8.15763 12.4479 7.99161 12.0418L6.81525 9.16798L9.01017 6.93439L11.8799 8.07306C12.2906 8.23615 12.7533 8.2049 13.1385 7.98791C14.119 7.43615 15.1703 7.009 16.2635 6.71877C16.7039 6.60158 17.0649 6.28634 17.2399 5.86545L18.4529 2.94884L21.5852 2.9342L22.9401 6.04689C23.1115 6.44103 23.4475 6.73986 23.8588 6.86447C24.8266 7.15744 25.7668 7.55646 26.6531 8.0506C27.0424 8.2672 27.509 8.29591 27.9209 8.12697L31.093 6.8297L33.3373 9.05216L32.0844 12.2627C31.9234 12.6746 31.9576 13.1375 32.177 13.5217C32.6815 14.4047 33.092 15.3438 33.3973 16.3125C33.5264 16.7221 33.8287 17.0543 34.2242 17.2213L37.3434 18.5393L37.3555 19.9227H28.4729C28.46 17.7041 27.5754 15.5617 25.9623 13.9639C24.3584 12.375 22.2324 11.508 19.9844 11.5238C17.7445 11.5391 15.6469 12.4272 14.0774 14.0244C10.8326 17.3258 10.8777 22.6707 14.1779 25.9391C15.8193 27.5649 18.1408 28.4752 20.4508 28.374V37.451L18.7615 37.459ZM21.9154 19.9227C21.1063 19.9227 20.4506 20.5783 20.4506 21.3875V25.4397C15.4676 25.7776 12.6561 19.6389 16.1666 16.0779C17.1863 15.0404 18.549 14.4633 20.0039 14.4535C21.4619 14.4479 22.8537 15.0092 23.9006 16.0457C24.9508 17.0858 25.5285 18.4789 25.5422 19.9229H21.9154V19.9227ZM23.3803 22.8524H33.1164C32.4584 27.9111 28.4393 31.9303 23.3803 32.5885V22.8524ZM23.3803 35.5379C30.0568 34.8518 35.3797 29.5289 36.0658 22.8524H51.1576C51.8438 29.5289 57.1666 34.8518 63.8432 35.5379V67.9777C63.6494 67.976 63.4537 68.0127 63.2678 68.0902L56.4541 70.9264C55.9135 71.1512 55.5588 71.6766 55.5523 72.2621L55.4879 77.9442C54.5381 78.7799 53.652 79.6924 52.8428 80.668L47.134 80.7299C46.5465 80.7363 46.0197 81.0932 45.7957 81.6365L42.9715 88.4865C42.7488 89.0266 42.8684 89.6471 43.2754 90.0658L47.2707 94.1758C47.1834 95.1375 47.1531 96.1053 47.1801 97.0703H36.0854C35.5807 91.3266 31.6768 86.494 26.2287 84.776C30.4352 78.8395 29.0348 70.0025 23.3805 65.6205V35.5379H23.3803ZM2.96701 76.7492C2.96701 70.4641 8.08029 65.351 14.3652 65.351C29.4867 65.977 29.4822 87.5238 14.3652 88.1477C8.08029 88.1477 2.96701 83.0344 2.96701 76.7492ZM23.3803 87.8779C23.6272 87.6776 23.8672 87.4691 24.1002 87.2531C28.9781 88.2055 32.6002 92.201 33.141 97.0703H23.3803V87.8779ZM63.843 97.0703H60.3631C60.1977 95.3578 60.4527 93.6338 61.1166 92.0235C61.7356 90.5221 62.6682 89.2129 63.843 88.1672V97.0703ZM91.8059 92.5709C91.5064 92.8787 91.357 93.3024 91.3973 93.7301C91.5016 94.8385 91.5191 95.9574 91.4502 97.0705H84.1682C85.0139 87.2832 74.8311 79.709 65.6908 83.6043C60.3953 85.7065 56.934 91.4088 57.4227 97.0705H50.1107C50.0766 95.9865 50.1242 94.8986 50.2537 93.8217C50.3066 93.3824 50.1582 92.943 49.8498 92.6258L46.0467 88.7139L48.1348 83.649L53.5658 83.59C54.0111 83.5852 54.4303 83.3777 54.7043 83.0268C55.6428 81.8252 56.7113 80.7233 57.8809 79.752C58.2113 79.4774 58.4049 79.0715 58.4096 78.6416L58.4705 73.26L63.4957 71.1684L67.0895 74.7051C67.4141 75.0244 67.8674 75.1748 68.3207 75.1115C70.0074 74.8748 71.7158 74.8518 73.399 75.0438C73.8383 75.0938 74.2764 74.9428 74.5916 74.6328L78.1131 71.1719L83.1367 73.2658L83.1895 78.2264C83.1941 78.6652 83.3955 79.0789 83.7381 79.3535C85.0629 80.4156 86.2553 81.6479 87.2816 83.0164C87.5549 83.3805 87.9818 83.5969 88.4369 83.6022L93.4656 83.6592L95.5502 88.7242L91.8059 92.5709Z" fill="#6AC48A"/>
<path d="M71.3813 45.9299C71.3813 53.8303 77.8089 60.2579 85.7093 60.2579C104.717 59.4708 104.712 32.386 85.7091 31.6018C77.8089 31.602 71.3813 38.0295 71.3813 45.9299ZM85.7093 34.5317C91.9944 34.5317 97.1075 39.645 97.1075 45.9299C96.4816 61.0514 74.9347 61.0469 74.3108 45.9299C74.311 39.645 79.4241 34.5317 85.7093 34.5317Z" fill="#FFCB12"/>
<path d="M85.7095 54.3985C90.379 54.3985 94.178 50.5995 94.178 45.93C93.7128 34.6952 77.7044 34.6985 77.2407 45.93C77.2409 50.5993 81.0399 54.3985 85.7095 54.3985ZM85.7095 40.3909C88.7638 40.3909 91.2483 42.8757 91.2483 45.9298C90.9442 53.278 80.4735 53.2759 80.1704 45.9298C80.1706 42.8757 82.6552 40.3909 85.7095 40.3909Z" fill="#FFCB12"/>
<path d="M14.3655 68.2808C9.696 68.2808 5.89697 72.0798 5.89697 76.7493C6.36221 87.9841 22.3706 87.9808 22.8343 76.7493C22.8341 72.0798 19.0351 68.2808 14.3655 68.2808ZM14.3655 82.2884C11.3112 82.2884 8.82666 79.8036 8.82666 76.7495C9.13076 69.4013 19.6015 69.4034 19.9046 76.7495C19.9044 79.8036 17.4196 82.2884 14.3655 82.2884Z" fill="#FFCB12"/>
</g>
<defs>
<clipPath id="clip0">
<rect width="100" height="100" fill="white"/>
</clipPath>
</defs>
</svg>
