<svg width="24" height="24" viewBox="0 0 24 24" fill="none" xmlns="http://www.w3.org/2000/svg">
<path fill-rule="evenodd" clip-rule="evenodd" d="M4.23926 10.3913C4.25367 6.15069 7.70302 2.7247 11.9436 2.73906C16.1842 2.75351 19.6102 6.20287 19.5958 10.4435V10.5304C19.5436 13.2869 18.0045 15.8348 16.1175 17.8261C15.0384 18.9467 13.8333 19.9388 12.5262 20.7826C12.1767 21.0849 11.6583 21.0849 11.3088 20.7826C9.36033 19.5143 7.65019 17.9131 6.25665 16.0521C5.01461 14.4294 4.30942 12.4597 4.23926 10.4174V10.3913Z" stroke="white" stroke-width="1.5" stroke-linecap="round" stroke-linejoin="round"/>
<path d="M11.9189 13C13.278 13 14.3797 11.8982 14.3797 10.5391C14.3797 9.18002 13.278 8.07825 11.9189 8.07825C10.5598 8.07825 9.45801 9.18002 9.45801 10.5391C9.45801 11.8982 10.5598 13 11.9189 13Z" stroke="white" stroke-width="1.5" stroke-linecap="round" stroke-linejoin="round"/>
</svg>
