<svg width="20" height="21" viewBox="0 0 20 21" fill="none" xmlns="http://www.w3.org/2000/svg">
<path d="M9.61154 0.716003C14.9198 0.716003 19.2231 4.9242 19.2231 10.1153C19.2231 12.5651 18.2647 14.7959 16.6946 16.4689L19.7825 19.4796C20.072 19.7619 20.0726 20.2203 19.7839 20.5033C19.5214 20.7606 19.1102 20.7845 18.8202 20.5746L18.737 20.5047L15.6127 17.4577C13.9681 18.7448 11.8818 19.5145 9.61154 19.5145C4.30323 19.5145 0 15.3063 0 10.1153C0 4.9242 4.30323 0.716003 9.61154 0.716003ZM9.61154 2.16374C5.12086 2.16374 1.48044 5.72376 1.48044 10.1153C1.48044 14.5068 5.12086 18.0668 9.61154 18.0668C14.1022 18.0668 17.7426 14.5068 17.7426 10.1153C17.7426 5.72376 14.1022 2.16374 9.61154 2.16374Z" fill="#FFCB12"/>
</svg>
