<svg width="20" height="21" viewBox="0 0 20 21" fill="none" xmlns="http://www.w3.org/2000/svg">
<path d="M9.61154 0.511719C14.9198 0.511719 19.2231 4.71991 19.2231 9.91098C19.2231 12.3608 18.2647 14.5917 16.6946 16.2647L19.7825 19.2753C20.072 19.5577 20.0726 20.016 19.7839 20.299C19.5214 20.5564 19.1102 20.5802 18.8202 20.3703L18.737 20.3004L15.6127 17.2535C13.9681 18.5405 11.8818 19.3102 9.61154 19.3102C4.30323 19.3102 0 15.102 0 9.91098C0 4.71991 4.30323 0.511719 9.61154 0.511719ZM9.61154 1.95946C5.12086 1.95946 1.48044 5.51948 1.48044 9.91098C1.48044 14.3025 5.12086 17.8625 9.61154 17.8625C14.1022 17.8625 17.7426 14.3025 17.7426 9.91098C17.7426 5.51948 14.1022 1.95946 9.61154 1.95946Z" fill="white"/>
</svg>
