<svg width="91" height="91" viewBox="0 0 91 91" fill="none" xmlns="http://www.w3.org/2000/svg">
<path d="M84.4191 88.0773H6.58127C5.61358 88.0773 4.68554 87.6929 4.00128 87.0086C3.31703 86.3244 2.93262 85.3963 2.93262 84.4286V6.58108C2.93262 5.6134 3.31703 4.68535 4.00128 4.0011C4.68554 3.31684 5.61358 2.93243 6.58127 2.93243H84.4191C85.3868 2.93243 86.3148 3.31684 86.9991 4.0011C87.6833 4.68535 88.0678 5.6134 88.0678 6.58108V84.4286C88.0678 85.3963 87.6833 86.3244 86.9991 87.0086C86.3148 87.6929 85.3868 88.0773 84.4191 88.0773ZM6.58127 5.36487C6.25871 5.36487 5.94936 5.493 5.72127 5.72109C5.49319 5.94917 5.36505 6.25852 5.36505 6.58108V84.4286C5.36505 84.7512 5.49319 85.0606 5.72127 85.2886C5.94936 85.5167 6.25871 85.6449 6.58127 85.6449H84.4191C84.7417 85.6449 85.051 85.5167 85.2791 85.2886C85.5072 85.0606 85.6353 84.7512 85.6353 84.4286V6.58108C85.6353 6.25852 85.5072 5.94917 85.2791 5.72109C85.051 5.493 84.7417 5.36487 84.4191 5.36487H6.58127Z" fill="#6AC48A"/>
<path d="M86.8515 22.4041H4.14883C3.82627 22.4041 3.51692 22.2759 3.28884 22.0478C3.06075 21.8198 2.93262 21.5104 2.93262 21.1878C2.93262 20.8653 3.06075 20.5559 3.28884 20.3279C3.51692 20.0998 3.82627 19.9716 4.14883 19.9716H86.8515C87.1741 19.9716 87.4835 20.0998 87.7115 20.3279C87.9396 20.5559 88.0678 20.8653 88.0678 21.1878C88.0678 21.5104 87.9396 21.8198 87.7115 22.0478C87.4835 22.2759 87.1741 22.4041 86.8515 22.4041Z" fill="#6AC48A"/>
<path d="M63.7432 22.3919H27.2567C26.9342 22.3919 26.6248 22.2638 26.3967 22.0357C26.1687 21.8076 26.0405 21.4982 26.0405 21.1757V4.14865C26.0405 3.82609 26.1687 3.51674 26.3967 3.28866C26.6248 3.06057 26.9342 2.93243 27.2567 2.93243H63.7432C64.0658 2.93243 64.3752 3.06057 64.6032 3.28866C64.8313 3.51674 64.9595 3.82609 64.9595 4.14865V21.1757C64.9595 21.4982 64.8313 21.8076 64.6032 22.0357C64.3752 22.2638 64.0658 22.3919 63.7432 22.3919ZM28.473 19.9595H62.527V5.36487H28.473V19.9595Z" fill="#6AC48A"/>
<path d="M78.8317 11.3134H71.7631C71.4405 11.3134 71.1312 11.1852 70.9031 10.9572C70.675 10.7291 70.5469 10.4197 70.5469 10.0972C70.5469 9.77461 70.675 9.46526 70.9031 9.23717C71.1312 9.00909 71.4405 8.88095 71.7631 8.88095H78.8317C79.1543 8.88095 79.4637 9.00909 79.6917 9.23717C79.9198 9.46526 80.048 9.77461 80.048 10.0972C80.048 10.4197 79.9198 10.7291 79.6917 10.9572C79.4637 11.1852 79.1543 11.3134 78.8317 11.3134Z" fill="#6AC48A"/>
<path d="M78.8317 16.4555H71.7631C71.4405 16.4555 71.1312 16.3274 70.9031 16.0993C70.675 15.8712 70.5469 15.5619 70.5469 15.2393C70.5469 14.9168 70.675 14.6074 70.9031 14.3793C71.1312 14.1512 71.4405 14.0231 71.7631 14.0231H78.8317C79.1543 14.0231 79.4637 14.1512 79.6917 14.3793C79.9198 14.6074 80.048 14.9168 80.048 15.2393C80.048 15.5619 79.9198 15.8712 79.6917 16.0993C79.4637 16.3274 79.1543 16.4555 78.8317 16.4555Z" fill="#6AC48A"/>
<path d="M37.5752 17.0904C36.6994 17.0904 35.8432 16.8307 35.115 16.3441C34.3868 15.8575 33.8192 15.1659 33.4841 14.3568C33.1489 13.5476 33.0612 12.6573 33.2321 11.7983C33.4029 10.9393 33.8247 10.1502 34.444 9.53092C35.0633 8.91162 35.8523 8.48987 36.7113 8.31901C37.5703 8.14814 38.4607 8.23584 39.2698 8.571C40.079 8.90616 40.7706 9.47374 41.2572 10.202C41.7438 10.9302 42.0035 11.7863 42.0035 12.6622C42.0022 13.8362 41.5352 14.9618 40.705 15.792C39.8749 16.6222 38.7493 17.0891 37.5752 17.0904ZM37.5752 10.6664C37.1805 10.6664 36.7946 10.7834 36.4664 11.0027C36.1382 11.222 35.8824 11.5337 35.7313 11.8984C35.5803 12.2631 35.5407 12.6644 35.6178 13.0515C35.6948 13.4387 35.8848 13.7943 36.164 14.0734C36.4431 14.3525 36.7987 14.5426 37.1859 14.6196C37.573 14.6966 37.9743 14.6571 38.339 14.5061C38.7037 14.355 39.0154 14.0992 39.2347 13.771C39.454 13.4428 39.571 13.0569 39.571 12.6622C39.5707 12.1329 39.3603 11.6255 38.9861 11.2513C38.6119 10.8771 38.1044 10.6667 37.5752 10.6664Z" fill="#6AC48A"/>
<path d="M53.4251 17.0904C52.5492 17.0907 51.6929 16.8312 50.9645 16.3447C50.2362 15.8583 49.6684 15.1668 49.333 14.3576C48.9977 13.5485 48.9098 12.6581 49.0805 11.799C49.2513 10.9399 49.6729 10.1508 50.2922 9.53137C50.9114 8.91194 51.7005 8.49007 52.5595 8.31911C53.4185 8.14815 54.309 8.23577 55.1182 8.5709C55.9274 8.90603 56.6191 9.4736 57.1057 10.2019C57.5924 10.9301 57.8521 11.7863 57.8521 12.6622C57.8508 13.836 57.384 14.9614 56.5541 15.7916C55.7242 16.6217 54.5989 17.0888 53.4251 17.0904ZM53.4251 10.6664C53.0303 10.6661 52.6443 10.783 52.3159 11.0021C51.9876 11.2213 51.7316 11.5329 51.5803 11.8976C51.4291 12.2622 51.3894 12.6636 51.4662 13.0508C51.5431 13.438 51.7331 13.7938 52.0122 14.073C52.2912 14.3522 52.6469 14.5424 53.034 14.6196C53.4212 14.6967 53.8226 14.6572 54.1873 14.5062C54.5521 14.3552 54.8639 14.0994 55.0832 13.7711C55.3026 13.4429 55.4197 13.057 55.4197 12.6622C55.419 12.1333 55.2087 11.6262 54.8348 11.2521C54.4609 10.878 53.954 10.6673 53.4251 10.6664Z" fill="#6AC48A"/>
<path d="M18.7433 13.8784H11.5981C11.2755 13.8784 10.9661 13.7502 10.7381 13.5221C10.51 13.2941 10.3818 12.9847 10.3818 12.6622C10.3818 12.3396 10.51 12.0302 10.7381 11.8022C10.9661 11.5741 11.2755 11.4459 11.5981 11.4459H18.7433C19.0659 11.4459 19.3752 11.5741 19.6033 11.8022C19.8314 12.0302 19.9595 12.3396 19.9595 12.6622C19.9595 12.9847 19.8314 13.2941 19.6033 13.5221C19.3752 13.7502 19.0659 13.8784 18.7433 13.8784Z" fill="#6AC48A"/>
<path d="M45.4999 78.9216C40.8527 78.9214 36.2983 77.6205 32.3521 75.1661C28.4059 72.7116 25.2255 69.2017 23.1707 65.0334C21.116 60.8651 20.2689 56.2049 20.7254 51.5801C21.1819 46.9554 22.9237 42.5507 25.7538 38.8646C28.5839 35.1785 32.3892 32.358 36.7391 30.7225C41.089 29.087 45.8098 28.7016 50.3674 29.61C54.925 30.5184 59.1373 32.6843 62.5278 35.8626C65.9182 39.041 68.3513 43.1048 69.5518 47.5943C69.5961 47.7496 69.609 47.9121 69.5898 48.0723C69.5706 48.2326 69.5197 48.3875 69.4401 48.5279C69.3604 48.6683 69.2536 48.7914 69.1259 48.8901C68.9981 48.9888 68.852 49.0611 68.6961 49.1028C68.5401 49.1444 68.3774 49.1546 68.2175 49.1328C68.0575 49.1109 67.9035 49.0574 67.7645 48.9754C67.6254 48.8934 67.5041 48.7846 67.4075 48.6552C67.311 48.5258 67.2411 48.3785 67.2021 48.2219C65.7938 42.9562 62.519 38.3822 57.9879 35.3523C53.4569 32.3225 47.9787 31.0434 42.5744 31.7536C37.1702 32.4638 32.2085 35.1148 28.6141 39.2125C25.0197 43.3101 23.0378 48.5749 23.0378 54.0257C23.0378 59.4764 25.0197 64.7412 28.6141 68.8389C32.2085 72.9365 37.1702 75.5875 42.5744 76.2977C47.9787 77.0079 53.4569 75.7289 57.9879 72.699C62.519 69.6691 65.7938 65.0951 67.2021 59.8295C67.2896 59.5226 67.4941 59.2625 67.7716 59.1051C68.0491 58.9476 68.3773 58.9055 68.6856 58.9879C68.9938 59.0702 69.2573 59.2703 69.4194 59.5451C69.5814 59.82 69.629 60.1475 69.5518 60.457C68.132 65.7517 65.0058 70.4305 60.6576 73.7686C56.3094 77.1068 50.9817 78.9179 45.4999 78.9216Z" fill="#6AC48A"/>
<path d="M45.4999 72.4635C42.1381 72.4626 38.8406 71.5426 35.9639 69.803C33.0872 68.0635 30.7409 65.5705 29.1787 62.5938C27.6165 59.6171 26.8978 56.2699 27.1004 52.9143C27.3031 49.5587 28.4193 46.3223 30.3283 43.5552C32.2374 40.7881 34.8666 38.5956 37.9317 37.2148C40.9968 35.8341 44.3811 35.3176 47.7185 35.7212C51.056 36.1248 54.2195 37.4332 56.8671 39.5049C59.5146 41.5766 61.5454 44.3327 62.7397 47.4751C62.8546 47.7765 62.8449 48.1113 62.713 48.4056C62.5811 48.6999 62.3376 48.9298 62.0361 49.0446C61.7347 49.1595 61.4 49.1499 61.1057 49.0179C60.8113 48.886 60.5814 48.6425 60.4666 48.3411C59.137 44.8415 56.6227 41.9187 53.3612 40.0811C50.0996 38.2435 46.297 37.6074 42.6149 38.2833C38.9328 38.9592 35.6041 40.9044 33.2079 43.7806C30.8116 46.6568 29.4993 50.282 29.4993 54.0257C29.4993 57.7693 30.8116 61.3945 33.2079 64.2707C35.6041 67.1469 38.9328 69.0921 42.6149 69.768C46.297 70.4439 50.0996 69.8078 53.3612 67.9702C56.6227 66.1326 59.137 63.2098 60.4666 59.7102C60.5814 59.4088 60.8113 59.1653 61.1057 59.0334C61.4 58.9014 61.7347 58.8918 62.0361 59.0067C62.3376 59.1215 62.5811 59.3514 62.713 59.6457C62.8449 59.9401 62.8546 60.2748 62.7397 60.5762C61.3973 64.0632 59.0333 67.0635 55.9572 69.1846C52.8811 71.3056 49.2363 72.4484 45.4999 72.4635Z" fill="#6AC48A"/>
<path d="M69.4302 61.3607H61.7048C61.1068 61.3597 60.5335 61.1217 60.1106 60.6988C59.6877 60.2759 59.4497 59.7026 59.4487 59.1046V48.9455C59.4494 48.3474 59.6873 47.7739 60.1102 47.3509C60.5332 46.928 61.1067 46.6901 61.7048 46.6894H69.4302C70.0284 46.6901 70.6018 46.928 71.0248 47.3509C71.4478 47.7739 71.6857 48.3474 71.6863 48.9455V59.1046C71.6853 59.7026 71.4473 60.2759 71.0244 60.6988C70.6016 61.1217 70.0283 61.3597 69.4302 61.3607ZM61.8812 58.9282H69.2539V49.1219H61.8812V58.9282Z" fill="#6AC48A"/>
</svg>
