<svg width="91" height="91" viewBox="0 0 91 91" fill="none" xmlns="http://www.w3.org/2000/svg">
<path d="M55.4002 61.9834H6.82451C5.79232 61.9834 4.8024 61.5733 4.07253 60.8435C3.34265 60.1136 2.93262 59.1237 2.93262 58.0915C2.93262 57.0593 3.34265 56.0694 4.07253 55.3395C4.8024 54.6096 5.79232 54.1996 6.82451 54.1996H55.4002C56.4324 54.1996 57.4223 54.6096 58.1522 55.3395C58.882 56.0694 59.2921 57.0593 59.2921 58.0915C59.2921 59.1237 58.882 60.1136 58.1522 60.8435C57.4223 61.5733 56.4324 61.9834 55.4002 61.9834ZM6.82451 56.6308C6.43744 56.6308 6.06622 56.7846 5.79252 57.0583C5.51881 57.332 5.36505 57.7032 5.36505 58.0903C5.36505 58.4773 5.51881 58.8486 5.79252 59.1223C6.06622 59.396 6.43744 59.5497 6.82451 59.5497H55.4002C55.7873 59.5497 56.1585 59.396 56.4322 59.1223C56.7059 58.8486 56.8596 58.4773 56.8596 58.0903C56.8596 57.7032 56.7059 57.332 56.4322 57.0583C56.1585 56.7846 55.7873 56.6308 55.4002 56.6308H6.82451Z" fill="#6AC48A"/>
<path d="M56.5676 56.6272H6.93863C6.75654 56.6273 6.57675 56.5865 6.41253 56.5079C6.24831 56.4292 6.10384 56.3147 5.98979 56.1727C5.87574 56.0308 5.79502 55.865 5.75359 55.6877C5.71215 55.5104 5.71106 55.3261 5.75039 55.1483C7.35967 47.7204 11.4723 41.0711 17.3995 36.3138C23.3266 31.5566 30.7084 28.9804 38.3085 29.0166H65.148C65.8141 29.0176 66.4526 29.2826 66.9236 29.7537C67.3947 30.2247 67.6597 30.8632 67.6607 31.5293V46.3927C67.6605 46.6876 67.5533 46.9724 67.3589 47.1941C67.1645 47.4158 66.8961 47.5594 66.6038 47.598L65.8971 47.6916C63.8927 48.0563 62.0442 49.0148 60.5912 50.4429C59.1382 51.8709 58.1478 53.7026 57.7485 55.7004C57.6837 55.9648 57.5322 56.1997 57.3181 56.3677C57.104 56.5358 56.8397 56.6271 56.5676 56.6272ZM8.49661 54.1948H55.6384C56.2646 51.9774 57.4918 49.9763 59.1842 48.4127C60.8766 46.8491 62.9683 45.7838 65.2282 45.3346V31.5293L65.148 31.4491H38.3085C31.5243 31.4158 24.9199 33.6292 19.5259 37.7439C14.1319 41.8586 10.2516 47.643 8.49053 54.1948H8.49661Z" fill="#6AC48A"/>
<path d="M53.8555 50.973H24.3306C24.1459 50.9729 23.9636 50.9308 23.7976 50.8498C23.6315 50.7688 23.4861 50.651 23.3724 50.5054C23.2587 50.3598 23.1797 50.1902 23.1413 50.0095C23.1029 49.8288 23.1062 49.6417 23.1509 49.4624C24.0516 45.8427 26.1384 42.6287 29.0785 40.3332C32.0186 38.0376 35.6427 36.7926 39.3728 36.7968H53.8555C54.178 36.7968 54.4874 36.9249 54.7155 37.153C54.9436 37.3811 55.0717 37.6904 55.0717 38.013V49.7568C55.0717 50.0793 54.9436 50.3887 54.7155 50.6168C54.4874 50.8449 54.178 50.973 53.8555 50.973ZM25.9774 48.5406H52.6393V39.2292H39.3728C36.4559 39.226 33.6082 40.1168 31.2131 41.7817C28.8181 43.4465 26.9908 45.8054 25.9774 48.5406Z" fill="#6AC48A"/>
<path d="M45.9575 50.9729H36.454C36.1314 50.9729 35.8221 50.8448 35.594 50.6167C35.3659 50.3886 35.2378 50.0793 35.2378 49.7567V45.9731C35.2381 45.3678 35.4785 44.7874 35.9063 44.3592C36.334 43.931 36.9142 43.69 37.5194 43.689H44.8921C45.4976 43.69 46.078 43.9309 46.5061 44.3591C46.9343 44.7872 47.1752 45.3676 47.1762 45.9731V49.7567C47.1762 49.9166 47.1446 50.075 47.0834 50.2227C47.0221 50.3704 46.9323 50.5046 46.8191 50.6176C46.7059 50.7305 46.5715 50.8201 46.4237 50.8811C46.2758 50.942 46.1174 50.9733 45.9575 50.9729ZM37.6702 48.5405H44.7413V46.1202H37.6702V48.5405Z" fill="#6AC48A"/>
<path d="M70.6407 40.9562H66.4447C66.1222 40.9562 65.8128 40.8281 65.5847 40.6C65.3567 40.3719 65.2285 40.0625 65.2285 39.74V33.294C65.2285 32.9715 65.3567 32.6621 65.5847 32.434C65.8128 32.206 66.1222 32.0778 66.4447 32.0778H70.6407C71.2034 32.0785 71.7428 32.3023 72.1407 32.7001C72.5385 33.098 72.7623 33.6374 72.763 34.2001V38.8327C72.7627 39.3956 72.539 39.9353 72.1411 40.3335C71.7432 40.7316 71.2036 40.9556 70.6407 40.9562ZM67.6609 38.5238H70.3366V34.5103H67.6609V38.5238Z" fill="#6AC48A"/>
<path d="M86.8512 47.3997H85.3747C83.7349 47.3984 82.1627 46.7466 81.003 45.5874C79.8433 44.4282 79.1909 42.8562 79.189 41.2165C79.1877 40.2221 78.7921 39.2688 78.089 38.5656C77.3858 37.8625 76.4326 37.4669 75.4382 37.4656H71.5463C71.2237 37.4656 70.9144 37.3375 70.6863 37.1094C70.4582 36.8813 70.3301 36.572 70.3301 36.2494C70.3301 35.9269 70.4582 35.6175 70.6863 35.3894C70.9144 35.1613 71.2237 35.0332 71.5463 35.0332H75.4382C77.0776 35.0348 78.6494 35.6868 79.8086 36.846C80.9679 38.0052 81.6198 39.577 81.6214 41.2165C81.6227 42.211 82.0185 43.1645 82.7219 43.8677C83.4253 44.5709 84.3789 44.9663 85.3735 44.9673H86.8512C87.1737 44.9673 87.4831 45.0954 87.7111 45.3235C87.9392 45.5516 88.0674 45.8609 88.0674 46.1835C88.0674 46.506 87.9392 46.8154 87.7111 47.0435C87.4831 47.2716 87.1737 47.3997 86.8512 47.3997Z" fill="#6AC48A"/>
</svg>
