<svg width="91" height="91" viewBox="0 0 91 91" fill="none" xmlns="http://www.w3.org/2000/svg">
<path d="M66.8591 88.0676H24.1407C22.8505 88.0676 21.6131 87.555 20.7008 86.6427C19.7884 85.7303 19.2759 84.4929 19.2759 83.2027V7.7973C19.2759 6.50706 19.7884 5.26966 20.7008 4.35732C21.6131 3.44498 22.8505 2.93243 24.1407 2.93243H66.8591C68.1494 2.93243 69.3868 3.44498 70.2991 4.35732C71.2114 5.26966 71.724 6.50706 71.724 7.7973V83.2027C71.724 84.4929 71.2114 85.7303 70.2991 86.6427C69.3868 87.555 68.1494 88.0676 66.8591 88.0676ZM24.1407 5.36487C23.4956 5.36487 22.8769 5.62114 22.4208 6.07731C21.9646 6.53348 21.7083 7.15218 21.7083 7.7973V83.2027C21.7083 83.8478 21.9646 84.4665 22.4208 84.9227C22.8769 85.3789 23.4956 85.6351 24.1407 85.6351H66.8591C67.5042 85.6351 68.1229 85.3789 68.5791 84.9227C69.0353 84.4665 69.2915 83.8478 69.2915 83.2027V7.7973C69.2915 7.15218 69.0353 6.53348 68.5791 6.07731C68.1229 5.62114 67.5042 5.36487 66.8591 5.36487H24.1407Z" fill="#6AC48A"/>
<path d="M64.0985 71.4455H26.9018C26.5792 71.4455 26.2699 71.3174 26.0418 71.0893C25.8137 70.8612 25.6855 70.5519 25.6855 70.2293V16.3108C25.6855 15.9882 25.8137 15.6789 26.0418 15.4508C26.2699 15.2227 26.5792 15.0946 26.9018 15.0946H64.0985C64.4211 15.0946 64.7304 15.2227 64.9585 15.4508C65.1866 15.6789 65.3148 15.9882 65.3148 16.3108V70.2293C65.3148 70.5519 65.1866 70.8612 64.9585 71.0893C64.7304 71.3174 64.4211 71.4455 64.0985 71.4455ZM28.118 69.0131H62.8823V17.527H28.118V69.0131Z" fill="#6AC48A"/>
<path d="M38.7985 11.75H37.9994C37.6769 11.75 37.3675 11.6218 37.1394 11.3938C36.9113 11.1657 36.7832 10.8563 36.7832 10.5338C36.7832 10.2112 36.9113 9.90186 37.1394 9.67377C37.3675 9.44569 37.6769 9.31755 37.9994 9.31755H38.7985C39.121 9.31755 39.4304 9.44569 39.6585 9.67377C39.8866 9.90186 40.0147 10.2112 40.0147 10.5338C40.0147 10.8563 39.8866 11.1657 39.6585 11.3938C39.4304 11.6218 39.121 11.75 38.7985 11.75Z" fill="#6AC48A"/>
<path d="M53.0007 11.75H43.2831C42.9606 11.75 42.6512 11.6218 42.4231 11.3938C42.195 11.1657 42.0669 10.8563 42.0669 10.5338C42.0669 10.2112 42.195 9.90186 42.4231 9.67377C42.6512 9.44569 42.9606 9.31755 43.2831 9.31755H53.0007C53.3233 9.31755 53.6326 9.44569 53.8607 9.67377C54.0888 9.90186 54.2169 10.2112 54.2169 10.5338C54.2169 10.8563 54.0888 11.1657 53.8607 11.3938C53.6326 11.6218 53.3233 11.75 53.0007 11.75Z" fill="#6AC48A"/>
<path d="M45.5001 82.8232C44.6129 82.8232 43.7457 82.5602 43.0081 82.0673C42.2705 81.5744 41.6956 80.8739 41.3561 80.0543C41.0166 79.2347 40.9278 78.3329 41.1008 77.4628C41.2739 76.5927 41.7011 75.7935 42.3284 75.1662C42.9557 74.5389 43.7549 74.1117 44.625 73.9386C45.4951 73.7655 46.3969 73.8544 47.2165 74.1939C48.0361 74.5334 48.7367 75.1083 49.2295 75.8459C49.7224 76.5835 49.9855 77.4507 49.9855 78.3378C49.9839 79.5269 49.5108 80.6669 48.6699 81.5077C47.8291 82.3485 46.6892 82.8216 45.5001 82.8232ZM45.5001 76.2849C45.094 76.2849 44.6971 76.4053 44.3595 76.6309C44.0219 76.8564 43.7587 77.1771 43.6034 77.5522C43.448 77.9273 43.4073 78.3401 43.4865 78.7384C43.5657 79.1366 43.7613 79.5024 44.0484 79.7895C44.3355 80.0766 44.7013 80.2721 45.0995 80.3514C45.4978 80.4306 45.9106 80.3899 46.2857 80.2345C46.6608 80.0792 46.9815 79.816 47.207 79.4784C47.4326 79.1408 47.553 78.7439 47.553 78.3378C47.5524 77.7936 47.3359 77.2717 46.951 76.8869C46.5662 76.502 46.0443 76.2855 45.5001 76.2849Z" fill="#6AC48A"/>
</svg>
