<svg width="91" height="91" viewBox="0 0 91 91" fill="none" xmlns="http://www.w3.org/2000/svg">
<path d="M66.3571 83.0555H24.6421C23.6262 83.053 22.6527 82.648 21.9347 81.9293C21.2167 81.2106 20.8126 80.2367 20.811 79.2208V6.76716C20.8126 5.75125 21.2167 4.77736 21.9347 4.05866C22.6527 3.33996 23.6262 2.93501 24.6421 2.93243H66.3583C67.3742 2.93501 68.3477 3.33996 69.0658 4.05866C69.7838 4.77736 70.1878 5.75125 70.1894 6.76716V79.2208C70.1878 80.2369 69.7836 81.211 69.0653 81.9297C68.3471 82.6485 67.3732 83.0533 66.3571 83.0555ZM24.6421 5.36487C24.271 5.36647 23.9157 5.51485 23.6536 5.77758C23.3916 6.04032 23.2441 6.39608 23.2435 6.76716V79.2208C23.2441 79.5927 23.3922 79.9492 23.6553 80.2121C23.9184 80.475 24.2751 80.6228 24.647 80.6231H66.3632C66.7334 80.6202 67.0876 80.4713 67.3486 80.2087C67.6096 79.9461 67.7563 79.5911 67.757 79.2208V6.76716C67.7563 6.39587 67.6087 6.03993 67.3464 5.77716C67.0841 5.51438 66.7284 5.36615 66.3571 5.36487H24.6421Z" fill="#6AC48A"/>
<path d="M68.9732 33.9277H22.0273C21.7047 33.9277 21.3953 33.7996 21.1673 33.5715C20.9392 33.3434 20.811 33.0341 20.811 32.7115C20.811 32.389 20.9392 32.0796 21.1673 31.8515C21.3953 31.6234 21.7047 31.4953 22.0273 31.4953H68.9732C69.2958 31.4953 69.6051 31.6234 69.8332 31.8515C70.0613 32.0796 70.1894 32.389 70.1894 32.7115C70.1894 33.0341 70.0613 33.3434 69.8332 33.5715C69.6051 33.7996 69.2958 33.9277 68.9732 33.9277Z" fill="#6AC48A"/>
<path d="M28.8778 61.3473C28.5553 61.3473 28.2459 61.2192 28.0178 60.9911C27.7898 60.763 27.6616 60.4537 27.6616 60.1311V49.8492C27.6616 49.5267 27.7898 49.2173 28.0178 48.9892C28.2459 48.7611 28.5553 48.633 28.8778 48.633C29.2004 48.633 29.5097 48.7611 29.7378 48.9892C29.9659 49.2173 30.094 49.5267 30.094 49.8492V60.1311C30.094 60.4537 29.9659 60.763 29.7378 60.9911C29.5097 61.2192 29.2004 61.3473 28.8778 61.3473Z" fill="#6AC48A"/>
<path d="M28.8778 21.9784C28.5553 21.9784 28.2459 21.8502 28.0178 21.6222C27.7898 21.3941 27.6616 21.0847 27.6616 20.7622V14.9547C27.6616 14.6322 27.7898 14.3228 28.0178 14.0947C28.2459 13.8666 28.5553 13.7385 28.8778 13.7385C29.2004 13.7385 29.5097 13.8666 29.7378 14.0947C29.9659 14.3228 30.094 14.6322 30.094 14.9547V20.7622C30.094 21.0847 29.9659 21.3941 29.7378 21.6222C29.5097 21.8502 29.2004 21.9784 28.8778 21.9784Z" fill="#6AC48A"/>
<path d="M63.297 88.0675H57.149C56.645 88.0669 56.1619 87.8664 55.8055 87.51C55.4492 87.1537 55.2487 86.6705 55.248 86.1666V81.8393C55.248 81.5167 55.3762 81.2074 55.6043 80.9793C55.8324 80.7512 56.1417 80.6231 56.4643 80.6231H63.9866C64.3091 80.6231 64.6185 80.7512 64.8466 80.9793C65.0747 81.2074 65.2028 81.5167 65.2028 81.8393V86.1666C65.2025 86.4165 65.1529 86.664 65.057 86.8948C64.961 87.1256 64.8206 87.3352 64.6436 87.5118C64.4666 87.6883 64.2566 87.8282 64.0256 87.9236C63.7945 88.0189 63.5469 88.0678 63.297 88.0675ZM57.6805 85.6351H62.7704V83.0555H57.6805V85.6351Z" fill="#6AC48A"/>
<path d="M33.8499 88.0675H27.702C27.1974 88.0679 26.7133 87.8678 26.3561 87.5113C25.999 87.1549 25.798 86.6712 25.7974 86.1666V81.8393C25.7974 81.5167 25.9255 81.2074 26.1536 80.9793C26.3817 80.7512 26.691 80.6231 27.0136 80.6231H34.531C34.8536 80.6231 35.1629 80.7512 35.391 80.9793C35.6191 81.2074 35.7472 81.5167 35.7472 81.8393V86.1666C35.7466 86.6699 35.5466 87.1525 35.191 87.5088C34.8355 87.865 34.3533 88.0659 33.8499 88.0675ZM28.2298 85.6351H33.3148V83.0555H28.2298V85.6351Z" fill="#6AC48A"/>
</svg>
