<svg width="91" height="91" viewBox="0 0 91 91" fill="none" xmlns="http://www.w3.org/2000/svg">
<path d="M46.4294 41.6337H7.24411C6.10113 41.6327 5.00524 41.1783 4.19692 40.3702C3.3886 39.5621 2.93391 38.4664 2.93262 37.3234V13.803C2.9339 12.6599 3.38856 11.564 4.19684 10.7557C5.00513 9.94743 6.10102 9.49277 7.24411 9.49149H46.4294C46.752 9.49149 47.0613 9.61962 47.2894 9.84771C47.5175 10.0758 47.6456 10.3851 47.6456 10.7077V40.4174C47.6456 40.74 47.5175 41.0493 47.2894 41.2774C47.0613 41.5055 46.752 41.6337 46.4294 41.6337ZM7.24411 11.9239C6.74595 11.9246 6.26838 12.1227 5.91612 12.475C5.56387 12.8272 5.36569 13.3048 5.36505 13.803V37.3234C5.36569 37.8214 5.56391 38.2989 5.9162 38.6509C6.26848 39.003 6.74606 39.2009 7.24411 39.2012H45.2132V11.9239H7.24411Z" fill="#6AC48A"/>
<path d="M46.4291 41.6337C46.1065 41.6337 45.7972 41.5055 45.5691 41.2774C45.341 41.0494 45.2129 40.74 45.2129 40.4174V10.7077C45.2131 10.4919 45.2708 10.2801 45.3799 10.094C45.4891 9.90786 45.6457 9.75411 45.8339 9.64852C46.0221 9.54292 46.2349 9.48929 46.4507 9.49311C46.6664 9.49694 46.8772 9.55809 47.0615 9.67029L56.8229 15.6297C57.0007 15.7383 57.1477 15.8907 57.2497 16.0724C57.3517 16.254 57.4053 16.4588 57.4055 16.6672V34.4641C57.4053 34.6724 57.3517 34.8772 57.2497 35.0589C57.1477 35.2405 57.0007 35.393 56.8229 35.5015L47.0615 41.461C46.8705 41.5753 46.6518 41.6351 46.4291 41.6337ZM47.6453 12.8738V38.2514L54.973 33.7806V17.3446L47.6453 12.8738Z" fill="#6AC48A"/>
<path d="M63.5463 35.6803H56.1894C55.8668 35.6803 55.5575 35.5522 55.3294 35.3241C55.1013 35.096 54.9731 34.7866 54.9731 34.4641V16.6611C54.9731 16.3385 55.1013 16.0292 55.3294 15.8011C55.5575 15.573 55.8668 15.4449 56.1894 15.4449H63.5463C63.718 15.445 63.8877 15.4815 64.0443 15.5519C64.2009 15.6224 64.3408 15.7251 64.4548 15.8535L69.0484 21.0176C69.2467 21.2403 69.3562 21.5282 69.3561 21.8264V29.2988C69.3562 29.597 69.2467 29.8848 69.0484 30.1076L64.4548 35.2729C64.3407 35.401 64.2007 35.5036 64.0441 35.5738C63.8875 35.644 63.7179 35.6803 63.5463 35.6803ZM57.4056 33.2479H63.0002L66.9237 28.8379V22.2885L63.0002 17.8773H57.4056V33.2479Z" fill="#6AC48A"/>
<path d="M83.1846 30.515H68.14C67.8175 30.515 67.5081 30.3869 67.28 30.1588C67.052 29.9307 66.9238 29.6214 66.9238 29.2988V21.8264C66.9238 21.5038 67.052 21.1945 67.28 20.9664C67.5081 20.7383 67.8175 20.6102 68.14 20.6102H83.1846C83.3464 20.6102 83.5065 20.6425 83.6556 20.7051C83.8047 20.7678 83.9398 20.8595 84.053 20.975L87.7199 24.7125C87.9428 24.9398 88.0676 25.2455 88.0676 25.5638C88.0676 25.8822 87.9428 26.1878 87.7199 26.4152L84.0542 30.1502C83.9409 30.2658 83.8056 30.3577 83.6562 30.4203C83.5069 30.483 83.3466 30.5152 83.1846 30.515ZM69.3563 28.0826H82.6738L85.1488 25.5626L82.675 23.0426H69.3563V28.0826Z" fill="#6AC48A"/>
<path d="M49.8564 19.923H46.4291C46.1065 19.923 45.7972 19.7948 45.5691 19.5668C45.341 19.3387 45.2129 19.0293 45.2129 18.7068C45.2129 18.3842 45.341 18.0748 45.5691 17.8468C45.7972 17.6187 46.1065 17.4905 46.4291 17.4905H49.8564C50.179 17.4905 50.4883 17.6187 50.7164 17.8468C50.9445 18.0748 51.0726 18.3842 51.0726 18.7068C51.0726 19.0293 50.9445 19.3387 50.7164 19.5668C50.4883 19.7948 50.179 19.923 49.8564 19.923Z" fill="#6AC48A"/>
<path d="M49.8564 26.7788H46.4291C46.1065 26.7788 45.7972 26.6506 45.5691 26.4225C45.341 26.1945 45.2129 25.8851 45.2129 25.5626C45.2129 25.24 45.341 24.9306 45.5691 24.7026C45.7972 24.4745 46.1065 24.3463 46.4291 24.3463H49.8564C50.179 24.3463 50.4883 24.4745 50.7164 24.7026C50.9445 24.9306 51.0726 25.24 51.0726 25.5626C51.0726 25.8851 50.9445 26.1945 50.7164 26.4225C50.4883 26.6506 50.179 26.7788 49.8564 26.7788Z" fill="#6AC48A"/>
<path d="M49.8564 33.6358H46.4291C46.1065 33.6358 45.7972 33.5077 45.5691 33.2796C45.341 33.0515 45.2129 32.7422 45.2129 32.4196C45.2129 32.0971 45.341 31.7877 45.5691 31.5596C45.7972 31.3315 46.1065 31.2034 46.4291 31.2034H49.8564C50.179 31.2034 50.4883 31.3315 50.7164 31.5596C50.9445 31.7877 51.0726 32.0971 51.0726 32.4196C51.0726 32.7422 50.9445 33.0515 50.7164 33.2796C50.4883 33.5077 50.179 33.6358 49.8564 33.6358Z" fill="#6AC48A"/>
<path d="M32.9179 24.4935H14.7063C13.7072 24.4909 12.7497 24.0929 12.0432 23.3864C11.3367 22.6799 10.9386 21.7224 10.936 20.7232V10.7077C10.936 10.3851 11.0642 10.0758 11.2923 9.84771C11.5203 9.61962 11.8297 9.49149 12.1523 9.49149H35.4781C35.8006 9.49149 36.11 9.61962 36.3381 9.84771C36.5661 10.0758 36.6943 10.3851 36.6943 10.7077V20.7184C36.693 21.7194 36.2947 22.6791 35.5867 23.3868C34.8788 24.0945 33.919 24.4925 32.9179 24.4935ZM13.3636 11.9239V20.7184C13.3655 21.0726 13.5071 21.4118 13.7576 21.6622C14.008 21.9127 14.3472 22.0543 14.7014 22.0562H32.9179C33.2732 22.0559 33.6139 21.915 33.8657 21.6644C34.1175 21.4137 34.2599 21.0736 34.2618 20.7184V11.9239H13.3636Z" fill="#6AC48A"/>
<path d="M19.9596 69.3463C19.6526 69.3472 19.3567 69.232 19.1311 69.0238C18.9055 68.8156 18.767 68.5298 18.7434 68.2238C17.9947 58.4404 19.8847 48.6353 24.2164 39.8312C24.3718 39.5485 24.6333 39.3391 24.9431 39.2491C25.253 39.1591 25.5859 39.1959 25.8686 39.3514C26.1513 39.5069 26.3607 39.7683 26.4507 40.0781C26.5407 40.388 26.5039 40.7209 26.3484 41.0036C22.2897 49.4071 20.5062 58.7282 21.1758 68.0365C21.2007 68.3581 21.0967 68.6763 20.8869 68.9213C20.6771 69.1663 20.3785 69.3178 20.0569 69.3427C20.0216 69.3451 19.9888 69.3463 19.9596 69.3463Z" fill="#6AC48A"/>
<path d="M5.36462 69.3463C5.04706 69.3464 4.74205 69.2223 4.51478 69.0005C4.28752 68.7787 4.15603 68.4768 4.14841 68.1593C3.67287 48.5247 9.45232 40.0647 9.698 39.7181C9.78968 39.5872 9.90623 39.4757 10.041 39.3898C10.1758 39.304 10.3262 39.2455 10.4836 39.2178C10.6409 39.1901 10.8022 39.1936 10.9582 39.2282C11.1142 39.2628 11.2619 39.3278 11.3928 39.4195C11.5237 39.5112 11.6352 39.6277 11.7211 39.7625C11.8069 39.8973 11.8654 40.0477 11.8931 40.2051C11.9208 40.3624 11.9173 40.5237 11.8827 40.6798C11.8481 40.8358 11.7831 40.9834 11.6914 41.1143C11.6257 41.2128 6.13084 49.3919 6.58084 68.1009C6.58834 68.4233 6.46752 68.7355 6.24492 68.9688C6.02233 69.2021 5.71619 69.3375 5.39381 69.3451L5.36462 69.3463Z" fill="#6AC48A"/>
<path d="M34.3641 81.5086H6.77425C6.07847 81.5086 5.41114 81.2324 4.91881 80.7408C4.42648 80.2491 4.1494 79.5822 4.14844 78.8864V68.1302C4.14844 67.8076 4.27657 67.4983 4.50466 67.2702C4.73274 67.0421 5.04209 66.9139 5.36465 66.9139H34.3641C35.0593 66.9149 35.7257 67.1915 36.2172 67.683C36.7087 68.1746 36.9853 68.841 36.9863 69.5361V78.8864C36.9853 79.5815 36.7087 80.2479 36.2172 80.7395C35.7257 81.231 35.0593 81.5076 34.3641 81.5086ZM6.58087 69.3464V78.8864C6.58087 78.9113 6.58578 78.936 6.59531 78.959C6.60485 78.982 6.61882 79.0029 6.63644 79.0205C6.65406 79.0382 6.67497 79.0521 6.69799 79.0617C6.72101 79.0712 6.74568 79.0761 6.7706 79.0761H34.3641C34.389 79.0761 34.4137 79.0712 34.4367 79.0617C34.4597 79.0521 34.4807 79.0382 34.4983 79.0205C34.5159 79.0029 34.5299 78.982 34.5394 78.959C34.5489 78.936 34.5538 78.9113 34.5538 78.8864V69.5361C34.5538 69.4858 34.5339 69.4375 34.4983 69.4019C34.4627 69.3664 34.4144 69.3464 34.3641 69.3464H6.58087Z" fill="#6AC48A"/>
<path d="M31.4407 51.1031H21.7353C21.4127 51.1031 21.1034 50.975 20.8753 50.7469C20.6472 50.5188 20.519 50.2094 20.519 49.8869C20.519 49.5643 20.6472 49.255 20.8753 49.0269C21.1034 48.7988 21.4127 48.6707 21.7353 48.6707H30.492L32.6204 40.1182C32.6985 39.805 32.8977 39.5357 33.1744 39.3694C33.3114 39.2871 33.4633 39.2325 33.6213 39.2089C33.7794 39.1852 33.9406 39.193 34.0957 39.2316C34.2508 39.2703 34.3967 39.3391 34.5252 39.4341C34.6537 39.5292 34.7622 39.6486 34.8445 39.7856C34.9269 39.9226 34.9814 40.0745 35.005 40.2326C35.0287 40.3906 35.0209 40.5518 34.9823 40.7069L32.6228 50.1812C32.5571 50.4448 32.4049 50.6789 32.1907 50.8459C31.9764 51.013 31.7124 51.1036 31.4407 51.1031Z" fill="#6AC48A"/>
</svg>
