<svg width="50" height="50" viewBox="0 0 50 50" fill="none" xmlns="http://www.w3.org/2000/svg">
<path d="M25.7813 42.186H9.3099C8.91276 42.186 8.53189 42.0283 8.25108 41.7475C7.97026 41.4666 7.8125 41.0858 7.8125 40.6886V24.2172C7.8125 21.8576 8.27727 19.521 9.18029 17.3409C10.0833 15.1609 11.4069 13.18 13.0754 11.5114C14.744 9.8429 16.7248 8.51933 18.9049 7.61632C21.085 6.71331 23.4215 6.24853 25.7812 6.24854H25.7812C28.1409 6.24854 30.4775 6.71331 32.6576 7.61633C34.8377 8.51934 36.8185 9.84291 38.4871 11.5115C40.1556 13.18 41.4792 15.1609 42.3822 17.3409C43.2852 19.521 43.75 21.8576 43.75 24.2173V24.2173C43.75 28.9829 41.8569 33.5533 38.4871 36.9231C35.1173 40.2929 30.5469 42.186 25.7813 42.186Z" stroke="#6AC48A" stroke-linecap="round" stroke-linejoin="round"/>
<path d="M27.625 25C27.625 26.0183 26.7995 26.8438 25.7812 26.8438C24.763 26.8438 23.9375 26.0183 23.9375 25C23.9375 23.9817 24.763 23.1562 25.7812 23.1562C26.7995 23.1562 27.625 23.9817 27.625 25Z" stroke="#6AC48A"/>
<path d="M18.25 25C18.25 26.0183 17.4245 26.8438 16.4062 26.8438C15.388 26.8438 14.5625 26.0183 14.5625 25C14.5625 23.9817 15.388 23.1562 16.4062 23.1562C17.4245 23.1562 18.25 23.9817 18.25 25Z" stroke="#6AC48A"/>
<path d="M37 25C37 26.0183 36.1745 26.8438 35.1562 26.8438C34.138 26.8438 33.3125 26.0183 33.3125 25C33.3125 23.9817 34.138 23.1562 35.1562 23.1562C36.1745 23.1562 37 23.9817 37 25Z" stroke="#6AC48A"/>
</svg>
