<svg width="101" height="91" viewBox="0 0 101 91" fill="none" xmlns="http://www.w3.org/2000/svg">
<path d="M89.7522 81.0803H10.2467C8.24633 81.0778 6.32858 80.2907 4.9142 78.8916C3.49981 77.4925 2.70429 75.5957 2.70215 73.6173V68.2713C2.70215 67.9168 2.84452 67.5768 3.09795 67.3262C3.35138 67.0756 3.6951 66.9348 4.0535 66.9348H95.9454C96.3038 66.9348 96.6475 67.0756 96.901 67.3262C97.1544 67.5768 97.2968 67.9168 97.2968 68.2713V73.6173C97.2946 75.5957 96.4991 77.4925 95.0847 78.8916C93.6703 80.2907 91.7526 81.0778 89.7522 81.0803ZM5.40485 69.6078V73.6173C5.40592 74.8871 5.91635 76.1046 6.82411 77.0027C7.73187 77.9007 8.9628 78.4059 10.2467 78.4073H89.7522C91.0361 78.4059 92.267 77.9007 93.1748 77.0027C94.0826 76.1046 94.593 74.8871 94.594 73.6173V69.6078H5.40485Z" fill="#6AC48A"/>
<path d="M57.1927 74.9538H42.8062C41.9218 74.9531 41.0737 74.6053 40.4482 73.987C39.8227 73.3686 39.4708 72.53 39.4697 71.6553V68.2713C39.4697 67.9168 39.6121 67.5768 39.8655 67.3262C40.119 67.0756 40.4627 66.9348 40.8211 66.9348H59.1778C59.5362 66.9348 59.88 67.0756 60.1334 67.3262C60.3868 67.5768 60.5292 67.9168 60.5292 68.2713V71.6553C60.5281 72.53 60.1762 73.3686 59.5507 73.987C58.9252 74.6053 58.0771 74.9531 57.1927 74.9538ZM42.1724 69.6078V71.6553C42.1728 71.8213 42.2397 71.9804 42.3585 72.0976C42.4774 72.2149 42.6384 72.2808 42.8062 72.2808H57.1927C57.3606 72.2808 57.5216 72.2149 57.6404 72.0976C57.7592 71.9804 57.8261 71.8213 57.8265 71.6553V69.6078H42.1724Z" fill="#6AC48A"/>
<path d="M88.4647 69.6078H11.5349C11.1765 69.6078 10.8328 69.467 10.5794 69.2164C10.326 68.9657 10.1836 68.6258 10.1836 68.2713V24.3098C10.1854 22.8545 10.7707 21.4594 11.8111 20.4304C12.8516 19.4014 14.2622 18.8225 15.7336 18.8207H84.266C85.7374 18.8225 87.1481 19.4014 88.1885 20.4304C89.2289 21.4594 89.8142 22.8545 89.816 24.3098V68.2713C89.816 68.6258 89.6737 68.9657 89.4202 69.2164C89.1668 69.467 88.8231 69.6078 88.4647 69.6078ZM12.8863 66.9348H87.1133V24.3098C87.1123 23.5632 86.8119 22.8476 86.2782 22.3197C85.7444 21.7918 85.0209 21.4948 84.266 21.4937H15.7336C14.9788 21.4948 14.2552 21.7918 13.7214 22.3197C13.1877 22.8476 12.8874 23.5632 12.8863 24.3098V66.9348Z" fill="#6AC48A"/>
</svg>
