<svg width="91" height="91" viewBox="0 0 91 91" fill="none" xmlns="http://www.w3.org/2000/svg">
<path d="M54.8249 86.8866H6.6214C5.64421 86.8857 4.70725 86.4974 4.01582 85.8069C3.32439 85.1163 2.93487 84.1799 2.93262 83.2027V7.79731C2.93487 6.82012 3.32439 5.88367 4.01582 5.19315C4.70725 4.50263 5.64421 4.11435 6.6214 4.11339H54.8249C55.8021 4.11435 56.7391 4.50263 57.4305 5.19315C58.1219 5.88367 58.5115 6.82012 58.5137 7.79731V83.2027C58.5115 84.1799 58.1219 85.1163 57.4305 85.8069C56.7391 86.4974 55.8021 86.8857 54.8249 86.8866ZM6.6214 6.54582C6.28914 6.54614 5.9705 6.67794 5.7351 6.91243C5.49969 7.14692 5.36666 7.46504 5.36505 7.79731V83.2027C5.36537 83.5358 5.49784 83.8552 5.73338 84.0907C5.96892 84.3263 6.2883 84.4587 6.6214 84.4591H54.8249C55.158 84.4587 55.4774 84.3263 55.7129 84.0907C55.9485 83.8552 56.0809 83.5358 56.0813 83.2027V7.79731C56.081 7.46441 55.9486 7.14522 55.7134 6.90972C55.4781 6.67421 55.159 6.5416 54.8261 6.54096L6.6214 6.54582Z" fill="#6AC48A"/>
<path d="M50.4988 43.2658H10.9462C10.6236 43.2658 10.3143 43.1376 10.0862 42.9096C9.85812 42.6815 9.72998 42.3721 9.72998 42.0496V13.1036C9.72998 12.7811 9.85812 12.4717 10.0862 12.2436C10.3143 12.0155 10.6236 11.8874 10.9462 11.8874H50.4988C50.8213 11.8874 51.1307 12.0155 51.3587 12.2436C51.5868 12.4717 51.715 12.7811 51.715 13.1036V42.0496C51.715 42.3721 51.5868 42.6815 51.3587 42.9096C51.1307 43.1376 50.8213 43.2658 50.4988 43.2658ZM12.1624 40.8334H49.2825V14.3198H12.1624V40.8334Z" fill="#6AC48A"/>
<path d="M30.7229 78.3634C27.8541 78.3636 25.0497 77.5131 22.6644 75.9194C20.279 74.3256 18.4199 72.0603 17.3222 69.4099C16.2244 66.7595 15.9373 63.8431 16.4972 61.0295C17.057 58.2159 18.4387 55.6315 20.4675 53.6033C22.4963 51.575 25.081 50.194 27.8947 49.6348C30.7084 49.0756 33.6248 49.3635 36.2749 50.4619C38.9251 51.5604 41.1899 53.42 42.783 55.8058C44.3762 58.1915 45.226 60.9961 45.225 63.8649C45.2196 67.7091 43.6898 71.3942 40.9712 74.1121C38.2526 76.83 34.5671 78.3589 30.7229 78.3634ZM30.7229 51.7891C28.3356 51.7888 26.0019 52.4964 24.0168 53.8225C22.0317 55.1485 20.4843 57.0333 19.5704 59.2387C18.6564 61.4441 18.4169 63.8709 18.8821 66.2124C19.3474 68.5539 20.4964 70.7048 22.1841 72.3933C23.8717 74.0818 26.022 75.2319 28.3633 75.6983C30.7045 76.1647 33.1315 75.9264 35.3373 75.0136C37.5432 74.1008 39.4288 72.5544 40.7558 70.5699C42.0828 68.5855 42.7916 66.2521 42.7926 63.8649C42.7903 60.6639 41.5182 57.5946 39.2553 55.3306C36.9925 53.0666 33.9238 51.7929 30.7229 51.7891Z" fill="#6AC48A"/>
<path d="M30.7228 70.3108C29.4461 70.3108 28.1982 69.9322 27.1368 69.2227C26.0754 68.5133 25.2483 67.505 24.7601 66.3254C24.2718 65.1458 24.1445 63.8479 24.3941 62.5959C24.6437 61.3439 25.259 60.1941 26.1622 59.2919C27.0655 58.3897 28.216 57.7756 29.4683 57.5274C30.7206 57.2793 32.0183 57.4081 33.1974 57.8977C34.3764 58.3872 35.3838 59.2155 36.092 60.2777C36.8002 61.3398 37.1775 62.5882 37.176 63.8649C37.1718 65.5744 36.4904 67.2126 35.2808 68.4208C34.0713 69.629 32.4323 70.3086 30.7228 70.3108ZM30.7228 59.8368C29.9278 59.8368 29.1508 60.0724 28.4897 60.5139C27.8286 60.9554 27.3133 61.5829 27.0087 62.3172C26.7042 63.0515 26.6241 63.8596 26.7787 64.6393C26.9332 65.4191 27.3155 66.1355 27.8771 66.6981C28.4387 67.2607 29.1544 67.6443 29.9339 67.8002C30.7134 67.9562 31.5216 67.8776 32.2564 67.5744C32.9913 67.2712 33.6197 66.757 34.0624 66.0967C34.5051 65.4365 34.7421 64.6598 34.7436 63.8649C34.7439 62.7979 34.3205 61.7745 33.5666 61.0197C32.8126 60.2648 31.7897 59.8402 30.7228 59.8392V59.8368Z" fill="#6AC48A"/>
<path d="M61.824 77.973H57.2973C56.9747 77.973 56.6654 77.8449 56.4373 77.6168C56.2092 77.3887 56.0811 77.0794 56.0811 76.7568V66.2231C56.0811 65.9006 56.2092 65.5912 56.4373 65.3631C56.6654 65.1351 56.9747 65.0069 57.2973 65.0069H61.8252C62.5182 65.0076 63.1826 65.2831 63.6726 65.7732C64.1627 66.2632 64.4382 66.9276 64.4389 67.6206V75.3642C64.4369 76.0566 64.1606 76.7199 63.6705 77.2089C63.1804 77.6979 62.5164 77.9727 61.824 77.973ZM58.5123 75.5406H61.824C61.8721 75.5406 61.9182 75.5215 61.9522 75.4875C61.9861 75.4535 62.0052 75.4074 62.0052 75.3594V67.6206C62.0052 67.5725 61.9861 67.5264 61.9522 67.4924C61.9182 67.4585 61.8721 67.4394 61.824 67.4394H58.5135L58.5123 75.5406Z" fill="#6AC48A"/>
<path d="M69.13 72.7092H63.2216C62.899 72.7092 62.5897 72.581 62.3616 72.353C62.1335 72.1249 62.0054 71.8155 62.0054 71.493C62.0054 71.1704 62.1335 70.8611 62.3616 70.633C62.5897 70.4049 62.899 70.2768 63.2216 70.2768H67.9138V26.5963C67.9138 26.2738 68.0419 25.9644 68.27 25.7363C68.4981 25.5083 68.8074 25.3801 69.13 25.3801C69.4525 25.3801 69.7619 25.5083 69.99 25.7363C70.2181 25.9644 70.3462 26.2738 70.3462 26.5963V71.493C70.3462 71.8155 70.2181 72.1249 69.99 72.353C69.7619 72.581 69.4525 72.7092 69.13 72.7092Z" fill="#6AC48A"/>
<path d="M77.4001 39.6269H69.1298C68.8072 39.6269 68.4979 39.4987 68.2698 39.2706C68.0417 39.0426 67.9136 38.7332 67.9136 38.4106C67.9136 38.0881 68.0417 37.7787 68.2698 37.5507C68.4979 37.3226 68.8072 37.1944 69.1298 37.1944H77.4001C77.7226 37.1944 78.032 37.3226 78.2601 37.5507C78.4882 37.7787 78.6163 38.0881 78.6163 38.4106C78.6163 38.7332 78.4882 39.0426 78.2601 39.2706C78.032 39.4987 77.7226 39.6269 77.4001 39.6269Z" fill="#6AC48A"/>
<path d="M69.1297 27.8126C67.9543 27.8128 66.8053 27.4645 65.8279 26.8117C64.8505 26.1589 64.0887 25.2309 63.6387 24.145C63.1888 23.0592 63.0709 21.8644 63.3001 20.7116C63.5292 19.5588 64.0951 18.4998 64.9261 17.6686C65.7571 16.8374 66.816 16.2714 67.9687 16.042C69.1215 15.8126 70.3163 15.9302 71.4023 16.3799C72.4882 16.8296 73.4163 17.5913 74.0693 18.5686C74.7223 19.5458 75.0709 20.6948 75.0709 21.8701C75.069 23.4454 74.4424 24.9555 73.3287 26.0695C72.215 27.1835 70.7049 27.8103 69.1297 27.8126ZM69.1297 18.3613C68.4354 18.3611 67.7566 18.5668 67.1792 18.9524C66.6018 19.338 66.1517 19.8861 65.8859 20.5276C65.6201 21.169 65.5505 21.8748 65.6859 22.5558C65.8212 23.2368 66.1556 23.8623 66.6465 24.3533C67.1375 24.8442 67.763 25.1786 68.444 25.314C69.125 25.4494 69.8308 25.3797 70.4722 25.1139C71.1137 24.8481 71.6618 24.398 72.0474 23.8206C72.433 23.2432 72.6387 22.5644 72.6385 21.8701C72.6375 20.9398 72.2675 20.0479 71.6097 19.3901C70.9519 18.7323 70.06 18.3623 69.1297 18.3613Z" fill="#6AC48A"/>
<path d="M82.125 44.3531C80.9497 44.3531 79.8008 44.0046 78.8236 43.3516C77.8464 42.6987 77.0847 41.7706 76.635 40.6847C76.1852 39.5989 76.0675 38.4041 76.2968 37.2514C76.5261 36.0986 77.0921 35.0398 77.9231 34.2087C78.7542 33.3777 79.813 32.8117 80.9657 32.5824C82.1185 32.3531 83.3133 32.4708 84.3991 32.9206C85.485 33.3704 86.413 34.132 87.066 35.1092C87.719 36.0865 88.0675 37.2354 88.0675 38.4107C88.0659 39.9862 87.4393 41.4968 86.3252 42.6108C85.2111 43.7249 83.7006 44.3515 82.125 44.3531ZM82.125 34.9019C81.4308 34.9019 80.7521 35.1078 80.1749 35.4935C79.5976 35.8793 79.1477 36.4275 78.8821 37.069C78.6165 37.7104 78.547 38.4162 78.6826 39.0971C78.8181 39.778 79.1525 40.4034 79.6435 40.8943C80.1345 41.3851 80.7601 41.7193 81.441 41.8546C82.122 41.9899 82.8278 41.9202 83.4691 41.6544C84.1105 41.3885 84.6586 40.9384 85.0441 40.3611C85.4296 39.7837 85.6353 39.1049 85.635 38.4107C85.6341 37.4802 85.2639 36.5881 84.6059 35.9302C83.9478 35.2724 83.0556 34.9025 82.125 34.9019Z" fill="#6AC48A"/>
</svg>
