<svg width="24" height="25" viewBox="0 0 24 25" fill="none" xmlns="http://www.w3.org/2000/svg">
<path d="M2.80469 16.42C2.80469 16.42 2.94669 18.158 2.97969 18.706C3.02369 19.441 3.30769 20.262 3.78169 20.832C4.45069 21.64 5.23869 21.925 6.29069 21.927C7.52769 21.929 16.5227 21.929 17.7597 21.927C18.8117 21.925 19.5997 21.64 20.2687 20.832C20.7427 20.262 21.0267 19.441 21.0717 18.706C21.1037 18.158 21.2457 16.42 21.2457 16.42" stroke="#6AC48A" stroke-width="1.5" stroke-linecap="round" stroke-linejoin="round"/>
<path d="M8.49609 6.27251V5.90151C8.49609 4.68151 9.48409 3.69351 10.7041 3.69351H13.2861C14.5051 3.69351 15.4941 4.68151 15.4941 5.90151L15.4951 6.27251" stroke="#FFCB12" stroke-width="1.5" stroke-linecap="round" stroke-linejoin="round"/>
<path d="M11.9951 17.6212V16.3272" stroke="#FFCB12" stroke-width="1.5" stroke-linecap="round" stroke-linejoin="round"/>
<path fill-rule="evenodd" clip-rule="evenodd" d="M2.75 9.33211V12.7991C4.668 14.0641 6.966 14.9501 9.488 15.3011C9.79 14.2001 10.783 13.3931 11.99 13.3931C13.178 13.3931 14.191 14.2001 14.473 15.3111C17.005 14.9601 19.312 14.0741 21.24 12.7991V9.33211C21.24 7.63811 19.877 6.27411 18.183 6.27411H5.817C4.123 6.27411 2.75 7.63811 2.75 9.33211Z" stroke="#FFCB12" stroke-width="1.5" stroke-linecap="round" stroke-linejoin="round"/>
</svg>
