<svg width="50" height="50" viewBox="0 0 50 50" fill="none" xmlns="http://www.w3.org/2000/svg">
<path d="M18.75 21.875H34.375" stroke="#6AC48A" stroke-linecap="round" stroke-linejoin="round"/>
<path d="M18.75 28.125H34.375" stroke="#6AC48A" stroke-linecap="round" stroke-linejoin="round"/>
<path d="M6.25 39.0625C7.0788 39.0625 7.87366 38.7333 8.45971 38.1472C9.04576 37.5612 9.375 36.7663 9.375 35.9375V12.5C9.375 12.0856 9.53962 11.6882 9.83265 11.3951C10.1257 11.1021 10.5231 10.9375 10.9375 10.9375H42.1875C42.6019 10.9375 42.9993 11.1021 43.2924 11.3951C43.5854 11.6882 43.75 12.0856 43.75 12.5V35.9375C43.75 36.7663 43.4208 37.5612 42.8347 38.1472C42.2487 38.7333 41.4538 39.0625 40.625 39.0625H6.25Z" stroke="#6AC48A" stroke-linecap="round" stroke-linejoin="round"/>
<path d="M6.25 39.0625C5.4212 39.0625 4.62634 38.7333 4.04029 38.1472C3.45424 37.5612 3.125 36.7663 3.125 35.9375V17.1875" stroke="#6AC48A" stroke-linecap="round" stroke-linejoin="round"/>
</svg>
