<svg width="91" height="91" viewBox="0 0 91 91" fill="none" xmlns="http://www.w3.org/2000/svg">
<path d="M81.9867 70.4324H9.0137C7.40149 70.4305 5.85586 69.7892 4.71586 68.6492C3.57585 67.5092 2.93455 65.9635 2.93262 64.3513V10.8378C2.93455 9.22562 3.57585 7.67999 4.71586 6.53998C5.85586 5.39998 7.40149 4.75868 9.0137 4.75674H81.9867C83.5989 4.75868 85.1445 5.39998 86.2845 6.53998C87.4245 7.67999 88.0658 9.22562 88.0678 10.8378V64.3513C88.0658 65.9635 87.4245 67.5092 86.2845 68.6492C85.1445 69.7892 83.5989 70.4305 81.9867 70.4324ZM9.0137 7.18918C8.04602 7.18918 7.11797 7.57359 6.43371 8.25784C5.74946 8.9421 5.36505 9.87014 5.36505 10.8378V64.3513C5.36505 65.319 5.74946 66.2471 6.43371 66.9313C7.11797 67.6156 8.04602 68 9.0137 68H81.9867C82.9544 68 83.8824 67.6156 84.5667 66.9313C85.2509 66.2471 85.6353 65.319 85.6353 64.3513V10.8378C85.6353 9.87014 85.2509 8.9421 84.5667 8.25784C83.8824 7.57359 82.9544 7.18918 81.9867 7.18918H9.0137Z" fill="#6AC48A"/>
<path d="M66.1758 86.2432H24.8244C24.5874 86.2434 24.3556 86.1743 24.1573 86.0445C23.959 85.9146 23.803 85.7297 23.7085 85.5124C23.6139 85.295 23.5849 85.0548 23.625 84.8213C23.6651 84.5877 23.7725 84.3709 23.9342 84.1976C28.2955 79.5164 30.897 75.3934 30.3886 69.3184C30.3744 69.1503 30.3954 68.9811 30.4501 68.8215C30.5049 68.662 30.5922 68.5155 30.7066 68.3916C30.821 68.2676 30.9599 68.1687 31.1145 68.1013C31.2692 68.0339 31.4361 67.9994 31.6048 68H59.4002C59.5711 68 59.7401 68.036 59.8962 68.1057C60.0522 68.1754 60.1918 68.2772 60.3059 68.4045C60.4199 68.5317 60.5059 68.6816 60.5581 68.8443C60.6104 69.007 60.6278 69.1789 60.6092 69.3488C59.8879 75.8945 62.5271 79.8618 67.015 84.1416C67.1927 84.309 67.3159 84.5259 67.3687 84.7643C67.4214 85.0026 67.4012 85.2513 67.3107 85.4781C67.2201 85.7048 67.0635 85.899 66.8611 86.0354C66.6587 86.1719 66.4199 86.2443 66.1758 86.2432ZM27.5293 83.8108H63.2739C59.877 80.0855 57.8009 76.1 58.0831 70.4324H32.8806C32.9828 75.7631 30.8763 79.8095 27.5293 83.8108Z" fill="#6AC48A"/>
<path d="M86.8515 54.2203H4.14883C3.82627 54.2203 3.51692 54.0921 3.28884 53.8641C3.06075 53.636 2.93262 53.3266 2.93262 53.0041C2.93262 52.6815 3.06075 52.3722 3.28884 52.1441C3.51692 51.916 3.82627 51.7878 4.14883 51.7878H86.8515C87.1741 51.7878 87.4835 51.916 87.7115 52.1441C87.9396 52.3722 88.0678 52.6815 88.0678 53.0041C88.0678 53.3266 87.9396 53.636 87.7115 53.8641C87.4835 54.0921 87.1741 54.2203 86.8515 54.2203Z" fill="#6AC48A"/>
<path d="M17.5271 62.3239H15.0946C14.7721 62.3239 14.4627 62.1958 14.2346 61.9677C14.0066 61.7396 13.8784 61.4303 13.8784 61.1077C13.8784 60.7851 14.0066 60.4758 14.2346 60.2477C14.4627 60.0196 14.7721 59.8915 15.0946 59.8915H17.5271C17.8496 59.8915 18.159 60.0196 18.3871 60.2477C18.6151 60.4758 18.7433 60.7851 18.7433 61.1077C18.7433 61.4303 18.6151 61.7396 18.3871 61.9677C18.159 62.1958 17.8496 62.3239 17.5271 62.3239Z" fill="#6AC48A"/>
</svg>
