<svg width="25" height="25" viewBox="0 0 25 25" fill="none" xmlns="http://www.w3.org/2000/svg">
<path fill-rule="evenodd" clip-rule="evenodd" d="M19.7862 19.5581C16.7301 22.6146 12.2046 23.275 8.50126 21.5623C7.95455 21.3422 7.50633 21.1643 7.08022 21.1643C5.89333 21.1713 4.41601 22.3221 3.6482 21.5553C2.8804 20.7874 4.03211 19.3089 4.03211 18.1148C4.03211 17.6887 3.86126 17.2484 3.64117 16.7007C1.92767 12.9979 2.58895 8.47097 5.6451 5.41549C9.54644 1.51271 15.8849 1.51271 19.7862 5.41448C23.6946 9.32329 23.6875 15.6564 19.7862 19.5581Z" stroke="#FFCB12" stroke-width="1.5" stroke-linecap="round" stroke-linejoin="round"/>
<path d="M16.6557 12.9014H16.6647" stroke="#FFCB12" stroke-width="2" stroke-linecap="round" stroke-linejoin="round"/>
<path d="M12.6439 12.9014H12.6529" stroke="#FFCB12" stroke-width="2" stroke-linecap="round" stroke-linejoin="round"/>
<path d="M8.63612 12.9014H8.64512" stroke="#FFCB12" stroke-width="2" stroke-linecap="round" stroke-linejoin="round"/>
</svg>
