<svg width="24" height="25" viewBox="0 0 24 25" fill="none" xmlns="http://www.w3.org/2000/svg">
<path fill-rule="evenodd" clip-rule="evenodd" d="M18.865 6.06682C19.302 6.21982 19.594 6.63182 19.594 7.09482V13.8678C19.594 15.7608 18.906 17.5678 17.691 18.9678C17.08 19.6728 16.307 20.2218 15.486 20.6658L11.928 22.5878L8.364 20.6648C7.542 20.2208 6.768 19.6728 6.156 18.9668C4.94 17.5668 4.25 15.7588 4.25 13.8638V7.09482C4.25 6.63182 4.542 6.21982 4.979 6.06682L11.561 3.75382C11.795 3.67182 12.05 3.67182 12.283 3.75382L18.865 6.06682Z" stroke="#6AC48A" stroke-width="1.5" stroke-linecap="round" stroke-linejoin="round"/>
<path d="M9.32422 12.8608L11.2162 14.7538L15.1142 10.8558" stroke="#FFCB12" stroke-width="1.5" stroke-linecap="round" stroke-linejoin="round"/>
</svg>
