<svg width="50" height="50" viewBox="0 0 50 50" fill="none" xmlns="http://www.w3.org/2000/svg">
<path d="M21.875 35.9375H6.25C5.4212 35.9375 4.62634 35.6083 4.04029 35.0222C3.45424 34.4362 3.125 33.6413 3.125 32.8125V18.75C3.125 17.9212 3.45424 17.1263 4.04029 16.5403C4.62634 15.9542 5.4212 15.625 6.25 15.625H21.875" stroke="#6AC48A" stroke-linecap="round" stroke-linejoin="round"/>
<path d="M21.875 42.1875H12.5" stroke="#6AC48A" stroke-linecap="round" stroke-linejoin="round"/>
<path d="M40.625 14.0625H34.375" stroke="#6AC48A" stroke-linecap="round" stroke-linejoin="round"/>
<path d="M40.625 20.3125H34.375" stroke="#6AC48A" stroke-linecap="round" stroke-linejoin="round"/>
<path d="M45.3125 7.8125H29.6875C28.8246 7.8125 28.125 8.51206 28.125 9.375V40.625C28.125 41.4879 28.8246 42.1875 29.6875 42.1875H45.3125C46.1754 42.1875 46.875 41.4879 46.875 40.625V9.375C46.875 8.51206 46.1754 7.8125 45.3125 7.8125Z" stroke="#6AC48A" stroke-linecap="round" stroke-linejoin="round"/>
<path d="M17.1875 35.9375V42.1875" stroke="#6AC48A" stroke-linecap="round" stroke-linejoin="round"/>
<path d="M39.3438 35.1562C39.3438 36.1745 38.5183 37 37.5 37C36.4817 37 35.6562 36.1745 35.6562 35.1562C35.6562 34.138 36.4817 33.3125 37.5 33.3125C38.5183 33.3125 39.3438 34.138 39.3438 35.1562Z" stroke="#6AC48A"/>
</svg>
