<svg width="24" height="25" viewBox="0 0 24 25" fill="none" xmlns="http://www.w3.org/2000/svg">
<path fill-rule="evenodd" clip-rule="evenodd" d="M4.23926 11.3343C4.25367 7.09375 7.70302 3.66775 11.9436 3.68211C16.1842 3.69657 19.6102 7.14592 19.5958 11.3865V11.4735C19.5436 14.23 18.0045 16.7778 16.1175 18.7691C15.0384 19.8897 13.8333 20.8818 12.5262 21.7256C12.1767 22.0279 11.6583 22.0279 11.3088 21.7256C9.36033 20.4574 7.65019 18.8562 6.25665 16.9952C5.01461 15.3724 4.30942 13.4028 4.23926 11.3604V11.3343Z" stroke="#6AC48A" stroke-width="1.5" stroke-linecap="round" stroke-linejoin="round"/>
<path d="M11.9179 13.943C13.277 13.943 14.3788 12.8412 14.3788 11.4821C14.3788 10.123 13.277 9.02127 11.9179 9.02127C10.5588 9.02127 9.45703 10.123 9.45703 11.4821C9.45703 12.8412 10.5588 13.943 11.9179 13.943Z" stroke="#FFCB12" stroke-width="1.5" stroke-linecap="round" stroke-linejoin="round"/>
</svg>
