<svg width="50" height="50" viewBox="0 0 50 50" fill="none" xmlns="http://www.w3.org/2000/svg">
<path d="M7.8125 12.5V37.5C7.8125 38.3288 8.14174 39.1237 8.72779 39.7097C9.31384 40.2958 10.1087 40.625 10.9375 40.625H42.1875C42.6019 40.625 42.9993 40.4604 43.2924 40.1674C43.5854 39.8743 43.75 39.4769 43.75 39.0625V17.1875C43.75 16.7731 43.5854 16.3757 43.2924 16.0826C42.9993 15.7896 42.6019 15.625 42.1875 15.625H10.9375C10.1087 15.625 9.31384 15.2958 8.72779 14.7097C8.14174 14.1237 7.8125 13.3288 7.8125 12.5ZM7.8125 12.5C7.8125 11.6712 8.14174 10.8763 8.72779 10.2903C9.31384 9.70424 10.1087 9.375 10.9375 9.375H37.5" stroke="#6AC48A" stroke-linecap="round" stroke-linejoin="round"/>
<path d="M37 28.125C37 29.1433 36.1745 29.9688 35.1562 29.9688C34.138 29.9688 33.3125 29.1433 33.3125 28.125C33.3125 27.1067 34.138 26.2812 35.1562 26.2812C36.1745 26.2812 37 27.1067 37 28.125Z" stroke="#6AC48A"/>
</svg>
