<svg width="20" height="20" viewBox="0 0 20 20" fill="none" xmlns="http://www.w3.org/2000/svg">
<path fill-rule="evenodd" clip-rule="evenodd" d="M19.2308 18.4159C19.6554 18.4159 20 18.7707 20 19.2079C20 19.6451 19.6554 19.9999 19.2308 19.9999H11.792C11.3674 19.9999 11.0228 19.6451 11.0228 19.2079C11.0228 18.7707 11.3674 18.4159 11.792 18.4159H19.2308ZM14.4779 0.690238C14.5292 0.731421 16.245 2.1042 16.245 2.1042C16.8686 2.48647 17.3558 3.16969 17.5404 3.97858C17.724 4.77902 17.5906 5.6048 17.1629 6.3028C17.1601 6.30746 17.1573 6.31206 17.1473 6.32574L17.1396 6.33632C17.0702 6.43052 16.7684 6.8234 15.2453 8.78816C15.2312 8.81391 15.2152 8.83803 15.1977 8.86146C15.172 8.896 15.144 8.92775 15.1142 8.95667C15.0103 9.09134 14.9006 9.23285 14.7852 9.38163L14.5514 9.68308C14.0691 10.305 13.497 11.0425 12.8182 11.9173L12.4699 12.3662C11.1595 14.0549 9.48124 16.217 7.33139 18.9863C6.86063 19.5903 6.155 19.9419 5.39707 19.9514L1.66486 20H1.6546C1.29871 20 0.988975 19.7487 0.9059 19.3907L0.0659208 15.7254C-0.107408 14.9661 0.0648951 14.1826 0.537704 13.5743L10.199 1.1327C10.2031 1.12847 10.2062 1.12319 10.2103 1.11897C11.2698 -0.185175 13.1856 -0.377364 14.4779 0.690238ZM9.12183 5.05501L1.7387 14.5638C1.56332 14.7898 1.49871 15.0812 1.56332 15.3611L2.26176 18.4076L5.37861 18.3674C5.67501 18.3643 5.94885 18.2281 6.13039 17.9957C7.06522 16.7915 8.24014 15.2779 9.44811 13.7215L9.87548 13.1709L10.3036 12.6193C11.4365 11.1595 12.5557 9.71725 13.4921 8.51005L9.12183 5.05501ZM11.3949 2.12955L10.0828 3.81739L14.4527 7.27145C15.2939 6.1867 15.8472 5.47227 15.8984 5.40416C16.0666 5.12327 16.1322 4.72622 16.044 4.34395C15.9537 3.95218 15.7168 3.61954 15.3753 3.40729C15.3025 3.35555 13.5743 1.97432 13.521 1.93102C12.8707 1.39458 11.922 1.48751 11.3949 2.12955Z" fill="#5D77B7"/>
</svg>
