<svg width="25" height="24" viewBox="0 0 25 24" fill="none" xmlns="http://www.w3.org/2000/svg">
<path fill-rule="evenodd" clip-rule="evenodd" d="M9.273 11.5988C9.291 11.6148 9.308 11.6298 9.325 11.6478C10.404 12.7538 10.999 14.2188 10.999 15.7738V19.7578L13.235 18.5398C13.411 18.4438 13.52 18.2558 13.52 18.0488V15.7618C13.52 14.2128 14.109 12.7528 15.178 11.6528L20.015 6.50775C20.328 6.17476 20.5 5.73776 20.5 5.27676V4.34076C20.5 3.87676 20.134 3.49976 19.686 3.49976H4.815C4.366 3.49976 4 3.87676 4 4.34076V5.27676C4 5.73776 4.172 6.17476 4.485 6.50675L9.273 11.5988ZM10.646 21.5008C10.444 21.5008 10.244 21.4468 10.062 21.3388C9.71 21.1288 9.499 20.7578 9.499 20.3458V15.7738C9.499 14.6388 9.076 13.5698 8.305 12.7508C8.282 12.7318 8.259 12.7108 8.239 12.6888L3.393 7.53575C2.817 6.92375 2.5 6.12076 2.5 5.27676V4.34076C2.5 3.04976 3.539 1.99976 4.815 1.99976H19.686C20.961 1.99976 22 3.04976 22 4.34076V5.27676C22 6.11976 21.683 6.92175 21.109 7.53475L16.262 12.6888C15.459 13.5168 15.02 14.6058 15.02 15.7618V18.0488C15.02 18.8048 14.611 19.4968 13.953 19.8568L11.192 21.3608C11.02 21.4538 10.833 21.5008 10.646 21.5008Z" fill="white"/>
</svg>
