<svg width="25" height="24" viewBox="0 0 25 24" fill="none" xmlns="http://www.w3.org/2000/svg">
<path d="M12.2184 9.75V3.375C12.2184 2.87772 12.0208 2.40081 11.6692 2.04917C11.3176 1.69754 10.8407 1.5 10.3434 1.5C9.84609 1.5 9.36918 1.69754 9.01755 2.04917C8.66592 2.40081 8.46837 2.87772 8.46837 3.375V14.7437L6.41267 11.1831C6.28967 10.9697 6.1258 10.7825 5.93045 10.6324C5.73509 10.4823 5.51207 10.3722 5.27413 10.3083C5.03619 10.2445 4.788 10.2281 4.54374 10.2602C4.29948 10.2923 4.06394 10.3723 3.85059 10.4955C3.63723 10.6186 3.45024 10.7827 3.30031 10.9781C3.15038 11.1736 3.04044 11.3967 2.97677 11.6347C2.91311 11.8727 2.89697 12.1209 2.92928 12.3652C2.96159 12.6094 3.04171 12.8449 3.16507 13.0581C6.21837 19.5 8.07624 21.75 12.2184 21.75C13.2033 21.75 14.1786 21.556 15.0885 21.1791C15.9984 20.8022 16.8252 20.2497 17.5217 19.5533C18.2181 18.8569 18.7706 18.0301 19.1475 17.1201C19.5244 16.2102 19.7184 15.2349 19.7184 14.25V10.5C19.7184 10.0027 19.5208 9.52581 19.1692 9.17417C18.8176 8.82254 18.3407 8.625 17.8434 8.625C17.3461 8.625 16.8692 8.82254 16.5175 9.17417C16.1659 9.52581 15.9684 10.0027 15.9684 10.5" stroke="white" stroke-width="2" stroke-linecap="round" stroke-linejoin="round"/>
<path d="M15.9678 10.5V9.375C15.9678 8.87772 15.7702 8.40081 15.4186 8.04917C15.067 7.69754 14.5901 7.5 14.0928 7.5C13.5955 7.5 13.1186 7.69754 12.7669 8.04917C12.4153 8.40081 12.2178 8.87772 12.2178 9.375V9.75" stroke="white" stroke-width="2" stroke-linecap="round" stroke-linejoin="round"/>
</svg>
