<svg width="24" height="25" viewBox="0 0 24 25" fill="none" xmlns="http://www.w3.org/2000/svg">
<path fill-rule="evenodd" clip-rule="evenodd" d="M4.23926 10.8349C4.25367 6.59429 7.70302 3.1683 11.9436 3.18266C16.1842 3.19711 19.6102 6.64647 19.5958 10.8871V10.974C19.5436 13.7305 18.0045 16.2784 16.1175 18.2697C15.0384 19.3903 13.8333 20.3824 12.5262 21.2262C12.1767 21.5285 11.6583 21.5285 11.3088 21.2262C9.36033 19.9579 7.65019 18.3567 6.25665 16.4958C5.01461 14.873 4.30942 12.9033 4.23926 10.861V10.8349Z" stroke="#6AC48A" stroke-width="1.5" stroke-linecap="round" stroke-linejoin="round"/>
<path d="M11.9179 13.4437C13.277 13.4437 14.3788 12.3419 14.3788 10.9828C14.3788 9.62374 13.277 8.52197 11.9179 8.52197C10.5588 8.52197 9.45703 9.62374 9.45703 10.9828C9.45703 12.3419 10.5588 13.4437 11.9179 13.4437Z" stroke="#6AC48A" stroke-width="1.5" stroke-linecap="round" stroke-linejoin="round"/>
</svg>
