<svg width="30" height="30" viewBox="0 0 30 30" fill="none" xmlns="http://www.w3.org/2000/svg">
<path d="M24.375 10.3125H5.625C5.10723 10.3125 4.6875 10.7322 4.6875 11.25V24.375C4.6875 24.8928 5.10723 25.3125 5.625 25.3125H24.375C24.8928 25.3125 25.3125 24.8928 25.3125 24.375V11.25C25.3125 10.7322 24.8928 10.3125 24.375 10.3125Z" stroke="#FFCB12" stroke-linecap="round" stroke-linejoin="round"/>
<path d="M10.7812 10.3125V6.09375C10.7813 4.97487 11.2257 3.90181 12.0169 3.11064C12.8081 2.31947 13.8811 1.875 15 1.875C16.1189 1.875 17.1919 2.31947 17.9831 3.11064C18.7743 3.90181 19.2188 4.97487 19.2188 6.09375V10.3125" stroke="#FFCB12" stroke-linecap="round" stroke-linejoin="round"/>
<path d="M15 19.2188C15.7767 19.2188 16.4062 18.5892 16.4062 17.8125C16.4062 17.0358 15.7767 16.4062 15 16.4062C14.2233 16.4062 13.5938 17.0358 13.5938 17.8125C13.5938 18.5892 14.2233 19.2188 15 19.2188Z" fill="white"/>
</svg>
