<svg width="30" height="30" viewBox="0 0 30 30" fill="none" xmlns="http://www.w3.org/2000/svg">
<path d="M15.9375 16.875C18.0086 16.875 19.6875 15.1961 19.6875 13.125C19.6875 11.0539 18.0086 9.375 15.9375 9.375C13.8664 9.375 12.1875 11.0539 12.1875 13.125C12.1875 15.1961 13.8664 16.875 15.9375 16.875Z" stroke="white" stroke-linecap="round" stroke-linejoin="round"/>
<path d="M3.75 12.6562H6.5625" stroke="#FFCB12" stroke-linecap="round" stroke-linejoin="round"/>
<path d="M3.75 7.96875H6.5625" stroke="#FFCB12" stroke-linecap="round" stroke-linejoin="round"/>
<path d="M3.75 17.3438H6.5625" stroke="#FFCB12" stroke-linecap="round" stroke-linejoin="round"/>
<path d="M3.75 22.0312H6.5625" stroke="#FFCB12" stroke-linecap="round" stroke-linejoin="round"/>
<path d="M10.3125 19.6873C10.9675 18.8141 11.8168 18.1054 12.7932 17.6173C13.7695 17.1292 14.8461 16.875 15.9377 16.875C17.0292 16.875 18.1058 17.1291 19.0822 17.6171C20.0585 18.1052 20.9079 18.8138 21.563 19.687" stroke="white" stroke-linecap="round" stroke-linejoin="round"/>
<path d="M25.3125 25.3125V4.6875C25.3125 4.16973 24.8928 3.75 24.375 3.75L7.5 3.75C6.98223 3.75 6.5625 4.16973 6.5625 4.6875V25.3125C6.5625 25.8303 6.98223 26.25 7.5 26.25H24.375C24.8928 26.25 25.3125 25.8303 25.3125 25.3125Z" stroke="#FFCB12" stroke-linecap="round" stroke-linejoin="round"/>
</svg>
