<svg width="30" height="30" viewBox="0 0 30 30" fill="none" xmlns="http://www.w3.org/2000/svg">
<path d="M21.6795 4.34386L16.7621 9.26127L17.425 12.5758L20.7396 13.2387L25.657 8.32133L25.6574 8.32113C26.2661 9.75788 26.4117 11.3487 26.0739 12.872C25.7361 14.3954 24.9318 15.7755 23.7729 16.8204C22.614 17.8652 21.1582 18.5227 19.6081 18.7014C18.058 18.8801 16.4907 18.571 15.1245 17.8173L15.1246 17.817L8.55206 25.4262C8.02451 25.9532 7.3093 26.2491 6.56365 26.2489C5.81801 26.2487 5.10297 25.9524 4.57572 25.4251C4.04847 24.8979 3.75217 24.1828 3.75195 23.4372C3.75174 22.6915 4.04763 21.9763 4.57458 21.4488L12.1837 14.8763L12.1836 14.8763C11.4298 13.5101 11.1208 11.9429 11.2994 10.3928C11.4781 8.84267 12.1356 7.38685 13.1805 6.22795C14.2253 5.06904 15.6054 4.26472 17.1288 3.92694C18.6522 3.58916 20.2429 3.73472 21.6797 4.34338L21.6795 4.34386Z" stroke="#FFCB12" stroke-linecap="round" stroke-linejoin="round"/>
</svg>
