<svg width="30" height="30" viewBox="0 0 30 30" fill="none" xmlns="http://www.w3.org/2000/svg">
<path d="M14.3749 3.03273L4.92319 4.92307L3.03285 14.3748C3.00259 14.5261 3.01015 14.6826 3.05488 14.8303C3.0996 14.978 3.1801 15.1124 3.28924 15.2215L15.5298 27.4621C15.6169 27.5492 15.7202 27.6182 15.8339 27.6653C15.9477 27.7124 16.0696 27.7367 16.1927 27.7367C16.3158 27.7367 16.4377 27.7124 16.5515 27.6653C16.6652 27.6182 16.7686 27.5492 16.8556 27.4621L27.4622 16.8555C27.5493 16.7684 27.6183 16.6651 27.6654 16.5514C27.7126 16.4376 27.7368 16.3157 27.7368 16.1926C27.7368 16.0695 27.7126 15.9476 27.6654 15.8338C27.6183 15.7201 27.5493 15.6167 27.4622 15.5297L15.2217 3.28911C15.1125 3.17998 14.9781 3.09948 14.8304 3.05475C14.6827 3.01003 14.5262 3.00246 14.3749 3.03273V3.03273Z" stroke="#FFCB12" stroke-linecap="round" stroke-linejoin="round"/>
<path d="M9.84375 11.25C10.6204 11.25 11.25 10.6204 11.25 9.84375C11.25 9.0671 10.6204 8.4375 9.84375 8.4375C9.0671 8.4375 8.4375 9.0671 8.4375 9.84375C8.4375 10.6204 9.0671 11.25 9.84375 11.25Z" fill="white"/>
</svg>
