<svg width="24" height="25" viewBox="0 0 24 25" fill="none" xmlns="http://www.w3.org/2000/svg">
<path d="M3.75 6.5V18.5C3.75 18.8978 3.90804 19.2794 4.18934 19.5607C4.47064 19.842 4.85218 20 5.25 20H20.25C20.4489 20 20.6397 19.921 20.7803 19.7803C20.921 19.6397 21 19.4489 21 19.25V8.75C21 8.55109 20.921 8.36032 20.7803 8.21967C20.6397 8.07902 20.4489 8 20.25 8H5.25C4.85218 8 4.47064 7.84196 4.18934 7.56066C3.90804 7.27936 3.75 6.89782 3.75 6.5ZM3.75 6.5C3.75 6.10218 3.90804 5.72064 4.18934 5.43934C4.47064 5.15804 4.85218 5 5.25 5H18" stroke="#6AC48A" stroke-linecap="round" stroke-linejoin="round"/>
<path d="M17.5 14C17.5 14.3452 17.2202 14.625 16.875 14.625C16.5298 14.625 16.25 14.3452 16.25 14C16.25 13.6548 16.5298 13.375 16.875 13.375C17.2202 13.375 17.5 13.6548 17.5 14Z" fill="black" stroke="#6AC48A"/>
</svg>
