<svg width="24" height="25" viewBox="0 0 24 25" fill="none" xmlns="http://www.w3.org/2000/svg">
<path d="M12.9492 3.54744C13.1672 2.98157 13.5514 2.495 14.0514 2.15182C14.5513 1.80865 15.1435 1.62498 15.7499 1.625" stroke="#6AC48A" stroke-linecap="round" stroke-linejoin="round"/>
<path d="M20.4855 15.775C19.3065 18.6548 17.1662 20.75 15.375 20.75H8.625C6 20.75 2.625 16.25 2.625 11.375C2.62501 10.2891 2.93932 9.22646 3.52999 8.31528C4.12066 7.4041 4.96244 6.68337 5.95371 6.24008C6.94498 5.79678 8.04338 5.64988 9.1163 5.8171C10.1892 5.98433 11.1908 6.45852 12.0002 7.18246L12 7.18228C12.573 6.66984 13.245 6.28026 13.9744 6.03761C14.7038 5.79496 15.4752 5.70438 16.241 5.77146C17.0068 5.83854 17.7507 6.06187 18.4268 6.42764C19.1029 6.79341 19.6969 7.29388 20.1721 7.89815L20.1721 7.89816C19.4832 8.31475 18.9187 8.90843 18.5373 9.61735C18.1559 10.3263 17.9716 11.1245 18.0035 11.9289C18.0355 12.7333 18.2826 13.5143 18.7191 14.1908C19.1555 14.8672 19.7654 15.4142 20.4851 15.7748L20.4855 15.775Z" stroke="#6AC48A" stroke-linecap="round" stroke-linejoin="round"/>
</svg>
