<svg width="24" height="25" viewBox="0 0 24 25" fill="none" xmlns="http://www.w3.org/2000/svg">
<path d="M12.375 20.7493H4.46875C4.27813 20.7493 4.09531 20.6735 3.96052 20.5388C3.82573 20.404 3.75 20.2211 3.75 20.0305V12.1242C3.75 10.9916 3.97309 9.87004 4.40654 8.82361C4.83998 7.77718 5.4753 6.82637 6.2762 6.02547C7.0771 5.22456 8.02791 4.58925 9.07435 4.1558C10.1208 3.72236 11.2423 3.49927 12.375 3.49927H12.375C13.5077 3.49927 14.6292 3.72236 15.6756 4.15581C16.7221 4.58925 17.6729 5.22457 18.4738 6.02547C19.2747 6.82638 19.91 7.77719 20.3435 8.82362C20.7769 9.87006 21 10.9916 21 12.1243V12.1243C21 14.4118 20.0913 16.6056 18.4738 18.2231C16.8563 19.8406 14.6625 20.7493 12.375 20.7493Z" stroke="#6AC48A" stroke-linecap="round" stroke-linejoin="round"/>
<path d="M13 12.5C13 12.8452 12.7202 13.125 12.375 13.125C12.0298 13.125 11.75 12.8452 11.75 12.5C11.75 12.1548 12.0298 11.875 12.375 11.875C12.7202 11.875 13 12.1548 13 12.5Z" fill="black" stroke="#6AC48A"/>
<path d="M8.5 12.5C8.5 12.8452 8.22018 13.125 7.875 13.125C7.52982 13.125 7.25 12.8452 7.25 12.5C7.25 12.1548 7.52982 11.875 7.875 11.875C8.22018 11.875 8.5 12.1548 8.5 12.5Z" fill="black" stroke="#6AC48A"/>
<path d="M17.5 12.5C17.5 12.8452 17.2202 13.125 16.875 13.125C16.5298 13.125 16.25 12.8452 16.25 12.5C16.25 12.1548 16.5298 11.875 16.875 11.875C17.2202 11.875 17.5 12.1548 17.5 12.5Z" fill="black" stroke="#6AC48A"/>
</svg>
