<svg width="25" height="25" viewBox="0 0 25 25" fill="none" xmlns="http://www.w3.org/2000/svg">
<path fill-rule="evenodd" clip-rule="evenodd" d="M16.834 2.88611C20.223 2.88611 22.5 5.26411 22.5 8.80211V16.9701C22.5 20.5081 20.223 22.8861 16.833 22.8861H8.165C4.776 22.8861 2.5 20.5081 2.5 16.9701V8.80211C2.5 5.26411 4.776 2.88611 8.165 2.88611H16.834ZM16.834 4.38611H8.165C5.635 4.38611 4 6.11911 4 8.80211V16.9701C4 19.6531 5.635 21.3861 8.165 21.3861H16.833C19.364 21.3861 21 19.6531 21 16.9701V8.80211C21 6.11911 19.364 4.38611 16.834 4.38611ZM10.6305 9.94871L12.498 11.8161L14.3645 9.95081C14.6575 9.65781 15.1315 9.65781 15.4245 9.95081C15.7175 10.2438 15.7175 10.7178 15.4245 11.0108L13.558 12.8761L15.4265 14.7457C15.7195 15.0387 15.7195 15.5127 15.4265 15.8057C15.2805 15.9527 15.0875 16.0257 14.8965 16.0257C14.7045 16.0257 14.5125 15.9527 14.3665 15.8057L12.498 13.9361L10.6325 15.8028C10.4865 15.9498 10.2945 16.0228 10.1025 16.0228C9.9105 16.0228 9.7185 15.9498 9.5725 15.8028C9.2795 15.5098 9.2795 15.0358 9.5725 14.7428L11.438 12.8761L9.5705 11.0087C9.2775 10.7157 9.2775 10.2417 9.5705 9.94871C9.8645 9.65571 10.3385 9.65571 10.6305 9.94871Z" fill="#6AC48A"/>
</svg>
