<svg width="25" height="25" viewBox="0 0 25 25" fill="none" xmlns="http://www.w3.org/2000/svg">
<path fill-rule="evenodd" clip-rule="evenodd" d="M16.936 1.88614C20.563 1.88614 23 4.43214 23 8.22114V17.0511C23 20.8401 20.563 23.3861 16.936 23.3861H7.564C3.937 23.3861 1.5 20.8401 1.5 17.0511V8.22114C1.5 4.43214 3.937 1.88614 7.564 1.88614H16.936ZM16.936 3.38614H7.564C4.792 3.38614 3 5.28314 3 8.22114V17.0511C3 19.9891 4.792 21.8861 7.564 21.8861H16.936C19.709 21.8861 21.5 19.9891 21.5 17.0511V8.22114C21.5 5.28314 19.709 3.38614 16.936 3.38614ZM12.25 8.21344C12.664 8.21344 13 8.54944 13 8.96344V11.8761L15.9165 11.8763C16.3305 11.8763 16.6665 12.2123 16.6665 12.6263C16.6665 13.0403 16.3305 13.3763 15.9165 13.3763L13 13.3761V16.2904C13 16.7044 12.664 17.0404 12.25 17.0404C11.836 17.0404 11.5 16.7044 11.5 16.2904V13.3761L8.5835 13.3763C8.1685 13.3763 7.8335 13.0403 7.8335 12.6263C7.8335 12.2123 8.1685 11.8763 8.5835 11.8763L11.5 11.8761V8.96344C11.5 8.54944 11.836 8.21344 12.25 8.21344Z" fill="#6AC48A"/>
</svg>
