<svg width="24" height="25" viewBox="0 0 24 25" fill="none" xmlns="http://www.w3.org/2000/svg">
<path d="M12 21.5C16.9706 21.5 21 17.4706 21 12.5C21 7.52944 16.9706 3.5 12 3.5C7.02944 3.5 3 7.52944 3 12.5C3 17.4706 7.02944 21.5 12 21.5Z" stroke="#5D77B7" stroke-width="1.5" stroke-linecap="round" stroke-linejoin="round"/>
<path d="M12 18.5C12.6213 18.5 13.125 17.9963 13.125 17.375C13.125 16.7537 12.6213 16.25 12 16.25C11.3787 16.25 10.875 16.7537 10.875 17.375C10.875 17.9963 11.3787 18.5 12 18.5Z" fill="#5D77B7"/>
<path d="M12 14.0004V13.2504C12.5192 13.2504 13.0267 13.0965 13.4584 12.808C13.89 12.5196 14.2265 12.1096 14.4252 11.63C14.6239 11.1503 14.6758 10.6225 14.5746 10.1133C14.4733 9.60412 14.2233 9.13639 13.8562 8.76927C13.489 8.40216 13.0213 8.15215 12.5121 8.05087C12.0029 7.94958 11.4751 8.00156 10.9955 8.20024C10.5158 8.39892 10.1058 8.73538 9.81739 9.16706C9.52895 9.59874 9.375 10.1063 9.375 10.6254" stroke="#5D77B7" stroke-width="1.5" stroke-linecap="round" stroke-linejoin="round"/>
</svg>
