<svg width="24" height="24" viewBox="0 0 24 24" fill="none" xmlns="http://www.w3.org/2000/svg">
<g clip-path="url(#clip0)">
<path d="M23.1167 1.32422H6.60938C6.15595 1.32422 6.15595 2.02734 6.60938 2.02734H23.1167C23.2161 2.02734 23.2969 2.1082 23.2969 2.20753V3.57422H3.04688V2.20753C3.04688 2.1082 3.12769 2.02734 3.22706 2.02734H5.01562C5.46905 2.02734 5.46905 1.32422 5.01562 1.32422H3.22706C2.73998 1.32422 2.34375 1.72045 2.34375 2.20753V8.98828H0.883312C0.396234 8.98828 0 9.38452 0 9.87159V21.7925C0 22.2796 0.396234 22.6758 0.883312 22.6758H20.773C21.2601 22.6758 21.6563 22.2796 21.6563 21.7925V19.9688C21.6563 19.5153 20.9532 19.5153 20.9532 19.9688V21.7925C20.9532 21.8918 20.8724 21.9727 20.773 21.9727H0.883312C0.783938 21.9727 0.703125 21.8918 0.703125 21.7925V9.87159C0.703125 9.77227 0.783938 9.69141 0.883312 9.69141H20.773C20.8724 9.69141 20.9532 9.77227 20.9532 9.87159V18.2813C20.9532 18.7347 21.6563 18.7347 21.6563 18.2813V15.0117H23.1167C23.6038 15.0117 24 14.6155 24 14.1284V2.20753C24 1.72045 23.6038 1.32422 23.1167 1.32422ZM23.2969 4.27734V6.80859H3.04688V4.27734H23.2969ZM23.1167 14.3086H21.6562V9.87159C21.6562 9.38452 21.26 8.98828 20.7729 8.98828H3.04688V7.51172H23.2969V14.1284C23.2969 14.2277 23.2161 14.3086 23.1167 14.3086Z" fill="#6AC48A"/>
<path d="M2.8755 16.0898H6.0308C6.51787 16.0898 6.91411 15.6936 6.91411 15.2065V12.0512C6.91411 11.5641 6.51787 11.1679 6.0308 11.1679H2.8755C2.38842 11.1679 1.99219 11.5641 1.99219 12.0512V15.2065C1.99219 15.6936 2.38842 16.0898 2.8755 16.0898ZM2.69531 15.2065V14.7773H3.65625C3.85041 14.7773 4.00781 14.62 4.00781 14.4258V13.9805H4.89844V15.3867H2.8755C2.77613 15.3867 2.69531 15.3058 2.69531 15.2065ZM6.03075 15.3867H5.60156V13.1836H6.21094V15.2065C6.21094 15.3058 6.13013 15.3867 6.03075 15.3867ZM6.21094 12.0513V12.4805H5.25C5.05584 12.4805 4.89844 12.6378 4.89844 12.832V13.2773H4.00781V11.8711H6.03075C6.13013 11.8711 6.21094 11.9519 6.21094 12.0513ZM2.8755 11.8711H3.30469V14.0742H2.69531V12.0513C2.69531 11.9519 2.77613 11.8711 2.8755 11.8711Z" fill="#FFCB12"/>
<path d="M19.383 18.082C19.383 17.8878 19.2256 17.7305 19.0315 17.7305H2.39085C1.93743 17.7305 1.93743 18.4336 2.39085 18.4336H19.0315C19.2256 18.4336 19.383 18.2762 19.383 18.082Z" fill="#FFCB12"/>
<path d="M2.301 19.8398C1.84758 19.8398 1.84758 20.543 2.301 20.543H9.37477C9.82819 20.543 9.82819 19.8398 9.37477 19.8398H2.301Z" fill="#FFCB12"/>
<path d="M11.3342 19.8398C10.8808 19.8398 10.8808 20.543 11.3342 20.543H14.4454C14.8989 20.543 14.8989 19.8398 14.4454 19.8398H11.3342Z" fill="#FFCB12"/>
</g>
<defs>
<clipPath id="clip0">
<rect width="24" height="24" fill="white"/>
</clipPath>
</defs>
</svg>
