<svg width="25" height="26" viewBox="0 0 25 26" fill="none" xmlns="http://www.w3.org/2000/svg">
<path fill-rule="evenodd" clip-rule="evenodd" d="M23.2811 7.67429L22.5039 6.32571C21.8465 5.18462 20.3894 4.79097 19.2468 5.44571C18.7029 5.76613 18.0538 5.85704 17.4428 5.69839C16.8318 5.53974 16.309 5.14456 15.9896 4.6C15.7842 4.25387 15.6738 3.85963 15.6696 3.45714C15.6882 2.81186 15.4447 2.18655 14.9948 1.72366C14.5448 1.26078 13.9266 0.999734 13.2811 1H11.7154C11.0829 1 10.4765 1.25201 10.0304 1.70029C9.58428 2.14856 9.33517 2.75614 9.33821 3.38857C9.31947 4.69433 8.25554 5.74299 6.94964 5.74286C6.54716 5.73868 6.15292 5.62829 5.80679 5.42286C4.66413 4.76811 3.20711 5.16176 2.54964 6.30286L1.71536 7.67429C1.05869 8.81396 1.44698 10.2701 2.58393 10.9314C3.32296 11.3581 3.77823 12.1466 3.77823 13C3.77823 13.8534 3.32296 14.6419 2.58393 15.0686C1.44843 15.7255 1.05971 17.1781 1.71536 18.3143L2.50393 19.6743C2.81198 20.2301 3.32883 20.6403 3.94012 20.814C4.55141 20.9878 5.20673 20.9107 5.76107 20.6C6.30602 20.282 6.95541 20.1949 7.56491 20.358C8.1744 20.5211 8.69348 20.9209 9.00679 21.4686C9.21222 21.8147 9.32261 22.2089 9.32679 22.6114C9.32679 23.9306 10.3962 25 11.7154 25H13.2811C14.5958 25 15.6634 23.9376 15.6696 22.6229C15.6666 21.9884 15.9173 21.3791 16.3659 20.9305C16.8145 20.4819 17.4238 20.2312 18.0582 20.2343C18.4597 20.245 18.8524 20.355 19.2011 20.5543C20.3407 21.211 21.7968 20.8227 22.4582 19.6857L23.2811 18.3143C23.5996 17.7676 23.687 17.1165 23.524 16.5051C23.3609 15.8938 22.9609 15.3727 22.4125 15.0571C21.8641 14.7416 21.4641 14.2205 21.301 13.6092C21.138 12.9978 21.2254 12.3467 21.5439 11.8C21.7511 11.4384 22.0509 11.1386 22.4125 10.9314C23.5426 10.2704 23.93 8.82282 23.2811 7.68571V7.67429Z" stroke="#FFCB12" stroke-width="1.5" stroke-linecap="round" stroke-linejoin="round"/>
<path d="M12.5038 16.2915C14.3216 16.2915 15.7953 14.8179 15.7953 13C15.7953 11.1822 14.3216 9.70862 12.5038 9.70862C10.686 9.70862 9.2124 11.1822 9.2124 13C9.2124 14.8179 10.686 16.2915 12.5038 16.2915Z" stroke="white" stroke-width="1.5" stroke-linecap="round" stroke-linejoin="round"/>
</svg>
