<svg width="80" height="80" viewBox="0 0 80 80" fill="none" xmlns="http://www.w3.org/2000/svg">
<g clip-path="url(#clip0)">
<path d="M66.5624 0H13.4375C10.8528 0 8.75 2.10281 8.75 4.68749V75.3127C8.75 77.8973 10.8528 80.0002 13.4375 80.0002H66.5624C69.1471 80.0002 71.2499 77.8973 71.2499 75.3127V4.68749C71.2499 2.10281 69.1471 0 66.5624 0V0ZM68.1249 75.3127C68.1249 76.1742 67.424 76.8752 66.5624 76.8752H13.4375C12.5759 76.8752 11.875 76.1742 11.875 75.3127V4.68749C11.875 3.82593 12.5759 3.12499 13.4375 3.12499H66.5624C67.424 3.12499 68.1249 3.82593 68.1249 4.68749V75.3127Z" fill="#FFCB12"/>
<path d="M16.5637 9.375C18.6368 9.29234 18.6353 6.33187 16.5637 6.25H16.5626C14.4893 6.33297 14.492 9.29344 16.5637 9.375Z" fill="#FFCB12"/>
<path d="M63.963 6.25C61.8898 6.33266 61.8914 9.29312 63.963 9.375H63.964C66.0373 9.29219 66.0345 6.33172 63.963 6.25Z" fill="#FFCB12"/>
<path d="M16.5636 70.6252H16.5625C15.6997 70.6252 15.0005 71.3247 15.0005 72.1877C15.083 74.26 18.0441 74.26 18.1261 72.1877C18.1261 71.3247 17.4264 70.6252 16.5636 70.6252Z" fill="#FFCB12"/>
<path d="M63.963 70.6252C61.8898 70.7078 61.8914 73.6683 63.963 73.7502H63.964C66.0373 73.6674 66.0345 70.7067 63.963 70.6252Z" fill="#FFCB12"/>
<path d="M40.2632 25C37.6785 25 35.5757 27.1028 35.5757 29.6875C35.8332 35.9061 44.6941 35.9042 44.9507 29.6875C44.9507 27.1028 42.8479 25 40.2632 25ZM40.2632 31.25C39.4016 31.25 38.7007 30.5491 38.7007 29.6875C38.7865 27.6147 41.7402 27.6153 41.8257 29.6875C41.8257 30.5491 41.1248 31.25 40.2632 31.25Z" fill="#FFCB12"/>
<path d="M62.332 45.1268L59.8166 42.6113C70.142 27.328 58.7286 6.08723 40.2634 6.2502C27.3402 6.25004 16.8261 16.7641 16.8261 29.6875C16.6653 48.1525 37.9039 59.5669 53.1874 49.2404L55.7028 51.7558C56.5855 52.6386 57.7628 53.1249 59.0172 53.125C60.2719 53.1252 61.4491 52.639 62.332 51.756C64.1595 49.9282 64.1595 46.9544 62.332 45.1268ZM40.2636 50C13.3167 48.8844 13.3238 10.4869 40.2638 9.37504C55.9809 9.23473 65.9299 27.0741 57.5542 40.3491L52.9799 35.7747C51.1524 33.9475 48.1786 33.9472 46.3508 35.7747C44.5233 37.6024 44.5233 40.5761 46.3508 42.4038L50.9252 46.9782C47.7206 48.9596 44.0641 50 40.2636 50ZM60.1222 49.5461C59.8295 49.8388 59.4372 49.9999 59.0174 49.9999C58.5975 49.9999 58.2053 49.8386 57.9127 49.546L48.5606 40.1939C47.9514 39.5849 47.9514 38.5935 48.5606 37.9843C49.17 37.3749 50.1614 37.3752 50.7703 37.9843L60.1224 47.3363C60.7233 47.9119 60.7231 48.9708 60.1222 49.5461Z" fill="#FFCB12"/>
<path d="M52.3818 58.5364H27.3818C26.519 58.5364 25.8193 59.2359 25.8193 60.0989V67.5003C25.8193 68.3633 26.519 69.0628 27.3818 69.0628H52.3818C53.2446 69.0628 53.9443 68.3633 53.9443 67.5003V60.0989C53.9443 59.2359 53.2446 58.5364 52.3818 58.5364ZM50.8193 65.9376H28.9443V61.6612H50.8193V65.9376Z" fill="#FFCB12"/>
</g>
<defs>
<clipPath id="clip0">
<rect width="80" height="80" fill="white"/>
</clipPath>
</defs>
</svg>
