<svg width="25" height="24" viewBox="0 0 25 24" fill="none" xmlns="http://www.w3.org/2000/svg">
<path d="M13.25 13.5C14.9069 13.5 16.25 12.1569 16.25 10.5C16.25 8.84315 14.9069 7.5 13.25 7.5C11.5931 7.5 10.25 8.84315 10.25 10.5C10.25 12.1569 11.5931 13.5 13.25 13.5Z" stroke="#6AC48A" stroke-linecap="round" stroke-linejoin="round"/>
<path d="M3.5 10.125H5.75" stroke="#6AC48A" stroke-linecap="round" stroke-linejoin="round"/>
<path d="M3.5 6.375H5.75" stroke="#6AC48A" stroke-linecap="round" stroke-linejoin="round"/>
<path d="M3.5 13.875H5.75" stroke="#6AC48A" stroke-linecap="round" stroke-linejoin="round"/>
<path d="M3.5 17.625H5.75" stroke="#6AC48A" stroke-linecap="round" stroke-linejoin="round"/>
<path d="M8.75 15.7498C9.27403 15.0513 9.95348 14.4843 10.7346 14.0938C11.5156 13.7033 12.3769 13.5 13.2501 13.5C14.1234 13.5 14.9846 13.7032 15.7657 14.0937C16.5468 14.4842 17.2263 15.0511 17.7504 15.7496" stroke="#6AC48A" stroke-linecap="round" stroke-linejoin="round"/>
<path d="M20.75 20.25V3.75C20.75 3.33579 20.4142 3 20 3L6.5 3C6.08579 3 5.75 3.33579 5.75 3.75L5.75 20.25C5.75 20.6642 6.08579 21 6.5 21H20C20.4142 21 20.75 20.6642 20.75 20.25Z" stroke="#6AC48A" stroke-linecap="round" stroke-linejoin="round"/>
</svg>
