<svg width="80" height="80" viewBox="0 0 80 80" fill="none" xmlns="http://www.w3.org/2000/svg">
<g clip-path="url(#clip0)">
<path d="M71.6667 60H61.6667C60.7467 60 60 59.2533 60 58.3333C60 57.4133 60.7467 56.6667 61.6667 56.6667H71.6667C74.4233 56.6667 76.6667 54.4233 76.6667 51.6667V28.3333C76.6667 25.5767 74.4233 23.3333 71.6667 23.3333H8.33333C5.57667 23.3333 3.33333 25.5767 3.33333 28.3333V51.6667C3.33333 54.4233 5.57667 56.6667 8.33333 56.6667H18.3333C19.2533 56.6667 20 57.4133 20 58.3333C20 59.2533 19.2533 60 18.3333 60H8.33333C3.73667 60 0 56.26 0 51.6667V28.3333C0 23.74 3.73667 20 8.33333 20H71.6667C76.2633 20 80 23.74 80 28.3333V51.6667C80 56.26 76.2633 60 71.6667 60Z" fill="#FFCB12"/>
<path d="M48.3337 69.9999H28.3337C27.4137 69.9999 26.667 69.2532 26.667 68.3332C26.667 67.4132 27.4137 66.6666 28.3337 66.6666H48.3337C49.2537 66.6666 50.0003 67.4132 50.0003 68.3332C50.0003 69.2532 49.2537 69.9999 48.3337 69.9999Z" fill="#FFCB12"/>
<path d="M48.3337 63.3333H28.3337C27.4137 63.3333 26.667 62.5867 26.667 61.6667C26.667 60.7467 27.4137 60 28.3337 60H48.3337C49.2537 60 50.0003 60.7467 50.0003 61.6667C50.0003 62.5867 49.2537 63.3333 48.3337 63.3333Z" fill="#FFCB12"/>
<path d="M35.0003 56.6666H28.3337C27.4137 56.6666 26.667 55.92 26.667 55C26.667 54.08 27.4137 53.3333 28.3337 53.3333H35.0003C35.9203 53.3333 36.667 54.08 36.667 55C36.667 55.92 35.9203 56.6666 35.0003 56.6666Z" fill="#FFCB12"/>
<path d="M61.667 23.3333C60.747 23.3333 60.0003 22.5867 60.0003 21.6667V8.33333C60.0003 5.57667 57.757 3.33333 55.0003 3.33333H25.0003C22.2437 3.33333 20.0003 5.57667 20.0003 8.33333V21.6667C20.0003 22.5867 19.2537 23.3333 18.3337 23.3333C17.4137 23.3333 16.667 22.5867 16.667 21.6667V8.33333C16.667 3.74 20.4037 0 25.0003 0H55.0003C59.597 0 63.3337 3.74 63.3337 8.33333V21.6667C63.3337 22.5867 62.587 23.3333 61.667 23.3333Z" fill="#FFCB12"/>
<path d="M55.0003 80H25.0003C20.4037 80 16.667 76.26 16.667 71.6666V45C16.667 44.08 17.4137 43.3333 18.3337 43.3333H61.667C62.587 43.3333 63.3337 44.08 63.3337 45V71.6666C63.3337 76.26 59.597 80 55.0003 80ZM20.0003 46.6666V71.6666C20.0003 74.4233 22.2437 76.6666 25.0003 76.6666H55.0003C57.757 76.6666 60.0003 74.4233 60.0003 71.6666V46.6666H20.0003Z" fill="#FFCB12"/>
</g>
<defs>
<clipPath id="clip0">
<rect width="80" height="80" fill="white"/>
</clipPath>
</defs>
</svg>
