<svg width="25" height="24" viewBox="0 0 25 24" fill="none" xmlns="http://www.w3.org/2000/svg">
<path d="M12.0338 0C18.4038 0 23.5677 5.04983 23.5677 11.2791C23.5677 14.2189 22.4176 16.8959 20.5335 18.9035L24.239 22.5163C24.5864 22.8551 24.5871 23.4051 24.2407 23.7448C23.9257 24.0536 23.4323 24.0822 23.0842 23.8304L22.9845 23.7464L19.2352 20.0901C17.2618 21.6346 14.7581 22.5582 12.0338 22.5582C5.66388 22.5582 0.5 17.5084 0.5 11.2791C0.5 5.04983 5.66388 0 12.0338 0ZM12.0338 1.73729C6.64503 1.73729 2.27652 6.00931 2.27652 11.2791C2.27652 16.5489 6.64503 20.8209 12.0338 20.8209C17.4227 20.8209 21.7912 16.5489 21.7912 11.2791C21.7912 6.00931 17.4227 1.73729 12.0338 1.73729Z" fill="#6AC48A"/>
</svg>
