<svg width="24" height="24" viewBox="0 0 24 24" fill="none" xmlns="http://www.w3.org/2000/svg">
<path d="M6.01409 7.71995C5.87675 7.58279 5.65414 7.58293 5.51694 7.72033L2.70462 10.5366C2.51511 10.726 2.51506 11.0437 2.70486 11.2329L4.49947 13.0252C4.68898 13.2143 5.00642 13.2137 5.1957 13.0246L5.28823 12.9319C5.40767 13.6496 5.75436 14.7292 6.73855 15.7123C7.13253 16.1057 10.7992 19.7812 10.7992 19.7812C11.4522 20.4329 12.6099 20.1088 12.8217 19.2077C13.501 19.4277 14.2446 18.9896 14.3781 18.2867C15.0388 18.4433 15.7174 18.0053 15.8404 17.3358C16.7875 17.5528 17.6068 16.5697 17.2121 15.6774C18.1887 14.7011 18.5331 13.6437 18.6507 12.9357L18.7398 13.0249C18.929 13.2138 19.2467 13.2143 19.4359 13.0251L21.2317 11.2321C21.422 11.0408 21.4222 10.7292 21.2313 10.5369L16.5445 5.84336C16.3526 5.6514 16.0403 5.65122 15.8482 5.84303L14.0523 7.63656C13.903 7.78675 13.8714 8.01081 13.9568 8.19334C13.3119 8.2165 12.6781 8.35628 12.0853 8.59637C11.4119 8.25911 10.5942 8.15406 10.0052 8.12734C10.0574 7.95479 10.0095 7.76284 9.88198 7.63567L8.08705 5.84307C7.89514 5.65136 7.583 5.65154 7.39109 5.84359L6.75828 6.47767C6.43813 6.79839 6.93514 7.29573 7.25595 6.97436L7.73952 6.48981L9.23581 7.98418L4.84705 12.3788L3.35094 10.8846L6.01447 8.21725C6.15167 8.07976 6.15148 7.85715 6.01409 7.71995ZM16.7718 15.1227L12.3449 10.6962C12.2783 10.6296 12.1849 10.5927 12.0926 10.5944C12.0169 10.595 11.9432 10.6207 11.8831 10.6659C11.3662 11.0441 10.9898 11.4765 10.7325 11.9874C10.4243 12.5738 10.1903 12.6198 10.037 12.6027C9.97977 12.597 9.88583 12.541 9.80956 12.4019C9.67601 12.1585 9.68633 11.8346 9.83745 11.5352C10.3413 10.5334 11.1918 9.75784 12.1902 9.313C12.203 9.30817 12.2154 9.3025 12.2276 9.29617C12.9778 8.96936 13.8095 8.82967 14.6395 8.91981L18.0065 12.2914C18.0045 12.6867 17.903 13.9541 16.7718 15.1227ZM16.1959 6.48943L20.5847 10.8844L19.0881 12.3787L14.6993 7.98404L16.1959 6.48943ZM9.20947 11.2189C8.95419 11.7249 8.94805 12.2936 9.19311 12.7402C9.36931 13.0614 9.65858 13.2715 9.96322 13.302C10.7894 13.3941 11.2161 12.5791 11.3565 12.3114C11.3574 12.3096 11.3584 12.3078 11.3592 12.306C11.5264 11.9735 11.7598 11.68 12.0691 11.4147L16.4642 15.8095C16.9169 16.2613 16.2103 16.9705 15.7564 16.5175L12.9502 13.708C12.6297 13.3877 12.132 13.8843 12.4532 14.2053L15.0481 16.8036C15.4264 17.2765 14.7338 17.9006 14.3035 17.4703L11.808 14.9759C11.4874 14.6556 10.9897 15.1522 11.3109 15.4732L13.5513 17.7126C14.0003 18.161 13.2891 18.866 12.8397 18.4163L10.4433 16.021C10.1226 15.7008 9.62502 16.1973 9.9462 16.5183L12.0037 18.5755C12.456 19.0273 11.7498 19.7364 11.2961 19.2837C11.2961 19.2837 8.86906 16.846 7.23537 15.2147C6.06425 14.0448 5.94088 12.6958 5.93173 12.2888L9.38731 8.82798C9.67503 8.81603 10.4949 8.80604 11.2431 9.02204C10.3886 9.54765 9.67156 10.3001 9.20947 11.2189Z" fill="#6AC48A"/>
<path d="M16.4672 7.7671C16.268 7.56792 15.9142 7.68277 15.8711 7.96186C15.8419 8.15152 15.9803 8.28741 16.1092 8.40352C16.3152 8.58896 16.6616 8.50191 16.7066 8.21011C16.7373 8.01122 16.5925 7.89239 16.4672 7.7671Z" fill="#FFCB12"/>
<path d="M20.4854 3.51473C18.2189 1.24823 15.2054 0 12 0C8.79459 0 5.78114 1.24823 3.51464 3.51473C1.24819 5.78123 0 8.79469 0 12C0 15.2053 1.24819 18.2188 3.51464 20.4853C5.78114 22.7518 8.79459 24 12 24C12.8494 24 13.6974 23.9108 14.5205 23.7349C14.9639 23.6401 14.817 22.9524 14.3736 23.0473C13.5987 23.2129 12.8001 23.2969 12 23.2969C8.98242 23.2969 6.1455 22.1218 4.0118 19.9881C1.87819 17.8544 0.703125 15.0175 0.703125 12C0.703125 8.98252 1.87819 6.14559 4.0118 4.01194C6.1455 1.87823 8.98242 0.703125 12 0.703125C15.0176 0.703125 17.8545 1.87823 19.9882 4.01194C22.1218 6.14559 23.2969 8.98252 23.2969 12C23.2969 13.7308 22.9158 15.3917 22.1641 16.9365C21.9658 17.3443 22.598 17.6519 22.7963 17.2441C23.595 15.6027 24 13.8383 24 12C24 8.79469 22.7518 5.78123 20.4854 3.51473Z" fill="#FFCB12"/>
<path d="M21.0539 18.257L16.6772 22.6339L15.0169 20.9737C14.6965 20.6532 14.1986 21.1498 14.5198 21.4708L16.4287 23.3797C16.4946 23.4456 16.584 23.4827 16.6772 23.4827C16.7705 23.4827 16.8599 23.4456 16.9258 23.3797L21.5511 18.7542C21.8715 18.4338 21.375 17.9359 21.0539 18.257Z" fill="#FFCB12"/>
</svg>
