<svg width="25" height="27" viewBox="0 0 25 27" fill="none" xmlns="http://www.w3.org/2000/svg">
<path fill-rule="evenodd" clip-rule="evenodd" d="M23.2811 8.186L22.5039 6.83743C21.8465 5.69634 20.3894 5.30269 19.2468 5.95743C18.7029 6.27785 18.0538 6.36876 17.4428 6.21011C16.8318 6.05146 16.309 5.65628 15.9896 5.11172C15.7842 4.76559 15.6738 4.37134 15.6696 3.96886C15.6882 3.32358 15.4447 2.69827 14.9948 2.23538C14.5448 1.7725 13.9266 1.51145 13.2811 1.51172H11.7154C11.0829 1.51172 10.4765 1.76373 10.0304 2.212C9.58428 2.66028 9.33517 3.26786 9.33821 3.90029C9.31947 5.20605 8.25554 6.25471 6.94964 6.25458C6.54716 6.2504 6.15292 6.14001 5.80679 5.93458C4.66413 5.27983 3.20711 5.67348 2.54964 6.81458L1.71536 8.186C1.05869 9.32568 1.44698 10.7818 2.58393 11.4431C3.32296 11.8698 3.77823 12.6584 3.77823 13.5117C3.77823 14.3651 3.32296 15.1536 2.58393 15.5803C1.44843 16.2372 1.05971 17.6898 1.71536 18.826L2.50393 20.186C2.81198 20.7418 3.32883 21.152 3.94012 21.3258C4.55141 21.4995 5.20673 21.4225 5.76107 21.1117C6.30602 20.7937 6.95541 20.7066 7.56491 20.8697C8.1744 21.0328 8.69348 21.4326 9.00679 21.9803C9.21222 22.3264 9.32261 22.7207 9.32679 23.1231C9.32679 24.4423 10.3962 25.5117 11.7154 25.5117H13.2811C14.5958 25.5117 15.6634 24.4493 15.6696 23.1346C15.6666 22.5002 15.9173 21.8908 16.3659 21.4422C16.8145 20.9936 17.4238 20.7429 18.0582 20.746C18.4597 20.7568 18.8524 20.8667 19.2011 21.066C20.3407 21.7227 21.7968 21.3344 22.4582 20.1974L23.2811 18.826C23.5996 18.2793 23.687 17.6282 23.524 17.0169C23.3609 16.4055 22.9609 15.8844 22.4125 15.5689C21.8641 15.2533 21.4641 14.7322 21.301 14.1209C21.138 13.5095 21.2254 12.8584 21.5439 12.3117C21.7511 11.9501 22.0509 11.6503 22.4125 11.4431C23.5426 10.7821 23.93 9.33454 23.2811 8.19743V8.186Z" stroke="#5D77B7" stroke-width="1.5" stroke-linecap="round" stroke-linejoin="round"/>
<path d="M12.5038 16.8032C14.3216 16.8032 15.7953 15.3296 15.7953 13.5118C15.7953 11.694 14.3216 10.2203 12.5038 10.2203C10.686 10.2203 9.2124 11.694 9.2124 13.5118C9.2124 15.3296 10.686 16.8032 12.5038 16.8032Z" stroke="#5D77B7" stroke-width="1.5" stroke-linecap="round" stroke-linejoin="round"/>
</svg>
