<svg width="24" height="24" viewBox="0 0 24 24" fill="none" xmlns="http://www.w3.org/2000/svg">
<path d="M23.8195 0.503489C23.8126 0.42192 23.7773 0.343211 23.716 0.282738L23.7126 0.279409C23.6526 0.220202 23.5753 0.186168 23.4954 0.179371C21.4093 -0.250318 19.1472 0.0953642 16.9502 1.18013C15.287 2.0014 14.2547 2.9445 14.2116 2.98426C14.2099 2.9858 14.2085 2.98754 14.2069 2.98908C14.2051 2.99077 14.2032 2.99223 14.2015 2.99396L8.45046 8.73494L7.12754 7.41212C7.1275 7.41208 7.12745 7.41208 7.12745 7.41203C7.12745 7.41198 7.1274 7.41194 7.12736 7.41194C6.43505 6.72085 5.30969 6.72006 4.61851 7.41016L3.5389 8.48949C3.40159 8.62679 3.40154 8.84937 3.53885 8.98673C3.60753 9.05541 3.69749 9.08972 3.78749 9.08972C3.87745 9.08972 3.96741 9.05541 4.03609 8.98678L5.11556 7.90758C5.53264 7.49111 6.21229 7.49201 6.63058 7.9096L7.95284 9.23172L4.8605 12.3187L4.11081 11.569C3.99981 11.458 3.8287 11.4341 3.69149 11.5103L1.47465 12.7416L0.878069 12.1449L2.97546 10.0476C3.11277 9.91033 3.11277 9.68775 2.97546 9.55044C2.8382 9.41314 2.61558 9.41314 2.47827 9.55044L0.132277 11.8963C-0.00502995 12.0336 -0.00502995 12.2562 0.132277 12.3935L1.16492 13.4263C1.27443 13.5358 1.44872 13.5603 1.58425 13.485L3.80109 12.2537L5.28072 13.7332C4.77555 13.9779 4.56708 14.6045 4.81202 15.1075C4.93644 15.3629 5.18218 15.5585 5.38029 15.7566C4.46001 15.6568 3.50369 15.9542 2.794 16.6516C2.65659 16.7865 2.65552 17.0146 2.79179 17.151L6.80441 21.1637C6.93904 21.2983 7.16364 21.2994 7.29949 21.1658C7.89823 20.5773 8.23153 19.7938 8.238 18.9599C8.23894 18.8382 8.23214 18.7165 8.2192 18.5955C8.43653 18.8129 8.64613 19.0756 8.94029 19.1881C9.43008 19.3754 10.0052 19.1606 10.2372 18.6885L11.7168 20.1692L10.5202 22.4304C10.448 22.5668 10.4733 22.7343 10.5824 22.8434L11.6183 23.8793C11.6869 23.948 11.7769 23.9823 11.8669 23.9823C11.9568 23.9823 12.0468 23.948 12.1155 23.8793L16.6114 19.3837C17.2941 18.7023 17.2943 17.5642 16.6116 16.8826L15.2471 15.5179L20.9918 9.78282C20.9936 9.78109 20.995 9.77921 20.9967 9.77743C20.9982 9.77588 20.9998 9.77452 21.0013 9.77293C21.0412 9.72989 21.988 8.69918 22.8127 7.03855C23.9021 4.84505 24.2498 2.58644 23.8195 0.503489ZM13.4322 11.6233C12.7676 11.319 12.3292 10.7732 12.1794 10.027C12.0322 9.29327 12.2687 8.51883 12.7978 7.99084C13.2383 7.55121 13.8166 7.33135 14.3951 7.33135C14.9736 7.33135 15.5521 7.55121 15.9925 7.99093C16.4192 8.41664 16.6542 8.9826 16.6542 9.58457C16.6542 10.1865 16.4192 10.7524 15.9925 11.178C15.3268 11.8437 14.2507 11.9982 13.4322 11.6233ZM12.301 11.6758C12.4201 11.7948 12.5474 11.9007 12.6804 11.9951L8.61055 16.0652L7.94703 15.4017L12.0099 11.3386C12.0976 11.457 12.1947 11.5697 12.301 11.6758ZM7.53478 18.9545C7.5307 19.4837 7.35631 19.987 7.03787 20.4028L3.5576 16.9224C4.5112 16.221 5.85381 16.2862 6.73442 17.1109C7.23138 17.6078 7.54031 18.2419 7.53478 18.9545ZM9.64005 18.2297C9.64005 18.5236 9.2766 18.6579 9.07314 18.4552L5.51159 14.8936C5.21874 14.6013 5.63066 14.1471 5.95136 14.4038L9.56406 18.0157C9.61328 18.0762 9.64005 18.1509 9.64005 18.2297ZM16.1146 17.3801C16.5259 17.7907 16.5257 18.4758 16.1144 18.8863L11.8668 23.1336L11.2632 22.5299L12.4597 20.2688C12.5319 20.1324 12.5067 19.9649 12.3976 19.8558L11.6505 19.1084L14.7494 16.0148L16.1146 17.3801ZM22.1923 6.70702C21.6529 7.79765 21.047 8.61362 20.7219 9.01593L19.8499 8.14568C19.5292 7.8255 19.0317 8.3226 19.3532 8.64339L20.2457 9.53413L11.1538 18.6107L10.0639 17.5211C10.055 17.5115 10.0469 17.5014 10.0376 17.4921L9.10774 16.5624L13.3278 12.3422C14.3512 12.7352 15.5397 12.5248 16.3604 11.7971C17.1427 11.1034 17.5043 10.0289 17.3004 9.00309C17.187 8.43225 16.901 7.90411 16.4892 7.49332C15.7824 6.78756 14.7429 6.48562 13.7671 6.69549C12.7307 6.9184 11.8685 7.70713 11.5601 8.7229C11.364 9.36855 11.3961 10.0778 11.6515 10.7025L7.44974 14.9046L6.47612 13.9311C6.46599 13.9209 6.45498 13.9122 6.44452 13.9026L5.35774 12.8161L14.4496 3.73989L18.2349 7.52505C18.5553 7.84552 19.0532 7.34893 18.7321 7.02786L14.9694 3.26506C15.9357 2.49152 19.2736 0.125226 23.167 0.831873C23.5945 3.18368 22.8805 5.31534 22.1923 6.70702Z" fill="#6AC48A"/>
<path d="M0.350695 21.664C0.440561 21.664 0.530474 21.6297 0.599151 21.5612L3.1965 18.9674C3.51715 18.6471 3.02099 18.149 2.69959 18.4698L0.102285 21.0636C-0.114388 21.28 0.0434524 21.664 0.350695 21.664Z" fill="#FFCB12"/>
<path d="M4.36575 19.6376C4.22854 19.5002 4.00591 19.5001 3.86856 19.6373L0.124882 23.376C-0.194876 23.6954 0.299833 24.1952 0.621795 23.8735L4.36542 20.1348C4.50278 19.9976 4.50297 19.775 4.36575 19.6376Z" fill="#FFCB12"/>
<path d="M5.03824 20.8046L2.44126 23.3987C2.12155 23.718 2.61626 24.2178 2.93822 23.8962L5.5352 21.3021C5.8558 20.9818 5.3595 20.4836 5.03824 20.8046Z" fill="#FFCB12"/>
</svg>
