<svg width="25" height="24" viewBox="0 0 25 24" fill="none" xmlns="http://www.w3.org/2000/svg">
<g clip-path="url(#clip0)">
<path d="M2.64453 15.1406C2.64453 15.4637 2.90736 15.7265 3.23047 15.7265H4.95359C5.2767 15.7265 5.53953 15.4637 5.53953 15.1406V13.8798C5.53953 13.5567 5.2767 13.2938 4.95359 13.2938H3.23047C2.90736 13.2938 2.64453 13.5567 2.64453 13.8798V15.1406ZM3.34766 13.9969H4.83641V15.0234H3.34766V13.9969Z" fill="#6AC48A"/>
<path d="M7.28906 12.2109H9.0368C9.35991 12.2109 9.62274 11.9481 9.62274 11.625V10.3641C9.62274 10.041 9.35991 9.7782 9.0368 9.7782H7.28906C6.96595 9.7782 6.70312 10.041 6.70312 10.3641V11.625C6.70312 11.9481 6.966 12.2109 7.28906 12.2109ZM7.40625 10.4813H8.91961V11.5078H7.40625V10.4813Z" fill="#6AC48A"/>
<path d="M3.23047 12.2109H4.95359C5.2767 12.2109 5.53953 11.9481 5.53953 11.625V10.3641C5.53953 10.041 5.2767 9.7782 4.95359 9.7782H3.23047C2.90736 9.7782 2.64453 10.041 2.64453 10.3641V11.625C2.64453 11.9481 2.90741 12.2109 3.23047 12.2109ZM3.34766 10.4813H4.83641V11.5078H3.34766V10.4813Z" fill="#6AC48A"/>
<path d="M23.8902 15.0233H22.9654L22.966 11.5782C22.966 11.3841 22.8087 11.2266 22.6145 11.2266C22.6145 11.2266 22.6145 11.2266 22.6144 11.2266C22.4202 11.2266 22.2629 11.384 22.2628 11.5781L22.2622 15.0233H13.7018V13.6455V11.8594V10.1298V6.80442L14.5132 7.29956C14.7353 7.43508 15.0575 7.43512 15.2797 7.29966L16.4107 6.60961C16.4224 6.60652 16.4442 6.60652 16.4558 6.60961L17.585 7.29938C17.807 7.43498 18.1293 7.43513 18.3515 7.2997L19.4836 6.60952C19.4953 6.60647 19.5172 6.60647 19.5288 6.60956L20.6582 7.29933C20.8804 7.43498 21.2028 7.43494 21.4248 7.29919L22.2637 6.78628L22.2632 9.89048C22.2631 10.0846 22.4205 10.2421 22.6147 10.2421H22.6147C22.8089 10.2421 22.9662 10.0847 22.9663 9.89058L22.9669 6.39366C22.967 6.20419 22.8779 6.04106 22.7286 5.9573C22.5794 5.87358 22.3937 5.88258 22.232 5.98144L21.0637 6.69577C21.0522 6.69881 21.0306 6.69886 21.019 6.69577L19.8896 6.006C19.6676 5.87039 19.3453 5.8703 19.1232 6.00567L17.9911 6.69586C17.9794 6.69895 17.9575 6.69895 17.9459 6.69586L16.8166 6.00605C16.5945 5.87039 16.2723 5.8703 16.0501 6.00586L15.8225 6.1447V0.820312C15.8225 0.368016 15.4545 0 15.0022 0H1.34375C0.891453 0 0.523438 0.368016 0.523438 0.820312V4.54411C0.523438 4.99753 1.22656 4.99753 1.22656 4.54411V0.820312C1.22656 0.756797 1.28023 0.703125 1.34375 0.703125H15.0022C15.0657 0.703125 15.1194 0.756797 15.1194 0.820312V6.57375L14.9191 6.69595C14.9075 6.69905 14.8857 6.69905 14.8739 6.69595C14.8739 6.69595 13.7123 5.9887 13.7017 5.98312V2.71045C13.7017 2.38734 13.4389 2.12452 13.1158 2.12452H3.22977C2.90666 2.12452 2.64383 2.38734 2.64383 2.71045V8.28098C2.64383 8.60409 2.90666 8.86692 3.22977 8.86692H12.9986V9.77822H11.3748C11.0517 9.77822 10.7888 10.041 10.7888 10.3642V11.625C10.7888 11.9481 11.0517 12.2109 11.3748 12.2109H12.9986V13.2938H11.3928C11.0697 13.2938 10.8069 13.5567 10.8069 13.8798V15.0233H9.61133V13.8798C9.61133 13.5567 9.3485 13.2938 9.02539 13.2938H7.30227C6.97916 13.2938 6.71633 13.5567 6.71633 13.8798V15.1406C6.71633 15.4413 6.94405 15.6895 7.23603 15.7225V16.8516H3.22977C2.90666 16.8516 2.64383 17.1144 2.64383 17.4375V18.6998C2.64383 19.023 2.90666 19.2858 3.22977 19.2858H7.23603V20.5201H1.34375C1.28023 20.5201 1.22656 20.4665 1.22656 20.403V6.13692C1.22656 5.6835 0.523438 5.6835 0.523438 6.13692V20.403C0.523438 20.8552 0.891453 21.2233 1.34375 21.2233H7.23603V23.4141C7.23603 23.7372 7.49886 24 7.82197 24H15.0999C15.5533 24 15.5533 23.2969 15.0999 23.2969H7.93916V15.7266L23.773 15.7264V23.2969H16.7461C16.2927 23.2969 16.2927 24 16.7461 24H23.8902C24.2133 24 24.4761 23.7372 24.4761 23.4141V15.6092C24.4761 15.2861 24.2133 15.0233 23.8902 15.0233ZM7.23477 18.5827H3.34695V17.5547H7.23472V18.5827H7.23477ZM3.34695 8.1638V2.82764H12.9986V8.1638H3.34695ZM11.492 11.5078V10.4813H12.9986V11.5078H11.492ZM11.51 13.997H12.9986V15.0233H11.51V13.997ZM7.41945 13.997H8.9082V15.0233H7.82197C7.82089 15.0233 7.81986 15.0234 7.81878 15.0234H7.41945V13.997Z" fill="#6AC48A"/>
<path d="M21.3878 22.3323C21.3878 21.6261 21.9706 21.0516 22.687 21.0516C22.8812 21.0516 23.0386 20.8941 23.0386 20.7V18.3232C23.0386 18.129 22.8812 17.9716 22.687 17.9716C21.9706 17.9716 21.3878 17.3977 21.3878 16.6923C21.3878 16.4982 21.2304 16.3408 21.0362 16.3408H10.6721C10.478 16.3408 10.3206 16.4982 10.3206 16.6923C10.3206 17.3977 9.73866 17.9716 9.02344 17.9716C8.82928 17.9716 8.67188 18.129 8.67188 18.3232V20.7C8.67188 20.8941 8.82928 21.0516 9.02344 21.0516C9.73866 21.0516 10.3206 21.6261 10.3206 22.3323C10.3206 22.5264 10.478 22.6838 10.6721 22.6838H21.0362C21.2304 22.6838 21.3878 22.5264 21.3878 22.3323ZM10.9922 21.9807C10.845 21.1671 10.1958 20.524 9.375 20.3791V18.6441C10.1957 18.4993 10.8448 17.8568 10.9922 17.0439H20.7162C20.8637 17.8569 21.5137 18.4994 22.3354 18.6441V20.379C21.5136 20.5238 20.8636 21.1669 20.7161 21.9807H10.9922V21.9807Z" fill="#6AC48A"/>
<path d="M15.8555 17.6375C14.8216 17.6375 13.9805 18.4785 13.9805 19.5124C13.9805 20.5463 14.8216 21.3875 15.8555 21.3875C16.8894 21.3875 17.7305 20.5463 17.7305 19.5124C17.7305 18.4785 16.8894 17.6375 15.8555 17.6375ZM15.8555 20.6843C15.2093 20.6843 14.6836 20.1586 14.6836 19.5124C14.6836 18.8663 15.2093 18.3406 15.8555 18.3406C16.5016 18.3406 17.0273 18.8662 17.0273 19.5124C17.0273 20.1586 16.5016 20.6843 15.8555 20.6843Z" fill="#6AC48A"/>
<path d="M20.5136 8.97656H15.3809C15.1867 8.97656 15.0293 9.13397 15.0293 9.32812C15.0293 9.52228 15.1867 9.67969 15.3809 9.67969H20.5136C20.7078 9.67969 20.8652 9.52228 20.8652 9.32812C20.8652 9.13397 20.7078 8.97656 20.5136 8.97656Z" fill="#FFCB12"/>
<path d="M20.8652 11.2292C20.8652 11.0351 20.7078 10.8777 20.5136 10.8777H15.3809C15.1867 10.8777 15.0293 11.0351 15.0293 11.2292C15.0293 11.4234 15.1867 11.5808 15.3809 11.5808H20.5136C20.7078 11.5808 20.8652 11.4234 20.8652 11.2292Z" fill="#FFCB12"/>
<path d="M15.3809 12.7789C15.1867 12.7789 15.0293 12.9363 15.0293 13.1304C15.0293 13.3246 15.1867 13.482 15.3809 13.482H18.5942C18.7884 13.482 18.9458 13.3246 18.9458 13.1304C18.9458 12.9363 18.7884 12.7789 18.5942 12.7789H15.3809Z" fill="#FFCB12"/>
</g>
<defs>
<clipPath id="clip0">
<rect width="24" height="24" fill="white" transform="translate(0.5)"/>
</clipPath>
</defs>
</svg>
