<svg width="24" height="24" viewBox="0 0 24 24" fill="none" xmlns="http://www.w3.org/2000/svg">
<g clip-path="url(#clip0)">
<path d="M2.22821 6.16363C2.24238 6.18074 2.25865 6.23096 2.2578 6.24949L1.76684 9.10942C1.69687 9.51715 2.08936 9.78908 2.4449 9.60226L5.01251 8.2534C5.03328 8.24519 5.08632 8.24524 5.10381 8.2518L7.67418 9.60217C8.02925 9.78875 8.42113 9.51077 8.35229 9.10933L7.8618 6.2531C7.86044 6.23087 7.87675 6.1807 7.88838 6.16616L9.96769 4.14068C10.2551 3.86083 10.1121 3.40189 9.7088 3.34337L6.83846 2.92682C6.81689 2.92124 6.77412 2.8902 6.76385 2.87458L5.47895 0.272558C5.30141 -0.0869207 4.82105 -0.0926416 4.64065 0.272511L3.35701 2.87149C3.34505 2.89029 3.30224 2.92133 3.28423 2.92626L0.410376 3.34346C0.0134767 3.40104 -0.140565 3.85646 0.151435 4.14073L2.22821 6.16363ZM3.38524 3.62238C3.62571 3.58744 3.87836 3.404 3.98594 3.18618L5.05978 1.01229L6.13324 3.18614C6.24081 3.404 6.49347 3.58744 6.73393 3.62233L9.13422 3.97079L7.3977 5.66239C7.22359 5.832 7.12708 6.12893 7.16816 6.3685L7.57824 8.75726L5.43098 7.62916C5.21593 7.5162 4.90381 7.5162 4.68876 7.62916L2.54099 8.75735L2.95106 6.3685C2.99219 6.12893 2.89559 5.83196 2.72152 5.66244L0.985044 3.97084L3.38524 3.62238Z" fill="#FFCB12"/>
<path d="M23.4135 11.2408H19.1861C18.8628 11.2408 18.5999 11.5037 18.5999 11.8269C18.6207 11.9044 18.5999 12.0125 18.5999 12.0932C16.3781 11.9105 14.8003 10.3159 14.6845 8.09741C14.6174 6.81114 15.3062 3.59698 13.2185 3.59698C11.8789 3.59698 11.257 4.70163 10.9712 5.62832C10.7336 6.399 10.613 7.38759 10.613 8.56657C10.613 9.02016 11.3164 9.02016 11.3164 8.56657C11.3164 7.45789 11.4264 6.53907 11.6434 5.83559C11.962 4.80255 12.4772 4.30033 13.2185 4.30033C14.0757 4.30033 13.9981 5.43217 13.997 6.02555C13.9949 7.16129 13.8644 8.32418 14.1786 9.4337C14.7386 11.4117 16.5967 12.6588 18.5987 12.7991V21.2445C18.1926 21.6521 16.369 23.2956 13.3809 23.2956H8.46669C8.98504 22.615 8.932 21.6334 8.34594 21.0111C9.42714 20.5441 9.75881 19.1184 8.98447 18.2255C10.6414 17.6752 10.5306 15.2151 8.82931 14.8188C9.33439 14.1932 9.34845 13.2798 8.86222 12.6393H10.6097C10.6186 13.1975 10.6917 14.3108 11.0832 15.4732C11.8227 17.6687 13.3404 18.9619 15.4722 19.2134C15.9226 19.2664 16.0052 18.568 15.5546 18.5149C12.986 18.2119 11.694 16.0246 11.3878 13.632C11.242 12.493 11.3165 11.3098 11.3165 10.1647C11.3165 9.71107 10.6131 9.71107 10.6131 10.1647V11.9359L2.83315 11.9361C1.38656 11.9361 0.538318 13.6585 1.43988 14.8022C-0.122305 15.0916 -0.516813 17.2231 0.838806 18.0549C-0.275738 19.0419 0.30076 20.9392 1.77253 21.1392C0.882322 22.284 1.7307 23.9964 3.17232 23.9964L13.381 23.999C15.9672 23.999 17.7329 22.8983 18.6 22.1918V22.881C18.6 23.2043 18.8629 23.4672 19.1861 23.4672H20.6614C21.115 23.4672 21.115 22.7638 20.6614 22.7638H19.3034V11.9441H23.2964V22.7638H22.2135C21.7599 22.7638 21.7599 23.4672 22.2135 23.4672H23.4136C23.7368 23.4672 23.9998 23.2043 23.9998 22.881V11.8269C23.9997 11.5037 23.7367 11.2408 23.4135 11.2408ZM2.8331 12.6396H7.44926C8.03903 12.6396 8.51883 13.119 8.51883 13.7082C8.51883 14.2652 8.09 14.7238 7.54482 14.7722H2.73749C2.19217 14.7237 1.76315 14.2651 1.76315 13.7082C1.76315 13.1189 2.2431 12.6396 2.8331 12.6396ZM1.76343 17.6124C1.17381 17.6124 0.694048 17.133 0.694048 16.5439C0.694048 15.9548 1.17376 15.4756 1.76343 15.4756H8.42692C9.01655 15.4756 9.49631 15.9548 9.49631 16.5439C9.49631 17.133 9.0166 17.6124 8.42692 17.6124H1.76343ZM0.943001 19.3843C0.943001 18.7969 1.41549 18.3188 1.99729 18.3158H7.65005C8.23748 18.3188 8.71447 18.7969 8.71447 19.3843C8.71447 19.9733 8.23457 20.4525 7.64466 20.4525H2.01239C1.42271 20.4525 0.943001 19.9733 0.943001 19.3843ZM2.10303 22.2244C2.10303 21.6352 2.5827 21.1559 3.17223 21.1559H7.05578C7.64536 21.1559 8.12507 21.6352 8.12507 22.2244C8.12507 22.8137 7.64541 23.293 7.05578 23.293H3.17223C2.5827 23.293 2.10303 22.8137 2.10303 22.2244Z" fill="#6AC48A"/>
<path d="M22.5195 14.0429C22.5195 13.3706 21.9725 12.8237 21.3002 12.8237C20.628 12.8237 20.0811 13.3706 20.0811 14.0429C20.0811 14.7152 20.628 15.2621 21.3002 15.2621C21.9725 15.2621 22.5195 14.7152 22.5195 14.0429ZM21.3002 14.5587C21.0159 14.5587 20.7844 14.3273 20.7844 14.0429C20.7844 13.7585 21.0159 13.5271 21.3002 13.5271C21.5847 13.5271 21.8161 13.7585 21.8161 14.0429C21.8161 14.3273 21.5847 14.5587 21.3002 14.5587Z" fill="#FFCB12"/>
</g>
<defs>
<clipPath id="clip0">
<rect width="24" height="24" fill="white"/>
</clipPath>
</defs>
</svg>
