<svg width="80" height="80" viewBox="0 0 80 80" fill="none" xmlns="http://www.w3.org/2000/svg">
<path d="M71.6667 6.66669H8.33333C3.7384 6.66669 0 10.4051 0 15.0016V54.9984C0 59.595 3.7384 63.3334 8.33333 63.3334H33.3333V70H28.3333C27.4133 70 26.6667 70.7451 26.6667 71.6667C26.6667 72.5883 27.4133 73.3334 28.3333 73.3334H55C55.92 73.3334 56.6667 72.5883 56.6667 71.6667C56.6667 70.7451 55.92 70 55 70H46.6667V63.3334H71.6667C76.2616 63.3334 80 59.595 80 54.9984V15.0016C80 10.4051 76.2616 6.66669 71.6667 6.66669ZM8.33333 10H71.6667C74.4235 10 76.6667 12.2451 76.6667 15.0016V50H3.33333V15.0016C3.33333 12.2451 5.57653 10 8.33333 10ZM43.3333 70H36.6667V63.3334H43.3333V70ZM71.6667 60H8.33333C5.57653 60 3.33333 57.755 3.33333 54.9984V53.3334H76.6667V54.9984C76.6667 57.755 74.4235 60 71.6667 60Z" fill="#FFCB12"/>
<path d="M28.5002 30.3224L28.5002 30.3263M28.5002 30.3224L28.4205 21.6716C28.1769 21.7106 28 21.9181 28 22.1649V29.8264C28 30.1026 28.2235 30.3263 28.4998 30.3263H28.5002M28.5002 30.3224L28.5002 30.3263M28.5002 30.3224L28.5002 30.3263" fill="#FFCB12" stroke="#FFCB12"/>
<path d="M28.6958 30.7697L28.4998 30.7693V30.5621C28.505 30.5622 28.5903 30.5632 28.7417 30.5647C28.7369 30.639 28.7194 30.7081 28.6958 30.7697ZM28.4998 30.5621V30.0621V30.5621Z" fill="#FFCB12" stroke="#FFCB12"/>
<mask id="path-4-inside-1" fill="white">
<path d="M51.429 18.3869C49.4759 18.6657 47.5757 18.9338 45.6776 19.2111C45.4855 19.2392 45.3525 19.4177 45.3806 19.6098C45.4086 19.8019 45.5868 19.935 45.7793 19.9069C47.5914 19.6421 49.3877 19.3884 51.2965 19.1161V29.4529C47.3508 29.4573 43.3116 29.5335 39.3702 29.5378V20.8913C40.0696 20.7872 41.185 20.591 44.1398 20.149C44.3319 20.1203 44.4643 19.9414 44.4355 19.7493C44.4068 19.5573 44.2278 19.4249 44.0358 19.4536C41.0751 19.8965 40.0253 20.0829 39.0932 20.2215C38.8503 20.2576 38.667 20.4701 38.667 20.7157V29.7413C38.667 30.0173 38.8902 30.241 39.1665 30.241C43.0378 30.241 47.4301 30.1578 51.5006 30.1558C51.7758 30.1557 51.9997 29.9316 51.9997 29.6564V18.8814C51.9997 18.5778 51.7302 18.3439 51.429 18.3869Z"/>
</mask>
<path d="M51.429 18.3869C49.4759 18.6657 47.5757 18.9338 45.6776 19.2111C45.4855 19.2392 45.3525 19.4177 45.3806 19.6098C45.4086 19.8019 45.5868 19.935 45.7793 19.9069C47.5914 19.6421 49.3877 19.3884 51.2965 19.1161V29.4529C47.3508 29.4573 43.3116 29.5335 39.3702 29.5378V20.8913C40.0696 20.7872 41.185 20.591 44.1398 20.149C44.3319 20.1203 44.4643 19.9414 44.4355 19.7493C44.4068 19.5573 44.2278 19.4249 44.0358 19.4536C41.0751 19.8965 40.0253 20.0829 39.0932 20.2215C38.8503 20.2576 38.667 20.4701 38.667 20.7157V29.7413C38.667 30.0173 38.8902 30.241 39.1665 30.241C43.0378 30.241 47.4301 30.1578 51.5006 30.1558C51.7758 30.1557 51.9997 29.9316 51.9997 29.6564V18.8814C51.9997 18.5778 51.7302 18.3439 51.429 18.3869Z" fill="#FFCB12"/>
<path d="M51.429 18.3869L51.2878 17.3969L51.2877 17.3969L51.429 18.3869ZM45.6776 19.2111L45.8222 20.2006L45.8222 20.2006L45.6776 19.2111ZM45.7793 19.9069L45.9237 20.8964L45.9239 20.8964L45.7793 19.9069ZM51.2965 19.1161H52.2965V17.9633L51.1553 18.1261L51.2965 19.1161ZM51.2965 29.4529L51.2976 30.4529L52.2965 30.4518V29.4529H51.2965ZM39.3702 29.5378H38.3702V30.5389L39.3713 30.5378L39.3702 29.5378ZM39.3702 20.8913L39.223 19.9021L38.3702 20.029V20.8913H39.3702ZM44.1398 20.149L44.2878 21.138L44.2878 21.138L44.1398 20.149ZM44.0358 19.4536L44.1838 20.4426L44.1841 20.4426L44.0358 19.4536ZM39.0932 20.2215L39.2402 21.2107L39.2403 21.2107L39.0932 20.2215ZM51.5006 30.1558L51.5011 31.1558H51.5012L51.5006 30.1558ZM51.2877 17.3969C49.3367 17.6755 47.4333 17.944 45.5331 18.2216L45.8222 20.2006C47.7181 19.9236 49.615 19.656 51.5704 19.3768L51.2877 17.3969ZM45.5331 18.2216C44.7944 18.3295 44.2831 19.0158 44.3911 19.7544L46.3701 19.4652C46.4219 19.8196 46.1765 20.1488 45.8222 20.2006L45.5331 18.2216ZM44.3911 19.7544C44.4989 20.4926 45.1844 21.0042 45.9237 20.8964L45.635 18.9174C45.9893 18.8657 46.3183 19.1113 46.3701 19.4652L44.3911 19.7544ZM45.9239 20.8964C47.7338 20.6319 49.5271 20.3786 51.4377 20.1061L51.1553 18.1261C49.2483 18.3981 47.449 18.6523 45.6347 18.9174L45.9239 20.8964ZM50.2965 19.1161V29.4529H52.2965V19.1161H50.2965ZM51.2954 28.4529C49.3173 28.4551 47.3165 28.4753 45.3216 28.4954C43.3251 28.5156 41.3345 28.5357 39.369 28.5378L39.3713 30.5378C41.3472 30.5357 43.3469 30.5155 45.3418 30.4953C47.3383 30.4752 49.33 30.4551 51.2976 30.4529L51.2954 28.4529ZM40.3702 29.5378V20.8913H38.3702V29.5378H40.3702ZM39.5173 21.8804C39.8738 21.8273 40.3402 21.7502 41.0667 21.6344C41.7995 21.5175 42.8138 21.3585 44.2878 21.138L43.9919 19.16C42.511 19.3815 41.4903 19.5416 40.7518 19.6593C40.007 19.7781 39.566 19.8511 39.223 19.9021L39.5173 21.8804ZM44.2878 21.138C45.0259 21.0276 45.535 20.3397 45.4245 19.6014L43.4466 19.8973C43.3935 19.543 43.6378 19.213 43.9919 19.16L44.2878 21.138ZM45.4245 19.6014C45.3141 18.8636 44.6264 18.3539 43.8876 18.4647L44.1841 20.4426C43.8292 20.4958 43.4995 20.2511 43.4466 19.8973L45.4245 19.6014ZM43.8879 18.4646C42.404 18.6866 41.3982 18.8444 40.6465 18.9641C39.8909 19.0845 39.4054 19.1641 38.9462 19.2324L39.2403 21.2107C39.7132 21.1404 40.2186 21.0575 40.9611 20.9392C41.7075 20.8204 42.707 20.6635 44.1838 20.4426L43.8879 18.4646ZM38.9462 19.2324C38.2134 19.3413 37.667 19.9743 37.667 20.7157H39.667C39.667 20.9658 39.4872 21.174 39.2402 21.2107L38.9462 19.2324ZM37.667 20.7157V29.7413H39.667V20.7157H37.667ZM37.667 29.7413C37.667 30.5687 38.337 31.241 39.1665 31.241V29.241C39.4434 29.241 39.667 29.466 39.667 29.7413H37.667ZM39.1665 31.241C41.1081 31.241 43.1792 31.2202 45.2689 31.1991C47.3607 31.178 49.4715 31.1568 51.5011 31.1558L51.5002 29.1558C49.4593 29.1568 47.3387 29.1782 45.2488 29.1992C43.1569 29.2203 41.0962 29.241 39.1665 29.241V31.241ZM51.5012 31.1558C52.3286 31.1554 52.9997 30.4835 52.9997 29.6564H50.9997C50.9997 29.3798 51.223 29.156 51.5001 29.1558L51.5012 31.1558ZM52.9997 29.6564V18.8814H50.9997V29.6564H52.9997ZM52.9997 18.8814C52.9997 17.9687 52.1908 17.2681 51.2878 17.3969L51.5702 19.3769C51.2697 19.4197 50.9997 19.1869 50.9997 18.8814H52.9997Z" fill="#FFCB12" mask="url(#path-4-inside-1)"/>
<path d="M39.167 40.1716C39.2252 40.1798 39.2834 40.1881 39.3417 40.1964C40.6772 40.3857 42.0305 40.5682 43.3905 40.7516C46.0168 41.1057 48.6682 41.4633 51.2644 41.8799C51.3429 41.8925 51.4213 41.9051 51.4997 41.9178V41.6792V37.7776C51.4997 37.8596 51.5662 37.926 51.6482 37.926C51.7301 37.926 51.7966 37.8596 51.7966 37.7776V41.6792V41.9186V42.2659L51.4532 42.2108L51.453 42.2107L51.2174 42.1729C48.6241 41.7568 45.995 41.4023 43.3745 41.049C42.0119 40.8653 40.6517 40.6818 39.3 40.4902L39.1249 40.4654L39.1248 40.4654L38.8702 40.4293V40.1718V39.9952V31.3505V31.1469V30.8505H39.1666H39.3702H51.2965H51.5001H51.7965V31.1469V31.3505V36.137C51.7965 36.055 51.7301 35.9886 51.6481 35.9886C51.5661 35.9886 51.4997 36.055 51.4997 36.137V31.3505L39.167 40.1716ZM39.167 40.1716V39.9952V31.3505V31.1473V40.1716Z" fill="#FFCB12" stroke="#FFCB12"/>
</svg>
