<svg width="80" height="80" viewBox="0 0 80 80" fill="none" xmlns="http://www.w3.org/2000/svg">
<g clip-path="url(#clip0)">
<path d="M51.5716 21.595C45.41 21.9366 43.6249 20.5734 41.17 18.1566C40.5198 17.515 39.4782 17.515 38.83 18.1566C36.3798 20.5766 34.5982 21.9366 28.4284 21.595C27.9516 21.5582 27.5217 21.7318 27.1884 22.0467C26.8548 22.3616 26.6665 22.8 26.6665 23.2584V36.9568C26.6665 44.8419 32.5233 51.02 39.9998 51.02C47.4764 51.02 53.3332 44.8416 53.3332 36.9568V23.2584C53.3332 22.7968 53.1465 22.36 52.8116 22.0467C52.4764 21.7334 52.0366 21.5616 51.5716 21.595ZM49.9998 36.9568C49.9998 42.9736 45.6049 47.6867 39.9998 47.6867C34.3932 47.6867 29.9998 42.9734 29.9998 36.9568V24.9816H30.2414C35.2798 24.9816 37.7932 23.5966 39.9982 21.6366C42.2817 23.675 44.7214 25.0016 49.9998 24.9816V36.9568Z" fill="#FFCB12"/>
<path d="M78.3333 58.3333H76.6667V16.025C76.6667 11.3549 73.7299 8.33331 69.1867 8.33331H12.5168C8.1 8.33331 3.33333 11.2733 3.33333 16.025V58.3333H1.66667C0.746667 58.3333 0 59.0784 0 60V62.5917C0 67.1717 4.5984 71.6666 9.28507 71.6666H72.4152C77.3403 71.6666 80.0003 66.9901 80.0003 62.5917V60C80 59.0784 79.2533 58.3333 78.3333 58.3333ZM6.66667 16.025C6.66667 13.4184 9.69173 11.6666 12.5168 11.6666H69.1867C72.7949 11.6666 73.3333 14.3984 73.3333 16.025V58.3333H6.66667V16.025ZM76.6667 62.5917C76.6667 65.3752 75.1749 68.3333 72.4149 68.3333H9.28507C6.39333 68.3333 3.33333 65.3832 3.33333 62.5917V61.6666H5H75H76.6667V62.5917Z" fill="#FFCB12"/>
</g>
<defs>
<clipPath id="clip0">
<rect width="80" height="80" fill="white"/>
</clipPath>
</defs>
</svg>
