<svg width="24" height="25" viewBox="0 0 24 25" fill="none" xmlns="http://www.w3.org/2000/svg">
<path fill-rule="evenodd" clip-rule="evenodd" d="M12 2.5C17.514 2.5 22 6.986 22 12.5C22 18.014 17.514 22.5 12 22.5C6.486 22.5 2 18.014 2 12.5C2 6.986 6.486 2.5 12 2.5ZM12 4C7.313 4 3.5 7.813 3.5 12.5C3.5 17.187 7.313 21 12 21C16.687 21 20.5 17.187 20.5 12.5C20.5 7.813 16.687 4 12 4ZM11.6612 7.5954C12.0762 7.5954 12.4112 7.9314 12.4112 8.3454V12.7674L15.8162 14.7974C16.1712 15.0104 16.2882 15.4704 16.0762 15.8264C15.9352 16.0614 15.6862 16.1924 15.4312 16.1924C15.3002 16.1924 15.1682 16.1584 15.0472 16.0874L11.2772 13.8384C11.0512 13.7024 10.9112 13.4574 10.9112 13.1934V8.3454C10.9112 7.9314 11.2472 7.5954 11.6612 7.5954Z" fill="#6AC48A"/>
</svg>
