<svg width="24" height="25" viewBox="0 0 24 25" fill="none" xmlns="http://www.w3.org/2000/svg">
<path fill-rule="evenodd" clip-rule="evenodd" d="M16.642 3.5C19.949 3.5 22.639 6.19 22.639 9.498V16.675C22.639 19.982 19.949 22.673 16.642 22.673H7.998C4.691 22.673 2 19.982 2 16.675V9.498C2 6.19 4.691 3.5 7.998 3.5H16.642ZM16.642 5H7.998C5.518 5 3.5 7.018 3.5 9.498V16.675C3.5 19.155 5.518 21.173 7.998 21.173H16.642C19.122 21.173 21.139 19.155 21.139 16.675V16.395L17.8411 16.3956C15.9441 16.3956 14.4001 14.8526 14.3991 12.9566C14.3991 11.0586 15.9431 9.5146 17.8411 9.5136L21.139 9.513V9.498C21.139 7.018 19.122 5 16.642 5ZM21.139 11.013L17.8411 11.0136C16.7701 11.0146 15.8991 11.8856 15.8991 12.9556C15.8991 14.0246 16.7711 14.8956 17.8411 14.8956L21.139 14.895V11.013ZM18.2987 12.1436C18.7127 12.1436 19.0487 12.4796 19.0487 12.8936C19.0487 13.3076 18.7127 13.6436 18.2987 13.6436H17.9867C17.5727 13.6436 17.2367 13.3076 17.2367 12.8936C17.2367 12.4796 17.5727 12.1436 17.9867 12.1436H18.2987ZM12.685 8.0381C13.099 8.0381 13.435 8.3741 13.435 8.7881C13.435 9.2021 13.099 9.5381 12.685 9.5381H7.286C6.872 9.5381 6.536 9.2021 6.536 8.7881C6.536 8.3741 6.872 8.0381 7.286 8.0381H12.685Z" fill="#6AC48A"/>
</svg>
