<svg width="24" height="25" viewBox="0 0 24 25" fill="none" xmlns="http://www.w3.org/2000/svg">
<path fill-rule="evenodd" clip-rule="evenodd" d="M12.249 2.5C16.798 2.5 20.499 6.229 20.499 10.813C20.499 16.448 14.043 22 12.249 22C10.455 22 3.99902 16.448 3.99902 10.813C3.99902 6.229 7.70002 2.5 12.249 2.5ZM12.249 4C8.52702 4 5.49902 7.057 5.49902 10.813C5.49902 15.592 11.123 20.248 12.249 20.496C13.375 20.247 18.999 15.591 18.999 10.813C18.999 7.057 15.971 4 12.249 4ZM12.25 7.5C14.042 7.5 15.5 8.958 15.5 10.751C15.5 12.543 14.042 14 12.25 14C10.458 14 9.00002 12.543 9.00002 10.751C9.00002 8.958 10.458 7.5 12.25 7.5ZM12.25 9C11.285 9 10.5 9.785 10.5 10.751C10.5 11.716 11.285 12.5 12.25 12.5C13.215 12.5 14 11.716 14 10.751C14 9.785 13.215 9 12.25 9Z" fill="#6AC48A"/>
</svg>
