<svg width="24" height="25" viewBox="0 0 24 25" fill="none" xmlns="http://www.w3.org/2000/svg">
<path fill-rule="evenodd" clip-rule="evenodd" d="M12.2673 2.50049C12.9833 2.50049 13.6793 2.79449 14.1783 3.30549C14.6763 3.81949 14.9513 4.52449 14.9303 5.23949C14.9323 5.40049 14.9853 5.58649 15.0813 5.74949C15.2403 6.01949 15.4913 6.20949 15.7893 6.28749C16.0873 6.36149 16.3993 6.32149 16.6643 6.16449C17.9443 5.43349 19.5733 5.87149 20.3043 7.14149L20.9273 8.22049C20.9433 8.24949 20.9573 8.27749 20.9693 8.30649C21.6313 9.55749 21.1893 11.1325 19.9593 11.8515C19.7803 11.9545 19.6353 12.0985 19.5353 12.2725C19.3803 12.5415 19.3373 12.8615 19.4153 13.1555C19.4953 13.4555 19.6863 13.7045 19.9553 13.8585C20.5623 14.2075 21.0153 14.7955 21.1963 15.4745C21.3773 16.1525 21.2783 16.8885 20.9253 17.4955L20.2613 18.6015C19.5303 19.8575 17.9013 20.2925 16.6343 19.5605C16.4653 19.4635 16.2703 19.4105 16.0763 19.4055H16.0703C15.7813 19.4055 15.4843 19.5285 15.2683 19.7435C15.0493 19.9625 14.9293 20.2545 14.9313 20.5645C14.9243 22.0335 13.7293 23.2215 12.2673 23.2215H11.0143C9.54532 23.2215 8.35032 22.0275 8.35032 20.5585C8.34832 20.3775 8.29632 20.1895 8.19932 20.0265C8.04232 19.7525 7.78832 19.5565 7.49532 19.4785C7.20432 19.4005 6.88532 19.4435 6.62332 19.5955C5.99532 19.9455 5.25632 20.0305 4.58032 19.8405C3.90532 19.6495 3.32232 19.1855 2.98032 18.5705L2.35532 17.4935C1.62432 16.2255 2.05932 14.6005 3.32532 13.8685C3.68432 13.6615 3.90732 13.2755 3.90732 12.8615C3.90732 12.4475 3.68432 12.0605 3.32532 11.8535C2.05832 11.1175 1.62432 9.48849 2.35432 8.22049L3.03232 7.10749C3.75332 5.85349 5.38332 5.41149 6.65432 6.14149C6.82732 6.24449 7.01532 6.29649 7.20632 6.29849C7.82932 6.29849 8.35032 5.78449 8.36032 5.15249C8.35632 4.45549 8.63132 3.78649 9.13232 3.28149C9.63532 2.77749 10.3033 2.50049 11.0143 2.50049H12.2673ZM12.2673 4.00049H11.0143C10.7043 4.00049 10.4143 4.12149 10.1953 4.33949C9.97732 4.55849 9.85832 4.84949 9.86032 5.15949C9.83932 6.62149 8.64432 7.79849 7.19732 7.79849C6.73332 7.79349 6.28632 7.66849 5.89832 7.43649C5.35332 7.12649 4.64132 7.31749 4.32232 7.87249L3.64532 8.98549C3.33532 9.52349 3.52532 10.2345 4.07732 10.5555C4.89632 11.0295 5.40732 11.9135 5.40732 12.8615C5.40732 13.8095 4.89632 14.6925 4.07532 15.1675C3.52632 15.4855 3.33632 16.1925 3.65432 16.7425L4.28532 17.8305C4.44132 18.1115 4.69632 18.3145 4.99132 18.3975C5.28532 18.4795 5.60932 18.4445 5.87932 18.2945C6.27632 18.0615 6.73832 17.9405 7.20232 17.9405C7.43132 17.9405 7.66032 17.9695 7.88432 18.0295C8.56032 18.2115 9.14732 18.6635 9.49532 19.2705C9.72132 19.6515 9.84632 20.0965 9.85032 20.5505C9.85032 21.2005 10.3723 21.7215 11.0143 21.7215H12.2673C12.9063 21.7215 13.4283 21.2035 13.4313 20.5645C13.4273 19.8585 13.7033 19.1875 14.2083 18.6825C14.7063 18.1845 15.4023 17.8855 16.0983 17.9055C16.5543 17.9165 16.9933 18.0395 17.3803 18.2595C17.9373 18.5785 18.6483 18.3885 18.9703 17.8385L19.6343 16.7315C19.7823 16.4765 19.8253 16.1565 19.7463 15.8615C19.6683 15.5665 19.4723 15.3105 19.2083 15.1595C18.5903 14.8035 18.1493 14.2295 17.9663 13.5415C17.7853 12.8665 17.8843 12.1295 18.2373 11.5225C18.4673 11.1225 18.8043 10.7855 19.2083 10.5535C19.7503 10.2365 19.9403 9.52749 19.6253 8.97549C19.6123 8.95349 19.6003 8.93049 19.5903 8.90649L19.0043 7.89049C18.6853 7.33549 17.9753 7.14449 17.4183 7.46149C16.8163 7.81749 16.1003 7.91949 15.4123 7.73849C14.7253 7.56049 14.1493 7.12549 13.7903 6.51149C13.5603 6.12749 13.4353 5.68049 13.4313 5.22549C13.4403 4.88349 13.3203 4.57649 13.1023 4.35149C12.8853 4.12749 12.5803 4.00049 12.2673 4.00049ZM11.6452 9.47459C13.5122 9.47459 15.0312 10.9946 15.0312 12.8616C15.0312 14.7286 13.5122 16.2466 11.6452 16.2466C9.77822 16.2466 8.25922 14.7286 8.25922 12.8616C8.25922 10.9946 9.77822 9.47459 11.6452 9.47459ZM11.6452 10.9746C10.6052 10.9746 9.75922 11.8216 9.75922 12.8616C9.75922 13.9016 10.6052 14.7466 11.6452 14.7466C12.6852 14.7466 13.5312 13.9016 13.5312 12.8616C13.5312 11.8216 12.6852 10.9746 11.6452 10.9746Z" fill="#6AC48A"/>
</svg>
