<svg width="199" height="54" viewBox="0 0 199 54" fill="none" xmlns="http://www.w3.org/2000/svg">
<path opacity="0.5" d="M47 22.826V17.1604L51.3333 16.7509C51.7333 14.7714 52.4667 12.9284 53.5333 11.2901L50.7333 7.87717L54.6667 3.84987L58 6.71676C59.6 5.62461 61.4 4.87376 63.3333 4.4642L63.7333 0.0273438H69.2667L69.6667 4.4642C71.6 4.87376 73.4 5.62461 75 6.71676L78.3333 3.84987L82.2667 7.87717L79.4667 11.2901C80.5333 12.9284 81.2667 14.7714 81.6667 16.7509L86 17.1604V22.826L81.6667 23.2355C81.2667 25.2151 80.5333 27.0581 79.4667 28.6963L82.2667 32.1092L78.3333 36.1366L75 33.2697C74.9333 33.2697 74.9333 33.3379 74.8667 33.3379C73.3333 34.3618 71.5333 35.1127 69.6667 35.5222L69.6 40.0273H63.4L63.3333 35.5222C62.4667 35.3174 61.6 35.0444 60.8 34.7714C60.2667 34.5666 59.7333 34.2936 59.2667 34.0205C58.8667 33.8157 58.4 33.5427 58 33.2697L54.6667 36.1366L50.7333 32.1092L53.5333 28.6963C52.4667 27.0581 51.7333 25.2151 51.3333 23.2355L47 22.826ZM66.6 29.9932C72 29.9932 76.4 25.4881 76.4 19.9591C76.4 14.4301 72 9.92495 66.6 9.92495C61.2 9.92495 56.8 14.4301 56.8 19.9591C56.8 25.5564 61.2 29.9932 66.6 29.9932Z" fill="#43547E"/>
<path fill-rule="evenodd" clip-rule="evenodd" d="M67 29.0273C71.9706 29.0273 76 24.9979 76 20.0273C76 15.0568 71.9706 11.0273 67 11.0273C62.0294 11.0273 58 15.0568 58 20.0273C58 24.9979 62.0294 29.0273 67 29.0273ZM67 30.0273C72.5228 30.0273 77 25.5502 77 20.0273C77 14.5045 72.5228 10.0273 67 10.0273C61.4772 10.0273 57 14.5045 57 20.0273C57 25.5502 61.4772 30.0273 67 30.0273Z" fill="white"/>
<path d="M70 20.0273C70 21.6842 68.6569 23.0273 67 23.0273C65.3431 23.0273 64 21.6842 64 20.0273C64 18.3705 65.3431 17.0273 67 17.0273C68.6569 17.0273 70 18.3705 70 20.0273Z" fill="#FFCB12"/>
<path d="M83 29.7745H86.6146V23.0017H90.2975L94.2142 29.7745H98.2478L93.9316 22.4418C96.2797 21.5658 97.5171 19.7056 97.5171 17.1951C97.5171 13.6642 95.0618 11.2802 90.4826 11.2802H83V29.7745ZM86.6146 20.2203V14.0796H89.9273C92.6261 14.0796 93.8342 15.2265 93.8342 17.1951C93.8342 19.1638 92.6261 20.2203 89.9468 20.2203H86.6146Z" fill="white"/>
<path d="M100.844 29.7745H113.9V26.966H104.459V21.918H113.15V19.1096H104.459V14.0887H113.822V11.2802H100.844V29.7745Z" fill="white"/>
<path d="M117.51 11.2802V29.7745H120.978V17.0416H121.163L126.678 29.7203H129.269L134.784 17.0687H134.969V29.7745H138.438V11.2802H134.014L128.091 24.6813H127.857L121.933 11.2802H117.51Z" fill="white"/>
<path d="M160.203 20.5273C160.203 14.5492 156.267 11.0273 151.035 11.0273C145.794 11.0273 141.867 14.5492 141.867 20.5273C141.867 26.4964 145.794 30.0273 151.035 30.0273C156.267 30.0273 160.203 26.5055 160.203 20.5273ZM156.569 20.5273C156.569 24.7355 154.289 27.0202 151.035 27.0202C147.791 27.0202 145.501 24.7355 145.501 20.5273C145.501 16.3192 147.791 14.0345 151.035 14.0345C154.289 14.0345 156.569 16.3192 156.569 20.5273Z" fill="white"/>
<path d="M180.018 11.2802H176.423V23.8867H176.248L166.855 11.2802H163.621V29.7745H167.235V17.1771H167.401L176.803 29.7745H180.018V11.2802Z" fill="white"/>
<path d="M183.08 14.0887H189.247V29.7745H192.833V14.0887H199V11.2802H183.08V14.0887Z" fill="white"/>
<path d="M0 13.8696H6.14978V29.744H9.725V13.8696H15.8748V11.0273H0V13.8696Z" fill="white"/>
<path d="M31.4775 11.0273V22.972C31.4775 25.3208 29.7385 27.0023 27.0085 27.0023C24.2688 27.0023 22.5395 25.3208 22.5395 22.972V11.0273H18.9351V23.2553C18.9351 27.2765 22.1411 30.0273 27.0085 30.0273C31.8564 30.0273 35.0819 27.2765 35.0819 23.2553V11.0273H31.4775Z" fill="white"/>
<path d="M38.1252 13.8696H44.275V29.744H47.8502V13.8696H54V11.0273H38.1252V13.8696Z" fill="white"/>
<path d="M7.15381 44.9971C7.15381 45.4847 7.01253 45.8561 6.72998 46.1113C6.45199 46.362 6.06006 46.5306 5.5542 46.6172V46.6787C6.19222 46.7653 6.65706 46.9521 6.94873 47.2393C7.24495 47.5264 7.39307 47.9229 7.39307 48.4287C7.39307 49.126 7.13558 49.6637 6.62061 50.042C6.11019 50.4202 5.36279 50.6094 4.37842 50.6094H1.07666V43.1172H4.36475C6.22412 43.1172 7.15381 43.7438 7.15381 44.9971ZM6.2583 48.3535C6.2583 47.9479 6.10335 47.654 5.79346 47.4717C5.48812 47.2848 4.97998 47.1914 4.26904 47.1914H2.21143V49.6592H4.29639C5.60433 49.6592 6.2583 49.224 6.2583 48.3535ZM6.04639 45.1064C6.04639 44.7419 5.90511 44.4844 5.62256 44.334C5.34456 44.179 4.92074 44.1016 4.35107 44.1016H2.21143V46.2139H4.13232C4.83415 46.2139 5.32861 46.1273 5.61572 45.9541C5.90283 45.7809 6.04639 45.4984 6.04639 45.1064Z" fill="#FFCB12"/>
<path d="M16.1548 50.6094L15.9292 49.543H15.8745C15.5008 50.0124 15.1271 50.3314 14.7534 50.5C14.3843 50.6641 13.9217 50.7461 13.3657 50.7461C12.6229 50.7461 12.0396 50.5547 11.6157 50.1719C11.1965 49.7891 10.9868 49.2445 10.9868 48.5381C10.9868 47.0251 12.1968 46.2321 14.6167 46.1592L15.8882 46.1182V45.6533C15.8882 45.0654 15.7606 44.6325 15.5054 44.3545C15.2547 44.0719 14.8514 43.9307 14.2954 43.9307C13.6711 43.9307 12.9647 44.1221 12.1763 44.5049L11.8276 43.6367C12.1968 43.4362 12.6001 43.279 13.0376 43.165C13.4797 43.0511 13.9217 42.9941 14.3638 42.9941C15.257 42.9941 15.9178 43.1924 16.3462 43.5889C16.7791 43.9854 16.9956 44.6211 16.9956 45.4961V50.6094H16.1548ZM13.5913 49.8096C14.2977 49.8096 14.8514 49.6159 15.2524 49.2285C15.658 48.8411 15.8608 48.2988 15.8608 47.6016V46.9248L14.7261 46.9727C13.8237 47.0046 13.172 47.1458 12.771 47.3965C12.3745 47.6426 12.1763 48.0277 12.1763 48.5518C12.1763 48.9619 12.2993 49.2741 12.5454 49.4883C12.7961 49.7025 13.1447 49.8096 13.5913 49.8096Z" fill="#FFCB12"/>
<path d="M27.4253 49.6318H30.7476V43.1172H31.896V50.6094H21.8403V43.1172H22.9751V49.6318H26.2905V43.1172H27.4253V49.6318Z" fill="#FFCB12"/>
<path d="M44.0806 43.1172V46.2549H48.2778V43.1172H49.4126V50.6094H48.2778V47.2324H44.0806V50.6094H42.9458V43.1172H44.0806Z" fill="#FFCB12"/>
<path d="M58.9263 50.6094L58.7007 49.543H58.646C58.2723 50.0124 57.8986 50.3314 57.5249 50.5C57.1558 50.6641 56.6932 50.7461 56.1372 50.7461C55.3944 50.7461 54.811 50.5547 54.3872 50.1719C53.9679 49.7891 53.7583 49.2445 53.7583 48.5381C53.7583 47.0251 54.9683 46.2321 57.3882 46.1592L58.6597 46.1182V45.6533C58.6597 45.0654 58.5321 44.6325 58.2769 44.3545C58.0262 44.0719 57.6229 43.9307 57.0669 43.9307C56.4425 43.9307 55.7362 44.1221 54.9478 44.5049L54.5991 43.6367C54.9683 43.4362 55.3716 43.279 55.8091 43.165C56.2511 43.0511 56.6932 42.9941 57.1353 42.9941C58.0285 42.9941 58.6893 43.1924 59.1177 43.5889C59.5506 43.9854 59.7671 44.6211 59.7671 45.4961V50.6094H58.9263ZM56.3628 49.8096C57.0692 49.8096 57.6229 49.6159 58.0239 49.2285C58.4295 48.8411 58.6323 48.2988 58.6323 47.6016V46.9248L57.4976 46.9727C56.5952 47.0046 55.9435 47.1458 55.5425 47.3965C55.146 47.6426 54.9478 48.0277 54.9478 48.5518C54.9478 48.9619 55.0708 49.2741 55.3169 49.4883C55.5675 49.7025 55.9162 49.8096 56.3628 49.8096Z" fill="#FFCB12"/>
<path d="M71.1196 53.2002H70.019V50.6094H64.7827V53.2002H63.689V49.6318H64.2769C64.8875 48.8024 65.3661 47.8294 65.7124 46.7129C66.0588 45.5964 66.2388 44.3978 66.2524 43.1172H70.0464V49.6318H71.1196V53.2002ZM68.9526 49.6318V44.0127H67.271C67.2118 45.0244 67.0158 46.0498 66.6831 47.0889C66.355 48.1234 65.9448 48.971 65.4526 49.6318H68.9526Z" fill="#FFCB12"/>
<path d="M78.2886 50.7461C77.1812 50.7461 76.3062 50.4089 75.6636 49.7344C75.0256 49.0599 74.7065 48.1234 74.7065 46.9248C74.7065 45.7171 75.0028 44.7578 75.5952 44.0469C76.1922 43.3359 76.992 42.9805 77.9946 42.9805C78.9334 42.9805 79.6763 43.2904 80.2231 43.9102C80.77 44.5254 81.0435 45.3389 81.0435 46.3506V47.0684H75.8823C75.9051 47.9479 76.1261 48.6156 76.5454 49.0713C76.9692 49.527 77.564 49.7549 78.3296 49.7549C79.1362 49.7549 79.9338 49.5863 80.7222 49.249V50.2607C80.3211 50.4339 79.9406 50.557 79.5806 50.6299C79.2251 50.7074 78.7944 50.7461 78.2886 50.7461ZM77.981 43.9307C77.3794 43.9307 76.8986 44.1266 76.5386 44.5186C76.1831 44.9105 75.9735 45.4528 75.9097 46.1455H79.8267C79.8267 45.43 79.6672 44.8831 79.3481 44.5049C79.0291 44.1221 78.5734 43.9307 77.981 43.9307Z" fill="#FFCB12"/>
<path d="M88.9028 43.1309H89.9487V46.7607L93.0454 43.1309H94.2896L91.1587 46.7607L94.5562 50.6094H93.2437L89.9487 46.8154V50.6094H88.9028V46.8154L85.6147 50.6094H84.3091L87.6997 46.7607L84.5757 43.1309H85.8198L88.9028 46.7607V43.1309Z" fill="#FFCB12"/>
<path d="M99.4282 43.1172V46.2549H103.625V43.1172H104.76V50.6094H103.625V47.2324H99.4282V50.6094H98.2935V43.1172H99.4282Z" fill="#FFCB12"/>
<path d="M110.801 46.2139H112.845C113.798 46.2139 114.502 46.3916 114.958 46.7471C115.418 47.098 115.648 47.6243 115.648 48.3262C115.648 49.0781 115.404 49.6478 114.917 50.0352C114.433 50.418 113.72 50.6094 112.777 50.6094H109.667V43.1172H110.801V46.2139ZM118.041 50.6094H116.906V43.1172H118.041V50.6094ZM110.801 47.1914V49.6592H112.722C113.925 49.6592 114.527 49.2376 114.527 48.3945C114.527 47.9753 114.388 47.6699 114.11 47.4785C113.832 47.2871 113.358 47.1914 112.688 47.1914H110.801Z" fill="#FFCB12"/>
<path d="M124.02 43.1172V47.8682L123.972 49.1123L123.952 49.502L128.005 43.1172H129.42V50.6094H128.361V46.0293L128.381 45.127L128.416 44.2383L124.369 50.6094H122.954V43.1172H124.02ZM126.16 42.126C125.317 42.126 124.701 41.9642 124.314 41.6406C123.927 41.3125 123.71 40.7747 123.665 40.0273H124.731C124.772 40.5013 124.895 40.8317 125.1 41.0186C125.31 41.2054 125.672 41.2988 126.187 41.2988C126.656 41.2988 127.003 41.1986 127.226 40.998C127.454 40.7975 127.593 40.474 127.643 40.0273H128.716C128.662 40.7474 128.431 41.2783 128.026 41.6201C127.62 41.9574 126.998 42.126 126.16 42.126Z" fill="#FFCB12"/>
<path d="M143.458 50.7461C142.373 50.7461 141.532 50.4134 140.935 49.748C140.343 49.0781 140.046 48.1325 140.046 46.9111C140.046 45.6579 140.347 44.6895 140.949 44.0059C141.555 43.3223 142.416 42.9805 143.533 42.9805C143.893 42.9805 144.253 43.0192 144.613 43.0967C144.973 43.1742 145.255 43.2653 145.46 43.3701L145.112 44.334C144.861 44.2337 144.588 44.1517 144.292 44.0879C143.995 44.0195 143.733 43.9854 143.505 43.9854C141.983 43.9854 141.222 44.9561 141.222 46.8975C141.222 47.818 141.407 48.5244 141.776 49.0166C142.15 49.5088 142.701 49.7549 143.43 49.7549C144.055 49.7549 144.695 49.6204 145.351 49.3516V50.3564C144.85 50.6162 144.219 50.7461 143.458 50.7461Z" fill="#FFCB12"/>
<path d="M152.8 50.7461C151.693 50.7461 150.818 50.4089 150.175 49.7344C149.537 49.0599 149.218 48.1234 149.218 46.9248C149.218 45.7171 149.514 44.7578 150.107 44.0469C150.704 43.3359 151.504 42.9805 152.506 42.9805C153.445 42.9805 154.188 43.2904 154.735 43.9102C155.282 44.5254 155.555 45.3389 155.555 46.3506V47.0684H150.394C150.417 47.9479 150.638 48.6156 151.057 49.0713C151.481 49.527 152.076 49.7549 152.841 49.7549C153.648 49.7549 154.445 49.5863 155.234 49.249V50.2607C154.833 50.4339 154.452 50.557 154.092 50.6299C153.737 50.7074 153.306 50.7461 152.8 50.7461ZM152.493 43.9307C151.891 43.9307 151.41 44.1266 151.05 44.5186C150.695 44.9105 150.485 45.4528 150.421 46.1455H154.338C154.338 45.43 154.179 44.8831 153.86 44.5049C153.541 44.1221 153.085 43.9307 152.493 43.9307Z" fill="#FFCB12"/>
<path d="M163.483 50.7461C162.995 50.7461 162.549 50.6572 162.143 50.4795C161.742 50.2972 161.405 50.0192 161.131 49.6455H161.049C161.104 50.083 161.131 50.4977 161.131 50.8896V53.9727H159.997V43.1172H160.919L161.077 44.1426H161.131C161.423 43.7324 161.763 43.4362 162.15 43.2539C162.537 43.0716 162.982 42.9805 163.483 42.9805C164.476 42.9805 165.242 43.32 165.78 43.999C166.322 44.6781 166.593 45.6305 166.593 46.8564C166.593 48.0869 166.318 49.0439 165.766 49.7275C165.219 50.4066 164.458 50.7461 163.483 50.7461ZM163.319 43.9443C162.553 43.9443 162 44.1562 161.658 44.5801C161.316 45.0039 161.14 45.6784 161.131 46.6035V46.8564C161.131 47.9092 161.307 48.6634 161.658 49.1191C162.009 49.5703 162.571 49.7959 163.346 49.7959C163.993 49.7959 164.499 49.5339 164.864 49.0098C165.233 48.4857 165.417 47.7633 165.417 46.8428C165.417 45.9085 165.233 45.193 164.864 44.6963C164.499 44.195 163.984 43.9443 163.319 43.9443Z" fill="#FFCB12"/>
<path d="M177.16 44.9971C177.16 45.4847 177.018 45.8561 176.736 46.1113C176.458 46.362 176.066 46.5306 175.56 46.6172V46.6787C176.198 46.7653 176.663 46.9521 176.955 47.2393C177.251 47.5264 177.399 47.9229 177.399 48.4287C177.399 49.126 177.141 49.6637 176.626 50.042C176.116 50.4202 175.369 50.6094 174.384 50.6094H171.083V43.1172H174.371C176.23 43.1172 177.16 43.7438 177.16 44.9971ZM176.264 48.3535C176.264 47.9479 176.109 47.654 175.799 47.4717C175.494 47.2848 174.986 47.1914 174.275 47.1914H172.217V49.6592H174.302C175.61 49.6592 176.264 49.224 176.264 48.3535ZM176.052 45.1064C176.052 44.7419 175.911 44.4844 175.628 44.334C175.35 44.179 174.927 44.1016 174.357 44.1016H172.217V46.2139H174.138C174.84 46.2139 175.334 46.1273 175.622 45.9541C175.909 45.7809 176.052 45.4984 176.052 45.1064Z" fill="#FFCB12"/>
<path d="M182.62 43.1172V47.8682L182.572 49.1123L182.551 49.502L186.605 43.1172H188.02V50.6094H186.96V46.0293L186.981 45.127L187.015 44.2383L182.968 50.6094H181.553V43.1172H182.62Z" fill="#FFCB12"/>
<path d="M195.92 50.7461C194.836 50.7461 193.995 50.4134 193.398 49.748C192.805 49.0781 192.509 48.1325 192.509 46.9111C192.509 45.6579 192.81 44.6895 193.412 44.0059C194.018 43.3223 194.879 42.9805 195.996 42.9805C196.356 42.9805 196.716 43.0192 197.076 43.0967C197.436 43.1742 197.718 43.2653 197.923 43.3701L197.575 44.334C197.324 44.2337 197.051 44.1517 196.754 44.0879C196.458 44.0195 196.196 43.9854 195.968 43.9854C194.446 43.9854 193.685 44.9561 193.685 46.8975C193.685 47.818 193.87 48.5244 194.239 49.0166C194.612 49.5088 195.164 49.7549 195.893 49.7549C196.517 49.7549 197.158 49.6204 197.814 49.3516V50.3564C197.313 50.6162 196.681 50.7461 195.92 50.7461Z" fill="#FFCB12"/>
</svg>
