<svg width="48" height="49" viewBox="0 0 48 49" fill="none" xmlns="http://www.w3.org/2000/svg">
<path fill-rule="evenodd" clip-rule="evenodd" d="M24 4.5C35.028 4.5 44 13.472 44 24.5C44 35.528 35.028 44.5 24 44.5C12.972 44.5 4 35.528 4 24.5C4 13.472 12.972 4.5 24 4.5ZM24 7.5C14.626 7.5 7 15.126 7 24.5C7 33.874 14.626 41.5 24 41.5C33.374 41.5 41 33.874 41 24.5C41 15.126 33.374 7.5 24 7.5ZM22.1752 16.4954L29.1472 23.4374C29.4292 23.7194 29.5872 24.1014 29.5872 24.4994C29.5872 24.8994 29.4292 25.2814 29.1472 25.5634L22.1752 32.5034C21.8832 32.7954 21.4992 32.9414 21.1172 32.9414C20.7332 32.9414 20.3472 32.7954 20.0552 32.4994C19.4712 31.9114 19.4732 30.9634 20.0592 30.3794L25.9632 24.4994L20.0592 18.6214C19.4732 18.0374 19.4712 17.0874 20.0552 16.4994C20.6392 15.9094 21.5872 15.9134 22.1752 16.4954Z" fill="#6AC48A"/>
</svg>
