<svg width="21" height="21" viewBox="0 0 21 21" fill="none" xmlns="http://www.w3.org/2000/svg">
<path d="M0.5 10.2222C0.5 4.69932 4.97715 0.222168 10.5 0.222168C16.0228 0.222168 20.5 4.69932 20.5 10.2222C20.5 15.745 16.0228 20.2222 10.5 20.2222C4.97715 20.2222 0.5 15.745 0.5 10.2222Z" fill="#FF7A00"/>
<path d="M11.5812 12.4888L13.0756 13.9316C13.3818 14.2265 13.3818 14.7054 13.0756 15.0006C12.7698 15.2958 12.2741 15.2958 11.9686 15.0006L10.4992 13.5829L9.03119 15.0006C8.87811 15.1481 8.67753 15.2219 8.47695 15.2219C8.27669 15.2219 8.07642 15.1481 7.92335 15.0006C7.61752 14.7054 7.61752 14.2268 7.92303 13.9316L9.41763 12.4888C8.87347 12.3692 8.34866 12.161 7.86528 11.8683C7.49947 11.6457 7.38958 11.1792 7.62008 10.8258C7.84993 10.4719 8.33331 10.3654 8.69976 10.588C9.79416 11.2525 11.204 11.2527 12.299 10.588C12.6655 10.3654 13.1487 10.4719 13.379 10.8258C13.6095 11.1789 13.4993 11.6457 13.1335 11.8683C12.6501 12.1614 12.1253 12.3692 11.5812 12.4888Z" fill="white"/>
<path fill-rule="evenodd" clip-rule="evenodd" d="M7.8208 7.80283C7.8208 9.22548 9.01981 10.3827 10.4941 10.3827C11.9687 10.3827 13.1674 9.22548 13.1674 7.80283C13.1674 6.37971 11.9687 5.22217 10.4941 5.22217C9.01981 5.22217 7.8208 6.37971 7.8208 7.80283ZM11.6019 7.80284C11.6019 7.21365 11.1054 6.73454 10.495 6.73454C9.88514 6.73454 9.38816 7.21365 9.38816 7.80284C9.38816 8.39157 9.88514 8.87099 10.495 8.87099C11.1054 8.87099 11.6019 8.39157 11.6019 7.80284Z" fill="white"/>
</svg>
