<svg width="49" height="49" viewBox="0 0 49 49" fill="none" xmlns="http://www.w3.org/2000/svg">
<path fill-rule="evenodd" clip-rule="evenodd" d="M24.5 4.5C13.472 4.5 4.5 13.472 4.5 24.5C4.5 35.528 13.472 44.5 24.5 44.5C35.528 44.5 44.5 35.528 44.5 24.5C44.5 13.472 35.528 4.5 24.5 4.5ZM24.5 7.5C33.874 7.5 41.5 15.126 41.5 24.5C41.5 33.874 33.874 41.5 24.5 41.5C15.126 41.5 7.5 33.874 7.5 24.5C7.5 15.126 15.126 7.5 24.5 7.5ZM26.3248 16.4954L19.3528 23.4374C19.0708 23.7194 18.9128 24.1014 18.9128 24.4994C18.9128 24.8994 19.0708 25.2814 19.3528 25.5634L26.3248 32.5034C26.6168 32.7954 27.0008 32.9414 27.3828 32.9414C27.7668 32.9414 28.1528 32.7954 28.4448 32.4994C29.0288 31.9114 29.0268 30.9634 28.4408 30.3794L22.5368 24.4994L28.4408 18.6214C29.0268 18.0374 29.0288 17.0874 28.4448 16.4994C27.8608 15.9094 26.9128 15.9134 26.3248 16.4954Z" fill="#6AC48A"/>
</svg>
