<svg width="338" height="313" viewBox="0 0 338 313" fill="none" xmlns="http://www.w3.org/2000/svg">
<path d="M253.812 222.304H256.83L256.366 249H253.812V222.304Z" fill="#6AC48A"/>
<path d="M280.974 212.323C282.134 211.394 311.848 184.234 308.366 150.11C304.884 115.985 276.331 107.628 284.456 67.9324C292.581 28.2366 284.456 0.844182 259.849 0.612042C235.242 0.379903 224.1 24.0581 233.153 66.5396C242.207 109.021 203.207 125.503 205.064 156.842C207.386 192.591 235.707 251.555 280.974 212.323Z" fill="#5CA275"/>
<path opacity="0.2" d="M242.904 5.95061C243.369 7.80772 244.529 9.66483 246.154 10.5934C247.779 11.2898 249.869 11.2898 251.493 10.8255C254.743 10.3613 257.993 8.96842 261.475 9.43269C263.1 9.66483 264.725 10.3612 266.35 11.0577C267.975 11.9862 269.6 12.9148 270.993 14.0755C273.779 16.1647 276.332 18.9504 277.957 22.2003C279.814 25.6824 280.511 29.6288 280.743 33.8073C280.975 38.4501 280.511 43.0929 281.207 47.7357C281.672 50.7535 282.6 54.2356 284.921 56.557C285.386 57.0212 285.85 57.4855 286.314 57.7177C290.957 23.8253 282.368 1.07569 259.85 0.843551C253.118 0.379272 247.547 2.23638 242.904 5.95061C242.904 5.71847 242.904 5.71847 242.904 5.95061Z" fill="#F2FAFF"/>
<path d="M260.547 142.681C257.065 136.413 257.065 128.52 258.922 121.788C259.85 118.074 261.475 114.824 263.332 111.342C264.029 109.949 264.957 108.788 265.654 107.395C266.118 106.467 266.118 105.538 265.654 104.61C264.957 102.985 264.029 101.128 263.332 99.5026C262.636 97.8777 261.94 96.0205 261.243 94.1634C260.082 90.4492 259.386 86.735 259.154 82.7886C258.922 78.8423 258.922 74.8959 260.315 71.4138C261.475 68.1638 263.797 65.3782 264.957 62.3604C263.1 61.1997 261.243 59.5747 259.85 57.7176C258.225 55.6283 257.065 53.3069 255.904 50.7534C255.904 56.0926 255.904 61.664 255.904 67.0032C255.904 88.5921 255.672 110.413 255.672 132.002C255.672 151.27 255.672 170.537 255.672 189.805C256.136 188.412 256.6 187.019 257.065 185.626C261.475 173.323 268.672 162.644 275.636 151.734C269.136 152.198 263.565 148.252 260.547 142.681Z" fill="#6AC48A"/>
<path d="M264.723 222.769C261.241 222.769 257.759 222.305 254.741 220.68C251.492 219.055 248.938 216.269 247.081 213.019C245.92 211.162 245.224 209.073 244.992 206.983C244.527 204.662 244.063 202.341 242.67 200.483C239.885 197.233 235.242 196.769 231.528 194.912C228.045 193.287 225.26 190.269 223.403 187.252C221.313 184.002 219.921 180.519 218.76 176.805C216.671 169.145 216.439 160.788 217.367 152.895C218.296 145.699 220.153 138.27 223.867 132.002C228.278 124.342 233.849 117.378 237.795 109.717C239.885 105.771 241.277 101.824 241.974 97.4137C242.67 92.3066 242.206 87.1995 241.045 82.0925C239.652 76.5211 237.795 71.1819 235.706 66.0749C233.849 61.2 231.992 56.325 230.831 50.9858C231.295 55.8608 232.224 60.9678 233.385 66.5392C242.438 109.021 203.439 125.502 205.296 156.841C207.153 188.18 228.974 236.929 264.723 222.769Z" fill="#6AC48A"/>
<path d="M287.474 142.448C287.242 142.216 287.01 142.216 287.01 142.448L255.671 173.787V120.859L273.081 102.52C273.314 102.288 273.314 102.056 273.081 102.056C272.849 101.824 272.617 101.824 272.617 102.056L255.903 119.699V72.1102L268.439 59.3425C268.671 59.1104 268.671 58.8782 268.439 58.8782C268.207 58.6461 267.974 58.6461 267.974 58.8782L255.903 71.1816V30.3251C255.903 30.093 255.671 29.8608 255.439 29.8608C255.207 29.8608 254.975 30.093 254.975 30.3251V87.4314L245.457 79.3065C245.225 79.0743 244.993 79.3065 244.993 79.3065C244.76 79.5386 244.993 79.7708 244.993 79.7708L254.975 88.3599V142.216L235.939 123.181C235.707 122.949 235.475 122.949 235.475 123.181C235.243 123.413 235.243 123.645 235.475 123.645L254.975 143.145V174.716V224.393C254.975 224.626 255.207 224.858 255.439 224.858C255.671 224.858 255.903 224.626 255.903 224.393V174.948L287.474 143.377C287.474 142.913 287.474 142.68 287.474 142.448Z" fill="#6AC48A"/>
<path d="M12.0559 245.56C5.40872 248.957 -3.00197 250.089 1.06772 254.781C5.1374 259.633 34.8461 257.207 41.7646 278.236C48.683 299.265 93.9922 323.044 133.875 307.192C173.758 291.339 219.881 324.339 268.989 308.648C318.096 292.795 349.161 259.148 334.239 248.795C319.046 238.281 55.8728 223.237 12.0559 245.56Z" fill="#5971A9"/>
<path d="M31.757 233.769C31.757 233.769 34.957 210.469 28.557 212.769C22.157 215.069 25.057 224.469 31.757 233.769Z" fill="#FFCA1A"/>
<path d="M32.1574 233.568C32.1574 233.568 19.0574 210.568 10.0574 218.468C1.05741 226.368 32.1574 233.568 32.1574 233.568Z" fill="#5CA275"/>
<path opacity="0.5" d="M10.5574 218.769C10.8574 219.469 11.2574 220.069 12.0574 220.269C13.0574 220.469 14.0574 220.169 15.0574 220.169C16.1574 220.069 17.2574 220.269 18.2574 220.769C19.2574 221.269 20.0574 221.969 20.8574 222.669C21.6574 223.369 22.5574 224.069 23.4574 224.569C24.3574 225.069 25.4574 225.269 26.4574 225.369C21.9574 219.769 15.5574 214.169 10.3574 218.269C10.4574 218.369 10.4574 218.569 10.5574 218.769Z" fill="#F2FAFF"/>
<path d="M13.7579 246.269H126.758L125.158 240.669L121.358 227.269C118.658 217.869 109.258 211.869 99.5578 213.569L94.6579 214.369C94.2579 214.469 93.9578 214.469 93.5578 214.469C91.3578 214.469 89.3578 213.369 88.1579 211.569C79.7579 198.969 60.7579 200.569 54.5578 214.369L53.7579 216.269C52.2579 219.569 48.4579 220.969 45.1579 219.569L40.2579 217.369C37.3579 216.069 34.2578 217.069 32.4578 219.269C31.8578 220.069 31.3579 221.069 31.1579 222.169L30.4578 226.369C30.2578 227.369 29.8579 228.369 29.2579 229.069C29.1579 229.169 29.0578 229.369 28.9578 229.469C27.9578 230.569 26.6579 231.369 25.1579 231.669C24.7579 231.769 24.3578 231.769 23.9578 231.769C22.7578 231.769 21.4578 231.469 20.3578 230.669C17.8578 228.969 14.4579 229.369 12.2579 231.569L8.95784 234.869C4.75784 239.069 7.75786 246.269 13.7579 246.269Z" fill="#5CA275"/>
<path opacity="0.2" d="M9.35779 237.268C10.0578 236.268 10.4578 235.168 11.1578 234.168C12.6578 232.168 15.3578 231.768 17.6578 232.168C19.1578 232.468 20.6578 232.968 22.2578 232.868C23.4578 232.768 24.7578 232.568 25.9578 232.268C28.3578 231.668 30.7578 230.468 32.0578 228.368C33.3578 226.268 32.7578 223.368 34.2578 221.368C35.9578 219.168 38.8578 219.368 41.1578 220.268C42.4578 220.768 43.6578 221.568 44.9578 221.968C46.4578 222.468 48.1578 222.568 49.7578 222.168C50.5578 221.968 51.3578 221.668 52.1578 221.368C52.6578 221.168 53.0578 220.868 53.3578 220.468C53.8578 219.768 54.0578 218.868 54.0578 218.068C54.0578 217.568 53.9578 217.068 53.7578 216.568C52.1578 219.568 48.4578 220.868 45.3578 219.468L40.4578 217.268C37.5578 215.968 34.4578 216.968 32.6578 219.168C32.0578 219.968 31.5578 220.968 31.3578 222.068L30.6578 226.268C30.4578 227.268 30.0578 228.268 29.4578 228.968C29.3578 229.068 29.2578 229.268 29.1578 229.368C28.1578 230.468 26.8578 231.268 25.3578 231.568C24.9578 231.668 24.5578 231.668 24.1578 231.668C22.9578 231.668 21.6578 231.368 20.5578 230.568C18.0578 228.868 14.6578 229.268 12.4578 231.468L9.15781 234.768C7.95781 235.968 7.35781 237.368 7.25781 238.868C8.05781 238.668 8.75779 238.068 9.35779 237.268Z" fill="#F2FAFF"/>
<path d="M23.7578 246.269H126.758L125.158 240.669C120.058 236.069 113.058 233.869 105.858 235.069L102.058 235.669L99.9578 235.969C99.5578 236.069 99.0578 236.069 98.6578 236.069C97.6578 236.069 96.7578 235.869 95.8578 235.569C94.3578 234.969 93.0578 233.969 92.1578 232.569C90.8578 230.569 89.3578 228.969 87.6578 227.569C87.0578 226.969 86.3578 226.569 85.6578 226.069C81.9578 223.569 77.5578 222.369 73.2578 222.269C70.7578 222.269 68.2578 222.569 65.7578 223.369C59.9578 225.269 54.7578 229.469 51.8578 235.869L50.8578 238.069C49.0578 241.969 44.4578 243.769 40.5578 241.969L37.5578 240.669L34.6578 239.369C33.3578 238.769 31.9578 238.569 30.7578 238.769C27.3578 239.069 24.4578 241.569 23.8578 245.169L23.7578 246.269Z" fill="#6AC48A"/>
<path d="M40.1582 227.869C41.2628 227.869 42.1582 226.973 42.1582 225.869C42.1582 224.764 41.2628 223.869 40.1582 223.869C39.0536 223.869 38.1582 224.764 38.1582 225.869C38.1582 226.973 39.0536 227.869 40.1582 227.869Z" fill="#FFCA1A"/>
<path d="M66.7578 237.068C67.8624 237.068 68.7578 236.173 68.7578 235.068C68.7578 233.964 67.8624 233.068 66.7578 233.068C65.6532 233.068 64.7578 233.964 64.7578 235.068C64.7578 236.173 65.6532 237.068 66.7578 237.068Z" fill="#FFCA1A"/>
<path d="M109.357 222.469C110.462 222.469 111.357 221.573 111.357 220.469C111.357 219.364 110.462 218.469 109.357 218.469C108.253 218.469 107.357 219.364 107.357 220.469C107.357 221.573 108.253 222.469 109.357 222.469Z" fill="#FFCA1A"/>
<path d="M61.2582 217.669C62.1419 217.669 62.8582 216.952 62.8582 216.069C62.8582 215.185 62.1419 214.469 61.2582 214.469C60.3746 214.469 59.6582 215.185 59.6582 216.069C59.6582 216.952 60.3746 217.669 61.2582 217.669Z" fill="#DDF3FB"/>
<path d="M99.2582 233.669C100.142 233.669 100.858 232.952 100.858 232.069C100.858 231.185 100.142 230.469 99.2582 230.469C98.3746 230.469 97.6582 231.185 97.6582 232.069C97.6582 232.952 98.3746 233.669 99.2582 233.669Z" fill="#DDF3FB"/>
<path d="M37.7587 245.169C37.7587 245.169 46.8587 233.769 42.6587 232.969C38.5587 232.169 37.1587 238.069 37.7587 245.169Z" fill="#6AC48A"/>
<path opacity="0.5" d="M38.058 238.169C38.458 238.069 38.758 237.769 38.958 237.369C39.358 236.569 39.258 235.669 39.758 234.969C39.958 234.569 40.258 234.269 40.658 234.169C41.058 233.969 41.458 233.869 41.858 233.669C42.258 233.469 42.258 233.169 41.958 232.869C39.758 232.869 38.558 234.969 37.958 238.169H38.058Z" fill="#F2FAFF"/>
<path d="M37.7583 245.169C37.7583 245.169 32.0583 229.769 25.7583 233.769C19.4583 237.669 37.7583 245.169 37.7583 245.169Z" fill="#DDF3FB"/>
<path opacity="0.2" d="M26.0586 233.669C26.1586 233.769 26.2586 233.969 26.3586 233.969C26.6586 234.069 26.9586 234.069 27.1586 234.069C27.7586 234.069 28.3586 233.969 28.9586 234.169C29.5586 234.269 30.1586 234.669 30.6586 234.969C31.5586 235.669 32.1586 236.669 33.1586 237.269C33.3586 237.369 33.5586 237.469 33.7586 237.569C31.6586 234.469 28.9586 232.069 26.0586 233.669Z" fill="#F2FAFF"/>
<path d="M37.7578 245.169C37.7578 245.169 58.8578 242.569 53.5578 239.269C48.1578 235.969 37.7578 245.169 37.7578 245.169Z" fill="#FFCA1A"/>
<path opacity="0.2" d="M44.7584 240.469C45.3584 240.369 45.8584 239.969 46.3584 239.669C46.8584 239.369 47.3584 239.169 47.9584 238.969C48.7584 238.769 49.5584 238.969 50.3584 238.869C50.6584 238.869 50.9584 238.769 51.0584 238.469C48.9584 238.369 46.5584 239.269 44.3584 240.469C44.5584 240.569 44.6584 240.569 44.7584 240.469Z" fill="#F2FAFF"/>
<path d="M157.477 156.953C200.818 156.953 235.953 121.818 235.953 78.4766C235.953 35.1352 200.818 0 157.477 0C114.135 0 79 35.1352 79 78.4766C79 121.818 114.135 156.953 157.477 156.953Z" fill="#FFD43D"/>
<path d="M157.477 142.859C193.034 142.859 221.859 114.034 221.859 78.4766C221.859 42.9189 193.034 14.0938 157.477 14.0938C121.919 14.0938 93.0938 42.9189 93.0938 78.4766C93.0938 114.034 121.919 142.859 157.477 142.859Z" fill="#FFCB12"/>
<path d="M230.188 34.2734H92.6287C84.0308 46.8624 79 62.0814 79 78.4766C79 94.8718 84.0308 110.091 92.6287 122.68H230.188C237.264 122.68 243 116.943 243 109.867V47.0859C243 40.0099 237.264 34.2734 230.188 34.2734Z" fill="#5971A9"/>
<path d="M113.129 34.2734H92.6287C84.0308 46.8624 79 62.0814 79 78.4766C79 94.8718 84.0308 110.091 92.6287 122.68H113.129C104.531 110.091 99.5 94.8718 99.5 78.4766C99.5 62.0814 104.531 46.8624 113.129 34.2734Z" fill="#5971A9"/>
<path d="M121.177 95.5241H126.622C129.502 95.5241 131.837 93.1894 131.837 90.3095V85.598C131.837 82.7181 129.502 80.3833 126.622 80.3833H121.177C124.057 80.3833 126.391 82.7181 126.391 85.598V90.3095C126.392 93.1894 124.057 95.5241 121.177 95.5241Z" fill="#43547E"/>
<path d="M104.305 101.93V98.7271C104.305 96.958 105.739 95.5239 107.508 95.5239H102.062C100.293 95.5239 98.8594 96.958 98.8594 98.7271V101.93C98.8594 103.699 100.293 105.133 102.062 105.133H107.508C105.739 105.133 104.305 103.699 104.305 101.93Z" fill="#43547E"/>
<path d="M102.062 80.3829H107.508C105.739 80.3829 104.305 78.9488 104.305 77.1798V55.0225C104.305 53.2534 105.739 51.8193 107.508 51.8193H102.062C100.293 51.8193 98.8594 53.2534 98.8594 55.0225V77.1798C98.8594 78.9488 100.293 80.3829 102.062 80.3829Z" fill="#43547E"/>
<path d="M145.018 91.5576V65.3951C145.018 57.9094 151.108 51.8193 158.593 51.8193H153.148C145.662 51.8193 139.572 57.9094 139.572 65.3951V78.3835C140.764 80.519 141.447 82.9781 141.447 85.5976V90.3091C141.447 92.3206 141.044 94.2377 140.318 95.9866C142.159 101.303 147.213 105.133 153.148 105.133H158.594C151.108 105.133 145.018 99.0433 145.018 91.5576Z" fill="#43547E"/>
<path d="M162.451 95.5241H167.896C170.084 95.5241 171.863 93.7447 171.863 91.5576V65.3951C171.863 63.208 170.084 61.4287 167.896 61.4287H162.451C164.638 61.4287 166.418 63.208 166.418 65.3951V91.5576C166.418 93.7447 164.638 95.5241 162.451 95.5241Z" fill="#43547E"/>
<path d="M188.32 75.153C188.32 71.5815 190.614 68.5373 193.805 67.4114C192.953 67.1106 192.037 66.9453 191.083 66.9453C186.557 66.9453 182.875 70.6273 182.875 75.153C182.875 79.6787 186.557 83.3604 191.083 83.3604C192.037 83.3604 192.953 83.1951 193.805 82.8943C190.614 81.7687 188.32 78.7245 188.32 75.153Z" fill="#43547E"/>
<path d="M196.528 76.9541C197.521 76.9541 198.329 76.1463 198.329 75.153C198.329 74.1594 197.521 73.3516 196.528 73.3516C195.535 73.3516 194.727 74.1594 194.727 75.153C194.727 76.1463 195.535 76.9541 196.528 76.9541Z" fill="#43547E"/>
<path d="M215.254 99.6963C216.247 99.6963 217.055 98.8885 217.055 97.8952C217.055 96.9016 216.247 96.0938 215.254 96.0938C214.26 96.0938 213.452 96.9016 213.452 97.8952C213.452 98.8885 214.261 99.6963 215.254 99.6963Z" fill="#43547E"/>
<path d="M207.046 97.8952C207.046 94.3237 209.34 91.2794 212.531 90.1536C211.678 89.8528 210.762 89.6875 209.808 89.6875C208.942 89.6875 208.107 89.8233 207.323 90.0732L201.601 97.8894V97.8952C201.601 102.421 205.283 106.103 209.808 106.103C210.762 106.103 211.678 105.937 212.531 105.636C209.34 104.511 207.046 101.467 207.046 97.8952Z" fill="#43547E"/>
<path d="M193.261 98.4365L213.207 71.1911C212.997 70.8544 212.722 70.5501 212.383 70.3012C210.955 69.2554 208.95 69.5664 207.906 70.9934L204.73 75.3311C204.655 78.8529 202.351 81.8341 199.175 82.9196L187.815 98.4365C186.77 99.8639 187.08 101.868 188.507 102.913C189.078 103.331 189.74 103.532 190.397 103.532C191.384 103.532 192.357 103.078 192.984 102.221L193.129 102.024C192.457 100.946 192.464 99.5243 193.261 98.4365Z" fill="#43547E"/>
<path d="M126.622 105.134H107.508C105.739 105.134 104.305 103.7 104.305 101.931V98.7278C104.305 96.9587 105.739 95.5247 107.508 95.5247H126.622C129.502 95.5247 131.837 93.1899 131.837 90.31V85.5985C131.837 82.7186 129.502 80.3839 126.622 80.3839H107.508C105.739 80.3839 104.305 78.9498 104.305 77.1807V55.0234C104.305 53.2544 105.739 51.8203 107.508 51.8203H136.843C138.612 51.8203 140.046 53.2544 140.046 55.0234V58.2266C140.046 59.9956 138.612 61.4297 136.843 61.4297H113.914V70.7745H126.622C134.809 70.7745 141.446 77.4114 141.446 85.5985V90.31C141.447 98.4969 134.809 105.134 126.622 105.134Z" fill="white"/>
<path d="M126.622 95.5241H132.067C134.947 95.5241 137.282 93.1894 137.282 90.3095V85.598C137.282 82.7181 134.947 80.3833 132.067 80.3833H126.622C129.502 80.3833 131.837 82.7181 131.837 85.598V90.3095C131.837 93.1894 129.502 95.5241 126.622 95.5241Z" fill="#F2FBFF"/>
<path d="M107.508 80.3829H112.953C111.184 80.3829 109.75 78.9488 109.75 77.1798V55.0225C109.75 53.2534 111.184 51.8193 112.953 51.8193H107.508C105.739 51.8193 104.305 53.2534 104.305 55.0225V77.1798C104.305 78.9488 105.739 80.3829 107.508 80.3829Z" fill="#F2FBFF"/>
<path d="M109.75 101.93V98.7271C109.75 96.958 111.184 95.5239 112.953 95.5239H107.508C105.739 95.5239 104.305 96.958 104.305 98.7271V101.93C104.305 103.699 105.739 105.133 107.508 105.133H112.953C111.184 105.133 109.75 103.699 109.75 101.93Z" fill="#F2FBFF"/>
<path d="M167.897 105.133H158.593C151.108 105.133 145.018 99.0433 145.018 91.5576V65.3951C145.018 57.9094 151.108 51.8193 158.593 51.8193H167.897C175.383 51.8193 181.473 57.9094 181.473 65.3951V91.5576C181.473 99.0433 175.383 105.133 167.897 105.133ZM158.593 61.4287C156.406 61.4287 154.627 63.208 154.627 65.3951V91.5576C154.627 93.7447 156.406 95.5241 158.593 95.5241H167.897C170.084 95.5241 171.864 93.7447 171.864 91.5576V65.3951C171.864 63.208 170.084 61.4287 167.897 61.4287H158.593Z" fill="white"/>
<path d="M167.896 95.5241H173.309C175.496 95.5241 177.275 93.7447 177.275 91.5576V65.3951C177.275 63.208 175.496 61.4287 173.309 61.4287H167.896C170.084 61.4287 171.863 63.208 171.863 65.3951V91.5576C171.863 93.7447 170.084 95.5241 167.896 95.5241Z" fill="#F2FBFF"/>
<path d="M150.43 91.5576V65.3951C150.43 57.9094 156.52 51.8193 164.006 51.8193H158.593C151.108 51.8193 145.018 57.9094 145.018 65.3951V91.5576C145.018 99.0433 151.108 105.133 158.593 105.133H164.006C156.52 105.133 150.43 99.0433 150.43 91.5576Z" fill="#F2FBFF"/>
<path d="M196.527 83.3604C192.001 83.3604 188.319 79.6787 188.319 75.153C188.319 70.6273 192.001 66.9453 196.527 66.9453C201.053 66.9453 204.735 70.6273 204.735 75.153C204.735 79.6787 201.053 83.3604 196.527 83.3604ZM196.527 73.3516C195.534 73.3516 194.726 74.1594 194.726 75.153C194.726 76.1463 195.534 76.9541 196.527 76.9541C197.52 76.9541 198.328 76.1463 198.328 75.153C198.328 74.1594 197.52 73.3516 196.527 73.3516Z" fill="white"/>
<path d="M193.699 75.153C193.699 71.5693 196.008 68.5164 199.217 67.4002C198.373 67.1067 197.469 66.9453 196.527 66.9453C192.001 66.9453 188.319 70.6273 188.319 75.153C188.319 79.6787 192.001 83.3604 196.527 83.3604C197.469 83.3604 198.373 83.1989 199.217 82.9055C196.008 81.7892 193.699 78.7367 193.699 75.153Z" fill="#F2FBFF"/>
<path d="M215.254 106.103C210.728 106.103 207.046 102.421 207.046 97.8952C207.046 93.3695 210.728 89.6875 215.254 89.6875C219.779 89.6875 223.461 93.3695 223.461 97.8952C223.461 102.421 219.779 106.103 215.254 106.103ZM215.254 96.0938C214.26 96.0938 213.452 96.9016 213.452 97.8952C213.452 98.8885 214.26 99.6963 215.254 99.6963C216.247 99.6963 217.055 98.8885 217.055 97.8952C217.055 96.9016 216.247 96.0938 215.254 96.0938Z" fill="white"/>
<path d="M212.277 97.8952C212.277 94.284 214.623 91.2122 217.869 90.1174C217.047 89.8403 216.168 89.6875 215.254 89.6875C210.728 89.6875 207.046 93.3695 207.046 97.8952C207.046 102.421 210.728 106.103 215.254 106.103C216.168 106.103 217.047 105.95 217.869 105.673C214.623 104.578 212.277 101.506 212.277 97.8952Z" fill="#F2FBFF"/>
<path d="M195.842 103.532C195.186 103.532 194.523 103.331 193.953 102.913C192.525 101.868 192.215 99.8639 193.26 98.4365L213.351 70.9934C214.395 69.5664 216.4 69.2554 217.828 70.3012C219.255 71.3461 219.565 73.3506 218.52 74.7779L198.429 102.221C197.802 103.078 196.829 103.532 195.842 103.532Z" fill="white"/>
<path d="M197.662 102.913C196.235 101.868 195.925 99.8636 196.97 98.4363L217.06 70.9932C217.269 70.7081 217.517 70.4698 217.79 70.2757C216.365 69.2626 214.387 69.5787 213.352 70.9932L193.261 98.4363C192.216 99.8636 192.526 101.868 193.954 102.913C194.524 103.331 195.187 103.532 195.843 103.532C196.501 103.532 197.15 103.326 197.698 102.937C197.686 102.929 197.674 102.922 197.662 102.913Z" fill="#F2FBFF"/>
<path d="M271.894 259.392L272.718 264.999L276.016 264.504L276.181 258.568L271.894 259.392Z" fill="#E9AA8E"/>
<path d="M272.224 262.525C272.059 263.185 272.718 264.998 272.718 264.998L276.181 264.504C276.181 264.504 276.676 261.866 276.181 261.866C274.367 261.866 272.718 261.701 272.224 262.525Z" fill="#FAD1DE"/>
<path d="M276.181 268.132C275.357 268.956 267.936 273.738 266.947 272.584C265.958 271.264 265.958 268.956 269.915 265.988C271.564 264.834 271.894 262.031 272.059 262.855C272.059 263.679 274.532 265.163 275.851 264.174C276.676 263.515 276.841 264.669 276.841 265.988C276.841 266.812 276.511 267.802 276.181 268.132Z" fill="#202234"/>
<path d="M269.421 167.053C269.421 167.053 260.846 179.914 271.894 260.546C272.059 261.7 276.346 262.525 276.676 261.371C290.527 201.845 292.505 185.685 289.702 172.329C286.899 158.973 269.421 167.053 269.421 167.053Z" fill="#203A6F"/>
<path d="M302.73 259.392L303.39 264.999L306.688 264.504L307.018 258.568L302.73 259.392Z" fill="#E9AA8E"/>
<path d="M302.895 262.525C302.73 263.185 303.389 264.998 303.389 264.998L306.852 264.504C306.852 264.504 307.347 261.866 306.852 261.866C305.038 261.866 303.389 261.701 302.895 262.525Z" fill="#FAD1DE"/>
<path d="M306.852 268.132C306.027 268.956 298.607 273.738 297.618 272.584C296.629 271.264 296.629 268.956 300.586 265.988C302.235 264.834 302.565 262.031 302.73 262.855C302.73 263.679 305.203 265.163 306.522 264.174C307.347 263.515 307.511 264.669 307.511 265.988C307.511 266.812 307.347 267.802 306.852 268.132Z" fill="#202234"/>
<path d="M280.303 168.866C280.303 168.866 274.697 183.212 302.564 259.722C303.058 260.876 307.346 260.711 307.51 259.557C308.665 198.547 307.016 182.223 301.574 169.691C295.803 157.324 280.303 168.866 280.303 168.866Z" fill="#0F4C86"/>
<path opacity="0.22" d="M301.245 169.856C295.639 157.324 280.139 169.031 280.139 169.031C280.139 169.031 278.82 172.494 280.798 185.191C284.096 187.169 287.724 188.818 291.351 189.972C292.176 190.302 293.33 190.467 293.99 190.962C294.484 191.456 294.814 192.116 294.814 192.776C294.814 194.095 294.649 195.249 294.649 196.568C294.649 198.052 294.649 199.701 294.979 201.185C295.474 202.834 296.298 204.318 297.287 205.637C298.112 206.956 299.431 207.946 300.585 208.935C301.575 209.924 302.729 210.914 303.388 212.233C304.048 213.552 303.883 215.366 303.883 216.85C303.883 218.499 303.883 220.148 304.048 221.797C304.378 223.775 304.708 225.589 304.873 227.568C305.037 229.546 304.873 231.36 304.543 233.339C304.213 234.988 303.718 236.637 303.388 238.451C303.224 240.429 303.553 242.408 303.553 244.222C303.718 246.365 303.883 248.344 304.048 250.488C304.378 253.785 304.543 257.248 304.378 260.546C305.697 260.546 307.181 260.381 307.181 259.557C308.335 198.547 306.851 182.223 301.245 169.856Z" fill="#202234"/>
<path d="M267.113 150.561C271.4 150.726 274.533 153.364 271.235 156.168C263.485 162.928 255.571 169.194 255.571 169.194L253.592 166.226C253.592 166.391 262.991 150.396 267.113 150.561Z" fill="#F5B297"/>
<path d="M253.592 166.227C253.592 166.227 251.943 167.546 251.284 167.216C250.624 167.051 247.656 166.227 247.656 167.216C247.656 168.205 249.47 168.7 249.47 168.7C249.47 168.7 246.996 169.854 246.502 173.152C246.007 176.45 250.624 174.141 252.273 172.492C253.922 170.844 255.901 168.535 255.901 168.535L253.592 166.227Z" fill="#F5B297"/>
<path d="M277.995 116.924C279.149 116.924 280.468 117.419 281.458 118.738C287.064 127.477 275.192 154.025 275.192 154.025L257.878 168.865L253.756 164.743L264.639 150.232C264.639 150.232 268.761 126.818 270.08 123.85C271.069 121.871 274.367 116.759 277.995 116.924Z" fill="white"/>
<path opacity="0.2" d="M258.869 168.041L259.199 167.712L255.406 162.435L254.252 164.084L258.869 168.041Z" fill="#231F20"/>
<path d="M254.911 164.083L258.868 167.711C259.198 168.041 259.198 168.371 258.868 168.7L258.374 169.195C258.044 169.525 257.549 169.525 257.384 169.36L253.427 165.732C253.097 165.402 253.097 165.073 253.427 164.743L253.922 164.248C254.087 163.754 254.581 163.754 254.911 164.083Z" fill="white"/>
<path d="M289.374 113.627C289.374 113.627 301.247 116.1 303.39 119.893C307.677 127.643 303.72 177.11 301.411 178.1C299.103 179.089 270.577 182.387 263.651 177.275C265.465 164.084 274.204 117.255 279.646 113.792C284.922 110.164 289.374 113.627 289.374 113.627Z" fill="#EFE9DC"/>
<path d="M299.597 117.914L296.3 114.452C296.3 114.452 285.252 109.01 277.172 115.276C269.093 121.542 270.906 129.787 270.906 129.787C270.906 129.787 273.38 145.286 270.412 149.244C265.795 155.345 261.837 169.855 266.949 175.626C272.061 181.068 293.332 184.531 299.103 174.472C304.874 164.414 297.784 146.606 297.784 146.606L299.597 117.914Z" fill="white"/>
<path opacity="0.2" d="M290.033 118.244C290.033 118.244 286.57 142.648 284.262 150.397C281.953 158.147 288.879 174.637 287.89 177.769C286.9 180.902 283.438 181.067 283.438 181.067C283.438 181.067 295.804 187.498 299.432 181.727C303.224 175.791 290.033 118.244 290.033 118.244Z" fill="#231F20"/>
<path d="M291.021 112.638C291.021 112.638 283.106 156.499 293.659 184.365C293.659 184.365 313.776 183.046 311.468 179.089C298.112 156.169 303.553 128.962 303.553 128.962C303.553 128.962 306.026 114.122 291.021 112.638Z" fill="#FEAA32"/>
<path d="M265.133 179.254C268.101 180.243 271.729 178.429 271.729 178.429C264.803 159.962 276.511 144.462 277.83 119.068C277.83 117.749 279.149 116.1 279.479 114.946C280.303 112.967 280.963 112.803 281.128 112.638C266.287 118.904 269.75 138.361 269.75 138.361C269.75 138.361 262.165 171.339 265.133 179.254Z" fill="#FEAA32"/>
<path opacity="0.1" d="M273.544 146.935C273.544 146.935 273.049 156.664 271.4 159.962C269.752 163.259 270.411 171.834 272.884 172.658C275.358 173.483 277.831 170.02 276.347 165.568C274.863 161.116 274.863 157.323 274.698 151.882C274.533 146.77 273.544 146.935 273.544 146.935Z" fill="#231F20"/>
<path opacity="0.2" d="M299.927 153.201L299.762 168.041C299.762 168.041 294.98 171.998 296.3 173.482C297.619 174.802 301.246 178.099 301.246 178.099L307.017 154.355L293.826 128.797L299.927 153.201Z" fill="#231F20"/>
<path d="M305.203 148.255C308.831 145.946 312.788 146.276 311.799 150.563C309.161 160.457 306.358 170.185 306.358 170.185L303.06 168.866C302.895 169.031 301.576 150.563 305.203 148.255Z" fill="#F5B297"/>
<path d="M302.895 168.866C302.895 168.866 302.4 170.845 301.576 171.01C300.916 171.34 297.948 172.329 298.608 173.153C299.267 173.978 300.916 173.483 300.916 173.483C300.916 173.483 297.948 175.957 300.586 177.111C303.719 178.43 305.203 177.276 305.533 175.132C305.863 172.824 306.358 169.856 306.358 169.856L302.895 168.866Z" fill="#F5B297"/>
<path d="M294.98 114.452C295.969 113.792 297.288 113.463 298.772 114.122C308.336 118.08 313.613 146.771 313.613 146.771L307.841 168.701L302.07 167.712L302.895 149.574C302.895 149.574 293.001 127.973 292.342 124.84C292.012 122.367 292.012 116.431 294.98 114.452Z" fill="white"/>
<path opacity="0.2" d="M308.172 167.382L308.337 166.888L302.236 164.744V166.723L308.172 167.382Z" fill="#231F20"/>
<path d="M302.73 166.228L308.006 166.888C308.336 166.888 308.666 167.382 308.666 167.712V168.372C308.666 168.866 308.171 169.196 307.841 169.031L302.565 168.372C302.235 168.372 301.905 167.877 301.905 167.547V166.888C301.905 166.558 302.235 166.228 302.73 166.228Z" fill="white"/>
<path d="M295.474 100.106C295.639 98.787 294.98 97.6328 293.99 97.1381C293.99 96.9732 293.99 96.9732 293.99 96.8083C294.155 95.6541 293.496 94.6647 292.506 94.3349C292.506 93.1807 291.847 92.1913 290.857 92.0265H290.692C290.528 90.8722 289.703 90.0478 288.549 89.718C287.56 89.5531 286.735 89.8829 286.076 90.7073C285.746 90.3776 285.416 90.2127 285.086 90.2127C284.097 90.0478 283.272 90.5424 282.943 91.5318C282.778 91.202 282.448 91.0371 282.118 91.0371C281.459 90.8722 280.634 91.5318 280.634 92.1914C280.469 93.0158 280.964 93.6754 281.788 93.8403C282.283 93.8403 282.778 93.6754 283.108 93.3456C283.437 94.0052 283.932 94.4998 284.756 94.6647C285.251 94.8296 285.911 94.6647 286.24 94.3349C286.57 94.8296 287.23 95.3243 287.889 95.4892C288.219 95.4892 288.549 95.4892 288.879 95.4892C289.044 95.9839 289.538 96.3136 290.033 96.4785C289.868 97.303 290.363 98.1274 290.857 98.6221C290.692 98.9519 290.693 99.1168 290.528 99.4466C290.363 100.436 290.857 101.59 291.517 102.085C291.352 102.25 291.352 102.58 291.187 102.744C291.022 103.734 291.682 104.723 292.671 104.888C293.661 105.053 294.485 104.393 294.65 103.404C294.65 102.909 294.65 102.58 294.485 102.25C294.98 101.59 295.309 100.931 295.474 100.106Z" fill="#232750"/>
<path opacity="0.2" d="M282.447 113.628C282.447 114.782 283.931 115.772 286.075 115.936C288.218 116.101 289.867 115.277 289.867 114.123C289.867 112.968 288.383 112.474 286.24 112.309C284.261 112.144 282.447 112.474 282.447 113.628Z" fill="#241352"/>
<path d="M289.209 105.712L288.88 112.803C288.88 112.803 287.725 114.946 285.252 114.287C282.779 113.627 283.108 113.462 283.108 113.462L284.263 107.361L289.209 105.712Z" fill="#FFAFA9"/>
<path opacity="0.25" d="M288.384 109.341C288.384 109.341 285.086 113.133 283.107 112.639L283.602 110L288.384 109.341Z" fill="#E8908E"/>
<path d="M291.353 105.548C291.023 108.516 286.571 111.154 282.283 110C279.315 109.176 279.645 103.899 280.305 100.601C280.47 100.107 280.47 99.6119 280.635 99.2821C280.799 98.4577 280.964 97.7981 280.964 97.7981C280.964 97.7981 286.406 96.1492 288.055 96.6438C289.704 97.1385 291.682 102.58 291.353 105.548Z" fill="#FFAFA9"/>
<path opacity="0.5" d="M287.726 102.744C286.901 102.249 285.747 98.9513 285.747 98.9513C285.087 99.7758 282.284 100.435 280.141 100.6C280.306 100.106 280.306 99.6109 280.47 99.2811L287.066 97.4673C287.066 97.4673 288.55 103.074 287.726 102.744Z" fill="#E8908E"/>
<path d="M287.395 98.1277C287.395 98.1277 282.943 99.7766 280.964 99.4468C276.018 98.6224 279.151 91.8618 282.943 91.8618C288.055 91.8618 290.858 95.6543 290.858 95.6543C290.858 95.6543 292.507 94.8298 292.837 98.6224C293.496 105.053 290.363 108.021 290.363 108.021C290.363 108.021 291.188 104.229 290.198 102.415C289.704 101.426 288.549 101.426 288.549 102.58C288.714 104.394 287.395 99.9415 287.395 98.1277Z" fill="#232750"/>
<path d="M287.889 101.755L282.118 102.085C282.118 101.59 281.953 101.26 281.623 101.26C281.458 101.26 281.458 101.26 281.293 101.425L279.314 101.26C279.314 101.096 279.15 100.931 278.985 100.931C278.655 100.931 278.16 101.755 277.995 102.744C277.83 103.899 277.995 104.723 278.325 104.888C278.655 104.888 279.15 104.064 279.314 103.074C279.314 102.58 279.314 102.25 279.314 101.92L280.798 102.085C280.634 102.415 280.634 102.744 280.469 103.239C280.304 104.393 280.469 105.218 280.798 105.383C281.128 105.383 281.623 104.558 281.788 103.569C281.788 103.404 281.788 103.239 281.788 103.074L287.229 102.415L287.889 101.755Z" fill="#28264A"/>
<path d="M280.14 102.084C280.14 102.084 278.656 105.217 279.975 105.217C281.459 105.217 280.14 102.084 280.14 102.084Z" fill="#FFAFA9"/>
<path d="M295.309 98.7869C295.309 98.7869 293.001 96.8082 289.538 96.8082C285.086 96.8082 278.82 98.9518 277.831 98.7869C276.017 98.4571 277.83 91.2019 282.612 90.0477C282.942 89.8828 283.437 88.2339 283.767 88.2339C293.825 86.4201 297.123 95.654 295.309 98.7869Z" fill="#FEAA32"/>
<path opacity="0.5" d="M286.57 91.531C286.57 91.531 282.283 93.1799 282.778 96.3129L278.82 96.148C278.82 96.148 279.81 92.6853 281.953 91.6959C284.427 90.8715 286.57 91.531 286.57 91.531Z" fill="#D88225"/>
<path d="M289.867 96.9728C289.867 96.9728 279.808 95.3239 277.335 96.1483C274.697 97.1377 271.234 98.4568 277.83 98.7866C284.59 99.1164 289.867 96.9728 289.867 96.9728Z" fill="#EA9024"/>
<path d="M287.394 96.8084C286.735 96.8084 285.91 96.9732 285.251 97.1381C284.261 97.303 283.437 97.7977 282.447 97.6328C281.953 97.4679 281.623 97.303 281.128 97.303C280.799 97.303 280.304 97.303 279.974 97.303C279.479 97.303 278.655 97.4679 278.16 97.303C277.666 97.1381 278.325 96.8083 278.49 96.6435C278.655 96.4786 278.82 96.3137 278.985 95.9839C282.777 95.819 290.032 96.9732 290.032 96.9732C290.032 96.9732 288.054 96.8084 287.394 96.8084Z" fill="#D88225"/>
<path d="M261.176 179.914L244.028 151.388C243.863 151.058 243.698 150.893 243.368 150.563C246.666 146.606 247.325 142.319 241.225 138.856C238.092 137.042 235.783 137.042 234.134 137.372C232.65 137.702 232.155 139.515 233.145 140.505L238.916 144.627C239.74 145.451 238.421 147.595 237.432 148.255L235.453 149.409C234.959 149.739 234.299 149.739 233.64 149.409L230.671 146.771C230.012 146.441 229.352 146.441 228.858 146.936C227.868 147.595 227.703 148.914 228.528 149.739L231.166 154.191C231.496 154.521 231.991 154.85 232.485 154.85H236.113C236.443 154.85 236.608 154.85 236.937 154.685C237.102 154.85 237.102 155.18 237.267 155.345L254.416 184.036C255.57 186.015 258.043 186.509 260.022 185.355C261.671 184.366 262.331 181.893 261.176 179.914ZM258.538 183.706C257.879 184.036 256.889 183.871 256.559 183.212C256.23 182.552 256.395 181.563 257.054 181.233C257.714 180.903 258.703 181.068 259.033 181.728C259.527 182.387 259.363 183.212 258.538 183.706Z" fill="#AAB9C1"/>
<path d="M239.412 157.489L255.077 183.541C255.901 185.025 257.715 185.52 259.199 184.531C260.683 183.706 261.178 181.893 260.188 180.408L244.523 154.356C243.699 152.872 241.885 152.377 240.401 153.366C239.082 154.191 238.587 156.005 239.412 157.489ZM256.561 183.212C256.231 182.552 256.396 181.563 257.055 181.233C257.715 180.903 258.704 181.068 259.034 181.728C259.364 182.387 259.199 183.377 258.539 183.706C257.88 184.036 257.055 183.871 256.561 183.212Z" fill="#BFCDD6"/>
<path d="M242.38 156.334C242.709 156.169 243.039 156.169 243.204 156.499L256.725 179.089C256.89 179.419 256.725 179.749 256.56 179.914C256.231 180.079 255.901 180.079 255.736 179.749L242.215 157.159C242.05 156.829 242.05 156.499 242.38 156.334Z" fill="#AAB9C1"/>
<path d="M242.049 150.564L241.884 150.728L236.443 154.026C236.278 154.026 236.113 154.191 235.948 154.191H232.32C232.155 154.191 231.991 154.191 231.826 154.026L229.187 149.574C229.022 149.244 229.022 149.08 229.022 148.915C229.022 148.75 229.187 148.585 229.352 148.255C229.517 148.09 229.847 148.09 230.012 148.255L232.98 150.893H233.145C233.969 151.388 235.123 151.223 235.948 150.728L237.927 149.574C238.091 149.409 238.256 149.244 238.586 149.08C239.411 148.42 240.07 147.266 240.235 146.111C240.4 145.122 240.07 144.627 239.74 144.298L233.969 140.175C233.804 140.011 233.804 139.681 233.804 139.516V139.351C233.804 139.186 233.969 139.021 234.134 139.021C234.299 139.021 234.299 139.021 234.464 138.856C236.278 138.526 238.586 139.021 240.895 140.34C243.368 141.659 244.687 143.308 245.017 144.957C245.182 146.606 243.368 148.915 242.049 150.564Z" fill="#BFCDD6"/>
<path opacity="0.25" d="M238.421 148.749C239.245 148.089 239.905 146.935 240.069 145.781C240.234 144.791 239.905 144.297 239.575 143.967L233.804 139.844C233.639 139.68 233.639 139.35 233.639 139.185V139.02C234.958 139.68 240.894 142.483 241.224 144.791C241.553 146.935 239.245 148.254 238.421 148.749Z" fill="#2B3990"/>
<path d="M250.624 171.999C250.129 173.812 247.985 178.594 245.842 175.626C243.698 172.658 242.214 166.392 246.996 167.217C248.48 167.546 251.118 170.35 250.624 171.999Z" fill="#E9AA8E"/>
<path d="M247.492 167.711C247.492 167.711 245.184 168.866 245.184 169.36C245.184 169.855 247.492 168.041 247.492 167.711Z" fill="#D8977D"/>
<path d="M248.975 168.701C248.975 168.701 246.172 170.185 246.172 170.844C246.007 171.339 248.81 169.195 248.975 168.701Z" fill="#D8977D"/>
<path d="M249.635 170.185C249.635 170.185 246.832 171.669 246.832 172.329C246.667 172.823 249.47 170.515 249.635 170.185Z" fill="#D8977D"/>
<path d="M250.13 171.34C250.13 171.34 247.986 172.659 247.986 173.154C247.986 173.648 250.13 171.67 250.13 171.34Z" fill="#D8977D"/>
<path d="M83.2708 84.2649C83.4381 84.2649 84.275 87.947 84.9444 88.4491C85.6139 88.9512 86.116 89.2859 85.9486 89.6206C85.7813 89.9554 85.4465 89.9554 85.4465 90.2901C85.4465 90.6249 85.7813 91.7964 85.7813 91.7964C85.7813 91.7964 84.1076 97.3195 82.936 97.6542C81.5971 97.989 81.4297 97.8216 81.2623 98.8258C81.095 99.83 84.777 103.679 84.777 103.679C84.777 103.679 81.2624 106.023 76.074 104.851C70.8857 103.679 76.074 97.8216 76.4087 95.4785C76.7435 92.968 81.095 83.9302 83.2708 84.2649Z" fill="#FA95A8"/>
<path d="M80.2585 88.1138C80.2585 88.1138 82.4343 92.4653 83.4385 92.8001C84.4427 93.1348 85.7816 91.1264 85.7816 91.1264C85.7816 91.1264 88.1247 96.8168 84.7774 97.3189C81.4301 97.821 81.4301 97.8211 81.4301 97.8211C81.4301 97.8211 83.2711 95.1432 82.4343 94.139C81.4301 93.1348 79.7564 93.6369 79.7564 93.6369C79.7564 93.6369 79.9238 99.9968 76.4091 97.6537C72.8944 95.3105 65.5303 92.1306 69.8818 87.6117C74.2333 83.0928 75.2375 85.4359 77.9154 81.7539C80.5932 78.0718 78.2501 74.7245 82.4343 76.9002C86.6184 79.4107 88.7942 86.7749 80.2585 88.1138Z" fill="#202234"/>
<path d="M85.9477 93.8045C85.613 93.9718 85.1109 93.6371 85.1109 93.6371C84.9435 93.6371 84.9435 93.4697 85.1109 93.3024C85.1109 93.135 85.2782 93.135 85.4456 93.3024C85.6129 93.3024 85.7803 93.4697 85.9477 93.4697C86.1151 93.4697 86.115 93.3024 86.2824 92.9676C86.2824 92.8003 86.4498 92.8003 86.4498 92.8003C86.6172 92.8003 86.6172 92.9676 86.6172 92.9676C86.2824 93.4697 86.1151 93.8045 85.9477 93.8045Z" fill="white"/>
<path d="M82.7678 88.2813C82.7678 88.2813 84.2741 87.9465 84.2741 87.7792C84.4415 87.6118 83.9394 87.4444 83.2699 87.6118C82.7678 87.9465 82.6005 88.2813 82.7678 88.2813Z" fill="#202234"/>
<path d="M84.107 88.7835C84.107 88.9508 84.1069 89.2856 83.9396 89.2856C83.7722 89.2856 83.6049 89.2856 83.4375 88.9508C83.4375 88.7835 83.4375 88.4487 83.6049 88.4487H83.7722C83.7722 88.4487 83.6048 88.6161 83.7722 88.6161C83.7722 88.7835 83.9396 88.7835 84.107 88.7835C84.107 88.7835 84.107 88.6161 84.107 88.7835C84.107 88.6161 84.107 88.6161 84.107 88.7835Z" fill="#202234"/>
<path d="M47.4552 251.463C47.2878 251.965 45.9489 258.827 45.9489 258.827C45.9489 258.827 46.9531 263.011 46.6184 263.346C46.2836 263.681 43.4384 259.329 43.6057 257.656C43.7731 255.982 43.6057 250.961 43.6057 250.961L47.4552 251.463Z" fill="#FF97A6"/>
<path d="M42.601 258.994C42.601 258.994 43.2704 256.986 43.6051 257.32C43.9399 257.655 46.1157 262.676 46.7851 263.178C47.4546 263.68 47.9567 263.178 47.9567 263.848C47.9567 264.35 46.4504 265.019 45.9483 264.517C45.4462 264.015 42.0989 260.835 42.601 258.994Z" fill="#202234"/>
<path d="M43.4377 256.484C43.4377 256.484 46.283 256.149 46.7851 256.484C47.2872 256.818 46.4503 258.994 46.4503 258.994C46.4503 258.994 47.7892 263.848 47.1198 263.848C46.4503 263.848 43.9398 259.831 43.7724 258.827C43.4377 257.823 42.7682 259.664 42.7682 259.496C42.6009 259.329 43.4377 256.484 43.4377 256.484Z" fill="#202234"/>
<path d="M46.2834 264.518C46.116 264.685 45.4466 264.853 44.6098 264.351C43.7729 263.848 41.9319 260.166 42.434 259.497C42.9361 258.66 43.7729 260.501 43.7729 260.501C43.7729 260.501 46.116 263.681 46.2834 264.518Z" fill="#242650"/>
<path d="M43.103 254.643C43.103 254.643 45.6135 256.149 47.9566 254.308C47.9566 254.308 64.0238 213.973 67.2038 185.186C68.0406 177.821 68.0406 171.294 66.7017 166.273C65.3628 161.085 63.187 157.905 60.8439 156.399C56.8271 153.888 52.1408 155.394 47.9566 157.905C45.2788 159.579 42.9356 161.587 41.262 163.093C40.0904 164.265 39.2536 165.102 39.2536 165.102C39.2536 165.269 39.0862 165.938 38.9189 167.445C38.7515 169.286 38.4168 171.964 38.082 175.478C36.4084 193.554 34.2326 231.714 43.103 254.643Z" fill="#0F4C86"/>
<path d="M87.4539 256.651C87.2865 257.153 88.1234 264.183 88.1234 264.183C88.1234 264.183 90.1318 268.032 89.9644 268.367C89.797 268.702 85.7802 265.354 85.4455 263.848C85.1107 262.174 83.6045 257.321 83.6045 257.321L87.4539 256.651Z" fill="#FF97A6"/>
<path d="M84.7764 265.355C84.7764 265.355 84.7764 263.179 85.2785 263.514C85.7806 263.848 89.1279 267.865 89.7974 268.2C90.6342 268.535 90.969 267.865 91.1363 268.535C91.3037 269.037 90.1321 270.041 89.4627 269.706C88.9606 269.371 84.7764 267.196 84.7764 265.355Z" fill="#202234"/>
<path d="M84.7762 262.509C84.9436 262.509 87.6214 261.673 88.1235 262.342C88.4583 263.012 88.2909 263.848 88.2909 263.848C88.2909 263.848 90.2993 267.865 90.4667 268.367C90.8014 268.869 89.7972 269.371 89.7972 269.037C89.6298 268.869 86.2825 265.355 85.4457 265.02C84.4415 264.853 84.7762 262.509 84.7762 262.509Z" fill="#202234"/>
<path d="M89.9648 269.539C89.9648 269.707 89.2954 270.041 88.4586 269.874C87.6217 269.706 84.7765 266.694 85.1112 265.69C85.446 264.853 86.6175 266.192 86.6175 266.192C86.6175 266.192 89.4627 268.87 89.9648 269.539Z" fill="#242650"/>
<path d="M85.9481 169.788C97.1616 189.37 89.2954 258.827 88.1238 259.831C86.4501 261.17 83.7723 260.501 83.7723 260.501C83.7723 260.501 50.8011 187.027 54.6505 169.453C58.3326 151.88 82.0986 162.926 85.9481 169.788Z" fill="#0F4C86"/>
<path opacity="0.2" d="M37.9141 180.165C38.9183 185.353 44.274 189.538 49.1276 190.709C51.6381 191.211 53.9812 191.044 56.3244 190.04C58.3328 189.203 60.1738 188.366 62.517 188.533C64.0233 188.701 65.5296 189.37 66.8685 189.872C67.7053 190.207 68.5422 190.542 69.379 190.709C70.7179 190.876 71.8895 190.876 73.2284 190.542C74.5673 190.207 75.4042 189.538 76.4084 188.701C78.2494 187.194 80.0904 186.023 82.6009 186.358C84.2746 186.525 85.7809 187.529 86.7851 188.868C88.9609 191.546 89.463 195.228 90.1324 198.575C90.8019 202.592 91.4714 206.776 91.9735 210.793C91.9735 194.224 90.6345 177.822 86.1157 169.788C83.2704 164.767 69.2116 157.236 60.6759 161.253C59.337 161.922 57.998 162.926 56.9938 164.265C54.316 162.759 51.136 161.922 47.7887 162.759C45.4455 163.428 43.1024 165.102 41.094 167.947C40.4246 168.951 39.7551 169.956 39.253 171.295C39.0857 171.629 38.9183 171.964 38.7509 172.299C38.4162 173.972 38.2488 176.65 37.9141 180.165Z" fill="#1A2326"/>
<path d="M83.1031 101.503C75.9064 104.013 79.4211 102.841 74.2327 99.6615C72.8938 98.8247 65.697 97.9879 64.6928 98.6573C40.4247 115.394 37.4121 167.78 37.4121 167.78C37.4121 167.78 51.8056 189.37 88.1241 171.629C88.2915 171.796 99.1703 110.206 83.1031 101.503Z" fill="#FEAA32"/>
<path opacity="0.2" d="M44.2745 155.562C44.1071 148.198 44.9439 140.666 45.7808 133.302C45.9481 131.126 46.2829 128.951 46.6176 126.775C39.7556 146.357 38.584 166.943 38.584 166.943C38.584 166.943 41.4292 171.294 47.9565 174.474C45.7808 168.282 44.4419 161.755 44.2745 155.562Z" fill="white"/>
<path opacity="0.2" d="M88.2911 171.797C73.7302 178.826 62.684 179.663 54.6504 177.989C56.4914 177.32 58.1651 176.65 60.0061 175.981C62.8514 174.809 65.6966 173.47 68.5418 171.964C71.0523 170.625 73.5628 169.119 75.906 167.278C84.1069 160.248 95.1531 148.533 81.9312 128.784C80.4249 126.44 91.8058 129.286 91.8058 126.44C92.6426 146.859 88.2911 171.797 88.2911 171.797Z" fill="#1A2326"/>
<path d="M28.373 61.502C28.373 61.502 29.712 62.0041 29.712 62.5062C30.0467 63.343 29.7119 64.3472 29.3772 64.5146C29.3772 63.343 28.373 61.502 28.373 61.502Z" fill="#F28B9E"/>
<path d="M29.546 63.0085C29.546 62.8411 29.7134 62.6737 29.7134 62.5063C29.8808 63.3432 29.7134 64.18 29.3786 64.3474C29.3786 64.0127 29.2113 63.6779 29.0439 63.3432C29.3787 63.3432 29.546 63.1758 29.546 63.0085Z" fill="#FF97A6"/>
<path d="M26.3658 65.0168C26.1984 64.8494 26.0311 64.5147 25.8637 64.3473C25.8637 64.3473 25.8637 64.3473 25.6963 64.18L25.5289 64.0126C25.5289 64.0126 24.8595 63.0084 25.0269 62.6737C25.1942 62.3389 25.5289 62.5063 25.5289 62.5063C25.5289 62.5063 25.529 62.1716 25.6963 62.0042C26.0311 61.8368 26.1984 62.0042 26.1984 62.0042C26.1984 62.0042 26.1984 61.6694 26.3658 61.5021C26.7005 61.3347 27.0352 61.5021 27.0352 61.5021C27.0352 61.5021 27.0353 61 27.5374 61C28.0395 61 28.3742 61.8368 28.3742 61.8368C28.3742 62.0042 28.5415 62.1716 28.5415 62.1716C28.5415 62.1716 28.5415 62.1715 28.5415 62.3389C29.211 65.0168 32.391 68.5315 32.0562 69.0336C32.0562 69.0336 30.3826 70.7072 30.0479 70.3725C29.7131 69.8704 27.37 65.8536 27.37 65.8536C27.37 65.8536 27.0352 65.8536 26.3658 65.0168Z" fill="#FF97A6"/>
<path opacity="0.2" d="M25.8634 64.3473C25.696 64.18 25.696 64.0126 25.696 64.0126C25.696 64.0126 25.0265 63.0084 25.1939 62.6737C25.3612 62.3389 25.696 62.5063 25.696 62.5063C25.696 62.5063 25.696 62.1716 25.8634 62.0042C26.1981 61.8368 26.3654 62.0042 26.3654 62.0042C26.3654 62.0042 26.3654 61.6694 26.5328 61.5021C26.8675 61.3347 27.2023 61.5021 27.2023 61.5021C27.2023 61.5021 27.2023 61 27.7043 61C27.8717 61 28.0391 61.1674 28.2065 61.3347C28.0391 61.3347 27.7044 61.3347 27.537 61.5021C27.537 61.5021 27.3696 61.5021 27.3696 61.6695C27.3696 61.6695 27.3696 61.8368 27.2023 61.8368C27.2023 62.0042 27.0349 62.0042 26.8675 62.0042C26.7002 62.0042 26.5328 62.1716 26.3654 62.1716C26.1981 62.3389 26.1981 62.3389 26.1981 62.5063C26.1981 62.6737 26.0307 62.6736 25.8634 62.841C25.696 62.841 25.696 63.0084 25.5286 63.0084C25.3612 63.1758 25.3612 63.3431 25.3612 63.6778C25.3612 63.8452 25.5286 64.0126 25.5286 64.18C25.5286 64.3473 25.696 64.5147 25.696 64.6821C25.8633 65.0168 26.0307 65.3515 26.1981 65.5189L26.0307 65.3515C26.1981 64.8494 26.0307 64.6821 25.8634 64.3473Z" fill="white"/>
<path d="M74.2328 103.679C72.2244 98.9922 48.9604 95.8123 48.9604 95.8123L30.2154 65.3516L28.0396 66.6905C28.0396 66.6905 25.1944 80.2472 30.048 98.4901C36.0732 121.587 65.195 119.913 65.195 119.913C65.195 119.913 76.2412 108.365 74.2328 103.679Z" fill="#FEAA32"/>
<path d="M83.2697 99.494C83.2697 99.494 81.596 100.666 77.7466 100.163C74.0645 99.6613 74.2319 98.4897 74.2319 98.4897C74.2319 98.4897 72.5582 98.9919 71.7214 102.004C70.8846 105.017 78.5834 105.184 81.596 103.009C84.6086 100.833 84.6086 101.335 84.6086 101.335L83.2697 99.494Z" fill="#55358D"/>
<path d="M145.697 156.566C145.697 156.566 144.86 155.394 144.526 155.394C143.689 155.227 142.852 155.729 142.685 156.064C143.856 156.064 145.697 156.566 145.697 156.566Z" fill="#F28B9E"/>
<path d="M144.023 155.729C144.191 155.562 144.358 155.562 144.526 155.395C143.689 155.395 142.852 155.729 142.685 156.064C143.019 156.064 143.354 156.064 143.689 156.231C143.856 155.897 143.856 155.897 144.023 155.729Z" fill="#FF97A6"/>
<path d="M142.684 159.244C143.019 159.411 143.186 159.411 143.521 159.578C143.521 159.578 143.521 159.578 143.688 159.578C143.688 159.578 143.856 159.578 144.023 159.746C144.023 159.746 145.027 160.248 145.362 159.913C145.529 159.746 145.529 159.411 145.529 159.411C145.529 159.411 145.864 159.411 146.031 159.076C146.199 158.742 146.031 158.574 146.031 158.574C146.031 158.574 146.366 158.574 146.533 158.239C146.701 157.905 146.366 157.57 146.366 157.57C146.366 157.57 146.868 157.57 146.701 157.068C146.533 156.566 145.697 156.398 145.697 156.398C145.529 156.398 145.362 156.231 145.195 156.231C145.195 156.231 145.194 156.231 145.027 156.231C142.182 156.064 138.165 153.721 137.83 153.888C137.83 153.888 136.491 155.729 136.826 156.231C137.328 156.398 141.68 158.072 141.68 158.072C141.68 158.072 141.68 158.909 142.684 159.244Z" fill="#FF97A6"/>
<path opacity="0.2" d="M143.521 159.578C143.521 159.578 143.521 159.578 143.688 159.578C143.688 159.578 143.856 159.578 144.023 159.745C144.023 159.745 145.027 160.247 145.362 159.913C145.529 159.745 145.529 159.411 145.529 159.411C145.529 159.411 145.864 159.411 146.031 159.076C146.199 158.741 146.031 158.574 146.031 158.574C146.031 158.574 146.366 158.574 146.533 158.239C146.701 157.904 146.366 157.57 146.366 157.57C146.366 157.57 146.868 157.57 146.701 157.068C146.701 156.9 146.533 156.733 146.366 156.565C146.366 156.733 146.366 157.068 146.366 157.235C146.366 157.235 146.366 157.402 146.199 157.402C146.199 157.402 146.031 157.402 146.031 157.57C145.864 157.737 145.864 157.737 145.864 157.904C145.864 158.072 145.864 158.239 145.697 158.406C145.697 158.574 145.529 158.574 145.362 158.741C145.194 158.909 145.194 158.909 145.194 159.076C145.194 159.243 145.194 159.243 145.027 159.411C144.86 159.578 144.692 159.745 144.525 159.745C144.358 159.745 144.19 159.745 144.023 159.745C143.856 159.745 143.688 159.745 143.521 159.578C143.186 159.578 142.851 159.411 142.517 159.411L142.684 159.578C142.851 159.411 143.186 159.578 143.521 159.578Z" fill="white"/>
<path d="M84.9436 102.674C91.3035 108.699 114.065 135.813 114.065 135.813L141.179 154.893C141.179 154.893 139.84 154.725 139.338 157.738C136.827 158.742 111.555 156.566 101.848 147.528C92.3077 138.491 75.2363 121.419 75.2363 121.419C75.2363 121.419 80.4247 98.3227 84.9436 102.674Z" fill="#FEAA32"/>
</svg>
