<svg width="21" height="21" viewBox="0 0 21 21" fill="none" xmlns="http://www.w3.org/2000/svg">
<path d="M10.5 20.2222C16.0228 20.2222 20.5 15.745 20.5 10.2222C20.5 4.69933 16.0228 0.222168 10.5 0.222168C4.97717 0.222168 0.5 4.69933 0.5 10.2222C0.5 15.745 4.97717 20.2222 10.5 20.2222Z" fill="#2D9CDB"/>
<path d="M4.22483 10.7112C5.39382 10.0672 6.69874 9.52982 7.91799 8.98966C10.0156 8.10491 12.1215 7.23549 14.2487 6.42608C14.6625 6.28816 15.4062 6.15328 15.4791 6.76662C15.4392 7.63478 15.2749 8.49787 15.1622 9.36095C14.8763 11.2589 14.5458 13.1504 14.2235 15.0422C14.1124 15.6723 13.3231 15.9985 12.818 15.5953C11.6042 14.7754 10.381 13.9634 9.18265 13.1245C8.79011 12.7257 9.15411 12.1529 9.5047 11.868C10.5044 10.8828 11.5647 10.0457 12.5122 9.00953C12.7678 8.39233 12.0126 8.91249 11.7635 9.07187C10.3949 10.015 9.0597 11.0158 7.6167 11.8447C6.87961 12.2504 6.02053 11.9037 5.28378 11.6773C4.62319 11.4038 3.65518 11.1282 4.22476 10.7112L4.22483 10.7112Z" fill="white"/>
</svg>
