<svg width="21" height="21" viewBox="0 0 21 21" fill="none" xmlns="http://www.w3.org/2000/svg">
<path d="M0.5 10.2222C0.5 4.69932 4.97715 0.222168 10.5 0.222168C16.0228 0.222168 20.5 4.69932 20.5 10.2222C20.5 15.745 16.0228 20.2222 10.5 20.2222C4.97715 20.2222 0.5 15.745 0.5 10.2222Z" fill="#56CCF2"/>
<path d="M10.2005 8.35029L10.2215 8.69632L9.87175 8.65395C8.59869 8.49153 7.48652 7.94072 6.54222 7.01563L6.08057 6.55663L5.96166 6.89559C5.70984 7.65119 5.87072 8.44916 6.39533 8.98584C6.67512 9.28244 6.61217 9.32481 6.12953 9.14826C5.96166 9.09177 5.81477 9.0494 5.80078 9.07059C5.75181 9.12002 5.91969 9.76263 6.05259 10.0169C6.23445 10.3699 6.60518 10.716 7.01087 10.9207L7.35362 11.0832L6.94792 11.0902C6.55621 11.0902 6.54222 11.0973 6.58419 11.2456C6.72409 11.7046 7.27668 12.1918 7.89222 12.4037L8.3259 12.552L7.94818 12.778C7.38859 13.1028 6.73108 13.2864 6.07357 13.3005C5.75881 13.3076 5.5 13.3358 5.5 13.357C5.5 13.4276 6.35336 13.8231 6.84999 13.9785C8.33989 14.4375 10.1096 14.2397 11.4386 13.4559C12.3829 12.898 13.3272 11.7893 13.7678 10.716C14.0057 10.144 14.2435 9.09883 14.2435 8.59745C14.2435 8.27261 14.2645 8.23024 14.6562 7.84185C14.887 7.61588 15.1038 7.36872 15.1458 7.2981C15.2158 7.16393 15.2088 7.16393 14.852 7.28398C14.2575 7.49583 14.1735 7.46758 14.4673 7.14981C14.6842 6.92383 14.943 6.51426 14.943 6.39421C14.943 6.37302 14.838 6.40833 14.7191 6.47189C14.5932 6.5425 14.3134 6.64843 14.1036 6.71198L13.7259 6.83203L13.3831 6.599C13.1943 6.47189 12.9285 6.33065 12.7886 6.28828C12.4318 6.18942 11.8862 6.20354 11.5645 6.31653C10.6901 6.6343 10.1375 7.45346 10.2005 8.35029Z" fill="white"/>
</svg>
