<svg width="21" height="21" viewBox="0 0 21 21" fill="none" xmlns="http://www.w3.org/2000/svg">
<path d="M10.5 0.222168C16.0228 0.222168 20.5 4.69932 20.5 10.2222C20.5 15.745 16.0228 20.2222 10.5 20.2222C4.97715 20.2222 0.5 15.745 0.5 10.2222C0.5 4.69932 4.97715 0.222168 10.5 0.222168Z" fill="#9B51E0"/>
<path d="M13.1649 8.95487C13.1162 8.55974 12.9948 8.24949 12.7791 7.97467C12.499 7.62081 12.1411 7.40891 11.6113 7.28321C11.266 7.19942 11.1264 7.20904 11.0015 7.32312C10.8852 7.43 10.8625 7.64427 10.9514 7.78302C11.0139 7.88373 11.086 7.91981 11.2866 7.95918C11.5538 8.00833 11.7384 8.07212 11.9063 8.16814C12.2627 8.37394 12.4287 8.696 12.4465 9.2174C12.4548 9.46221 12.476 9.53747 12.5615 9.6243C12.7199 9.78302 13.002 9.75215 13.1216 9.56221C13.1655 9.49063 13.1722 9.45947 13.1769 9.29323C13.1799 9.19032 13.1755 9.03713 13.1649 8.95487Z" fill="white"/>
<path d="M14.5597 9.40022C14.4893 8.18965 14.0158 7.21569 13.1684 6.53043C12.691 6.14538 12.1138 5.88061 11.4812 5.75185C11.2495 5.7058 10.8229 5.66847 10.7497 5.68982C10.6806 5.70959 10.5829 5.78438 10.5394 5.85201C10.4933 5.92536 10.4829 6.08911 10.5222 6.18383C10.5856 6.34218 10.7036 6.39812 11.0339 6.42701C11.5431 6.47157 12.0683 6.65047 12.4651 6.91532C12.9182 7.21687 13.2783 7.62933 13.5113 8.114C13.7126 8.53044 13.8364 9.13057 13.833 9.66797C13.8318 9.86234 13.8618 9.97211 13.94 10.0524C14.058 10.1758 14.23 10.2027 14.3818 10.1208C14.55 10.0323 14.5893 9.87703 14.5597 9.40022Z" fill="white"/>
<path d="M16.1042 14.0623C16.0806 13.9931 16.0253 13.8864 15.9858 13.8251C15.7371 13.4495 14.401 12.4039 13.7339 12.0619C13.353 11.8663 13.0708 11.8011 12.8616 11.8623C12.6366 11.9256 12.5182 12.0303 12.1412 12.4988C11.9893 12.6866 11.8333 12.8625 11.7919 12.8901C11.6893 12.9613 11.4879 13.0186 11.3458 13.0186C11.0163 13.0166 10.4182 12.8032 9.95839 12.5225C9.60116 12.3051 9.14331 11.9157 8.79199 11.5302C8.37751 11.0776 8.09531 10.6783 7.87227 10.2277C7.58414 9.64852 7.51111 9.2947 7.63149 9.03575C7.6611 8.97053 7.70058 8.90137 7.71832 8.8796C7.73609 8.85986 7.92162 8.70764 8.12686 8.5416C8.5295 8.22141 8.59462 8.14827 8.66961 7.92887C8.76434 7.65015 8.7387 7.36552 8.59265 7.07893C8.48014 6.86149 8.18608 6.38711 7.97293 6.08074C7.69071 5.67753 6.98809 4.81573 6.84795 4.69907C6.59533 4.49353 6.27169 4.45793 5.91443 4.59632C5.5375 4.74259 4.83092 5.31184 4.52895 5.70915C4.25659 6.06888 4.15202 6.32385 4.13621 6.65988C4.12241 6.93659 4.14608 7.05124 4.29214 7.40507C5.43486 10.1802 7.14004 12.396 9.48275 14.1552C10.7064 15.0743 11.9754 15.774 13.2918 16.2524C14.0596 16.5311 14.3931 16.5449 14.7859 16.3156C14.9516 16.2168 15.3622 15.7958 15.5911 15.4894C15.97 14.9794 16.1102 14.7442 16.1496 14.5564C16.1773 14.428 16.1556 14.2046 16.1042 14.0623Z" fill="white"/>
<path d="M15.9821 9.67854C15.9568 8.99377 15.8415 8.4321 15.6011 7.80588C15.3638 7.18988 15.1236 6.78791 14.6699 6.24424C14.241 5.73448 13.9079 5.44342 13.3795 5.11942C12.6424 4.66801 11.7453 4.36928 10.74 4.24365C10.3971 4.19974 10.3196 4.20288 10.2144 4.27306C10.0106 4.40601 10.0133 4.73763 10.2177 4.86859C10.2854 4.91025 10.3455 4.92542 10.6197 4.96132C11.0407 5.018 11.3114 5.07141 11.6326 5.15905C12.8922 5.50338 13.8609 6.20719 14.5084 7.25196C15.0504 8.12279 15.2753 8.99369 15.2434 10.106C15.2323 10.482 15.2403 10.5482 15.2978 10.6385C15.4079 10.8069 15.6982 10.8402 15.8471 10.7005C15.9398 10.6153 15.9572 10.5514 15.9755 10.2295C15.9842 10.0617 15.9861 9.81382 15.9821 9.67854Z" fill="white"/>
</svg>
