<svg width="21" height="21" viewBox="0 0 21 21" fill="none" xmlns="http://www.w3.org/2000/svg">
<path fill-rule="evenodd" clip-rule="evenodd" d="M7.43013 0.222168H13.5699C19.1733 0.222168 20.5 1.54891 20.5 7.15229V13.292C20.5 18.8954 19.1733 20.2222 13.5699 20.2222H7.43013C1.82675 20.2222 0.5 18.8954 0.5 13.292V7.15229C0.5 1.54891 1.82675 0.222168 7.43013 0.222168Z" fill="#5971A9"/>
<path fill-rule="evenodd" clip-rule="evenodd" d="M16.8469 6.60612C16.9457 6.29562 16.8469 6.06979 16.4094 6.06979H14.9556C14.5886 6.06979 14.4192 6.26737 14.3205 6.47912C14.3205 6.47912 13.5724 8.28575 12.5279 9.45721C12.1892 9.79596 12.0339 9.90887 11.8505 9.90887C11.7516 9.90887 11.6246 9.79596 11.6246 9.48546V6.592C11.6246 6.22504 11.5117 6.05566 11.2012 6.05566H8.91466C8.68883 6.05566 8.5477 6.22504 8.5477 6.39441C8.5477 6.74729 9.06991 6.83196 9.12637 7.81996V9.96533C9.12637 10.4311 9.0417 10.5158 8.8582 10.5158C8.3642 10.5158 7.16449 8.69504 6.44466 6.62025C6.30349 6.21091 6.16237 6.05566 5.79541 6.05566H4.32749C3.90407 6.05566 3.8335 6.25329 3.8335 6.465C3.8335 6.84608 4.32749 8.76562 6.13412 11.3062C7.33387 13.0422 9.0417 13.9738 10.5802 13.9738C11.5117 13.9738 11.6246 13.7621 11.6246 13.4092V12.0966C11.6246 11.6732 11.7093 11.6026 12.0057 11.6026C12.2174 11.6026 12.5985 11.7155 13.4595 12.5482C14.4475 13.5362 14.6168 13.9879 15.1673 13.9879H16.6211C17.0445 13.9879 17.2421 13.7762 17.1292 13.3669C17.0022 12.9576 16.5223 12.3648 15.9012 11.659C15.5625 11.2639 15.0544 10.8263 14.8991 10.6146C14.6874 10.3323 14.7439 10.2194 14.8991 9.96533C14.885 9.96533 16.6634 7.453 16.8469 6.60612Z" fill="white"/>
</svg>
