<svg width="21" height="21" viewBox="0 0 21 21" fill="none" xmlns="http://www.w3.org/2000/svg">
<path d="M10.5 20.2222C16.0228 20.2222 20.5 15.745 20.5 10.2222C20.5 4.69932 16.0228 0.222168 10.5 0.222168C4.97715 0.222168 0.5 4.69932 0.5 10.2222C0.5 15.745 4.97715 20.2222 10.5 20.2222Z" fill="#6AC48A"/>
<path fill-rule="evenodd" clip-rule="evenodd" d="M10.8308 15.7856H10.8283C9.8331 15.7852 8.85522 15.5355 7.9867 15.0618L4.83447 15.8887L5.67806 12.8074C5.15769 11.9056 4.88388 10.8826 4.88433 9.83461C4.88563 6.55604 7.55315 3.88867 10.8307 3.88867C12.4214 3.88936 13.9144 4.50862 15.0371 5.63259C16.1597 6.75651 16.7777 8.25048 16.777 9.8393C16.7757 13.1171 14.1093 15.7842 10.8308 15.7856ZM8.13382 13.9853L8.31429 14.0924C9.07312 14.5427 9.94296 14.781 10.8298 14.7813H10.8318C13.5559 14.7813 15.773 12.5642 15.7741 9.83898C15.7746 8.51836 15.261 7.27664 14.3279 6.34244C13.3948 5.40823 12.1539 4.8935 10.8338 4.89304C8.10759 4.89304 5.89045 7.10999 5.88937 9.83497C5.88898 10.7688 6.15028 11.6783 6.64502 12.4652L6.76253 12.6522L6.26324 14.476L8.13382 13.9853ZM13.6223 11.1195C13.726 11.1696 13.7959 11.2034 13.8258 11.2533C13.8629 11.3152 13.8629 11.6127 13.7392 11.9598C13.6153 12.3069 13.0218 12.6236 12.7363 12.6663C12.4803 12.7045 12.1564 12.7205 11.8005 12.6074C11.5847 12.5389 11.3079 12.4475 10.9535 12.2944C9.56056 11.693 8.61926 10.343 8.44135 10.0878C8.42889 10.0699 8.42017 10.0574 8.41531 10.0509L8.41411 10.0493C8.33547 9.94443 7.80862 9.24148 7.80862 8.51396C7.80862 7.82957 8.14481 7.47085 8.29955 7.30573C8.31015 7.29441 8.3199 7.28401 8.32864 7.27447C8.46482 7.12572 8.6258 7.08854 8.72484 7.08854C8.82388 7.08854 8.92304 7.08945 9.00961 7.0938C9.02029 7.09434 9.0314 7.09427 9.04289 7.0942C9.12947 7.0937 9.23741 7.09306 9.3439 7.34885C9.38487 7.44729 9.44481 7.59323 9.50804 7.74715C9.63589 8.0584 9.77714 8.40229 9.80199 8.45206C9.83915 8.52643 9.8639 8.61316 9.81438 8.71237C9.80695 8.72724 9.80007 8.74128 9.7935 8.75469C9.7563 8.83063 9.72894 8.8865 9.66581 8.96021C9.64098 8.9892 9.61532 9.02044 9.58967 9.05169C9.53855 9.11394 9.48744 9.17618 9.44293 9.22052C9.36855 9.29461 9.29112 9.37499 9.37779 9.52374C9.46446 9.67249 9.76265 10.159 10.2043 10.553C10.6791 10.9765 11.0918 11.1555 11.301 11.2462C11.3418 11.264 11.3749 11.2783 11.3992 11.2905C11.5477 11.3649 11.6344 11.3524 11.7211 11.2533C11.8077 11.1541 12.0925 10.8194 12.1915 10.6707C12.2905 10.522 12.3896 10.5468 12.5258 10.5963C12.662 10.646 13.3925 11.0054 13.5411 11.0797C13.5701 11.0942 13.5972 11.1073 13.6223 11.1195Z" fill="#FDFDFD"/>
</svg>
